<svg width="624" height="376" viewBox="0 0 624 376" fill="none" xmlns="http://www.w3.org/2000/svg">
<g clip-path="url(#clip0)">
<path d="M32.1428 224.545C-49.2846 267.464 43.0205 299.653 99.3514 310.383C628.085 454.468 696.848 284.069 570.589 274.617C469.582 267.055 497.941 238.085 524.747 224.545C545.337 214.241 538.111 179.326 344.488 122.101C150.865 64.8756 108.934 105.07 112.172 132.32C119.423 145.179 113.57 181.626 32.1428 224.545Z" fill="#D3D8DF"/>
<path d="M445.146 338.857C445.146 338.857 417.213 327.231 401.654 324.209C394.456 322.791 384.975 314.85 375.959 305.515C373.051 302.446 370.143 299.214 367.235 296.017C367.235 296.017 319.06 233.601 345.263 219.964C345.263 219.964 356.503 219.766 362.712 222.44C368.921 225.114 382.561 247.737 384.844 251.736C387.127 255.735 411.963 292.809 413.621 293.646C415.279 294.483 418.056 297.529 427.988 301.783C440.144 307.015 459.251 322.337 459.251 322.337L445.146 338.857Z" fill="#09254F"/>
<path d="M445.146 338.857C445.146 338.857 417.213 327.231 401.654 324.209C394.456 322.79 384.975 314.85 375.959 305.515C373.051 302.446 370.143 299.214 367.235 296.017C367.235 296.017 319.06 233.601 345.263 219.964C345.263 219.964 356.503 219.766 362.712 222.44C368.921 225.114 382.561 247.737 384.844 251.736C387.127 255.735 411.963 292.809 413.621 293.646C415.279 294.483 418.056 297.529 427.988 301.783C440.144 307.015 459.251 322.337 459.251 322.337L445.146 338.857Z" fill="url(#paint0_linear)"/>
<path d="M359.47 256.7C360.614 244.563 361.399 233.225 361.825 222.684C358.161 221.138 353.77 219.325 350.192 218.034C339.301 213.884 324.106 208.292 314.363 204.723C308.663 202.631 303.079 201.096 303.079 201.096C303.079 201.096 264.123 198.108 260.91 198.271C256.737 199.173 252.642 200.291 248.651 201.619C234.852 205.816 208.212 214.337 203.981 216.732C197.757 220.29 175.509 307.41 174.898 313.397C174.317 319.14 205.159 327.011 233.703 333.044C233.703 341.879 233.456 354.26 233.209 365.595C233.209 367.525 233.121 369.42 233.078 371.257H358.03C357.856 369.315 357.71 367.397 357.594 365.595V364.874C357.114 357.225 355.253 343.507 355.733 330.149C355.733 330.149 355.427 316.083 357.187 310.014C357.448 283.195 359.47 256.7 359.47 256.7ZM201.043 307.957C201.233 296.61 220.136 275.487 220.136 275.487C220.426 275.386 220.722 275.296 221.023 275.219C221.023 275.219 221.997 275.115 221.997 275.126C221.997 275.138 224.906 272.906 224.906 272.906C225.589 274.917 231.856 303.434 233.398 320.035C215.774 317.245 200.942 313.362 201.043 307.957Z" fill="white"/>
<path d="M359.47 256.7C360.614 244.563 361.399 233.225 361.825 222.684C358.161 221.138 353.77 219.325 350.192 218.034C339.301 213.884 324.106 208.292 314.363 204.723C308.663 202.631 303.079 201.096 303.079 201.096C303.079 201.096 264.123 198.108 260.91 198.271C256.737 199.173 252.642 200.291 248.651 201.619C234.852 205.816 208.212 214.337 203.981 216.732C197.757 220.29 175.509 307.41 174.898 313.397C174.317 319.14 205.159 327.011 233.703 333.044C233.703 341.879 233.456 354.26 233.209 365.595C233.209 367.525 233.121 369.42 233.078 371.257H358.03C357.856 369.315 357.71 367.397 357.594 365.595V364.874C357.114 357.225 355.253 343.507 355.733 330.149C355.733 330.149 355.427 316.083 357.187 310.014C357.448 283.195 359.47 256.7 359.47 256.7ZM201.043 307.957C201.233 296.61 220.136 275.487 220.136 275.487C220.426 275.386 220.722 275.296 221.023 275.219C221.023 275.219 221.997 275.115 221.997 275.126C221.997 275.138 224.906 272.906 224.906 272.906C225.589 274.917 231.856 303.434 233.398 320.035C215.774 317.245 200.942 313.362 201.043 307.957Z" fill="url(#paint1_linear)"/>
<path d="M361.782 365.525C360.967 360.794 360.182 356.062 359.484 351.436C359.484 351.436 359.484 351.436 359.484 351.377C359.266 349.831 359.033 348.308 358.815 346.797C358.815 346.727 358.815 346.646 358.815 346.553C357.899 340.182 357.143 334.067 356.591 328.475C356.251 324.275 356.485 320.057 357.289 315.897C359.47 287.275 360.546 257.096 360.546 257.096C361.695 244.749 362.349 233.194 362.785 222.44C362.785 222.44 313.883 203.956 309.448 202.898C309.448 202.898 318.725 220.336 325.676 259.246C328.352 274.196 333.296 299.354 336.902 325.046C338.85 338.903 342.5 353.028 345.263 365.525C345.699 367.455 346.092 369.339 346.47 371.187H362.843C362.451 369.304 362.116 367.409 361.782 365.525Z" fill="#09254F"/>
<path d="M280.366 319.547C282.285 305.074 284.03 290.635 283.187 282.718C276.44 219.092 257.362 202.259 254.599 199.794C252.447 200.445 244.304 202.886 241.919 203.642C228.832 207.757 202.265 215.267 198.673 217.36C192.464 220.917 167.948 312.316 167.206 318.222C166.712 322.221 198.702 330.568 231.347 337.985C231.042 345.146 231.885 355.237 228.919 365.77C228.166 367.559 227.678 369.412 227.465 371.292L272.964 371.152C273.241 369.269 273.531 367.386 273.808 365.491C274.68 359.806 275.582 353.982 276.483 347.785C290.123 350.61 299.4 352.435 299.4 352.435C299.4 352.435 312.225 335.114 315.948 328.092C316.617 326.929 300.113 323.825 280.366 319.547ZM216.297 298.389C216.035 290.589 217.69 282.824 221.169 275.533C222.783 279.998 225.022 292.751 226.985 305.422C220.369 302.76 216.384 301.016 216.297 298.389V298.389Z" fill="#09254F"/>
<path d="M258.961 199.178C258.961 199.178 263.92 191.691 262.553 170.44C262.175 164.557 301.218 184.39 301.218 184.39C301.218 184.39 301.087 186.425 301 189.157C301 190.319 300.927 191.552 300.927 192.83C300.927 193.191 300.927 193.539 300.927 193.888C300.927 194.47 300.927 195.051 300.927 195.62C300.927 196.19 300.927 197.039 301.014 197.713C301.101 198.387 301.13 199.201 301.218 199.864C301.513 201.293 302.001 202.692 302.672 204.037C304.475 207.35 273.589 207.571 258.961 199.178Z" fill="#E4AA8B"/>
<path d="M291.708 212.687L297.103 218.499C298.382 219.871 299.269 220.731 299.138 222.568C298.976 224.632 297.838 226.569 295.954 227.986C295.724 228.198 295.434 228.364 295.107 228.469C294.781 228.575 294.428 228.616 294.078 228.59C293.657 228.472 293.284 228.262 293.002 227.986C290.866 226.475 289.07 224.682 287.694 222.684C286.924 221.336 287.883 220.243 288.552 218.918L291.708 212.687Z" fill="#18202D"/>
<path d="M296.361 221.406C298.717 222.649 299.778 227.8 301.029 229.892C303.937 234.798 307.543 239.437 310.03 244.517C313.185 250.969 314.392 257.898 315.468 264.768C317.155 276.084 318.25 287.438 318.754 298.831C319.132 307.282 319.176 315.769 320.776 324.128C321.779 329.382 323.364 334.893 320.979 339.845C319.162 343.623 315.279 346.483 311.426 349.145C308.401 347.018 305.275 344.763 303.777 341.775C302.986 340.034 302.497 338.216 302.323 336.369L299.182 314.176C298.033 305.969 296.87 297.773 295.983 289.542C295.343 283.729 294.849 277.917 294.863 272.104C294.863 267.035 295.285 261.967 294.674 256.921C294.034 251.585 292.246 246.365 291.402 241.041C290.632 236.205 287.971 225.986 292.929 222.068C294.369 221.022 295.459 220.917 296.361 221.406Z" fill="#18202D"/>
<path d="M299.415 205.479L291.708 212.687C291.708 212.687 279.333 210.768 275.712 205.607C272.092 200.445 299.415 205.479 299.415 205.479Z" fill="#E4AA8B"/>
<path d="M301.174 199.178C301.174 199.178 300.287 204.665 291.708 212.686L307.063 226.637L306.133 201.933L301.174 199.178Z" fill="white"/>
<path d="M261.317 192.563C261.317 192.563 279.202 208.734 291.708 212.687L282.809 229.206L257.347 198.98L261.317 192.563Z" fill="white"/>
<path d="M301.174 199.178C301.174 199.178 300.287 204.665 291.708 212.686L307.063 226.637L306.133 201.933L301.174 199.178Z" fill="url(#paint2_linear)"/>
<path d="M261.317 192.563C261.317 192.563 279.202 208.734 291.708 212.687L282.809 229.206L257.347 198.98L261.317 192.563Z" fill="url(#paint3_linear)"/>
<path d="M331.216 360.155C329.599 360.12 327.999 359.881 326.476 359.446C326.476 359.446 324.004 358.167 322.113 357.353C321.644 357.133 321.158 356.935 320.659 356.76C317.814 356.103 315.122 355.078 312.691 353.726C309.564 351.831 299.386 344.216 299.386 344.216L305.973 336.079L308.997 328.069C308.997 328.069 332.728 329.964 335.898 331.463C336.194 331.606 336.481 331.761 336.756 331.928C339.286 333.405 340.392 335.416 341.599 336.253C342.049 336.59 346.179 340.124 345.961 341.554C345.902 342.359 345.587 343.138 345.045 343.818C344.503 344.498 343.752 345.055 342.864 345.437C342.864 345.437 342.035 349.308 339.519 351.04C339.305 352.102 338.787 353.11 338.005 353.986C337.223 354.861 336.198 355.58 335.011 356.086C335.011 356.086 333.906 359.725 331.216 360.155Z" fill="#E5AB8C"/>
<path d="M293.438 115.626C293.438 115.626 336.32 107.372 327.29 150.77C318.26 194.167 307.965 197.69 281.849 189.04C255.733 180.391 257.551 152.63 255.995 139.051C254.439 125.473 279.755 116.265 293.438 115.626Z" fill="#E4A98A"/>
<path d="M270.914 145.689C270.274 141.876 260.808 140.586 260.153 146.317C259.499 152.048 264.734 162.046 268.296 161.012C271.859 159.977 271.786 150.944 270.914 145.689Z" fill="#E4A98A"/>
<path d="M317.155 328.127L299.444 352.47C299.444 352.47 252.548 342.798 241.599 340.333L266.668 316.536C266.668 316.536 303.501 323.267 317.155 328.127Z" fill="#09254F"/>
<path d="M301.058 197.725C294.51 197.295 288.186 195.615 282.619 192.825C277.052 190.035 272.405 186.218 269.067 181.693C277.526 188.48 288.879 192.462 300.854 192.842C300.854 193.202 300.854 193.551 300.854 193.9C300.854 194.481 300.854 195.062 300.854 195.632C300.854 196.202 301.014 197.108 301.058 197.725Z" fill="#A07A64"/>
<path d="M276.978 375.884H498.44C504.648 375.884 509.68 371.86 509.68 366.897V366.886C509.68 361.923 504.648 357.899 498.44 357.899H276.978C270.77 357.899 265.737 361.923 265.737 366.886V366.897C265.737 371.86 270.77 375.884 276.978 375.884Z" fill="#09254F"/>
<path d="M276.978 375.884H498.44C504.648 375.884 509.68 371.86 509.68 366.897V366.886C509.68 361.923 504.648 357.899 498.44 357.899H276.978C270.77 357.899 265.737 361.923 265.737 366.886V366.897C265.737 371.86 270.77 375.884 276.978 375.884Z" fill="url(#paint4_linear)"/>
<path d="M362.64 358.701L366.348 368.246L523.712 375.895L568.543 285.008C569.14 283.797 569.358 282.488 569.178 281.194C568.997 279.9 568.424 278.661 567.508 277.585C566.592 276.509 565.361 275.628 563.922 275.019C562.483 274.41 560.879 274.092 559.251 274.092H425.879C419.423 274.093 413.117 275.646 407.778 278.548C402.439 281.45 398.314 285.568 395.939 290.367L362.64 358.701Z" fill="#09254F"/>
<path d="M362.64 358.701L366.348 368.246L523.712 375.895L568.543 285.008C569.14 283.797 569.358 282.488 569.178 281.194C568.997 279.9 568.424 278.661 567.508 277.585C566.592 276.509 565.361 275.628 563.922 275.019C562.483 274.41 560.879 274.092 559.251 274.092H425.879C419.423 274.093 413.117 275.646 407.778 278.548C402.439 281.45 398.314 285.568 395.939 290.367L362.64 358.701Z" fill="url(#paint5_linear)"/>
<path d="M362.407 376H523.814L566.391 289.67C566.956 288.519 567.162 287.276 566.991 286.047C566.819 284.819 566.274 283.643 565.404 282.621C564.534 281.599 563.365 280.762 561.999 280.183C560.633 279.605 559.11 279.301 557.564 279.3H430.896C424.763 279.297 418.772 280.77 413.701 283.528C408.631 286.286 404.717 290.2 402.468 294.762L362.407 376Z" fill="#09254F"/>
<path d="M362.407 376H523.814L566.391 289.67C566.956 288.519 567.162 287.276 566.991 286.047C566.819 284.819 566.274 283.643 565.404 282.621C564.534 281.599 563.365 280.762 561.999 280.183C560.633 279.605 559.11 279.301 557.564 279.3H430.896C424.763 279.297 418.772 280.77 413.701 283.528C408.631 286.286 404.717 290.2 402.468 294.762L362.407 376Z" fill="url(#paint6_linear)"/>
<path d="M148.695 210.826V250.202C148.695 251.2 148.449 252.189 147.971 253.111C147.493 254.034 146.793 254.872 145.91 255.578C145.027 256.284 143.978 256.844 142.825 257.226C141.671 257.608 140.434 257.805 139.185 257.805H59.2088C56.6878 257.802 54.2712 257 52.4885 255.574C50.7059 254.149 49.7027 252.217 49.6989 250.202V210.826C49.7051 210.402 49.7489 209.979 49.8298 209.559L106.424 239.995L148.419 209.187C148.585 209.724 148.678 210.274 148.695 210.826Z" fill="white"/>
<path d="M275.393 150.735C274.258 148.41 272.804 145.899 269.881 145.108C266.057 144.085 261.913 147.131 261.724 150.363C261.535 153.595 264.225 156.536 267.453 158.501C265.555 163.69 263.123 168.745 260.183 173.614C256.57 164.592 254.692 155.185 254.613 145.713C253.159 145.375 252.388 144.004 252.069 142.783C250.033 135.052 255.064 127.321 260.546 120.695C262.757 117.735 265.625 115.123 269.009 112.987C276.585 108.686 286.662 109.221 295.91 108.558C303.53 108.011 311.484 106.57 318.58 108.837C323.639 110.651 327.752 113.816 330.213 117.788C332.654 121.741 334.336 125.966 335.2 130.321C336.44 134.688 336.895 139.174 336.553 143.643C336.18 148.143 334.015 152.429 330.373 155.873C329.355 156.768 326.708 157.826 325.487 157.117C326.665 153.339 327.217 149.454 327.13 145.562C326.985 142.213 326.956 140.202 324.222 137.679C323.688 137.121 323.019 136.654 322.254 136.307C321.49 135.959 320.646 135.738 319.772 135.657C318.1 135.657 316.53 136.389 314.872 136.436C311.862 136.54 309.564 134.436 306.932 133.262C305.296 132.567 303.479 132.186 301.627 132.15C299.774 132.114 297.937 132.423 296.259 133.053C294.576 133.69 293.068 134.587 291.82 135.693C290.572 136.798 289.61 138.09 288.989 139.493C288.232 141.179 287.534 143.329 285.324 143.713C282.416 144.201 280.264 140.83 277.748 142.167C275.509 143.411 275.625 148.851 275.393 150.735Z" fill="#18202D"/>
<path d="M226.985 305.422L260.43 314.188C260.43 314.188 249.524 261.455 246.805 259.269C244.085 257.084 211.906 229.206 211.906 229.206C211.906 229.206 228.744 256.491 221.139 275.533" fill="url(#paint7_linear)"/>
<path d="M299.444 352.47L307.383 340.775C307.383 340.775 185.092 311.037 183.463 309.073C181.835 307.108 185.499 257.095 185.499 257.095L167.206 318.222C167.206 318.222 205.697 336.044 299.444 352.47Z" fill="url(#paint8_linear)"/>
<path d="M261.142 345.344V371.175L227.509 371.327C227.509 371.327 232.22 352.924 231.347 338.02L261.142 345.344Z" fill="url(#paint9_linear)"/>
<path d="M147.43 204.828L105.435 235.635L48.7973 205.246C49.1778 203.477 50.3274 201.873 52.0434 200.716C53.7595 199.559 55.9315 198.923 58.1764 198.922H138.153C140.308 198.919 142.401 199.501 144.087 200.575C145.772 201.648 146.952 203.148 147.43 204.828V204.828Z" fill="white"/>
<path d="M184.691 143.966C202.294 143.966 216.565 132.557 216.565 118.483C216.565 104.409 202.294 93 184.691 93C167.087 93 152.816 104.409 152.816 118.483C152.816 132.557 167.087 143.966 184.691 143.966Z" fill="white"/>
<path d="M171.894 156.265L163.213 137.014H206.575L199.697 155.765L171.894 156.265Z" fill="white"/>
<path d="M173.261 159.904H197.792V161.508C197.792 162.214 197.618 162.912 197.281 163.564C196.943 164.215 196.448 164.807 195.825 165.306C195.201 165.805 194.46 166.201 193.645 166.47C192.83 166.74 191.956 166.879 191.074 166.879H179.979C179.097 166.879 178.223 166.74 177.408 166.47C176.593 166.201 175.853 165.805 175.229 165.306C174.605 164.807 174.11 164.215 173.773 163.564C173.435 162.912 173.261 162.214 173.261 161.508V159.904Z" fill="white"/>
<g opacity="0.42">
<path opacity="0.42" d="M178.467 156.661C176.173 152.6 174.889 148.221 174.686 143.768C174.458 139.201 176.425 134.738 180.183 131.294C180.669 130.793 181.276 130.374 181.968 130.062C182.66 129.751 183.422 129.553 184.211 129.48C185.181 129.506 186.123 129.747 186.932 130.176C187.741 130.605 188.385 131.205 188.791 131.91C189.699 131.456 190.761 131.237 191.83 131.282C194.608 131.445 196.483 133.549 197.123 135.572C197.614 137.485 197.683 139.453 197.327 141.385C196.618 146.536 195.179 151.606 193.037 156.498L191.67 156.114C193.779 151.295 195.189 146.298 195.873 141.222C196.235 139.404 196.181 137.549 195.713 135.747C195.204 134.131 193.779 132.457 191.729 132.34C190.911 132.305 190.102 132.489 189.431 132.863C189.518 133.038 189.591 133.201 189.664 133.375C190.521 135.526 190.74 137.806 190.303 140.036C190.172 141.134 189.577 142.163 188.617 142.954C188.283 143.192 187.89 143.372 187.465 143.482C187.039 143.592 186.59 143.63 186.145 143.594C185.798 143.573 185.46 143.495 185.152 143.365C184.844 143.235 184.573 143.056 184.356 142.838C183.961 142.37 183.744 141.821 183.731 141.257C183.442 138.651 184.295 136.045 186.145 133.886C186.561 133.386 187.049 132.925 187.599 132.515C187.324 131.97 186.866 131.496 186.276 131.145C185.686 130.794 184.987 130.58 184.254 130.527C183.043 130.676 181.952 131.197 181.215 131.98C177.753 135.207 175.931 139.356 176.111 143.605C176.314 147.91 177.558 152.142 179.776 156.068L178.467 156.661ZM188.253 133.759C187.919 134.03 187.617 134.326 187.352 134.642C185.701 136.583 184.931 138.918 185.17 141.257C185.178 141.601 185.298 141.938 185.519 142.234C185.61 142.326 185.724 142.403 185.854 142.457C185.985 142.511 186.129 142.542 186.276 142.547C186.536 142.575 186.801 142.557 187.052 142.495C187.303 142.433 187.534 142.328 187.73 142.187C188.434 141.573 188.86 140.786 188.937 139.955C189.341 137.904 189.142 135.807 188.355 133.828C188.355 133.828 188.268 133.793 188.253 133.77V133.759Z" fill="#09254F"/>
</g>
<path d="M475.843 133.541H371.902C367.413 133.541 363.774 136.45 363.774 140.039V194.377C363.774 197.966 367.413 200.875 371.902 200.875H475.843C480.332 200.875 483.971 197.966 483.971 194.377V140.039C483.971 136.45 480.332 133.541 475.843 133.541Z" fill="white"/>
<path opacity="0.42" d="M392.944 151.409H368.951V169.056H392.944V151.409Z" fill="#09254F"/>
<path opacity="0.42" d="M421.837 151.409H397.844V169.056H421.837V151.409Z" fill="#09254F"/>
<path opacity="0.42" d="M392.944 172.765H368.951V190.412H392.944V172.765Z" fill="#09254F"/>
<path opacity="0.42" d="M421.837 172.765H397.844V190.412H421.837V172.765Z" fill="#09254F"/>
<path opacity="0.42" d="M449.64 151.409H425.647V169.056H449.64V151.409Z" fill="#09254F"/>
<path opacity="0.42" d="M478.518 151.409H454.525V169.056H478.518V151.409Z" fill="#09254F"/>
<path opacity="0.42" d="M449.64 172.765H425.647V190.412H449.64V172.765Z" fill="#09254F"/>
<path opacity="0.42" d="M478.518 172.765H454.525V190.412H478.518V172.765Z" fill="#09254F"/>
</g>
<defs>
<linearGradient id="paint0_linear" x1="350.92" y1="310.119" x2="391.062" y2="266.494" gradientUnits="userSpaceOnUse">
<stop offset="0.01"/>
<stop offset="0.83" stop-opacity="0.07"/>
<stop offset="1" stop-opacity="0"/>
</linearGradient>
<linearGradient id="paint1_linear" x1="16875.7" y1="43863.2" x2="42769.3" y2="47487.2" gradientUnits="userSpaceOnUse">
<stop offset="0.01"/>
<stop offset="0.83" stop-opacity="0.07"/>
<stop offset="1" stop-opacity="0"/>
</linearGradient>
<linearGradient id="paint2_linear" x1="3174.84" y1="4644.82" x2="3816.35" y2="5406.26" gradientUnits="userSpaceOnUse">
<stop offset="0.01"/>
<stop offset="0.83" stop-opacity="0.07"/>
<stop offset="1" stop-opacity="0"/>
</linearGradient>
<linearGradient id="paint3_linear" x1="6253.65" y1="6353.75" x2="6950.24" y2="7740.95" gradientUnits="userSpaceOnUse">
<stop offset="0.01"/>
<stop offset="0.83" stop-opacity="0.07"/>
<stop offset="1" stop-opacity="0"/>
</linearGradient>
<linearGradient id="paint4_linear" x1="387.229" y1="384.347" x2="387.889" y2="346.825" gradientUnits="userSpaceOnUse">
<stop offset="0.01"/>
<stop offset="0.12" stop-opacity="0.75"/>
<stop offset="1" stop-opacity="0"/>
</linearGradient>
<linearGradient id="paint5_linear" x1="62795" y1="24378.1" x2="64677.3" y2="37240.4" gradientUnits="userSpaceOnUse">
<stop offset="0.01"/>
<stop offset="0.12" stop-opacity="0.75"/>
<stop offset="1" stop-opacity="0"/>
</linearGradient>
<linearGradient id="paint6_linear" x1="64953.7" y1="35960.6" x2="65172.8" y2="24217.7" gradientUnits="userSpaceOnUse">
<stop offset="0.01"/>
<stop offset="0.12" stop-opacity="0.75"/>
<stop offset="1" stop-opacity="0"/>
</linearGradient>
<linearGradient id="paint7_linear" x1="6210.44" y1="24364.9" x2="9788.44" y2="22626" gradientUnits="userSpaceOnUse">
<stop offset="0.01"/>
<stop offset="0.83" stop-opacity="0.07"/>
<stop offset="1" stop-opacity="0"/>
</linearGradient>
<linearGradient id="paint8_linear" x1="18073.4" y1="34547.2" x2="21076" y2="25362.5" gradientUnits="userSpaceOnUse">
<stop offset="0.01"/>
<stop offset="0.83" stop-opacity="0.07"/>
<stop offset="1" stop-opacity="0"/>
</linearGradient>
<linearGradient id="paint9_linear" x1="5952.31" y1="9604.26" x2="5748.47" y2="13032.1" gradientUnits="userSpaceOnUse">
<stop offset="0.01"/>
<stop offset="0.83" stop-opacity="0.07"/>
<stop offset="1" stop-opacity="0"/>
</linearGradient>
<clipPath id="clip0">
<rect width="624" height="376" fill="white"/>
</clipPath>
</defs>
</svg>
