<svg width="230" height="179" viewBox="0 0 230 179" fill="none" xmlns="http://www.w3.org/2000/svg">
<path opacity="0.18" d="M132.979 2.25406C119.126 7.03223 108.534 18.4643 95.9001 26.0677C80.7696 35.13 62.8059 38.511 48.2436 48.5074C33.0235 58.9514 22.8269 75.9027 17.2202 93.8575C12.4135 109.296 10.7614 126.185 15.172 141.716C19.5825 157.247 30.6762 171.273 45.5824 176.406C60.8997 181.679 77.5327 177.271 93.6649 176.576C115.725 175.619 138.077 181.717 159.733 177.279C177.943 173.459 194.025 162.535 204.631 146.78C207.396 142.85 209.466 138.447 210.746 133.773C212.137 128.146 211.845 122.249 212.062 116.444C212.578 102.302 216.166 88.4464 217.145 74.328C217.893 63.6292 216.996 52.1663 212.197 42.471C206.672 31.2936 196.722 26.8319 187.46 19.6762C171.223 7.10943 154.545 -5.1795 132.979 2.25406Z" fill="#09254F"/>
<path d="M196.468 92.3831C196.025 92.2632 195.61 92.0524 195.248 91.7633C194.886 91.4741 194.584 91.1127 194.36 90.7004C194.024 90.0905 193.717 89.4576 193.373 88.8555C193.079 88.2564 192.609 87.7684 192.031 87.4607C191.452 87.1531 190.795 87.0415 190.151 87.1418C189.504 87.1977 188.889 87.4592 188.391 87.8904C187.893 88.3216 187.536 88.9014 187.37 89.5502C187.146 90.2681 186.974 90.9937 186.743 91.7039C186.607 92.1489 186.388 92.5619 186.098 92.9193C185.808 93.2767 185.452 93.5715 185.052 93.7866C184.651 94.0018 184.213 94.1331 183.763 94.1731C183.313 94.2131 182.86 94.1609 182.429 94.0196C181.128 93.6414 179.82 93.2477 178.519 92.8386C178.072 92.7125 177.654 92.4953 177.289 92.1997C176.924 91.9042 176.62 91.5363 176.395 91.1176C176.17 90.699 176.029 90.2381 175.979 89.7621C175.929 89.2862 175.972 88.8047 176.105 88.346C176.292 87.6281 176.531 86.918 176.71 86.1924C176.889 85.5584 176.874 84.8829 176.666 84.2583C176.459 83.6338 176.069 83.0907 175.552 82.7033C175.081 82.2766 174.492 82.0135 173.868 81.9511C173.244 81.8888 172.617 82.0304 172.076 82.3559C171.47 82.6724 170.887 83.0352 170.281 83.3594C169.867 83.5909 169.413 83.7347 168.944 83.7822C168.475 83.8298 168.002 83.7802 167.552 83.6364C167.103 83.4926 166.685 83.2574 166.324 82.9448C165.964 82.6321 165.667 82.2482 165.452 81.8156C164.764 80.5496 164.084 79.2837 163.419 78.0023C163.179 77.5848 163.026 77.1208 162.967 76.6392C162.909 76.1577 162.947 75.6688 163.08 75.2032C163.212 74.7376 163.436 74.3051 163.738 73.9328C164.039 73.5604 164.412 73.2561 164.832 73.0389C165.4 72.707 165.99 72.4059 166.559 72.0663C167.122 71.7788 167.584 71.3154 167.878 70.7417C168.171 70.168 168.283 69.5133 168.196 68.8705C168.165 68.2124 167.937 67.5804 167.543 67.0618C167.15 66.5433 166.61 66.1638 165.998 65.9758C165.31 65.7288 164.6 65.559 163.912 65.3274C163.446 65.1998 163.01 64.9733 162.633 64.6623C162.256 64.3514 161.946 63.9628 161.723 63.5214C161.499 63.0799 161.367 62.5952 161.335 62.0982C161.302 61.6011 161.371 61.1025 161.535 60.6342C161.894 59.3605 162.283 58.0791 162.627 56.7746C162.852 55.8873 163.404 55.1259 164.165 54.6518C164.926 54.1776 165.835 54.0281 166.701 54.235C167.448 54.3893 168.143 54.6364 168.861 54.8525C169.493 55.102 170.185 55.137 170.837 54.9523C171.489 54.7677 172.067 54.3731 172.487 53.8258C172.918 53.291 173.172 52.6269 173.209 51.9318C173.247 51.2367 173.067 50.5475 172.696 49.9663C172.39 49.395 172.076 48.8315 171.791 48.2449C171.576 47.8404 171.44 47.3958 171.392 46.9368C171.344 46.4779 171.384 46.0136 171.511 45.5708C171.637 45.1281 171.848 44.7155 172.129 44.357C172.411 43.9986 172.759 43.7012 173.152 43.4821C174.475 42.7102 175.821 41.9383 177.181 41.2667C177.988 40.855 178.916 40.7784 179.776 41.0527C180.635 41.327 181.36 41.9313 181.801 42.7411C182.153 43.3664 182.467 44.0225 182.825 44.64C183.118 45.2108 183.575 45.6739 184.134 45.9655C184.692 46.2572 185.324 46.3631 185.943 46.2688C186.581 46.2287 187.191 45.9841 187.688 45.569C188.185 45.1539 188.545 44.589 188.716 43.953C188.925 43.2814 189.09 42.6022 189.292 41.9306C189.414 41.4427 189.633 40.9864 189.935 40.5907C190.238 40.195 190.616 39.8684 191.047 39.6318C191.478 39.3952 191.952 39.2537 192.438 39.2162C192.925 39.1787 193.414 39.2461 193.874 39.4141L197.507 40.518C197.97 40.6351 198.405 40.8485 198.785 41.1452C199.165 41.442 199.482 41.8157 199.717 42.2436C199.953 42.6715 200.101 43.1445 200.153 43.6335C200.204 44.1226 200.159 44.6174 200.019 45.0877C199.862 45.7439 199.66 46.3846 199.473 47.033C199.275 47.6805 199.27 48.3748 199.46 49.0251C199.65 49.6754 200.026 50.2513 200.538 50.6776C201.05 51.1038 201.675 51.3604 202.33 51.414C202.986 51.4675 203.642 51.3153 204.213 50.9775C204.766 50.6687 205.319 50.3445 205.88 50.0435C206.286 49.8132 206.733 49.6679 207.193 49.6158C207.654 49.5637 208.12 49.6059 208.565 49.74C209.01 49.874 209.425 50.0973 209.787 50.3971C210.148 50.6968 210.449 51.0672 210.672 51.4869C211.389 52.794 212.09 54.1063 212.772 55.4237C213 55.8349 213.145 56.2895 213.198 56.76C213.251 57.2305 213.212 57.7072 213.082 58.1615C212.952 58.6158 212.734 59.0383 212.442 59.4035C212.15 59.7688 211.789 60.0692 211.382 60.2868C210.769 60.6419 210.141 60.9584 209.528 61.3212C209.005 61.6037 208.575 62.0395 208.292 62.5738C208.008 63.1081 207.885 63.717 207.936 64.3239C207.927 64.9601 208.11 65.5833 208.458 66.1083C208.806 66.6333 209.302 67.0346 209.879 67.2572C210.589 67.5583 211.374 67.7358 212.122 67.9751C212.558 68.0765 212.969 68.2713 213.328 68.5468C213.687 68.8224 213.986 69.1726 214.206 69.5748C214.426 69.977 214.561 70.4224 214.604 70.8821C214.647 71.3418 214.596 71.8057 214.454 72.2438C214.088 73.7182 213.669 75.1848 213.213 76.6283C213.099 77.0878 212.892 77.5172 212.606 77.8886C212.32 78.2599 211.962 78.5648 211.554 78.7833C211.146 79.0019 210.699 79.1291 210.24 79.1568C209.781 79.1845 209.322 79.112 208.892 78.9441C208.242 78.7588 207.592 78.5272 206.934 78.3728C206.329 78.204 205.689 78.2321 205.1 78.4531C204.511 78.6742 204.003 79.0774 203.645 79.6079C203.25 80.0947 203.01 80.6954 202.958 81.328C202.906 81.9607 203.044 82.5945 203.353 83.1433C203.675 83.784 204.041 84.4015 204.37 85.0422C204.596 85.4547 204.74 85.9098 204.792 86.3806C204.845 86.8515 204.806 87.3284 204.677 87.7833C204.548 88.2382 204.332 88.6618 204.042 89.0289C203.751 89.3961 203.393 89.6993 202.987 89.9207C201.723 90.6926 200.445 91.3642 199.167 92.0744C198.762 92.3144 198.313 92.4658 197.849 92.5189C197.384 92.572 196.914 92.5258 196.468 92.3831V92.3831ZM177.286 63.4131C176.662 65.6084 176.682 67.9454 177.343 70.129C178.004 72.3127 179.277 74.2452 181.001 75.6825C182.725 77.1198 184.822 77.9976 187.029 78.205C189.236 78.4124 191.452 77.9401 193.399 76.8478C195.346 75.7554 196.936 74.092 197.968 72.0675C199 70.043 199.428 67.7481 199.198 65.4725C198.968 63.197 198.091 61.0427 196.676 59.2818C195.262 57.5208 193.374 56.232 191.25 55.5781C189.835 55.1423 188.351 54.9994 186.882 55.1576C185.413 55.3158 183.989 55.772 182.692 56.5C181.394 57.228 180.249 58.2134 179.321 59.3998C178.393 60.5861 177.702 61.95 177.286 63.4131V63.4131Z" fill="#09254F"/>
<path d="M148.984 153.851C147.944 153.872 146.912 153.678 145.946 153.28C144.981 152.882 144.102 152.289 143.362 151.535C142.256 150.439 141.209 149.266 140.088 148.185C137.741 145.916 135.034 145.236 132.037 146.572C130.662 147.117 129.484 148.089 128.666 149.354C127.848 150.619 127.43 152.114 127.469 153.635C127.432 155.333 127.507 157.031 127.432 158.722C127.416 159.778 127.198 160.821 126.791 161.79C126.383 162.759 125.793 163.636 125.056 164.368C124.318 165.101 123.448 165.676 122.494 166.059C121.541 166.443 120.523 166.628 119.5 166.603C116.425 166.603 113.35 166.603 110.275 166.603C109.226 166.623 108.183 166.425 107.208 166.023C106.233 165.62 105.346 165.021 104.599 164.259C103.851 163.497 103.259 162.589 102.856 161.588C102.454 160.587 102.249 159.513 102.254 158.428C102.217 156.73 102.254 155.032 102.254 153.341C102.259 151.849 101.814 150.391 100.981 149.172C100.148 147.952 98.9677 147.03 97.6045 146.533C96.3124 145.926 94.8694 145.748 93.4752 146.025C92.081 146.301 90.8046 147.018 89.8224 148.077C88.7011 149.158 87.662 150.331 86.5482 151.427C85.797 152.204 84.9035 152.819 83.9196 153.236C82.9358 153.653 81.8814 153.863 80.8181 153.854C79.7547 153.846 78.7037 153.618 77.7263 153.186C76.7489 152.753 75.8648 152.124 75.1256 151.334C72.853 149.034 70.6104 146.718 68.3976 144.387C65.1009 140.921 65.1159 136.128 68.3976 132.662C69.4367 131.566 70.5281 130.531 71.5523 129.42C72.5881 128.417 73.2979 127.108 73.5843 125.672C73.8708 124.236 73.7198 122.743 73.152 121.399C72.6771 119.989 71.7901 118.765 70.6132 117.897C69.4363 117.028 68.0275 116.559 66.5811 116.552C64.9439 116.475 63.2993 116.552 61.6547 116.506C56.7358 116.32 53.6185 112.955 53.6111 107.875C53.6111 104.865 53.6111 101.855 53.6111 98.8441C53.5515 96.767 54.2802 94.7481 55.6419 93.218C57.0036 91.688 58.8903 90.7679 60.8997 90.654C62.5891 90.5073 64.2936 90.5614 65.983 90.5614C69.362 90.5614 71.7766 89.0175 73.1147 85.8064C74.378 82.7882 73.6753 79.8626 71.1935 77.3153C70.1843 76.2732 69.1452 75.2465 68.2033 74.1736C67.487 73.4357 66.9187 72.5592 66.5309 71.5943C66.1432 70.6293 65.9436 69.5949 65.9436 68.5501C65.9436 67.5054 66.1432 66.471 66.5309 65.506C66.9187 64.541 67.487 63.6646 68.2033 62.9267C70.6054 60.3537 73.0673 57.8655 75.5891 55.4623C77.081 54.0377 79.044 53.2561 81.0759 53.2777C83.1079 53.2992 85.0549 54.1222 86.5183 55.5781C87.6695 56.7051 88.7609 57.8938 89.9196 59.0363C90.9093 60.0862 92.1904 60.7928 93.5858 61.0583C94.9812 61.3238 96.422 61.1351 97.7091 60.5183C99.0695 60.0134 100.244 59.0835 101.069 57.8579C101.894 56.6323 102.329 55.1718 102.314 53.6792C102.351 52.1353 102.314 50.5066 102.314 48.9241C102.426 43.8218 105.76 40.433 110.709 40.433H119.298C124.045 40.433 127.379 43.7754 127.521 48.7157C127.581 50.2596 127.521 51.8034 127.521 53.3472C127.443 54.8939 127.842 56.4264 128.662 57.7236C129.482 59.0208 130.679 60.0156 132.082 60.5647C134.967 61.8769 137.89 61.2054 140.245 58.8124C141.261 57.7703 142.256 56.7051 143.287 55.6784C144.029 54.9119 144.91 54.3039 145.88 53.8891C146.85 53.4742 147.889 53.2607 148.939 53.2607C149.988 53.2607 151.028 53.4742 151.997 53.8891C152.967 54.3039 153.848 54.9119 154.59 55.6784C156.953 58.0405 159.285 60.4309 161.587 62.8495C162.336 63.5922 162.932 64.4834 163.339 65.4696C163.745 66.4558 163.955 67.5168 163.955 68.5887C163.955 69.6607 163.745 70.7217 163.339 71.7079C162.932 72.6941 162.336 73.5853 161.587 74.328C160.481 75.509 159.3 76.6437 158.194 77.7861C157.224 78.7403 156.553 79.9713 156.265 81.3217C155.978 82.6721 156.087 84.0804 156.579 85.3664C156.965 86.7479 157.75 87.975 158.83 88.8839C159.909 89.7927 161.231 90.3402 162.619 90.4533C164.346 90.6463 166.11 90.5305 167.852 90.5691C172.464 90.654 175.402 93.541 175.552 98.2883C175.656 101.731 175.664 105.181 175.552 108.632C175.387 113.549 172.375 116.467 167.598 116.529C166.103 116.529 164.525 116.475 162.993 116.529C161.574 116.561 160.2 117.044 159.056 117.911C157.913 118.778 157.055 119.988 156.601 121.376C156.037 122.692 155.882 124.156 156.157 125.566C156.433 126.977 157.126 128.264 158.141 129.25C159.24 130.431 160.384 131.566 161.528 132.716C162.272 133.463 162.864 134.356 163.268 135.343C163.672 136.33 163.88 137.391 163.88 138.463C163.88 139.534 163.672 140.595 163.268 141.582C162.864 142.569 162.272 143.463 161.528 144.21C159.233 146.649 156.893 149.019 154.545 151.404C153.822 152.173 152.958 152.785 152.003 153.205C151.048 153.625 150.022 153.845 148.984 153.851V153.851ZM81.8012 103.437C81.785 110.2 83.711 116.815 87.3357 122.448C90.9604 128.08 96.1211 132.476 102.165 135.081C108.209 137.685 114.866 138.38 121.292 137.078C127.719 135.776 133.628 132.536 138.271 127.767C142.915 122.998 146.084 116.915 147.38 110.286C148.675 103.657 148.038 96.7799 145.549 90.5247C143.06 84.2696 138.83 78.917 133.395 75.1437C127.96 71.3704 121.564 69.3458 115.015 69.3259C110.662 69.3036 106.348 70.1692 102.32 71.8733C98.2927 73.5773 94.6307 76.0861 91.5445 79.2557C88.4583 82.4252 86.0089 86.193 84.3369 90.3427C82.6649 94.4925 81.8031 98.9424 81.8012 103.437V103.437Z" fill="#09254F"/>
<g opacity="0.19">
<path opacity="0.19" d="M148.984 153.851C147.944 153.872 146.912 153.678 145.946 153.28C144.981 152.882 144.102 152.289 143.362 151.535C142.256 150.439 141.209 149.266 140.088 148.185C137.741 145.916 135.034 145.236 132.037 146.572C130.662 147.117 129.484 148.089 128.666 149.354C127.848 150.619 127.43 152.114 127.469 153.635C127.432 155.333 127.507 157.031 127.432 158.722C127.416 159.778 127.198 160.821 126.791 161.79C126.383 162.759 125.793 163.636 125.056 164.368C124.318 165.101 123.448 165.676 122.494 166.059C121.541 166.443 120.523 166.628 119.5 166.603C116.425 166.603 113.35 166.603 110.275 166.603C109.226 166.623 108.183 166.425 107.208 166.023C106.233 165.62 105.346 165.021 104.599 164.259C103.851 163.497 103.259 162.589 102.856 161.588C102.454 160.587 102.249 159.513 102.254 158.428C102.217 156.73 102.254 155.032 102.254 153.341C102.259 151.849 101.814 150.391 100.981 149.172C100.148 147.952 98.9677 147.03 97.6045 146.533C96.3124 145.926 94.8694 145.748 93.4752 146.025C92.081 146.301 90.8046 147.018 89.8224 148.077C88.7011 149.158 87.662 150.331 86.5482 151.427C85.797 152.204 84.9035 152.819 83.9196 153.236C82.9358 153.653 81.8814 153.863 80.8181 153.854C79.7547 153.846 78.7037 153.618 77.7263 153.186C76.7489 152.753 75.8648 152.124 75.1256 151.334C72.853 149.034 70.6104 146.718 68.3976 144.387C65.1009 140.921 65.1159 136.128 68.3976 132.662C69.4367 131.566 70.5281 130.531 71.5523 129.42C72.5881 128.417 73.2979 127.108 73.5843 125.672C73.8708 124.236 73.7198 122.743 73.152 121.399C72.6771 119.989 71.7901 118.765 70.6132 117.897C69.4363 117.028 68.0275 116.559 66.5811 116.552C64.9439 116.475 63.2993 116.552 61.6547 116.506C56.7358 116.32 53.6185 112.955 53.6111 107.875C53.6111 104.865 53.6111 101.855 53.6111 98.8441C53.5515 96.767 54.2802 94.7481 55.6419 93.218C57.0036 91.688 58.8903 90.7679 60.8997 90.654C62.5891 90.5073 64.2936 90.5614 65.983 90.5614C69.362 90.5614 71.7766 89.0175 73.1147 85.8064C74.378 82.7882 73.6753 79.8626 71.1935 77.3153C70.1843 76.2732 69.1452 75.2465 68.2033 74.1736C67.487 73.4357 66.9187 72.5592 66.5309 71.5943C66.1432 70.6293 65.9436 69.5949 65.9436 68.5501C65.9436 67.5054 66.1432 66.471 66.5309 65.506C66.9187 64.541 67.487 63.6646 68.2033 62.9267C70.6054 60.3537 73.0673 57.8655 75.5891 55.4623C77.081 54.0377 79.044 53.2561 81.0759 53.2777C83.1079 53.2992 85.0549 54.1222 86.5183 55.5781C87.6695 56.7051 88.7609 57.8938 89.9196 59.0363C90.9093 60.0862 92.1904 60.7928 93.5858 61.0583C94.9812 61.3238 96.422 61.1351 97.7091 60.5183C99.0695 60.0134 100.244 59.0835 101.069 57.8579C101.894 56.6323 102.329 55.1718 102.314 53.6792C102.351 52.1353 102.314 50.5066 102.314 48.9241C102.426 43.8218 105.76 40.433 110.709 40.433H119.298C124.045 40.433 127.379 43.7754 127.521 48.7157C127.581 50.2596 127.521 51.8034 127.521 53.3472C127.443 54.8939 127.842 56.4264 128.662 57.7236C129.482 59.0208 130.679 60.0156 132.082 60.5647C134.967 61.8769 137.89 61.2054 140.245 58.8124C141.261 57.7703 142.256 56.7051 143.287 55.6784C144.029 54.9119 144.91 54.3039 145.88 53.8891C146.85 53.4742 147.889 53.2607 148.939 53.2607C149.988 53.2607 151.028 53.4742 151.997 53.8891C152.967 54.3039 153.848 54.9119 154.59 55.6784C156.953 58.0405 159.285 60.4309 161.587 62.8495C162.336 63.5922 162.932 64.4834 163.339 65.4696C163.745 66.4558 163.955 67.5168 163.955 68.5887C163.955 69.6607 163.745 70.7217 163.339 71.7079C162.932 72.6941 162.336 73.5853 161.587 74.328C160.481 75.509 159.3 76.6437 158.194 77.7861C157.224 78.7403 156.553 79.9713 156.265 81.3217C155.978 82.6721 156.087 84.0804 156.579 85.3664C156.965 86.7479 157.75 87.975 158.83 88.8839C159.909 89.7927 161.231 90.3402 162.619 90.4533C164.346 90.6463 166.11 90.5305 167.852 90.5691C172.464 90.654 175.402 93.541 175.552 98.2883C175.656 101.731 175.664 105.181 175.552 108.632C175.387 113.549 172.375 116.467 167.598 116.529C166.103 116.529 164.525 116.475 162.993 116.529C161.574 116.561 160.2 117.044 159.056 117.911C157.913 118.778 157.055 119.988 156.601 121.376C156.037 122.692 155.882 124.156 156.157 125.566C156.433 126.977 157.126 128.264 158.141 129.25C159.24 130.431 160.384 131.566 161.528 132.716C162.272 133.463 162.864 134.356 163.268 135.343C163.672 136.33 163.88 137.391 163.88 138.463C163.88 139.534 163.672 140.595 163.268 141.582C162.864 142.569 162.272 143.463 161.528 144.21C159.233 146.649 156.893 149.019 154.545 151.404C153.822 152.173 152.958 152.785 152.003 153.205C151.048 153.625 150.022 153.845 148.984 153.851V153.851ZM81.8012 103.437C81.785 110.2 83.711 116.815 87.3357 122.448C90.9604 128.08 96.1211 132.476 102.165 135.081C108.209 137.685 114.866 138.38 121.292 137.078C127.719 135.776 133.628 132.536 138.271 127.767C142.915 122.998 146.084 116.915 147.38 110.286C148.675 103.657 148.038 96.7799 145.549 90.5247C143.06 84.2696 138.83 78.917 133.395 75.1437C127.96 71.3704 121.564 69.3458 115.015 69.3259C110.662 69.3036 106.348 70.1692 102.32 71.8733C98.2927 73.5773 94.6307 76.0861 91.5445 79.2557C88.4583 82.4252 86.0089 86.193 84.3369 90.3427C82.6649 94.4925 81.8031 98.9424 81.8012 103.437V103.437Z" fill="#020202"/>
</g>
<path d="M91.4072 89.0793C91.8752 89.8062 92.0668 90.6857 91.9455 91.5495C91.8986 92.3814 91.7835 93.2077 91.6016 94.0196C91.2278 95.6329 90.5924 97.3157 91.0858 98.8904C91.4986 99.8433 92.0153 100.745 92.6258 101.577C93.1884 102.497 93.4504 103.579 93.3733 104.664C93.3263 105.205 93.1545 105.726 92.8722 106.184C92.59 106.642 92.2055 107.024 91.7511 107.297C90.5177 104.935 88.5516 103.09 86.9294 100.99C85.3072 98.8904 83.9392 96.289 84.3653 93.6414C84.507 92.785 84.8211 91.9688 85.2872 91.2455C85.7533 90.5222 86.3612 89.9078 87.0715 89.4421C88.1405 88.7706 90.3308 87.7285 91.4072 89.0793Z" fill="#FF681C"/>
<path opacity="0.19" d="M91.4072 89.0793C91.8752 89.8062 92.0668 90.6857 91.9455 91.5495C91.8986 92.3814 91.7835 93.2077 91.6016 94.0196C91.2278 95.6329 90.5924 97.3157 91.0858 98.8904C91.4986 99.8433 92.0153 100.745 92.6258 101.577C93.1884 102.497 93.4504 103.579 93.3733 104.664C93.3263 105.205 93.1545 105.726 92.8722 106.184C92.59 106.642 92.2055 107.024 91.7511 107.297C90.5177 104.935 88.5516 103.09 86.9294 100.99C85.3072 98.8904 83.9392 96.289 84.3653 93.6414C84.507 92.785 84.8211 91.9688 85.2872 91.2455C85.7533 90.5222 86.3612 89.9078 87.0715 89.4421C88.1405 88.7706 90.3308 87.7285 91.4072 89.0793Z" fill="#020202"/>
<path d="M146.801 153.874C145.762 153.897 144.73 153.703 143.766 153.305C142.801 152.907 141.924 152.313 141.187 151.558C140.08 150.462 139.034 149.297 137.912 148.208C135.565 145.939 132.852 145.26 129.861 146.595C128.487 147.142 127.309 148.114 126.491 149.378C125.672 150.643 125.251 152.137 125.286 153.658C125.249 155.356 125.286 157.054 125.286 158.745C125.269 159.801 125.049 160.844 124.64 161.813C124.231 162.782 123.641 163.657 122.903 164.39C122.166 165.122 121.295 165.697 120.341 166.08C119.388 166.464 118.37 166.65 117.347 166.626C114.277 166.626 111.205 166.626 108.13 166.626C107.08 166.646 106.037 166.448 105.062 166.046C104.088 165.643 103.2 165.044 102.453 164.282C101.706 163.521 101.114 162.613 100.711 161.611C100.308 160.61 100.104 159.536 100.109 158.452C100.109 156.761 100.146 155.055 100.109 153.365C100.114 151.873 99.6701 150.416 98.8384 149.197C98.0067 147.977 96.8284 147.054 95.4665 146.556C94.1733 145.948 92.729 145.77 91.3335 146.047C89.938 146.323 88.6603 147.041 87.677 148.1C86.5557 149.181 85.5166 150.354 84.4027 151.45C83.6516 152.228 82.758 152.842 81.7742 153.259C80.7903 153.676 79.736 153.886 78.6726 153.878C77.6092 153.869 76.5582 153.642 75.5808 153.209C74.6035 152.776 73.7193 152.147 72.9801 151.358C70.7375 149.042 68.45 146.726 66.2522 144.41C62.9554 140.944 62.9704 136.151 66.2522 132.685C67.2912 131.589 68.3902 130.554 69.4143 129.443C70.451 128.441 71.1615 127.131 71.448 125.695C71.7345 124.259 71.5829 122.766 71.0141 121.423C70.5375 119.997 69.6401 118.761 68.4481 117.888C67.2561 117.016 65.8293 116.551 64.3683 116.56C62.7237 116.482 61.0791 116.56 59.4345 116.513C54.5231 116.351 51.3834 112.978 51.3834 107.899C51.3834 104.888 51.3834 101.878 51.3834 98.8673C51.3258 96.7895 52.0562 94.7706 53.4191 93.2407C54.7819 91.7109 56.6694 90.7911 58.6795 90.6772C60.3614 90.5305 62.0659 90.5846 63.7628 90.5846C65.2853 90.6754 66.7963 90.2636 68.0771 89.4088C69.3579 88.5539 70.342 87.3004 70.887 85.8296C72.1578 82.8114 71.4551 79.8858 68.9658 77.3385C67.9566 76.2964 66.9249 75.2697 65.9756 74.1968C65.2586 73.4601 64.6897 72.5844 64.3015 71.6201C63.9133 70.6557 63.7134 69.6216 63.7134 68.5772C63.7134 67.5328 63.9133 66.4987 64.3015 65.5344C64.6897 64.57 65.2586 63.6943 65.9756 62.9576C68.3677 60.3846 70.8272 57.8939 73.3539 55.4855C74.8559 54.0618 76.8291 53.2868 78.8677 53.3198C80.9063 53.3529 82.855 54.1914 84.313 55.663C85.4642 56.79 86.5556 57.9788 87.7069 59.1212C88.6998 60.1637 89.9806 60.8636 91.3739 61.1247C92.7671 61.3859 94.2045 61.1957 95.4889 60.5801C96.8511 60.0757 98.0269 59.1449 98.8524 57.9176C99.6779 56.6902 100.112 55.2274 100.094 53.7332C100.094 52.1894 100.094 50.5606 100.094 48.9782C100.206 43.8758 103.54 40.4871 108.496 40.4871H117.078C121.825 40.4871 125.159 43.8295 125.346 48.7698C125.406 50.3136 125.346 51.8575 125.346 53.4013C125.269 54.9467 125.669 56.4775 126.489 57.7731C127.308 59.0687 128.505 60.0624 129.906 60.611C132.784 61.9233 135.707 61.2517 138.062 58.8588C139.086 57.8244 140.073 56.7514 141.104 55.7248C142.605 54.1782 144.639 53.3096 146.76 53.3096C148.88 53.3096 150.914 54.1782 152.415 55.7248C154.77 58.0868 157.11 60.4721 159.405 62.8959C160.152 63.6391 160.747 64.5305 161.153 65.5166C161.56 66.5028 161.769 67.5634 161.769 68.6351C161.769 69.7068 161.56 70.7674 161.153 71.7536C160.747 72.7397 160.152 73.6311 159.405 74.3743C158.291 75.5553 157.11 76.6901 156.011 77.8402C155.042 78.7928 154.37 80.0221 154.081 81.371C153.792 82.7198 153.899 84.127 154.388 85.4127C154.775 86.7943 155.56 88.0213 156.639 88.9302C157.718 89.8391 159.04 90.3866 160.429 90.4997C162.163 90.6926 163.92 90.5769 165.662 90.6155C170.274 90.7004 173.219 93.5951 173.369 98.3346C173.473 101.777 173.473 105.236 173.369 108.678C173.234 113.619 170.244 116.56 165.437 116.598C163.897 116.598 162.357 116.544 160.825 116.598C159.407 116.632 158.033 117.115 156.889 117.982C155.746 118.849 154.888 120.058 154.433 121.446C153.869 122.761 153.714 124.225 153.99 125.636C154.265 127.046 154.959 128.333 155.973 129.319C157.072 130.5 158.261 131.635 159.367 132.785C160.112 133.533 160.704 134.427 161.108 135.415C161.512 136.402 161.72 137.464 161.72 138.536C161.72 139.608 161.512 140.67 161.108 141.658C160.704 142.645 160.112 143.539 159.367 144.287C157.08 146.718 154.732 149.088 152.393 151.473C151.663 152.238 150.792 152.845 149.832 153.257C148.871 153.67 147.841 153.879 146.801 153.874V153.874ZM79.6184 103.483C79.6036 110.245 81.5307 116.86 85.156 122.491C88.7813 128.123 93.942 132.518 99.9858 135.121C106.03 137.724 112.685 138.418 119.111 137.116C125.537 135.814 131.445 132.574 136.088 127.806C140.731 123.037 143.901 116.955 145.197 110.326C146.492 103.698 145.856 96.8217 143.368 90.5669C140.879 84.3121 136.651 78.9594 131.217 75.1855C125.783 71.4116 119.388 69.3859 112.84 69.3646C108.486 69.3422 104.171 70.2081 100.142 71.9125C96.1136 73.6169 92.4507 76.1263 89.3638 79.2966C86.277 82.4668 83.827 86.2355 82.1546 90.3861C80.4822 94.5368 79.6203 98.9877 79.6184 103.483V103.483Z" fill="#09254F"/>
<path opacity="0.19" d="M118.723 148.208C119.201 148.88 119.767 149.48 120.405 149.991C120.784 150.202 121.114 150.497 121.369 150.856C121.488 151.143 121.563 151.448 121.593 151.759C121.9 153.511 123.53 155.125 125.212 154.731L126.019 148.895C126.123 148.451 126.123 147.988 126.019 147.544C125.849 147.15 125.593 146.801 125.271 146.525C123.247 144.47 121.488 142.153 120.038 139.632C119.72 138.924 119.228 138.315 118.611 137.865C118.005 137.502 118.611 137.046 117.923 137.247C116.114 137.772 114.88 137.741 110.679 137.702C110.679 137.702 112.002 139.555 112.585 140.296L115.673 144.256C116.062 144.804 118.147 148.208 118.723 148.208Z" fill="#020202"/>
<g opacity="0.27">
<path opacity="0.27" d="M196.468 92.3831C196.025 92.2632 195.61 92.0524 195.248 91.7633C194.886 91.4741 194.584 91.1127 194.36 90.7004C194.024 90.0905 193.717 89.4576 193.373 88.8555C193.079 88.2564 192.609 87.7684 192.031 87.4607C191.452 87.1531 190.795 87.0415 190.151 87.1418C189.504 87.1977 188.889 87.4592 188.391 87.8904C187.893 88.3216 187.536 88.9014 187.37 89.5502C187.146 90.2681 186.974 90.9937 186.743 91.7039C186.607 92.1489 186.388 92.5619 186.098 92.9193C185.808 93.2767 185.452 93.5715 185.052 93.7866C184.651 94.0018 184.213 94.1331 183.763 94.1731C183.313 94.2131 182.86 94.1609 182.429 94.0196C181.128 93.6414 179.82 93.2477 178.519 92.8386C178.072 92.7125 177.654 92.4953 177.289 92.1997C176.924 91.9042 176.62 91.5363 176.395 91.1176C176.17 90.699 176.029 90.2381 175.979 89.7621C175.929 89.2862 175.972 88.8047 176.105 88.346C176.292 87.6281 176.531 86.918 176.71 86.1924C176.889 85.5584 176.874 84.8829 176.666 84.2583C176.459 83.6338 176.069 83.0907 175.552 82.7033C175.081 82.2766 174.492 82.0135 173.868 81.9511C173.244 81.8888 172.617 82.0304 172.076 82.3559C171.47 82.6724 170.887 83.0352 170.281 83.3594C169.867 83.5909 169.413 83.7347 168.944 83.7822C168.475 83.8298 168.002 83.7802 167.552 83.6364C167.103 83.4926 166.685 83.2574 166.324 82.9448C165.964 82.6321 165.667 82.2482 165.452 81.8156C164.764 80.5496 164.084 79.2837 163.419 78.0023C163.179 77.5848 163.026 77.1208 162.967 76.6392C162.909 76.1577 162.947 75.6688 163.08 75.2032C163.212 74.7376 163.436 74.3051 163.738 73.9328C164.039 73.5604 164.412 73.2561 164.832 73.0389C165.4 72.707 165.99 72.4059 166.559 72.0663C167.122 71.7788 167.584 71.3154 167.878 70.7417C168.171 70.168 168.283 69.5133 168.196 68.8705C168.165 68.2124 167.937 67.5804 167.543 67.0618C167.15 66.5433 166.61 66.1638 165.998 65.9758C165.31 65.7288 164.6 65.559 163.912 65.3274C163.446 65.1998 163.01 64.9733 162.633 64.6623C162.256 64.3514 161.946 63.9628 161.723 63.5214C161.499 63.0799 161.367 62.5952 161.335 62.0982C161.302 61.6011 161.371 61.1025 161.535 60.6342C161.894 59.3605 162.283 58.0791 162.627 56.7746C162.852 55.8873 163.404 55.1259 164.165 54.6518C164.926 54.1776 165.835 54.0281 166.701 54.235C167.448 54.3893 168.143 54.6364 168.861 54.8525C169.493 55.102 170.185 55.137 170.837 54.9523C171.489 54.7677 172.067 54.3731 172.487 53.8258C172.918 53.291 173.172 52.6269 173.209 51.9318C173.247 51.2367 173.067 50.5475 172.696 49.9663C172.39 49.395 172.076 48.8315 171.791 48.2449C171.576 47.8404 171.44 47.3958 171.392 46.9368C171.344 46.4779 171.384 46.0136 171.511 45.5708C171.637 45.1281 171.848 44.7155 172.129 44.357C172.411 43.9986 172.759 43.7012 173.152 43.4821C174.475 42.7102 175.821 41.9383 177.181 41.2667C177.988 40.855 178.916 40.7784 179.776 41.0527C180.635 41.327 181.36 41.9313 181.801 42.7411C182.153 43.3664 182.467 44.0225 182.825 44.64C183.118 45.2108 183.575 45.6739 184.134 45.9655C184.692 46.2572 185.324 46.3631 185.943 46.2688C186.581 46.2287 187.191 45.9841 187.688 45.569C188.185 45.1539 188.545 44.589 188.716 43.953C188.925 43.2814 189.09 42.6022 189.292 41.9306C189.414 41.4427 189.633 40.9864 189.935 40.5907C190.238 40.195 190.616 39.8684 191.047 39.6318C191.478 39.3952 191.952 39.2537 192.438 39.2162C192.925 39.1787 193.414 39.2461 193.874 39.4141L197.507 40.518C197.97 40.6351 198.405 40.8485 198.785 41.1452C199.165 41.442 199.482 41.8157 199.717 42.2436C199.953 42.6715 200.101 43.1445 200.153 43.6335C200.204 44.1226 200.159 44.6174 200.019 45.0877C199.862 45.7439 199.66 46.3846 199.473 47.033C199.275 47.6805 199.27 48.3748 199.46 49.0251C199.65 49.6754 200.026 50.2513 200.538 50.6776C201.05 51.1038 201.675 51.3604 202.33 51.414C202.986 51.4675 203.642 51.3153 204.213 50.9775C204.766 50.6687 205.319 50.3445 205.88 50.0435C206.286 49.8132 206.733 49.6679 207.193 49.6158C207.654 49.5637 208.12 49.6059 208.565 49.74C209.01 49.874 209.425 50.0973 209.787 50.3971C210.148 50.6968 210.449 51.0672 210.672 51.4869C211.389 52.794 212.09 54.1063 212.772 55.4237C213 55.8349 213.145 56.2895 213.198 56.76C213.251 57.2305 213.212 57.7072 213.082 58.1615C212.952 58.6158 212.734 59.0383 212.442 59.4035C212.15 59.7688 211.789 60.0692 211.382 60.2868C210.769 60.6419 210.141 60.9584 209.528 61.3212C209.005 61.6037 208.575 62.0395 208.292 62.5738C208.008 63.1081 207.885 63.717 207.936 64.3239C207.927 64.9601 208.11 65.5833 208.458 66.1083C208.806 66.6333 209.302 67.0346 209.879 67.2572C210.589 67.5583 211.374 67.7358 212.122 67.9751C212.558 68.0765 212.969 68.2713 213.328 68.5468C213.687 68.8224 213.986 69.1726 214.206 69.5748C214.426 69.977 214.561 70.4224 214.604 70.8821C214.647 71.3418 214.596 71.8057 214.454 72.2438C214.088 73.7182 213.669 75.1848 213.213 76.6283C213.099 77.0878 212.892 77.5172 212.606 77.8886C212.32 78.2599 211.962 78.5648 211.554 78.7833C211.146 79.0019 210.699 79.1291 210.24 79.1568C209.781 79.1845 209.322 79.112 208.892 78.9441C208.242 78.7588 207.592 78.5272 206.934 78.3728C206.329 78.204 205.689 78.2321 205.1 78.4531C204.511 78.6742 204.003 79.0774 203.645 79.6079C203.25 80.0947 203.01 80.6954 202.958 81.328C202.906 81.9607 203.044 82.5945 203.353 83.1433C203.675 83.784 204.041 84.4015 204.37 85.0422C204.596 85.4547 204.74 85.9098 204.792 86.3806C204.845 86.8515 204.806 87.3284 204.677 87.7833C204.548 88.2382 204.332 88.6618 204.042 89.0289C203.751 89.3961 203.393 89.6993 202.987 89.9207C201.723 90.6926 200.445 91.3642 199.167 92.0744C198.762 92.3144 198.313 92.4658 197.849 92.5189C197.384 92.572 196.914 92.5258 196.468 92.3831V92.3831ZM177.286 63.4131C176.662 65.6084 176.682 67.9454 177.343 70.129C178.004 72.3127 179.277 74.2452 181.001 75.6825C182.725 77.1198 184.822 77.9976 187.029 78.205C189.236 78.4124 191.452 77.9401 193.399 76.8478C195.346 75.7554 196.936 74.092 197.968 72.0675C199 70.043 199.428 67.7481 199.198 65.4725C198.968 63.197 198.091 61.0427 196.676 59.2818C195.262 57.5208 193.374 56.232 191.25 55.5781C189.835 55.1423 188.351 54.9994 186.882 55.1576C185.413 55.3158 183.989 55.772 182.692 56.5C181.394 57.228 180.249 58.2134 179.321 59.3998C178.393 60.5861 177.702 61.95 177.286 63.4131V63.4131Z" fill="#020202"/>
</g>
<path d="M195.175 92.9929C194.732 92.8704 194.318 92.6578 193.956 92.3675C193.594 92.0772 193.291 91.715 193.067 91.3024C192.73 90.6926 192.431 90.0673 192.08 89.4652C191.789 88.8646 191.321 88.3745 190.744 88.0652C190.166 87.756 189.509 87.6435 188.866 87.7439C188.216 87.7998 187.599 88.0621 187.1 88.4948C186.601 88.9274 186.243 89.5091 186.077 90.16C185.86 90.8701 185.689 91.6035 185.449 92.3059C185.315 92.7506 185.097 93.1635 184.807 93.5208C184.518 93.8782 184.163 94.1729 183.763 94.3881C183.362 94.6033 182.925 94.7347 182.476 94.7748C182.026 94.8149 181.573 94.7628 181.143 94.6217C179.838 94.2357 178.534 93.842 177.234 93.4406C176.786 93.3144 176.368 93.0973 176.003 92.8019C175.638 92.5064 175.333 92.1387 175.108 91.7203C174.882 91.3018 174.74 90.841 174.689 90.365C174.638 89.889 174.68 89.4072 174.812 88.9481C174.999 88.2225 175.238 87.5123 175.417 86.7867C175.598 86.1548 175.585 85.4804 175.378 84.8567C175.172 84.233 174.783 83.6909 174.266 83.3053C173.792 82.882 173.202 82.6205 172.579 82.557C171.955 82.4934 171.327 82.6308 170.782 82.9503C170.177 83.2667 169.594 83.6296 168.988 83.9538C168.577 84.187 168.125 84.3333 167.658 84.3841C167.191 84.435 166.719 84.3894 166.27 84.25C165.82 84.1106 165.402 83.8802 165.04 83.5723C164.677 83.2643 164.378 82.8849 164.159 82.4562C163.471 81.1903 162.794 79.9192 162.126 78.643C161.886 78.2248 161.732 77.7603 161.674 77.2781C161.615 76.796 161.653 76.3066 161.786 75.8404C161.918 75.3741 162.142 74.941 162.444 74.568C162.745 74.1949 163.118 73.8899 163.539 73.6718C164.114 73.3399 164.705 73.0388 165.265 72.7069C165.824 72.4135 166.282 71.9492 166.577 71.3773C166.871 70.8055 166.987 70.1538 166.91 69.5112C166.878 68.8514 166.649 68.218 166.254 67.6982C165.859 67.1784 165.318 66.7978 164.705 66.6088C164.017 66.3695 163.307 66.1996 162.619 65.9604C162.154 65.8327 161.719 65.6065 161.343 65.2959C160.967 64.9854 160.658 64.5974 160.435 64.1566C160.212 63.7159 160.08 63.232 160.048 62.7359C160.016 62.2397 160.085 61.7421 160.249 61.2748C160.608 59.9934 160.969 58.7069 161.333 57.4152C161.558 56.5269 162.109 55.7642 162.87 55.2898C163.631 54.8154 164.542 54.6667 165.407 54.8756C166.155 55.03 166.858 55.2693 167.575 55.4854C168.209 55.7187 168.899 55.7375 169.544 55.5391C170.189 55.3406 170.757 54.9352 171.164 54.3816C171.6 53.849 171.856 53.1843 171.894 52.488C171.931 51.7916 171.749 51.1015 171.373 50.522C171.074 49.9508 170.752 49.3873 170.468 48.8083C170.254 48.4036 170.119 47.9591 170.071 47.5004C170.024 47.0416 170.064 46.5777 170.191 46.1352C170.317 45.6927 170.527 45.2804 170.808 44.9218C171.089 44.5632 171.436 44.2654 171.829 44.0456C173.15 43.2634 174.493 42.5224 175.858 41.8225C176.666 41.4123 177.595 41.3365 178.456 41.6106C179.316 41.8847 180.042 42.4879 180.486 43.2968C180.837 43.9298 181.143 44.5782 181.51 45.1958C181.798 45.7704 182.255 46.2369 182.814 46.5291C183.373 46.8214 184.008 46.9247 184.627 46.8245C185.265 46.7845 185.875 46.5398 186.372 46.1247C186.87 45.7096 187.229 45.1447 187.4 44.5088C187.61 43.8449 187.774 43.1579 187.984 42.4941C188.105 42.0065 188.323 41.5503 188.625 41.1546C188.926 40.7589 189.304 40.4324 189.734 40.1957C190.165 39.959 190.638 39.8174 191.124 39.7798C191.61 39.7423 192.099 39.8096 192.559 39.9776L196.199 41.0737C196.661 41.1918 197.095 41.4059 197.475 41.7028C197.854 41.9998 198.171 42.3735 198.406 42.8011C198.641 43.2287 198.79 43.7012 198.842 44.1899C198.894 44.6786 198.85 45.1732 198.711 45.6435C198.546 46.2996 198.352 46.948 198.165 47.5964C197.968 48.243 197.964 48.9358 198.154 49.5846C198.344 50.2335 198.718 50.8082 199.229 51.234C199.74 51.6597 200.363 51.9167 201.017 51.9715C201.672 52.0262 202.327 51.8762 202.897 51.5409C203.458 51.2322 204.004 50.9002 204.564 50.5992C204.971 50.3692 205.418 50.2244 205.879 50.1728C206.34 50.1213 206.806 50.1642 207.251 50.299C207.697 50.4337 208.111 50.6578 208.473 50.9583C208.834 51.2589 209.134 51.63 209.356 52.0504C210.074 53.3472 210.776 54.6595 211.464 55.9872C211.69 56.3985 211.834 56.8529 211.886 57.3229C211.938 57.7929 211.897 58.2689 211.767 58.7223C211.636 59.1757 211.418 59.5973 211.126 59.9616C210.834 60.326 210.473 60.6256 210.066 60.8425C209.461 61.2053 208.825 61.5218 208.212 61.8769C207.69 62.1594 207.26 62.5952 206.976 63.1296C206.693 63.6639 206.569 64.2728 206.62 64.8797C206.612 65.5167 206.796 66.1406 207.145 66.6657C207.494 67.1909 207.993 67.5916 208.571 67.813C209.319 68.114 210.066 68.2915 210.814 68.5308C211.251 68.6321 211.663 68.8271 212.022 69.1032C212.382 69.3792 212.681 69.7302 212.901 70.1333C213.121 70.5365 213.256 70.9828 213.299 71.4434C213.341 71.9041 213.289 72.3687 213.146 72.8073C212.78 74.2816 212.399 75.7483 211.905 77.1918C211.791 77.6512 211.584 78.0807 211.298 78.452C211.012 78.8234 210.654 79.1282 210.246 79.3468C209.838 79.5653 209.39 79.6926 208.932 79.7203C208.473 79.748 208.014 79.6755 207.584 79.5075C206.934 79.3145 206.291 79.0907 205.626 78.9286C205.021 78.7609 204.381 78.7895 203.792 79.0105C203.204 79.2314 202.696 79.634 202.336 80.1636C201.942 80.6505 201.702 81.2511 201.65 81.8838C201.598 82.5164 201.736 83.1503 202.045 83.699C202.366 84.3474 202.74 84.965 203.069 85.6057C203.304 86.0232 203.454 86.4862 203.51 86.9659C203.565 87.4456 203.525 87.932 203.391 88.3949C203.257 88.8579 203.033 89.2876 202.732 89.6575C202.431 90.0275 202.06 90.3299 201.641 90.5459C200.378 91.3179 199.1 91.9894 197.821 92.6996C197.421 92.9264 196.981 93.0691 196.527 93.1194C196.072 93.1697 195.613 93.1268 195.175 92.9929V92.9929ZM175.993 64.0228C175.37 66.2183 175.391 68.5551 176.054 70.7381C176.716 72.9212 177.99 74.8528 179.714 76.289C181.439 77.7253 183.537 78.6018 185.743 78.8081C187.949 79.0144 190.166 78.5412 192.112 77.4482C194.058 76.3551 195.647 74.6912 196.678 72.6665C197.71 70.6418 198.137 68.347 197.907 66.0717C197.676 63.7965 196.798 61.6427 195.383 59.8823C193.968 58.1218 192.08 56.8336 189.957 56.1802C188.541 55.7445 187.057 55.6019 185.587 55.7606C184.118 55.9194 182.694 56.3762 181.397 57.105C180.099 57.8337 178.954 58.82 178.026 60.0072C177.099 61.1944 176.408 62.5591 175.993 64.0228Z" fill="#09254F"/>
<path d="M140.791 117.748C141.011 117.533 141.263 117.356 141.538 117.223C141.676 117.163 141.827 117.143 141.975 117.167C142.123 117.19 142.261 117.255 142.375 117.355C142.467 117.475 142.529 117.617 142.555 117.768C142.581 117.918 142.57 118.073 142.525 118.219C142.45 118.513 142.301 118.79 142.233 119.084C142.197 119.361 142.136 119.635 142.054 119.902C141.829 120.296 141.485 120.602 141.075 120.774C139.342 121.773 137.793 123.08 136.5 124.634C136.38 124.79 136.242 124.93 136.088 125.051C135.827 125.184 135.538 125.248 135.246 125.235C134.955 125.223 134.671 125.136 134.421 124.981C133.322 124.346 132.377 123.462 131.655 122.395C131.562 122.29 131.496 122.163 131.461 122.025C131.447 121.895 131.467 121.764 131.521 121.647C132.268 119.64 134.264 120.327 135.879 120.049C137.683 119.738 139.376 118.945 140.791 117.748Z" fill="#FFBAA8"/>
<path d="M89.0674 128.486C89.0674 128.486 93.4481 134.105 99.4584 131.342C105.469 128.578 112.511 119.454 112.511 119.454C112.511 119.454 121.653 122.843 127.813 122.735L131.954 122.882C132.511 122.562 132.952 122.063 133.209 121.461C133.467 120.859 133.528 120.187 133.382 119.547C133.382 119.547 115.239 112.507 113.52 112.322C111.472 112.04 109.389 112.397 107.539 113.348C105.11 114.537 95.7356 119.084 95.7356 119.084L89.0674 128.486Z" fill="#473F47"/>
<path opacity="0.19" d="M89.0674 128.486C89.0674 128.486 93.4481 134.105 99.4584 131.342C105.469 128.578 112.511 119.454 112.511 119.454C112.511 119.454 121.653 122.843 127.813 122.735L131.954 122.882C132.511 122.562 132.952 122.063 133.209 121.461C133.467 120.859 133.528 120.187 133.382 119.547C133.382 119.547 115.239 112.507 113.52 112.322C111.472 112.04 109.389 112.397 107.539 113.348C105.11 114.537 95.7356 119.084 95.7356 119.084L89.0674 128.486Z" fill="#020202"/>
<path d="M90.256 122.735C90.256 122.735 88.888 130.184 95.0703 132.515C101.253 134.846 113.183 133.094 113.183 133.094C113.183 133.094 117.467 142.102 121.96 146.448L124.83 149.536C125.446 149.708 126.099 149.668 126.69 149.421C127.281 149.174 127.778 148.735 128.105 148.17C128.105 148.17 119.814 130.076 118.708 128.71C117.422 127.026 115.678 125.779 113.699 125.128C111.158 124.24 96.6401 118.906 96.6401 118.906L90.256 122.735Z" fill="#473F47"/>
<path d="M134.653 152.214C134.954 152.217 135.252 152.272 135.535 152.377C135.677 152.431 135.8 152.526 135.892 152.651C135.983 152.775 136.038 152.924 136.051 153.079C136.036 153.231 135.985 153.376 135.901 153.501C135.818 153.627 135.705 153.729 135.573 153.797C135.326 153.959 135.034 154.052 134.788 154.214C134.573 154.387 134.346 154.542 134.107 154.677C133.679 154.795 133.225 154.765 132.814 154.592C130.904 154.06 128.917 153.882 126.946 154.067C126.755 154.094 126.561 154.094 126.37 154.067C126.092 153.976 125.84 153.814 125.638 153.595C125.437 153.376 125.293 153.109 125.219 152.817C124.854 151.566 124.77 150.246 124.972 148.957C124.976 148.813 125.015 148.672 125.084 148.548C125.164 148.449 125.267 148.372 125.384 148.324C127.267 147.421 128.239 149.343 129.592 150.308C131.089 151.388 132.834 152.046 134.653 152.214V152.214Z" fill="#FFBAA8"/>
<path d="M115.007 96.4897L112.167 112.399L100.221 115.564L100.049 114.475L110.978 111.357L113.632 96.3122L115.007 96.4897Z" fill="#09254F"/>
<path d="M111.247 106.478L106.822 107.327L100.049 114.475L110.978 111.357L111.247 106.478Z" fill="#09254F"/>
<path d="M111.247 106.478L106.822 107.327L100.049 114.475L110.978 111.357L111.247 106.478Z" fill="url(#paint0_linear)"/>
<path d="M111.217 106.988L109.431 107.327L105.147 112.399L110.104 111.334L111.217 106.988Z" fill="#09254F"/>
<path d="M110.335 111.727L113.064 96.042L120.801 92.275L121.332 92.522L110.978 111.357L110.335 111.727Z" fill="#09254F"/>
<path d="M91.2503 92.1979C91.5418 92.5529 92.0427 92.7073 92.2669 93.1164C92.4912 93.5256 92.2669 94.2048 92.1698 94.7606C92.0352 95.5325 92.2445 96.3045 92.1174 97.115C92.0978 97.2819 92.033 97.4397 91.9305 97.5704C91.8283 97.6656 91.7089 97.7391 91.5792 97.7865C91.0714 97.9898 90.5374 98.1147 89.9944 98.1571C89.8848 98.1495 89.7762 98.1823 89.6879 98.2497C89.6206 98.3368 89.5884 98.4474 89.5982 98.5585C89.5143 99.9976 89.7709 101.436 90.3457 102.75C90.5326 103.182 90.7494 103.715 90.4803 104.101C90.3785 104.228 90.2473 104.326 90.099 104.386C89.1272 104.811 88.0208 104.201 87.206 103.506C86.4775 102.883 85.8227 102.173 85.2549 101.391C85.0839 101.179 84.9522 100.935 84.8662 100.674C84.7987 100.324 84.7987 99.9651 84.8662 99.616C84.9858 98.4227 84.9858 97.2199 84.8662 96.0266C84.7017 94.4827 84.3429 92.9389 84.6793 91.4491C84.7657 90.9366 85.0126 90.4674 85.382 90.1137C85.8245 89.8007 86.3416 89.6192 86.8771 89.5888C87.9536 89.4498 89.1197 89.3958 90.0019 90.0751C90.2037 90.3144 90.8914 91.7579 91.2503 92.1979Z" fill="#FFBAA8"/>
<path d="M84.9485 100.751C84.9485 100.751 89.7104 102.349 91.3251 103.954C92.9398 105.56 95.3319 106.556 95.0628 110.176C94.7937 113.796 96.6626 118.929 96.6626 118.929C96.6626 118.929 95.7506 125.444 91.3326 127.806C86.9145 130.169 88.1031 129.451 88.1031 129.451C88.1031 129.451 83.7748 118.412 82.2946 115.386C80.8145 112.36 80.5902 100.975 84.9485 100.751Z" fill="white"/>
<path opacity="0.19" d="M92.8725 125.398C92.9585 125.755 92.9296 126.132 92.7903 126.471C92.6311 126.724 92.4223 126.94 92.1773 127.104C91.6205 127.576 90.9948 127.954 90.3233 128.223C89.9872 128.357 89.625 128.405 89.2671 128.363C88.9093 128.321 88.5665 128.191 88.2676 127.984C87.9618 127.708 87.7083 127.375 87.52 127.004C85.7623 124.197 84.3083 121.199 83.1842 118.065C82.0615 114.916 81.7322 111.524 82.2274 108.207L85.1652 111.627C86.3595 113.123 87.7137 114.475 89.202 115.656C90.7032 116.837 92.5485 117.455 94.4349 117.409C96.5953 117.254 96.7672 118.636 95.8477 120.496C94.9283 122.357 93.8892 121.407 92.3567 121.137C91.6166 122.357 92.6557 124.109 92.8725 125.398Z" fill="#020202"/>
<path d="M88.0508 100.071C88.2422 100.826 88.3153 101.608 88.2675 102.387C88.2586 102.702 88.1873 103.012 88.0582 103.298C87.8952 103.568 87.6817 103.801 87.4303 103.985C86.7944 104.485 86.1045 104.907 85.3745 105.243C84.6846 105.504 84.0127 105.814 83.3636 106.17L83.3113 106.208C82.346 106.825 81.6332 107.787 81.3078 108.91C81.2331 109.172 80.635 108.416 80.6126 108.377C80.4446 108.048 80.2973 107.707 80.1716 107.358C79.9105 106.495 79.7449 105.604 79.6782 104.703C79.3642 102.789 77.0543 99.5002 78.1831 97.6321C78.5718 96.9837 79.2596 96.5978 79.7455 96.0265C80.7995 94.7529 80.6724 92.8771 81.2406 91.3101C81.482 90.6163 81.8549 89.979 82.3375 89.4356C82.8201 88.8922 83.4027 88.4536 84.0514 88.1453C85.838 87.3116 89.2842 87.327 89.4562 90.021C89.5384 91.2175 88.8133 91.9894 88.2152 92.9003C87.5441 93.8096 87.1348 94.8957 87.0341 96.0343C86.9967 97.416 87.7144 98.7128 88.0508 100.071Z" fill="#FF681C"/>
<path d="M87.6022 106.424C87.6022 106.424 91.6091 113.68 92.2445 114.144C92.8799 114.607 87.5499 119.045 87.5499 119.045C87.5499 119.045 82.5114 112.183 82.175 108.887C81.8386 105.591 84.9484 103.723 87.6022 106.424Z" fill="white"/>
<path d="M87.3854 118.003C87.3854 118.003 87.9835 120.458 90.9363 119.902L104.056 117.47C104.878 116.837 106.089 116.552 106.635 115.656C106.897 115.232 106.979 114.715 107.225 114.275C107.578 113.722 108.107 113.315 108.721 113.125C109.317 112.925 109.934 112.803 110.56 112.762C110.651 112.594 110.683 112.399 110.648 112.209C110.614 112.02 110.517 111.85 110.373 111.727C110.069 111.496 109.703 111.366 109.326 111.357C107.752 111.216 106.188 111.724 104.975 112.769C104.637 113.124 104.252 113.428 103.832 113.673C103.512 113.796 103.177 113.874 102.837 113.904C99.0099 114.36 95.1375 114.167 91.3176 114.637C90.4136 114.711 89.5335 114.973 88.731 115.409C88.3241 115.701 87.99 116.088 87.7561 116.539C87.5222 116.99 87.3951 117.492 87.3854 118.003V118.003Z" fill="#FFBAA8"/>
<path opacity="0.1" d="M83.1543 94.421C83.1019 95.8413 83.6402 97.2462 83.4832 98.6666C83.3031 99.6112 83.0532 100.54 82.7356 101.445C82.4291 102.681 82.2871 104.309 82.945 105.452C83.0878 105.699 83.2127 105.957 83.3187 106.224C82.3534 106.841 81.6407 107.802 81.3153 108.925C81.2405 109.188 80.6425 108.431 80.6201 108.393C80.4521 108.063 80.3047 107.723 80.179 107.374C79.9179 106.511 79.7524 105.62 79.6856 104.718C79.3717 102.804 77.0617 99.5157 78.1905 97.6476C78.5793 96.9992 79.267 96.6132 79.7529 96.042C79.9201 95.913 80.0775 95.7711 80.2239 95.6175C80.8246 94.8309 81.3575 93.9915 81.8161 93.1087C82.7391 91.6809 84.1004 90.6151 85.681 90.0828C84.9535 90.5434 84.3441 91.178 83.9043 91.9331C83.4645 92.6882 83.2072 93.5416 83.1543 94.421Z" fill="#020202"/>
<path d="M121.332 92.522L113.632 96.3121L110.978 111.357L112.167 112.399L118.17 107.968L121.332 92.522Z" fill="#09254F"/>
<path d="M121.332 92.522L113.632 96.3121L110.978 111.357L112.167 112.399L118.17 107.968L121.332 92.522Z" fill="url(#paint1_linear)"/>
<path d="M105.618 108.995L107.689 108.763L105.775 111.094L103.622 111.187L105.618 108.995Z" fill="#09254F"/>
<defs>
<linearGradient id="paint0_linear" x1="108.392" y1="103.151" x2="103.85" y2="117.598" gradientUnits="userSpaceOnUse">
<stop offset="0.01"/>
<stop offset="0.13" stop-opacity="0.69"/>
<stop offset="0.25" stop-opacity="0.32"/>
<stop offset="1" stop-opacity="0"/>
</linearGradient>
<linearGradient id="paint1_linear" x1="1557.37" y1="3274.81" x2="1503.82" y2="2609.09" gradientUnits="userSpaceOnUse">
<stop offset="0.01"/>
<stop offset="0.13" stop-opacity="0.69"/>
<stop offset="0.25" stop-opacity="0.32"/>
<stop offset="1" stop-opacity="0"/>
</linearGradient>
</defs>
</svg>
