<svg width="230" height="179" viewBox="0 0 230 179" fill="none" xmlns="http://www.w3.org/2000/svg">
<g clip-path="url(#clip0)">
<path opacity="0.18" d="M217.328 147.968C215.603 156.43 211.991 164.304 205.758 169.939C194.751 179.903 178.374 180.455 164.038 177.266C149.702 174.077 136.125 167.736 121.616 165.699C102.927 163.068 84.1053 167.724 65.3298 169.618C54.214 170.74 42.3679 170.74 32.6783 165.01C23.2819 159.458 17.2266 149.15 14.3226 138.378C11.4186 127.607 11.3208 116.271 11.3438 105.084C11.3783 84.0638 13.759 59.3203 31.2521 48.5726C39.1246 43.7391 48.6245 42.8602 57.2906 39.8081C72.2419 34.553 84.1858 23.0809 97.182 13.8295C101.38 10.8605 105.762 8.04594 110.569 6.32987C124.508 1.34198 136.067 6.15173 149.098 10.3321C162.899 14.7737 176.286 6.85241 190.191 10.2311C204.7 13.7583 213.274 29.8264 215.137 45.087C217 60.3476 213.987 75.81 214.562 91.1894C215.039 104.948 218.328 118.504 218.668 132.25C218.819 137.526 218.37 142.801 217.328 147.968Z" fill="#09254F"/>
<path d="M217.328 147.968C215.603 156.43 211.991 164.304 205.758 169.939L125.107 145.866L133.939 145.391L184.297 153.597L136.7 143.117L144.348 142.03L217.328 147.968Z" fill="url(#paint0_linear)"/>
<path opacity="0.18" d="M200.95 55.2409L145.688 57.242C143.387 57.3251 141.662 58.9046 141.662 60.9532V122.708C141.662 124.596 143.14 126.128 145.228 126.437L200.226 130.398C201.136 130.508 202.059 130.421 202.935 130.143C203.811 129.865 204.622 129.402 205.316 128.783C206.01 128.165 206.571 127.404 206.965 126.549C207.359 125.694 207.576 124.765 207.604 123.818L207.822 62.022C207.78 60.1825 207.033 58.4353 205.744 57.164C204.456 55.8927 202.732 55.2011 200.95 55.2409Z" fill="#09254F"/>
<path opacity="0.54" d="M41.9539 7.82624L127.441 20.5929C128.925 20.8142 130.281 21.5801 131.263 22.7503C132.244 23.9204 132.784 25.4165 132.784 26.9643V117.031C132.783 118.463 132.321 119.853 131.47 120.983C130.619 122.113 129.429 122.919 128.085 123.272L43.2765 145.528C41.6814 145.946 40.0149 145.984 38.4035 145.638C36.7921 145.292 35.2784 144.571 33.9772 143.531C32.6761 142.49 31.6218 141.157 30.8945 139.632C30.1672 138.108 29.7861 136.432 29.78 134.732L29.3775 19.1143C29.372 17.4815 29.7074 15.8667 30.3607 14.3798C31.014 12.8928 31.9699 11.5687 33.1633 10.4976C34.3567 9.4264 35.7596 8.63333 37.2766 8.17236C38.7935 7.71139 40.3888 7.59333 41.9539 7.82624Z" fill="white"/>
<g opacity="0.18">
<path opacity="0.18" d="M36.7554 153.592C33.321 153.582 30.0297 152.17 27.6001 149.664C25.1706 147.157 23.8001 143.76 23.7879 140.214L23.3452 13.6695C23.3381 11.7118 23.7397 9.7755 24.5228 7.99257C25.3058 6.20963 26.4519 4.62193 27.8828 3.33764C29.3138 2.05334 30.996 1.10264 32.8149 0.550289C34.6338 -0.00205914 36.5466 -0.143071 38.423 0.13686L131.984 14.1089C133.878 14.4011 135.609 15.3839 136.862 16.8794C138.115 18.3749 138.808 20.2842 138.816 22.2617V120.832C138.822 122.667 138.234 124.451 137.145 125.902C136.056 127.352 134.529 128.385 132.807 128.836L39.9872 153.182C38.9304 153.456 37.8449 153.593 36.7554 153.592ZM36.5311 2.35766C35.098 2.35687 33.6788 2.64845 32.3551 3.21566C31.0314 3.78287 29.8293 4.61453 28.8178 5.66288C27.8062 6.71123 27.0053 7.9556 26.4609 9.32453C25.9164 10.6935 25.6393 12.16 25.6454 13.6398L26.0882 140.178C26.0903 141.859 26.4642 143.518 27.1812 145.027C27.8983 146.537 28.9396 147.857 30.2258 148.888C31.512 149.919 33.0091 150.633 34.6031 150.976C36.1971 151.319 37.8458 151.281 39.4236 150.866L132.237 126.521C133.461 126.2 134.546 125.467 135.321 124.437C136.096 123.408 136.516 122.142 136.516 120.838V22.2677C136.51 20.8599 136.016 19.5009 135.124 18.4367C134.231 17.3724 132.999 16.6734 131.651 16.4663L38.0953 2.4883C37.5775 2.40658 37.0548 2.36292 36.5311 2.35766Z" fill="#09254F"/>
</g>
<path opacity="0.18" d="M79.7809 47.8066H127.119V89.5802L79.1943 98.6356L79.7809 47.8066Z" fill="#09254F"/>
<path opacity="0.18" d="M127.769 72.936C125.682 74.4265 125.164 77.3301 124.825 79.925C124.388 83.2622 123.962 86.7596 125.107 89.9127C130.437 87.9888 134.353 83.3809 138.017 78.9215C138.754 78.1658 139.284 77.221 139.552 76.1841C139.652 75.1417 139.406 74.095 138.856 73.2151C137.804 71.2853 136.165 69.783 134.698 68.1738C130.098 63.1028 126.947 56.7966 123.933 50.5677C123.646 49.9739 122.111 51.9809 122.013 52.1947C121.541 53.1863 121.593 54.5046 121.576 55.5794C121.467 57.3817 121.662 59.1898 122.151 60.9235C123.508 65.0088 125.739 69.1179 127.769 72.936Z" fill="#09254F"/>
<path opacity="0.18" d="M117.01 75.9882C114.393 74.6462 112.007 72.8707 109.459 71.3922C108.591 70.8934 107.516 70.4243 106.659 70.929C105.802 71.4337 105.647 72.7579 106.084 73.6842C106.602 74.5769 107.33 75.3202 108.2 75.8456L112.91 79.2719C113.819 79.9672 114.78 80.5867 115.785 81.1245C117.079 81.7303 118.427 82.2055 119.81 82.5437L122.03 83.1375C123.33 83.4997 124.779 83.856 125.975 83.2147C126.442 82.9572 126.828 82.5684 127.09 82.0934C127.351 81.6184 127.477 81.0765 127.453 80.5307C127.298 78.0783 125.342 77.9952 123.565 77.8883C121.278 77.7235 119.047 77.0769 117.01 75.9882Z" fill="#09254F"/>
<path d="M135.647 140.759C135.124 141.008 134.692 141.425 134.417 141.947C134.36 142.063 134.342 142.194 134.365 142.321C134.405 142.415 134.465 142.498 134.541 142.565C134.617 142.632 134.706 142.681 134.802 142.707C136.226 143.198 137.754 143.264 139.213 142.897C140.664 142.535 142.144 142.312 143.635 142.232C143.76 142.256 143.888 142.25 144.011 142.215C144.133 142.18 144.247 142.117 144.342 142.03C144.435 141.889 144.482 141.72 144.474 141.549C144.533 140.213 144.307 138.879 143.813 137.642C143.848 137.719 139.903 137.88 139.563 138.123C138.937 138.568 138.413 139.138 137.746 139.554C137.079 139.97 136.343 140.35 135.647 140.759Z" fill="#282328"/>
<path d="M140.794 111.616C140.794 111.616 141.225 123.284 142.519 129.857C143.813 136.431 143.922 138.105 143.922 138.105H140.357C140.357 138.105 134.854 119.496 133.456 115.256C132.059 111.016 131.403 108.237 131.403 108.237L140.794 111.616Z" fill="#282328"/>
<path d="M127.832 107.495C127.832 107.495 128.407 122.209 129.247 130.736C130.087 139.263 130.069 141.264 130.069 141.264C130.069 141.264 133.307 142.268 134.279 141.264L135.895 117.192L136.711 111.254L127.832 107.495Z" fill="#473F47"/>
<path d="M112.145 66.4221C112.018 65.6561 112.03 64.8604 111.967 64.0825C111.965 63.7777 111.885 63.4788 111.737 63.2156C111.656 63.0883 111.536 62.9931 111.396 62.9456C111.256 62.8981 111.104 62.9012 110.966 62.9543C110.632 63.1265 110.621 63.6075 110.627 63.9994C110.632 64.3913 110.54 64.8901 110.167 64.9613C110.027 64.9798 109.885 64.9484 109.764 64.8723C109.577 64.7718 109.416 64.6267 109.294 64.4491C109.172 64.2715 109.093 64.0665 109.063 63.851C109.028 63.5956 109.063 63.3343 109.017 63.079C108.873 62.3368 107.953 62.4852 107.521 62.8474C107.279 63.1033 107.084 63.4032 106.946 63.7322C106.635 64.2868 106.408 64.8876 106.274 65.5136C105.819 68.0728 108.804 68.6251 110.063 70.264C110.234 70.5202 110.427 70.7606 110.638 70.9825C110.851 71.1751 111.109 71.3054 111.387 71.3598C111.665 71.4143 111.951 71.3909 112.217 71.2921C112.483 71.1932 112.719 71.0226 112.899 70.7979C113.08 70.5733 113.198 70.3028 113.243 70.0146C113.387 69.0586 112.714 68.2332 112.386 67.295C112.279 67.0126 112.198 66.7203 112.145 66.4221Z" fill="#FFBBAB"/>
<path d="M126.429 53.0735C126.268 52.5657 126.009 52.0967 125.669 51.6946C125.328 51.2926 124.912 50.9658 124.445 50.734C124.24 50.6286 124.005 50.6033 123.784 50.6627C123.629 50.7372 123.501 50.8611 123.42 51.016C123.338 51.171 123.306 51.3489 123.33 51.5237C123.382 51.8723 123.512 52.2035 123.709 52.4916C123.831 52.6679 123.912 52.8712 123.945 53.0854C123.96 53.1963 123.936 53.3092 123.877 53.4031C123.818 53.497 123.727 53.5656 123.623 53.5961C123.439 53.6258 123.238 53.4951 123.048 53.5961C122.98 53.6423 122.931 53.7121 122.909 53.7927C122.886 53.8733 122.893 53.9594 122.927 54.0355C123.007 54.1809 123.124 54.3002 123.266 54.3799C123.667 54.5914 124.051 54.8336 124.416 55.1043C125.072 55.6981 125.279 56.6601 125.768 57.4083C125.811 57.4896 125.88 57.5527 125.963 57.5864C126.034 57.5983 126.107 57.5857 126.17 57.5508C126.505 57.4298 126.791 57.1957 126.98 56.8865C127.17 56.5772 127.254 56.2108 127.217 55.8466C127.041 54.8984 126.777 53.9698 126.429 53.0735Z" fill="#FFBBAB"/>
<path d="M133.732 63.1681C133.185 62.5984 132.706 61.9624 132.306 61.2739L128.005 54.5046L124.779 57.8952C124.655 57.9998 124.565 58.1405 124.52 58.2989C124.507 58.4872 124.553 58.6747 124.652 58.8333L126.998 63.5184C127.292 64.1398 127.635 64.7355 128.022 65.2998C128.443 65.8265 128.89 66.3299 129.362 66.808C130.949 68.5122 132.237 70.549 134.204 71.7959C134.374 71.9198 134.572 71.9955 134.779 72.0156C135.016 72.0095 135.247 71.9355 135.446 71.8019C137.004 70.9527 140.006 69.5751 139.006 67.2534C138.08 65.1573 135.245 64.6347 133.732 63.1681Z" fill="white"/>
<path opacity="0.1" d="M133.732 63.1681C133.185 62.5984 132.706 61.9624 132.306 61.2739L128.005 54.5046L124.779 57.8952C124.655 57.9998 124.565 58.1405 124.52 58.2989C124.507 58.4872 124.553 58.6747 124.652 58.8333L126.998 63.5184C127.292 64.1398 127.635 64.7355 128.022 65.2998C128.443 65.8265 128.89 66.3299 129.362 66.808C130.949 68.5122 132.237 70.549 134.204 71.7959C134.374 71.9198 134.572 71.9955 134.779 72.0156C135.016 72.0095 135.247 71.9355 135.446 71.8019C137.004 70.9527 140.006 69.5751 139.006 67.2534C138.08 65.1573 135.245 64.6347 133.732 63.1681Z" fill="white"/>
<path opacity="0.1" d="M128.241 57.6992C127.853 56.9752 127.745 56.1272 127.936 55.324C128.291 55.5352 128.592 55.8303 128.816 56.185C130.915 59.0056 132.622 62.2121 135.308 64.4448C135.649 64.6971 135.961 64.9879 136.24 65.3117C136.74 65.953 136.78 67.4316 135.665 67.4019C134.865 67.4019 133.939 66.1668 133.422 65.6205C131.208 63.347 129.449 60.6452 128.246 57.6695L128.241 57.6992Z" fill="#020202"/>
<path d="M133.876 59.6053C133.823 60.1031 133.622 60.5717 133.301 60.9473C132.818 61.7193 132.548 62.7762 133.031 63.5541C133.487 64.1093 134.084 64.5208 134.756 64.7417C135.388 65.0445 136.056 65.5433 136.09 66.2618C136.09 66.6537 135.964 67.1347 136.263 67.3841C136.411 67.4829 136.586 67.5307 136.763 67.5207C137.763 67.5741 138.764 67.58 139.765 67.5207C139.937 67.5278 140.109 67.4911 140.265 67.4138C140.498 67.1932 140.642 66.89 140.667 66.5646C141.007 65.1217 142.088 63.9994 142.669 62.6396C143.078 61.6578 143.223 60.5802 143.088 59.5205C142.953 58.4608 142.544 57.4582 141.904 56.6185C141.745 56.3945 141.536 56.2132 141.294 56.0901C141.058 56.0079 140.807 55.9756 140.558 55.995C139.167 55.995 137.648 55.995 136.475 56.8264C135.469 57.5805 133.801 58.2574 133.876 59.6053Z" fill="#FFBBAB"/>
<path d="M136.7 55.3003C136.75 55.684 136.943 56.0323 137.239 56.2708C137.534 56.5093 137.908 56.6191 138.281 56.5769C138.126 56.8382 138.454 57.1351 138.741 57.1707C139.029 57.2063 139.391 57.2479 139.535 57.5151C139.598 57.6339 139.598 57.7823 139.673 57.9011C139.747 58.0198 140 58.1386 140.115 58.3108C140.164 58.4167 140.189 58.5323 140.189 58.6493C140.189 58.7663 140.164 58.8818 140.115 58.9877L139.609 60.6266C139.659 60.5394 139.728 60.4659 139.811 60.4121C139.894 60.3584 139.988 60.3261 140.086 60.3179C140.183 60.3098 140.282 60.326 140.372 60.3653C140.462 60.4045 140.542 60.4657 140.604 60.5435C140.696 60.721 140.727 60.9258 140.69 61.1236C140.653 61.3214 140.552 61.5002 140.403 61.6301C140.098 61.8806 139.768 62.0975 139.42 62.2774C139.667 62.8355 140.57 62.8355 140.736 63.4234C140.776 63.5992 140.776 63.782 140.736 63.9578L140.409 65.5076C140.817 65.4925 141.214 65.3655 141.559 65.1395L141.628 65.6798C141.754 65.4423 142.203 65.5967 142.157 65.8698C143.724 64.7575 145.11 63.3945 146.263 61.832C146.459 61.6256 146.57 61.3491 146.573 61.0601C146.548 60.9194 146.513 60.7805 146.47 60.6444C146.441 60.381 146.465 60.1144 146.539 59.8606C146.746 58.996 146.624 58.0824 146.199 57.3073C145.624 56.3631 144.509 55.9475 143.531 55.4665C142.287 54.8625 141.134 54.0743 140.11 53.127C139.609 52.6638 139.621 53.127 139.213 53.2695C138.804 53.412 138.5 53.1804 138.131 53.3467C137.441 53.6733 136.636 54.5343 136.7 55.3003Z" fill="#FC682D"/>
<path d="M144.446 82.3062C144.543 86.1837 144.831 90.0611 144.779 93.9386C144.704 99.5381 143.917 105.096 143.134 110.636C143.128 110.918 143.019 111.187 142.83 111.39C142.657 111.502 142.458 111.559 142.255 111.557C140.198 111.673 138.135 111.541 136.107 111.165C133.508 110.667 130.96 109.921 128.494 108.938C126.561 108.196 124.388 106.99 124.152 104.876C124.112 104.279 124.158 103.678 124.29 103.095C125.084 98.5999 125.745 94.0515 126.59 89.5802L127.125 86.7537C127.228 86.2134 127.332 85.6671 127.476 85.1386C127.654 84.4913 127.896 83.8619 128.131 83.2384C128.632 81.938 129.126 80.6317 129.626 79.3313L129.661 79.2481C124.992 81.2552 119.137 79.1947 114.917 76.8729C113.03 75.8279 111.127 74.373 110.581 72.2294C110.46 71.8312 110.46 71.4044 110.581 71.0062C110.703 70.7149 110.879 70.4508 111.098 70.2284C111.606 69.6545 112.144 69.1094 112.708 68.5954C112.902 68.3915 113.138 68.2353 113.398 68.1382C114.1 67.9304 114.75 68.542 115.279 69.0705C116.803 70.5723 118.612 71.7322 120.591 72.4772C122.57 73.2221 124.677 73.5361 126.78 73.3992C127.933 73.3515 129.066 73.0711 130.115 72.5738C131.037 72.0586 131.893 71.4262 132.663 70.6915C133.707 69.8389 134.654 68.8668 135.486 67.7938C135.646 67.5227 135.859 67.2898 136.113 67.1109C136.392 66.9779 136.697 66.9148 137.004 66.9268C138.235 66.8734 139.581 66.624 140.794 66.6715C142.007 66.719 142.519 67.5206 143.261 68.4529C143.987 69.274 144.56 70.2261 144.952 71.2616C145.527 73.0429 144.952 74.9372 144.704 76.7779C144.461 78.6093 144.375 80.4592 144.446 82.3062Z" fill="white"/>
<path opacity="0.1" d="M144.446 82.3062C144.543 86.1837 144.831 90.0611 144.779 93.9386C144.704 99.5381 143.917 105.096 143.134 110.636C143.128 110.918 143.019 111.187 142.83 111.39C142.657 111.502 142.458 111.559 142.255 111.557C140.198 111.673 138.135 111.541 136.107 111.165C133.508 110.667 130.96 109.921 128.494 108.938C126.561 108.196 124.388 106.99 124.152 104.876C124.112 104.279 124.158 103.678 124.29 103.095C125.084 98.5999 125.745 94.0515 126.59 89.5802L127.125 86.7537C127.228 86.2134 127.332 85.6671 127.476 85.1386C127.654 84.4913 127.896 83.8619 128.131 83.2384C128.632 81.938 129.126 80.6317 129.626 79.3313L129.661 79.2481C124.992 81.2552 119.137 79.1947 114.917 76.8729C113.03 75.8279 111.127 74.373 110.581 72.2294C110.46 71.8312 110.46 71.4044 110.581 71.0062C110.703 70.7149 110.879 70.4508 111.098 70.2284C111.606 69.6545 112.144 69.1094 112.708 68.5954C112.902 68.3915 113.138 68.2353 113.398 68.1382C114.1 67.9304 114.75 68.542 115.279 69.0705C116.803 70.5723 118.612 71.7322 120.591 72.4772C122.57 73.2221 124.677 73.5361 126.78 73.3992C127.933 73.3515 129.066 73.0711 130.115 72.5738C131.037 72.0586 131.893 71.4262 132.663 70.6915C133.707 69.8389 134.654 68.8668 135.486 67.7938C135.646 67.5227 135.859 67.2898 136.113 67.1109C136.392 66.9779 136.697 66.9148 137.004 66.9268C138.235 66.8734 139.581 66.624 140.794 66.6715C142.007 66.719 142.519 67.5206 143.261 68.4529C143.987 69.274 144.56 70.2261 144.952 71.2616C145.527 73.0429 144.952 74.9372 144.704 76.7779C144.461 78.6093 144.375 80.4592 144.446 82.3062Z" fill="#020202"/>
<path d="M125.946 143.93C125.422 144.178 124.99 144.595 124.716 145.118C124.661 145.234 124.645 145.365 124.67 145.492C124.709 145.586 124.768 145.669 124.842 145.736C124.917 145.803 125.005 145.851 125.101 145.878C126.52 146.36 128.042 146.422 129.494 146.056C130.943 145.694 132.422 145.471 133.911 145.391C134.037 145.415 134.166 145.409 134.289 145.374C134.413 145.339 134.527 145.276 134.624 145.189C134.715 145.047 134.76 144.878 134.75 144.708C134.807 143.372 134.584 142.039 134.095 140.801C134.095 140.884 130.179 141.039 129.839 141.282C129.212 141.727 128.689 142.297 128.022 142.719C127.355 143.141 126.619 143.515 125.946 143.93Z" fill="#282328"/>
<path opacity="0.18" d="M66.8709 54.4392L69.4472 72.5381C69.7117 74.4264 70.1602 76.5107 69.9762 78.4227C69.7922 80.3347 69.4012 82.2052 69.1251 84.0756C69.6292 83.6714 70.0022 83.1185 70.1947 82.4902C70.856 84.0697 70.304 85.8748 70.2465 87.5968C70.2257 87.7997 70.2574 88.0046 70.3385 88.1906C70.4464 88.3468 70.6049 88.4579 70.7854 88.5037C70.9658 88.5494 71.1561 88.5268 71.3218 88.44C71.6517 88.2567 71.9248 87.9809 72.1097 87.6443C72.9049 86.4109 73.4416 85.0193 73.6853 83.559C73.9613 81.9498 73.3805 81.2966 72.9262 79.9309C72.5064 78.6602 72.9262 77.0154 73.0987 75.7268C73.4524 72.132 73.3945 68.5066 72.9262 64.9257C72.7365 63.1443 72.5064 61.4045 72.2764 59.6409L71.8796 56.565L70.8963 49.0238C70.6318 46.993 70.4075 44.7603 69.1021 43.0858C67.952 41.637 66.1233 41.1857 64.5995 40.3306C63.4493 39.6774 61.1491 39.143 60.9939 37.4982C61.0092 36.8032 61.208 36.1256 61.5689 35.5387C62.8148 32.9042 63.3699 29.9785 63.1791 27.0533C63.0238 24.6781 62.4948 21.4776 60.8271 19.6843C60.2349 19.0237 59.4813 18.5399 58.6455 18.2839C57.8096 18.0279 56.9225 18.0091 56.0772 18.2295C55.289 18.5262 54.5786 19.0086 54.0026 19.6384C53.4266 20.2682 53.0009 21.0281 52.7591 21.8576C52.2877 23.5213 52.1239 25.2617 52.2761 26.988C52.3081 28.8803 52.5768 30.7604 53.0754 32.5816C53.5067 34.0067 54.9041 35.4852 54.628 37.041C54.3808 38.4186 53.0121 38.8818 51.931 39.3449C50.5615 39.9076 49.2968 40.7112 48.1932 41.7201C47.1637 42.8025 46.3783 44.1062 45.893 45.5382C44.8694 48.24 44.6509 50.7933 44.4381 53.602C44.1908 56.8382 43.7538 60.0744 43.4088 63.2987C43.2862 64.2936 43.2152 65.2946 43.196 66.2973C43.196 68.7082 43.771 71.0833 43.9781 73.4882C44.2185 75.666 44.1332 77.869 43.725 80.02C43.5813 80.685 43.4318 81.3501 43.3455 82.0211C43.2024 83.0919 43.2355 84.18 43.4433 85.2395C43.6016 86.1398 43.9999 86.9767 44.5934 87.6562C44.7491 87.8442 44.9463 87.9909 45.1684 88.0837C45.2855 88.1257 45.411 88.1358 45.533 88.1129C45.6549 88.09 45.769 88.035 45.8642 87.9531C46.0362 87.7362 46.1243 87.4612 46.1115 87.1812C46.1811 86.2225 46.1811 85.2599 46.1115 84.3013C46.1115 84.0459 46.1115 83.7075 46.3243 83.6184L46.5945 84.4022C46.6521 84.5685 46.7556 84.7644 46.9223 84.7644C47.0891 84.7644 47.1696 84.5982 47.2214 84.4497C47.6814 83.084 46.9281 81.5342 46.8131 80.1744C46.6693 78.6068 47.3881 77.0569 47.7677 75.5606C48.3427 73.0547 48.0724 70.4361 48.0782 67.8412C48.1028 65.5395 48.295 63.2429 48.6532 60.971C48.82 59.8309 49.0155 58.6967 49.2283 57.5685C49.3721 56.7788 49.8551 55.5793 49.5446 54.8133C49.9816 59.1302 50.5164 63.4412 50.9995 67.7522C51.3504 70.1388 51.4583 72.5569 51.3215 74.9668C50.8959 79.4737 49.8321 83.5709 49.9126 88.1787C49.9989 93.1785 50.5739 98.1664 50.4071 103.172C50.2231 108.445 49.2225 113.754 50.0276 118.967C50.7982 123.913 53.1732 128.961 51.6205 133.711C51.4616 134.11 51.3553 134.53 51.3042 134.958C51.241 136.057 52.1496 137.013 53.1617 137.333C54.2014 137.599 55.2852 137.626 56.3359 137.41C57.325 137.286 58.4349 137.09 58.9927 136.223C60.0335 134.631 58.3429 132.755 57.9633 131.235C57.5321 129.283 57.2628 127.296 57.1583 125.297C56.9225 121.93 56.8362 118.551 56.819 115.202C56.819 112.032 57.1353 108.671 56.7672 105.565C56.4487 102.555 56.6434 99.5101 57.3423 96.5691C57.5493 95.6428 57.7908 94.7283 58.0496 93.8198C58.2394 93.1429 58.3544 91.8781 58.8662 91.3793C59.5002 92.6458 59.8907 94.027 60.0163 95.4468C60.3576 98.2996 60.5362 101.171 60.5511 104.045C60.6546 107.014 60.7581 109.983 61.0284 112.952C61.5344 118.54 62.6155 124.198 61.5402 129.697C61.3217 130.837 61.0169 132.072 61.5114 133.105C61.8091 133.627 62.2463 134.05 62.7706 134.321C63.2949 134.593 63.884 134.703 64.4672 134.637C65.6326 134.491 66.7489 134.066 67.7277 133.396C68.0567 133.247 68.3378 133.004 68.5386 132.696C68.8606 132.037 68.4351 131.265 68.0843 130.623C66.0026 126.835 66.1233 122.185 66.7962 117.886C67.469 113.587 68.6536 109.324 68.4926 104.971C68.3096 102.546 67.9831 100.135 67.515 97.7507C66.6524 92.2581 67.1354 87.0624 67.0664 81.6054C67.0032 76.9916 66.0486 72.455 65.5195 67.8768C64.8915 63.3511 65.3557 58.7352 66.8709 54.4392Z" fill="#09254F"/>
<g opacity="0.18">
<path opacity="0.18" d="M94.3757 39.7666C92.7311 39.7666 91.1842 38.579 90.2641 37.3914C89.7465 36.7037 89.2702 35.9839 88.838 35.2359C88.3393 34.351 87.7617 33.5161 87.1128 32.742C86.1261 31.6622 84.8759 30.8768 83.4937 30.4683C82.1115 30.0597 80.6482 30.0431 79.2576 30.4202L79.1023 29.8264C80.5946 29.4252 82.1638 29.4443 83.6464 29.8819C85.1291 30.3195 86.4711 31.1595 87.5326 32.3144C88.2031 33.1165 88.7999 33.9812 89.3153 34.8975C89.736 35.6229 90.1968 36.3228 90.6954 36.9936C91.6902 38.2524 93.4557 39.5409 95.1693 39.0184C96.1053 38.6352 96.9071 37.9687 97.4695 37.1064C98.2196 36.051 98.9053 34.9484 99.5225 33.8049C100.381 32.1188 101.453 30.5574 102.708 29.1614C103.525 28.3241 104.824 27.3503 106.302 27.38C107.341 27.4693 108.322 27.912 109.091 28.6388C110.245 29.7281 111.248 30.977 112.07 32.3501C112.57 33.1101 113.088 33.888 113.657 34.5946C115.037 36.3107 117.447 38.0149 119.701 37.1658C121.225 36.572 122.134 35.0875 123.1 33.502C124.066 31.9166 125.164 30.0936 127.016 29.5652L127.165 30.159C125.532 30.6221 124.583 32.1838 123.583 33.8346C122.582 35.4853 121.61 37.0945 119.897 37.7358C117.366 38.6918 114.721 36.857 113.214 34.9925C112.639 34.268 112.105 33.4723 111.593 32.7004C110.797 31.3821 109.83 30.1832 108.718 29.1376C108.047 28.4966 107.19 28.1021 106.279 28.0154C105.003 27.956 103.841 28.8467 103.105 29.6008C101.887 30.9612 100.847 32.4803 100.011 34.1196C99.3842 35.2871 98.685 36.4117 97.9181 37.4864C97.2792 38.453 96.3677 39.1931 95.3073 39.6063C95.0052 39.7029 94.6919 39.7568 94.3757 39.7666Z" fill="#09254F"/>
</g>
<path d="M79.8096 40.0872L79.7521 39.4934C81.422 39.3283 83.052 38.8684 84.5711 38.1336C85.367 37.789 86.0898 37.2867 86.6987 36.655C87.2233 36.0096 87.6588 35.2922 87.9926 34.5233C88.1306 34.2502 88.2629 33.9711 88.4124 33.6979C89.5625 31.5365 91.9432 29.0841 94.8415 29.3217C96.9404 29.4879 98.6196 31.014 99.6547 32.2906C100.23 32.9973 100.765 33.7692 101.271 34.5114C101.804 35.3156 102.38 36.0887 102.996 36.8273C103.463 37.4512 104.085 37.9333 104.796 38.2227C106.164 38.674 107.585 37.7773 108.384 36.8748C109.024 36.092 109.574 35.2352 110.023 34.3214C110.241 33.9176 110.46 33.5139 110.696 33.1338C111.702 31.4415 112.812 30.4558 114.077 30.1173C115.217 29.866 116.405 30.0014 117.464 30.5033C118.66 30.9973 119.753 31.7229 120.684 32.641C120.983 32.9438 121.259 33.2348 121.547 33.5732C121.95 34.0508 122.386 34.4974 122.852 34.9093C123.204 35.235 123.62 35.4772 124.073 35.6188C124.525 35.7604 125.001 35.7979 125.469 35.7287L125.59 36.3225C125.032 36.408 124.463 36.3644 123.924 36.1949C123.385 36.0255 122.89 35.7344 122.473 35.3428C121.984 34.9146 121.527 34.4502 121.104 33.9533C120.834 33.6445 120.529 33.3595 120.265 33.0448C119.388 32.1793 118.359 31.4941 117.234 31.0259C116.287 30.5768 115.225 30.4499 114.204 30.6636C113.088 30.9665 112.093 31.8512 111.167 33.4248C110.937 33.8108 110.724 34.2027 110.512 34.6124C110.036 35.5653 109.457 36.4597 108.787 37.2785C107.872 38.3117 106.228 39.3271 104.594 38.7868C103.784 38.4642 103.073 37.9228 102.536 37.2192C101.921 36.4593 101.345 35.6665 100.811 34.844C100.31 34.1077 99.7927 33.3535 99.2234 32.6647C98.2573 31.4771 96.7047 30.0758 94.8012 29.9273C92.1618 29.7314 89.9938 31.9878 88.9185 34.0008C88.7804 34.262 88.6424 34.5352 88.5102 34.8083C88.1544 35.6233 87.6899 36.3829 87.13 37.0648C86.4736 37.7556 85.6921 38.3064 84.8298 38.6858C83.2456 39.4439 81.5479 39.9178 79.8096 40.0872Z" fill="#09254F"/>
<path d="M136.113 111.165C133.514 110.667 130.965 109.921 128.499 108.938C126.567 108.196 124.393 106.99 124.158 104.876C124.118 104.279 124.164 103.678 124.296 103.095C125.089 98.5999 125.751 94.0514 126.596 89.5802L127.131 86.7537C127.234 86.2133 127.338 85.667 127.482 85.1386C127.66 84.4913 127.901 83.8619 128.137 83.2384C128.637 81.938 129.132 80.6316 129.632 79.3312C131.432 78.8146 133.14 78.5118 134.905 77.3954C133.905 84.1487 132.575 90.8454 130.92 97.4598C130.11 100.708 129.345 104.585 131.495 107.073C132.864 108.647 135.245 109.484 136.113 111.165Z" fill="white"/>
<path opacity="0.41" d="M197.086 100.773H164.544V37.1064L197.086 35.0637V100.773Z" fill="#09254F"/>
<path d="M119.339 75.1509C116.711 74.183 114.037 73.2211 111.938 71.2734C111.695 71.0958 111.528 70.8275 111.472 70.5253C111.489 70.341 111.545 70.1628 111.635 70.0029C111.726 69.843 111.849 69.7052 111.995 69.5989C112.37 69.209 112.796 68.8752 113.26 68.6073C113.494 68.4748 113.752 68.3941 114.017 68.3706C114.282 68.3471 114.55 68.3812 114.802 68.4707C115.152 68.6519 115.468 68.8973 115.733 69.1951C117.662 70.9916 120.038 72.1967 122.594 72.6748C125.078 73.227 127.815 73.2686 130.202 72.2829C131.587 71.6891 134.578 67.96 135.952 68.5063C137.326 69.0526 136.705 71.8316 136.05 72.6629C134.641 74.5215 131.07 75.3944 128.936 75.816C125.737 76.4804 122.424 76.2508 119.339 75.1509Z" fill="white"/>
<path d="M140.259 69.0289C140.562 68.8798 140.831 68.6654 141.047 68.4001C141.264 68.1349 141.422 67.8248 141.513 67.4909C140.789 67.3374 140.046 67.2994 139.31 67.3781L137.211 67.4909L135.826 67.5681C134.963 67.6097 134.946 68.0016 135.251 68.6132C135.4 68.9042 135.78 69.1417 135.964 69.4445C136.148 69.7474 136.159 70.0977 136.349 70.3293C136.924 71.0122 137.05 70.6262 137.758 70.1868C138.465 69.7474 139.46 69.4564 140.259 69.0289Z" fill="white"/>
</g>
<defs>
<linearGradient id="paint0_linear" x1="124.324" y1="115.018" x2="224.918" y2="179.194" gradientUnits="userSpaceOnUse">
<stop offset="0.01"/>
<stop offset="0.08" stop-opacity="0.69"/>
<stop offset="0.21" stop-opacity="0.32"/>
<stop offset="1" stop-opacity="0"/>
</linearGradient>
<clipPath id="clip0">
<rect width="230" height="179" fill="white"/>
</clipPath>
</defs>
</svg>
