<svg width="230" height="179" viewBox="0 0 230 179" fill="none" xmlns="http://www.w3.org/2000/svg">
<g clip-path="url(#clip0)">
<path opacity="0.18" d="M138.828 3.5938C147.65 5.55948 156.455 8.336 164.004 13.4222C184.527 27.2925 191.612 54.7751 207.936 73.6763C215.074 81.9199 224.194 88.9042 227.972 99.2363C230.976 107.443 230.113 116.571 228.739 125.226C227.471 133.215 225.807 141.131 223.754 148.943C222.493 153.747 221.047 158.587 218.346 162.703C210.25 175.044 193.742 177.384 179.304 177.237C164.543 177.085 149.826 175.545 135.336 172.636C128.079 171.174 120.851 169.368 113.474 168.827C97.454 167.666 81.6895 172.513 65.8835 175.363C50.0774 178.213 32.7425 178.828 19.0602 170.16C13.8199 166.784 9.39545 162.217 6.12425 156.807C2.85306 151.397 0.821493 145.287 0.18448 138.943C-0.666204 129.698 1.52297 120.459 3.87871 111.491C6.91262 99.9181 10.2479 88.4332 13.8847 77.0364C16.6866 68.2461 19.7026 59.4497 24.307 51.5072C44.9019 16.0083 101.237 -4.79718 138.828 3.5938Z" fill="#09254F"/>
<path d="M68.4711 134.145C73.9996 135.026 79.5142 135.978 85.0149 137.002C88.6437 137.677 92.3617 138.421 95.4908 140.429C96.5735 141.124 97.6205 142.082 97.7751 143.372C97.9476 144.803 96.8947 146.142 95.6276 146.744C94.318 147.251 92.918 147.46 91.5229 147.358L55.3659 147.586C47.7037 147.635 39.3516 147.444 33.4146 142.438C32.4023 141.682 31.6251 140.639 31.1779 139.434C30.9666 138.83 30.9443 138.172 31.114 137.554C31.2836 136.936 31.6368 136.388 32.1237 135.988C32.8053 135.602 33.5714 135.404 34.3486 135.411L50.702 134.102" fill="url(#paint0_linear)"/>
<path d="M62.8495 131.172C65.9012 130.46 65.3004 134.919 66.1035 136.578C66.6098 137.421 67.2446 138.174 67.9833 138.808C68.7321 139.444 69.2224 140.347 69.3575 141.339C69.3727 141.524 69.3355 141.709 69.2504 141.873C69.1025 142.068 68.8912 142.201 68.6556 142.248C66.9178 142.776 65.0495 142.586 63.4444 141.719C62.693 141.351 62.0698 140.753 61.6597 140.006C61.3253 139.206 61.1668 138.339 61.1957 137.469C61.1422 135.607 60.3153 131.756 62.8495 131.172Z" fill="#FDB9A9"/>
<path d="M65.5443 140.356C65.5443 140.356 74.2118 140.737 70.5413 143.544C66.8709 146.351 61.392 142.862 60.8566 142.217C60.3212 141.572 60.7614 140.479 60.7614 140.479L65.5443 140.356Z" fill="#09254F"/>
<path d="M61.2374 141.59C62.0107 142.561 66.0797 143.863 67.8822 143.734C69.6847 143.605 71.3028 142.733 71.1243 141.529C70.9459 140.325 67.7632 137.524 67.1683 137.536C66.5735 137.549 66.0916 138.967 64.8899 139.268C64.3519 139.359 63.8004 139.307 63.2873 139.117C62.7743 138.926 62.3165 138.605 61.9572 138.181C61.8469 138.027 61.6886 137.916 61.5088 137.868C61.329 137.82 61.1386 137.837 60.9697 137.917C60.7239 138.506 60.6198 139.148 60.6665 139.788C60.7131 140.427 60.909 141.046 61.2374 141.59Z" fill="white"/>
<path d="M52.4033 132.935C55.4551 132.204 54.8543 136.658 55.6573 138.316C56.157 139.164 56.7927 139.918 57.5372 140.546C58.2864 141.184 58.775 142.09 58.9054 143.083C58.9228 143.268 58.8877 143.453 58.8043 143.618C58.6563 143.813 58.445 143.946 58.2094 143.992C56.4691 144.514 54.6012 144.325 52.9923 143.464C52.2452 143.089 51.6237 142.492 51.2076 141.75C50.8732 140.95 50.7147 140.084 50.7436 139.213C50.6663 137.334 49.8691 133.494 52.4033 132.935Z" fill="#FDB9A9"/>
<path d="M55.0981 142.07C55.0981 142.07 63.7656 142.45 60.0952 145.264C56.4247 148.077 50.9459 144.582 50.4343 143.937C49.9227 143.292 50.3331 142.199 50.3331 142.199L55.0981 142.07Z" fill="#09254F"/>
<path d="M50.7912 143.292C51.5645 144.269 55.6335 145.571 57.436 145.436C59.2385 145.301 60.8566 144.441 60.6782 143.237C60.4997 142.033 57.3171 139.232 56.7222 139.238C56.1273 139.244 55.6454 140.675 54.4438 140.97C53.9042 141.058 53.3519 141.002 52.8388 140.809C52.3258 140.616 51.8688 140.291 51.511 139.864C51.4 139.711 51.2413 139.602 51.0615 139.555C50.8817 139.508 50.6918 139.526 50.5235 139.606C50.2747 140.197 50.169 140.841 50.2156 141.483C50.2623 142.126 50.4598 142.746 50.7912 143.292Z" fill="white"/>
<path d="M60.2558 92.3441L56.1868 136.572L50.3153 135.822C47.9952 125.023 48.5663 92.725 48.5663 92.725L60.2558 92.3441Z" fill="#473F47"/>
<path d="M56.1868 91.1462L60.2558 135.374L66.1392 134.625C69.5003 106.626 66.7341 89.199 66.7341 89.199L56.1868 91.1462Z" fill="#473F47"/>
<path d="M66.2106 75.1444C66.2879 74.3336 66.4961 73.5289 66.5794 72.6873C66.7709 71.0179 66.7389 69.3291 66.4842 67.6687C66.2091 65.8996 65.6945 64.1791 64.9554 62.558C64.2772 61.1574 63.0518 60.5616 61.6776 59.8613C60.5254 59.2181 59.2765 58.7799 57.9834 58.5652C57.0708 58.4779 56.1508 58.5297 55.2528 58.7187C52.4866 59.2654 48.84 60.7397 46.9245 63.0187C45.5086 64.7141 45.3421 67.1343 45.2945 69.3764C45.235 72.4478 45.2945 75.556 45.4789 78.6458C45.4789 79.0942 45.5324 79.5426 45.5681 79.9849C45.818 83.3757 46.0916 86.8893 47.0256 90.1634C47.3171 91.1893 47.6205 92.2212 48.5485 92.7679C50.7079 94.0702 54.0214 93.3515 56.3593 93.0198C59.4646 92.5652 62.6472 92.0861 65.4016 90.532C65.9721 90.2749 66.4344 89.815 66.7043 89.2359C66.9482 88.5356 66.6568 87.7862 66.4485 87.0736C65.5146 83.9163 66.2344 80.593 66.2344 77.3681C66.2344 76.7845 66.163 76.1826 66.163 75.599C66.1929 75.4494 66.2088 75.2972 66.2106 75.1444Z" fill="white"/>
<path opacity="0.1" d="M60.6544 61.5382C60.6951 62.625 60.6553 63.7134 60.5354 64.7939C60.5354 65.789 60.6246 66.778 60.577 67.767C60.4886 69.445 59.9261 71.0594 58.9589 72.4109L66.5734 70.7585C66.7306 70.745 66.876 70.6677 66.978 70.5435C67.0327 70.3994 67.0327 70.2392 66.978 70.0951L66.3176 67.0237C66.0876 65.4848 65.5726 64.0061 64.8007 62.6685C63.945 61.5027 62.8367 60.5602 61.5645 59.9166C61.279 59.763 60.3093 59.0381 60.0357 59.5234C59.9524 59.7323 60.6127 61.1758 60.6544 61.5382Z" fill="#020202"/>
<path d="M64.533 69.2228C64.9136 68.9774 65.3475 68.8343 65.7953 68.8064C66.2432 68.7785 66.6906 68.8667 67.097 69.0631C67.4966 69.2719 67.8335 69.5893 68.0715 69.9811C68.3094 70.3729 68.4394 70.8244 68.4474 71.2868C68.4099 71.916 68.204 72.522 67.8525 73.0375C67.6671 73.3811 67.4113 73.6788 67.1029 73.9097C66.6123 74.21 66.0388 74.3331 65.4729 74.2599C64.9656 74.2351 64.4699 74.0945 64.0214 73.8483C63.3552 73.4613 62.4866 72.3556 62.7127 71.4895C63.0882 70.5641 63.7219 69.7751 64.533 69.2228Z" fill="#FDB9A9"/>
<path opacity="0.1" d="M53.9024 89.8133C54.3621 88.6041 54.5962 87.316 54.5925 86.017C54.5134 84.787 54.3323 83.5663 54.0512 82.3682L52.0702 72.6136C51.7073 70.826 50.9221 62.1709 48.2808 63.1845C47.5407 63.509 46.8792 63.9983 46.3434 64.6173C45.8076 65.2364 45.4109 65.97 45.1814 66.7657C44.7303 68.3599 44.5432 70.0213 44.6282 71.6799C44.6758 75.9798 45.5027 80.378 46.0381 84.6472C46.2403 86.2628 46.4842 92.2642 48.5544 92.7925C48.9589 92.903 49.3575 93.1119 49.7442 93.1856C50.4402 93.3146 52.5282 94.1746 53.4384 93.892C53.5131 93.8737 53.5833 93.8397 53.6447 93.7922C53.7062 93.7446 53.7574 93.6845 53.7954 93.6156C54.3307 92.5283 53.4682 90.3907 53.4682 89.1683C53.5615 87.1772 54.3448 85.287 55.6752 83.8425C57.1342 82.2872 58.7913 80.944 60.6008 79.8497L63.0339 78.2219C63.4276 77.9031 63.9034 77.7109 64.4021 77.6691C64.7394 77.7356 65.082 77.7685 65.4253 77.7673C65.9548 77.6752 66.2701 77.1101 66.4604 76.5941C66.9312 75.3531 67.1499 74.0254 67.1029 72.6934C67.1098 72.6074 67.0991 72.5208 67.0714 72.4393C67.0438 72.3578 66.9998 72.2832 66.9423 72.2205C66.857 72.1742 66.762 72.15 66.6657 72.15C66.5693 72.15 66.4744 72.1742 66.389 72.2205L58.7388 74.6775C57.6067 75.1451 56.3847 75.3343 55.1695 75.2304C53.9798 75.0277 52.79 74.0571 52.79 72.8101" fill="#020202"/>
<path d="M46.1749 63.8848C43.6645 68.1847 42.79 73.2464 41.9631 78.1851C41.8206 78.7883 41.7963 79.4149 41.8917 80.0279C42.0472 80.5711 42.3377 81.0627 42.7343 81.4539C43.1309 81.8451 43.6198 82.1222 44.1523 82.2578C45.2201 82.5164 46.324 82.5767 47.4123 82.4359C49.7561 82.2762 52.5223 82.0673 54.5092 80.6729C55.1874 80.1938 55.7942 79.5979 56.4902 79.1372C57.1674 78.7241 57.871 78.3588 58.5961 78.0438C59.9824 77.3794 61.3049 76.5814 62.5461 75.6605C62.9749 75.3898 63.3324 75.0143 63.5872 74.567C63.9917 73.7378 63.6764 72.7242 63.3551 71.8704C63.3427 71.7706 63.3112 71.6743 63.2625 71.5871C63.2138 71.4999 63.1489 71.4235 63.0715 71.3624C62.994 71.3013 62.9056 71.2566 62.8114 71.231C62.7171 71.2054 62.6189 71.1993 62.5223 71.2131C62.4142 71.2248 62.3102 71.2627 62.2189 71.3237C58.872 72.3483 55.4614 73.1364 52.0107 73.6825C51.0589 73.8299 51.4753 72.7611 51.6002 72.2021C51.8025 71.422 51.9691 70.6357 52.0999 69.8371C52.2224 68.6838 52.0696 67.5171 51.6548 66.4389C51.24 65.3606 50.5759 64.4036 49.7204 63.6514C49.2807 63.2262 48.7233 62.9534 48.1261 62.8713C47.7502 62.8895 47.3823 62.9891 47.0461 63.1637C46.7099 63.3384 46.4131 63.584 46.1749 63.8848Z" fill="white"/>
<path d="M60.2439 54.1301C60.2364 53.2824 60.1868 52.4356 60.0952 51.5931C60.0179 50.856 59.9048 50.1127 59.7621 49.3879C59.7566 49.172 59.7053 48.9599 59.6118 48.7667C59.5183 48.5735 59.3847 48.4039 59.2207 48.2699C58.1206 47.5688 56.8488 47.2085 55.5562 47.2318C54.7905 47.1233 54.014 47.3267 53.3911 47.7991C52.7682 48.2715 52.3478 48.9757 52.2189 49.7626C52.1952 49.9211 52.1833 50.0813 52.1832 50.2417C51.9869 52.0846 52.4569 53.9274 52.7186 55.8009C52.9197 57.2242 52.9934 58.6636 52.9387 60.1008C53.6138 60.567 54.3907 60.852 55.1993 60.9301C55.5776 60.9288 55.9533 60.8645 56.3117 60.7397C56.5118 60.6956 56.6882 60.5748 56.8055 60.4018C56.8608 60.2489 56.8752 60.0834 56.8471 59.9227C56.8244 59.7722 56.8105 59.6204 56.8055 59.4681C56.7469 58.6207 56.7628 57.7695 56.8531 56.925C56.8536 56.8547 56.879 56.787 56.9245 56.7346C56.9806 56.7162 57.0408 56.7162 57.097 56.7346H57.323C57.7305 56.7776 58.1411 56.7776 58.5485 56.7346C59.0385 56.6851 59.4938 56.4512 59.8275 56.0773C60.1983 55.5053 60.3469 54.8101 60.2439 54.1301Z" fill="#FDB9A9"/>
<path d="M59.3575 54.253C59.2742 54.1178 59.1434 53.9643 59.0006 54.0134C58.8578 54.0625 58.8459 54.1731 58.8043 54.2837C58.6464 54.7375 58.4039 55.1549 58.0904 55.5122C57.9073 55.7321 57.7084 55.9374 57.4955 56.1265L57.091 56.4951C57.4567 56.635 57.8388 56.7239 58.2272 56.7592C58.4206 56.7751 58.615 56.7495 58.7983 56.684C58.9816 56.6184 59.1497 56.5144 59.2921 56.3784C59.4484 56.1971 59.5732 55.9893 59.6609 55.7641C59.7731 55.5576 59.8515 55.3335 59.8929 55.1007C59.9073 54.9891 59.8965 54.8756 59.8614 54.7691C59.8263 54.6625 59.7679 54.5658 59.6907 54.4864" fill="#DE9F93"/>
<path d="M58.602 48.5955C59.2742 48.4296 60.238 48.3559 60.577 47.6987C60.6958 47.3751 60.7095 47.0204 60.6161 46.688C60.5228 46.3557 60.3274 46.0636 60.0595 45.8558C59.5934 45.367 59.0208 45.0004 58.3895 44.7867C57.7582 44.573 57.0866 44.5183 56.4307 44.6273C56.023 44.7314 55.6099 44.8114 55.1933 44.8669C54.6341 44.8976 54.0868 44.7256 53.5277 44.7071C52.5426 44.7321 51.5957 45.105 50.8447 45.7637C50.367 46.2453 49.8287 46.6585 49.2445 46.9922C48.9497 47.1446 48.6141 47.1911 48.2909 47.1244C47.9676 47.0576 47.6752 46.8814 47.4598 46.6237C47.346 47.0284 47.3185 47.4537 47.3791 47.8705C47.4397 48.2872 47.587 48.6854 47.8108 49.0378C47.6973 49.1549 47.5475 49.227 47.3876 49.2416C47.2278 49.2562 47.068 49.2123 46.9363 49.1176C46.9721 50.102 47.1923 51.07 47.5848 51.9679C47.2268 51.9997 46.8663 51.9791 46.514 51.9064C46.7115 52.4028 47.0017 52.8541 47.3681 53.2346C47.7346 53.6151 48.17 53.9173 48.6496 54.124C49.9584 54.683 51.4158 54.7382 52.3736 55.9054C52.4926 56.0528 52.6115 56.4029 52.8138 56.4398C53.0161 56.4766 53.1588 56.2555 53.2183 56.0589C53.4441 55.2225 53.3853 54.3314 53.0518 53.5343C52.8205 53.1436 52.6838 52.7011 52.6532 52.2443C52.6948 51.7897 53.2897 51.4334 53.5752 51.7037C53.8608 51.974 53.9084 52.619 54.2594 52.49C53.8608 51.2 54.3783 49.5783 55.586 49.0685C56.508 48.6876 57.5253 48.9149 58.4652 48.6324L58.602 48.5955Z" fill="#DD8049"/>
<path d="M57.2873 56.7346C56.3389 56.5535 55.4117 56.2694 54.5211 55.8869C54.4378 58.8723 56.7876 59.4927 56.7876 59.4927C56.729 58.6452 56.745 57.7941 56.8352 56.9496C56.8357 56.8793 56.8611 56.8115 56.9066 56.7592C56.9627 56.7408 57.023 56.7408 57.0791 56.7592H57.2873V56.7346Z" fill="#DE9F93"/>
<path d="M106.633 86.1645C119.101 86.1645 129.209 75.7275 129.209 62.8528C129.209 49.9781 119.101 39.5411 106.633 39.5411C94.1646 39.5411 84.0571 49.9781 84.0571 62.8528C84.0571 75.7275 94.1646 86.1645 106.633 86.1645Z" fill="white"/>
<path d="M174.456 143.464C170.886 144.693 167.442 146.419 167.537 148.175C167.644 150.141 153.022 150.491 151.588 150.289C151.856 149.674 151.63 148.648 151.88 148.04C146.521 146.738 141.25 145.08 136.098 143.077C129.31 140.466 121.225 140.098 114.087 139.391C98.1499 137.794 81.8382 138.095 66.3415 142.647C62.9699 143.567 59.7078 144.871 56.6151 146.535C55.7129 146.946 54.9504 147.627 54.4259 148.489C53.5574 150.233 54.6936 152.346 56.1154 153.642C58.3105 155.651 61.166 156.714 63.9917 157.537C73.2478 160.276 82.9135 161.229 92.5045 160.35C96.6686 159.97 100.922 159.239 105.062 159.97C109.203 160.701 112.957 162.832 117.008 163.938C121.059 165.043 125.931 164.871 128.763 161.714C129.471 160.928 130.048 159.97 130.958 159.454C132.094 158.802 133.492 158.987 134.789 159.171C146.908 160.907 159.196 160.998 171.339 159.441C172.332 159.312 173.427 159.116 174.045 158.299C174.503 157.684 174.598 156.837 175.098 156.259C175.764 155.479 176.883 155.436 177.912 155.442C183.905 155.473 189.894 155.081 195.836 154.269C197.406 154.054 199.03 153.79 200.351 152.881C201.672 151.972 202.588 150.233 202.088 148.679C201.696 147.727 201.037 146.919 200.196 146.357C195.009 142.278 188.209 140.687 181.755 141.547C179.277 141.988 176.836 142.629 174.456 143.464Z" fill="url(#paint1_linear)"/>
<path d="M109.637 144.662C109.637 146.087 114.349 147.242 120.161 147.242C125.973 147.242 130.678 146.087 130.678 144.662C130.72 144.126 130.72 143.588 130.678 143.052C129.929 141.824 125.443 142.076 120.161 142.076C115.074 142.076 110.642 141.873 109.637 143.052C109.575 143.587 109.575 144.127 109.637 144.662Z" fill="#09254F"/>
<path d="M120.161 145.638C125.969 145.638 130.678 144.481 130.678 143.052C130.678 141.624 125.969 140.466 120.161 140.466C114.352 140.466 109.643 141.624 109.643 143.052C109.643 144.481 114.352 145.638 120.161 145.638Z" fill="#09254F"/>
<path d="M120.161 145.638C125.969 145.638 130.678 144.481 130.678 143.052C130.678 141.624 125.969 140.466 120.161 140.466C114.352 140.466 109.643 141.624 109.643 143.052C109.643 144.481 114.352 145.638 120.161 145.638Z" fill="url(#paint2_linear)"/>
<path d="M178.721 148.612C184.53 148.612 189.239 147.454 189.239 146.025C189.239 144.597 184.53 143.439 178.721 143.439C172.912 143.439 168.203 144.597 168.203 146.025C168.203 147.454 172.912 148.612 178.721 148.612Z" fill="#4C506D"/>
<path d="M121.368 118.795H118.929V143.231H121.368V118.795Z" fill="#09254F"/>
<path d="M121.368 118.795H118.929V127.235H121.368V118.795Z" fill="url(#paint3_linear)"/>
<path d="M150.553 141.83V145.552H137.656C137.656 145.552 138.412 142.696 143.522 141.83L145.193 140.423L150.553 141.83Z" fill="#09254F"/>
<path d="M150.553 141.83V145.552H137.656C137.656 145.552 138.412 142.696 143.522 141.83L145.193 140.423L150.553 141.83Z" fill="url(#paint4_linear)"/>
<path d="M151.142 145.546H137.24V146.499H151.142V145.546Z" fill="#09254F"/>
<path d="M179.738 124.563H177.716V143.851H179.738V124.563Z" fill="#4C506D"/>
<path d="M168.221 146.007C168.221 147.432 172.933 148.593 178.739 148.593C184.545 148.593 189.262 147.432 189.262 146.007C189.298 145.471 189.298 144.933 189.262 144.398C188.513 143.169 184.027 143.421 178.739 143.421C173.659 143.421 169.221 143.218 168.221 144.398C168.156 144.932 168.156 145.473 168.221 146.007Z" fill="#2F3554"/>
<path d="M178.721 147.002C184.53 147.002 189.239 145.844 189.239 144.416C189.239 142.988 184.53 141.83 178.721 141.83C172.912 141.83 168.203 142.988 168.203 144.416C168.203 145.844 172.912 147.002 178.721 147.002Z" fill="#4C506D"/>
<path d="M175.515 121.049H192.915L197.079 97.7067C197.208 96.9769 197.051 96.2244 196.642 95.614C196.234 95.0037 195.608 94.5855 194.902 94.451C194.735 94.4212 194.566 94.4068 194.396 94.408H182.499C181.866 94.4083 181.253 94.6368 180.767 95.0541C180.28 95.4714 179.95 96.0511 179.833 96.6931L175.515 121.049Z" fill="#4C506D"/>
<path d="M170.88 121.049H188.281L192.445 97.7067C192.573 96.9769 192.416 96.2244 192.008 95.614C191.6 95.0037 190.974 94.5855 190.268 94.451C190.107 94.4212 189.943 94.4068 189.78 94.408H177.882C177.25 94.4083 176.637 94.6368 176.15 95.0541C175.664 95.4714 175.334 96.0511 175.217 96.6931L170.88 121.049Z" fill="#2F3554"/>
<path d="M189.619 117.529H177.079C175.197 117.529 173.67 119.105 173.67 121.049C173.67 122.993 175.197 124.569 177.079 124.569H189.619C191.502 124.569 193.028 122.993 193.028 121.049C193.028 119.105 191.502 117.529 189.619 117.529Z" fill="#4C506D"/>
<path d="M181.957 117.529H169.417C167.534 117.529 166.008 119.105 166.008 121.049C166.008 122.993 167.534 124.569 169.417 124.569H181.957C183.84 124.569 185.366 122.993 185.366 121.049C185.366 119.105 183.84 117.529 181.957 117.529Z" fill="#2F3554"/>
<path d="M184.604 88.167C184.479 88.0123 184.346 87.8646 184.206 87.7247C182.171 85.7099 178.852 85.9249 176.782 85.9864C174.942 86.0724 173.099 86.017 171.267 85.8205L170.476 85.7222H170.214C168.84 85.5687 167.192 85.5809 166.734 87.0491C166.199 88.7997 166.139 90.8944 165.895 92.7127C165.158 98.1428 164.747 103.438 164.527 108.88C164.319 113.69 170.512 114.071 173.837 114.071C174.965 114.1 176.093 114.03 177.21 113.862C178.233 113.684 179.161 113.248 180.184 113.051C180.715 112.995 181.219 112.781 181.636 112.437C182.201 111.872 182.201 110.944 182.201 110.133C182.182 108.063 182.345 105.994 182.689 103.954C182.873 102.94 183.159 101.951 183.331 100.944C183.526 100.12 183.797 99.3181 184.14 98.5483C185.55 94.8688 186.663 90.7224 184.604 88.167Z" fill="white"/>
<path d="M159.601 88.6584C159.721 88.1923 159.923 87.753 160.196 87.3623C160.839 86.533 161.981 86.3549 163.004 86.275C163.486 86.232 164.063 86.275 164.295 86.6989C164.402 86.9411 164.433 87.2115 164.384 87.4729C164.238 88.3742 164.162 89.2863 164.158 90.2002C164.831 89.7583 165.563 89.419 166.33 89.1928C166.532 89.1252 168.584 88.8857 168.614 89.1928C168.727 90.5074 168.775 91.8281 168.775 93.1426C168.818 93.6206 168.768 94.1028 168.628 94.5606C168.488 95.0185 168.261 95.4428 167.96 95.8086C166.875 97.3779 165.663 98.8493 164.337 100.207C162.913 101.67 160.991 102.499 158.983 102.516C158.671 102.567 158.352 102.538 158.055 102.43C157.757 102.323 157.489 102.142 157.275 101.902C157.086 101.546 157.001 101.14 157.032 100.735C157.036 99.5747 157.128 98.4164 157.305 97.2705C157.825 94.3359 158.593 91.4541 159.601 88.6584Z" fill="white"/>
<path d="M161.309 91.1893C161.41 90.4276 161.309 88.6462 161.904 88.1732L162.011 88.1118C162.141 88.0472 162.282 88.0098 162.426 88.0018C162.57 87.9937 162.714 88.0151 162.85 88.0648C162.986 88.1145 163.111 88.1914 163.218 88.2912C163.325 88.3909 163.412 88.5116 163.474 88.6462C163.565 88.9756 163.585 89.3214 163.534 89.6597C163.481 90.4791 163.503 91.3017 163.599 92.1168C163.659 92.6083 163.813 93.1857 164.271 93.3454C164.436 93.386 164.608 93.3922 164.775 93.3637C164.943 93.3353 165.103 93.2726 165.247 93.1795C166.05 92.7798 166.798 92.2716 167.472 91.6684C167.62 91.5394 167.811 91.392 167.995 91.4596C168.106 91.5154 168.198 91.6056 168.257 91.7176L173.159 99.5311C173.569 100.188 173.938 101.171 173.474 101.693C173.01 102.215 172.153 102.037 171.511 101.749C169.62 100.893 167.924 99.6376 166.532 98.063C166.436 97.9336 166.306 97.8355 166.157 97.7804C166.053 97.7771 165.949 97.7954 165.852 97.8345C165.755 97.8735 165.666 97.9325 165.592 98.0077C164.704 98.6897 163.754 99.2801 162.754 99.7707C162.011 100.121 160.97 100.385 160.506 99.6478C160.316 99.2494 160.271 98.7935 160.381 98.364L161.309 91.1893Z" fill="#D8DAE1"/>
<path d="M179.352 93.1795C179.703 92.2409 180.283 91.4116 181.035 90.7716C181.415 90.4529 181.877 90.2553 182.364 90.203C182.851 90.1506 183.342 90.2457 183.778 90.4767C184.932 91.2016 185.027 92.8663 184.878 94.2545C184.671 96.2253 184.252 98.1661 183.629 100.041C183.319 100.969 182.82 101.884 182.546 102.799C182.326 103.555 182.296 104.365 182.07 105.158C181.501 107.123 181.193 109.158 181.154 111.208C181.167 111.477 181.122 111.746 181.023 111.995C180.969 112.117 180.875 112.216 180.758 112.274C180.64 112.332 180.507 112.346 180.381 112.314C180.232 112.241 180.107 112.123 180.024 111.976C178.775 110.312 176.591 109.765 174.569 109.519C172.189 109.218 169.81 109.163 167.4 109.016C166.419 108.954 165.205 108.653 165.051 107.664C165.027 107.377 165.083 107.089 165.21 106.833C165.337 106.577 165.531 106.363 165.77 106.214C166.256 105.927 166.792 105.741 167.347 105.668C169.476 105.256 171.707 104.912 173.48 103.628C172.837 103.433 172.244 103.093 171.743 102.633C172.885 103.407 174.717 100.883 175.538 100.238C176.265 99.6395 176.871 98.9008 177.323 98.063C178.144 96.5703 178.662 94.7889 179.352 93.1795Z" fill="#D8DAE1"/>
<path d="M173.165 87.3807C173.424 87.319 173.697 87.356 173.932 87.4851C174.166 87.6147 174.428 87.6822 174.694 87.6817C174.707 87.7024 174.717 87.7252 174.723 87.7493C174.8 87.9174 174.843 88.0995 174.851 88.285C174.859 88.4705 174.832 88.6559 174.771 88.8305C174.709 89.005 174.615 89.1654 174.494 89.3024C174.372 89.4394 174.226 89.5504 174.063 89.6289C173.919 89.681 173.781 89.7512 173.653 89.8378C173.558 89.9578 173.49 90.0969 173.451 90.2461C173.412 90.3953 173.404 90.5513 173.427 90.7039C173.474 93.2532 172.748 95.741 172.177 98.2226C171.505 101.11 171.041 104.107 171.469 107.05C171.499 107.206 171.499 107.367 171.469 107.523C171.421 107.63 171.354 107.728 171.273 107.811L170.006 109.28C169.631 108.665 168.769 108.475 168.566 107.793C168.517 107.592 168.503 107.384 168.525 107.179C168.75 104.435 169.21 101.718 169.899 99.0581C170.536 96.0148 171.387 93.0236 172.445 90.1081C172.499 90.0024 172.521 89.8829 172.51 89.7641C172.486 89.6665 172.444 89.5747 172.385 89.4938C172.034 88.8795 172.606 87.6018 173.165 87.3807Z" fill="#09254F"/>
<path d="M179.607 85.9618C177.823 85.7959 176.068 85.6854 174.301 85.6239C173.111 85.5871 171.576 85.2677 170.482 85.7407C170.747 85.7549 171.012 85.7877 171.273 85.8389C173.105 86.0293 174.948 86.0847 176.788 86.0048C178.864 85.9372 182.177 85.7222 184.218 87.7371C183.129 86.4225 181.309 86.1154 179.607 85.9618Z" fill="white"/>
<path d="M178.073 80.4579C178.153 80.5312 178.254 80.5766 178.36 80.5876C178.467 80.5987 178.575 80.5748 178.667 80.5193C178.418 81.9137 178.209 83.1361 178.84 84.5059C179.071 85.0948 179.515 85.5682 180.077 85.8266C178.9 86.0782 177.756 86.472 176.669 86.9999C175.966 87.3196 175.206 87.4849 174.438 87.4852C174.361 87.4852 173.004 87.1719 173.206 86.8709C174.283 85.2369 173.421 82.528 173.421 82.528C174.321 82.8008 175.287 82.7141 176.128 82.285C176.969 81.856 177.623 81.1161 177.96 80.2122C177.972 80.3039 178.012 80.3896 178.073 80.4579Z" fill="#8C6239"/>
<path d="M176.913 70.0521C176.913 70.0521 169.607 69.5238 169.471 74.7697C169.441 75.8563 169.535 76.9428 169.75 78.0069C169.822 78.3816 169.911 78.7441 170.012 79.0942C170.952 82.2946 173.028 84.4568 175.568 83.6828C180 82.3437 182.826 71.4219 176.913 70.0521Z" fill="#A67C52"/>
<path d="M179.001 78.9407C179.274 78.6788 179.449 78.3262 179.496 77.9444C179.543 77.5625 179.458 77.1759 179.256 76.8521C179.192 76.7469 179.107 76.6569 179.007 76.588C178.88 76.5214 178.739 76.4898 178.597 76.4962C178.456 76.5027 178.318 76.547 178.197 76.6248C178.001 76.7354 177.739 77.147 177.496 76.889C177.438 76.815 177.398 76.7282 177.378 76.6355C177.359 76.5428 177.36 76.4466 177.383 76.3546C177.443 75.8447 177.65 75.3653 177.977 74.9786C177.785 74.9134 177.611 74.8037 177.466 74.6578C177.322 74.5119 177.212 74.3337 177.145 74.137C176.47 74.2811 175.779 74.3246 175.092 74.266C174.928 74.2635 174.766 74.2259 174.616 74.1555C174.265 73.9773 174.123 73.5412 173.807 73.2893C173.366 73.0687 172.868 72.9998 172.385 73.0928C171.898 73.0928 171.297 72.9085 171.225 72.4109C170.791 72.5992 170.301 72.6022 169.864 72.4192C169.427 72.2362 169.078 71.8821 168.894 71.4342C168.667 71.5221 168.424 71.5529 168.184 71.524C167.944 71.4952 167.714 71.4075 167.513 71.2684C167.384 71.0884 167.298 70.8791 167.263 70.6579C167.228 70.4367 167.244 70.2101 167.311 69.9968C167.484 69.057 167.906 68.0496 168.775 67.7117C168.269 67.4353 168.275 66.6982 168.352 66.1146C168.359 65.9446 168.404 65.7785 168.483 65.6293C168.721 65.23 169.268 65.2423 169.673 65.0826C170.077 64.9229 170.405 64.5912 170.803 64.3946C171.202 64.1981 171.773 64.2165 171.963 64.6219C172.485 64.3027 173.064 64.0939 173.664 64.0076C173.965 63.9699 174.27 64.0215 174.542 64.1564C174.815 64.2914 175.045 64.504 175.205 64.7693C175.502 64.597 175.83 64.4923 176.169 64.4622C176.339 64.4516 176.508 64.4971 176.651 64.5921C176.794 64.687 176.905 64.8266 176.966 64.9905C176.964 65.0298 176.972 65.069 176.988 65.1045C177.005 65.1399 177.03 65.1704 177.061 65.1932C177.093 65.2115 177.129 65.2211 177.165 65.2211C177.202 65.2211 177.238 65.2115 177.269 65.1932C177.738 65.0076 178.251 64.9734 178.739 65.0949C178.98 65.1616 179.197 65.3003 179.362 65.4937C179.527 65.6872 179.633 65.9267 179.667 66.1822C180.246 66.3547 180.779 66.6614 181.225 67.079C181.466 67.2564 181.651 67.503 181.757 67.7881C181.863 68.0732 181.885 68.3842 181.82 68.6823C182.205 69.0888 182.429 69.6287 182.449 70.1966C182.468 70.7645 182.283 71.3196 181.927 71.7536C182.037 71.8069 182.127 71.8959 182.182 72.0069C182.238 72.1178 182.257 72.2447 182.237 72.3679C182.191 72.6151 182.091 72.8483 181.945 73.0498C181.897 73.1134 181.868 73.1903 181.862 73.2709C181.862 73.3692 181.969 73.4429 182.04 73.5105C182.216 73.7037 182.31 73.961 182.302 74.2258C182.294 74.4906 182.185 74.7414 181.999 74.9233C181.93 74.9948 181.849 75.053 181.761 75.0953C181.919 75.2185 182.049 75.3757 182.143 75.556C182.236 75.7363 182.291 75.9354 182.302 76.1396C182.302 76.24 182.281 76.3393 182.239 76.4302C182.198 76.5211 182.137 76.6014 182.062 76.6654C181.987 76.7293 181.899 76.7754 181.805 76.8002C181.711 76.8251 181.613 76.8281 181.517 76.8091C181.601 77.0376 181.628 77.2846 181.593 77.5266C181.559 77.7685 181.465 77.9974 181.321 78.1912C180.958 78.6704 180.571 78.5107 180.131 78.7195C179.691 78.9284 179.488 79.6041 179.185 79.9481C179.155 79.6041 179.084 79.2724 179.001 78.9407Z" fill="#542F2F"/>
<path d="M163.563 110.09L153.546 115.392L145.217 140.27L150.244 143.464L160.101 122.812C160.101 122.812 169.298 119.919 171.785 119.077C174.271 118.236 177.365 110.25 177.365 110.25C166.127 110.17 163.563 110.09 163.563 110.09Z" fill="#2F3554"/>
<path d="M171.505 110.932L161.493 116.233L154.491 145.282L159.845 146.689L168.043 123.641C168.043 123.641 177.234 120.748 179.72 119.907C182.207 119.065 181.624 111.786 181.624 111.786C177.323 108.745 171.505 110.932 171.505 110.932Z" fill="#4C506D"/>
<path d="M181.606 87.1351C180.042 86.7481 176.181 95.2128 176.181 95.2128L169.952 88.7506L166.24 90.1941C166.24 90.1941 171.808 104.322 176.437 102.983C181.065 101.644 185.425 91.521 185.425 91.521C186.014 89.7826 183.177 87.5221 181.606 87.1351Z" fill="white"/>
<path d="M162.784 82.7369C162.344 83.1303 161.988 83.6134 161.737 84.1558C161.46 84.7227 161.241 85.3176 161.083 85.9311C160.934 86.4021 160.881 86.8999 160.928 87.393C160.953 87.6378 161.034 87.873 161.163 88.0799C161.292 88.2868 161.466 88.4597 161.672 88.5847C161.989 88.7131 162.337 88.734 162.666 88.6446C162.996 88.5552 163.289 88.36 163.504 88.0872C163.914 87.5244 164.183 86.8662 164.289 86.1706C164.383 85.4746 164.584 84.7986 164.884 84.1681C165.134 83.8656 165.294 83.4941 165.342 83.0993C165.205 81.711 163.421 82.1963 162.784 82.7369Z" fill="#8C6239"/>
<path d="M168.888 87.8353C169.173 89.3218 167.597 89.9177 166.389 89.629C166.025 89.5559 165.683 89.396 165.39 89.1621C164.694 88.5909 164.474 87.608 164.015 86.8217C163.694 86.2689 163.248 85.8082 162.933 85.2553C162.754 84.9892 162.643 84.6803 162.612 84.3578C162.581 84.0354 162.63 83.71 162.754 83.4125C163.147 82.6754 164.105 82.5218 164.926 82.5218C165.346 82.4789 165.77 82.54 166.163 82.7C166.578 82.9379 166.92 83.2912 167.151 83.7197C167.954 84.9786 168.541 86.3708 168.888 87.8353Z" fill="#A67C52"/>
<path d="M60.4402 112.351C60.4402 117.603 86.2403 121.866 118.067 121.866C149.893 121.866 175.687 117.603 175.687 112.351C175.687 112.13 175.776 109.495 175.687 109.28C173.676 104.329 148.572 102.836 118.067 102.836C88.2272 102.836 63.3908 104.482 60.4402 109.28C60.2439 109.599 60.4402 112.019 60.4402 112.351Z" fill="#09254F"/>
<path d="M175.687 112.351C175.687 117.603 149.893 121.866 118.067 121.866C86.2403 121.866 60.4402 117.603 60.4402 112.351C60.4402 111.737 60.3807 111.122 60.4402 110.508C60.506 110.132 60.6479 109.774 60.8566 109.458C61.0448 108.847 61.4336 108.323 61.956 107.976C62.4784 107.63 63.1016 107.482 63.718 107.56C65.0506 107.56 66.3811 107.588 67.7097 107.646C69.5446 107.71 71.3752 107.87 73.1945 108.125C74.5509 108.328 75.9013 108.61 77.2695 108.696C80.0952 108.862 82.8971 108.18 85.7228 108.082C85.9317 108.063 86.142 108.076 86.3474 108.119C86.5736 108.192 86.7911 108.29 86.9959 108.414C88.0162 108.955 89.1736 109.156 90.3094 108.991C100.559 109.71 110.779 108.991 120.982 107.762C129.506 106.737 138.025 105.49 146.603 105.262C155.574 105.023 164.54 105.901 173.308 107.879C174.497 108.143 175.931 108.733 175.991 109.986C176.032 110.821 175.152 111.669 175.687 112.351Z" fill="url(#paint5_linear)"/>
<path d="M118.067 118.795C149.893 118.795 175.693 114.535 175.693 109.28C175.693 104.025 149.893 99.7645 118.067 99.7645C86.2404 99.7645 60.4402 104.025 60.4402 109.28C60.4402 114.535 86.2404 118.795 118.067 118.795Z" fill="#09254F"/>
<path d="M159.851 146.689V150.405H146.954C146.954 150.405 147.71 147.555 152.82 146.689L154.491 145.282L159.851 146.689Z" fill="#09254F"/>
<path d="M159.851 146.689V150.405H146.954C146.954 150.405 147.71 147.555 152.82 146.689L154.491 145.282L159.851 146.689Z" fill="url(#paint6_linear)"/>
<path d="M160.434 150.405H146.532V151.357H160.434V150.405Z" fill="#09254F"/>
<path d="M178.929 85.194C179.123 85.1324 179.33 85.1324 179.524 85.194C179.827 85.3291 179.958 85.7222 180.268 85.8451C179.554 86.5146 178.59 86.8279 177.775 87.3562C176.929 87.9663 176.172 88.6986 175.526 89.5307C174.759 89.0946 174.807 87.8599 174.134 87.2763C174.613 87.1459 175.069 86.9386 175.485 86.6621C175.821 86.5036 176.143 86.3166 176.449 86.1031C177.216 85.6487 178.056 85.3407 178.929 85.194Z" fill="white"/>
<path d="M172.338 85.6608C172.094 85.883 171.875 86.1322 171.684 86.4041L170.922 87.4054C170.884 87.4447 170.854 87.4917 170.835 87.5436C170.815 87.5954 170.807 87.6508 170.809 87.7064C170.832 87.7704 170.876 87.8236 170.934 87.8564C170.992 87.8891 171.06 87.8991 171.124 87.8845C171.25 87.8466 171.374 87.7994 171.493 87.7432C171.775 87.6869 172.063 87.6704 172.35 87.6941C172.703 87.6573 173.048 87.564 173.373 87.4177C173.393 87.4143 173.413 87.4066 173.43 87.3949C173.448 87.3833 173.463 87.368 173.474 87.3501C173.486 87.3121 173.486 87.2713 173.474 87.2334C173.457 86.8821 173.51 86.5309 173.629 86.2014C173.712 85.9557 173.873 85.6731 173.712 85.4213C173.421 84.936 172.641 85.409 172.338 85.6608Z" fill="white"/>
<path d="M155.586 104.488L140.595 105.182L145.193 110.711L161.695 109.28L155.586 104.488Z" fill="white"/>
<path d="M93.2659 104.488C94.1047 104.574 108.007 108.727 108.007 108.727L99.9643 115.121L84.0571 110.711L93.2659 104.488Z" fill="white"/>
<path d="M159.03 134.207H157.008V153.495H159.03V134.207Z" fill="#4C506D"/>
<path d="M159.03 134.207H157.008V153.495H159.03V134.207Z" fill="url(#paint7_linear)"/>
<path d="M147.496 155.67C147.496 157.101 152.207 158.256 158.019 158.256C163.831 158.256 168.537 157.101 168.537 155.67C168.572 155.134 168.572 154.596 168.537 154.06C167.787 152.832 163.302 153.09 158.019 153.09C152.933 153.09 148.501 152.887 147.496 154.06C147.43 154.595 147.43 155.135 147.496 155.67Z" fill="#2F3554"/>
<path d="M158.019 156.646C163.828 156.646 168.537 155.488 168.537 154.06C168.537 152.632 163.828 151.474 158.019 151.474C152.21 151.474 147.501 152.632 147.501 154.06C147.501 155.488 152.21 156.646 158.019 156.646Z" fill="#4C506D"/>
<path d="M148.632 94.8073C141.832 93.1795 138.418 84.6656 131.779 82.4358C131.564 82.3501 131.327 82.3501 131.112 82.4358C130.932 82.5591 130.796 82.7405 130.726 82.9518L129.209 86.3918L138.316 97.2951C138.997 98.1685 139.762 98.9671 140.601 99.6785C142.552 101.214 145.068 101.718 147.484 102.172C148.917 102.449 150.41 102.713 151.808 102.295C153.635 101.749 155.735 99.1441 155.134 97.031C154.479 94.7152 150.506 95.2557 148.632 94.8073Z" fill="white"/>
<path d="M138.644 130.177C138.614 131.312 138.816 132.44 139.239 133.488H139.298C140.488 133.457 141.63 133.488 142.796 133.562C144.734 133.723 146.66 134.002 148.566 134.397C149.447 134.569 150.351 134.754 151.208 134.938C152.064 135.122 152.885 135.294 153.724 135.46C155.318 135.786 156.853 136.074 158.34 136.283C160.267 135.441 161.986 134.165 163.373 132.548C163.528 132.37 163.67 132.192 163.813 132.014C163.998 131.775 164.17 131.527 164.331 131.271C164.814 130.55 165.127 129.724 165.247 128.857C165.283 128.504 165.271 128.149 165.211 127.8C164.903 126.604 164.176 125.569 163.171 124.894L162.855 124.661C160.733 123.141 158.19 122.376 155.61 122.48C155.393 122.474 155.176 122.487 154.961 122.517C153.584 122.622 152.22 122.861 150.886 123.23C148.769 123.789 146.651 124.575 144.563 125.263C143.015 125.687 141.534 126.339 140.167 127.198C139.773 127.46 139.43 127.796 139.155 128.187C138.805 128.787 138.628 129.477 138.644 130.177Z" fill="#3E3E54"/>
<path d="M138.828 133.654C139.102 135.098 139.34 136.56 139.554 138.015C140.051 141.415 140.383 144.839 140.547 148.274C140.589 148.594 140.559 148.92 140.458 149.226C140.107 150.129 138.911 150.172 137.971 150.166C137.032 150.16 135.8 150.553 135.824 151.523C135.824 152.279 136.633 152.721 137.323 152.967C139.393 153.699 141.572 154.047 143.76 153.993C144.027 154.005 144.294 153.961 144.545 153.864C146.026 153.188 144.854 151.407 144.7 150.375C144.474 148.87 145.039 147.211 145.39 145.774C146.217 142.426 148.406 139.397 148.311 135.835C148.24 135.382 148.322 134.918 148.543 134.52C148.953 133.998 150.684 134.84 151.231 134.956C152.07 135.134 152.909 135.313 153.748 135.478C158.251 136.388 162.415 137.426 167.049 136.535C167.324 136.503 167.588 136.408 167.823 136.259C168.101 136.007 168.296 135.672 168.382 135.3C169.034 133.2 168.861 130.919 167.9 128.949C166.77 126.645 164.979 125.736 162.879 124.649C160.464 123.383 158.424 122.431 155.634 122.511C155.417 122.505 155.2 122.517 154.985 122.548C153.604 122.664 152.236 122.911 150.898 123.285C147.496 124.194 139.661 125.472 138.358 129.545C137.948 130.828 138.465 131.86 138.715 133.107C138.751 133.267 138.786 133.457 138.828 133.654Z" fill="#3E3E54"/>
<path d="M138.828 133.654C139.102 135.098 139.34 136.56 139.554 138.015C140.051 141.415 140.383 144.839 140.547 148.274C140.589 148.594 140.559 148.92 140.458 149.226C140.107 150.129 138.911 150.172 137.971 150.166C137.032 150.16 135.8 150.553 135.824 151.523C135.824 152.279 136.633 152.721 137.323 152.967C139.393 153.699 141.572 154.047 143.76 153.993C144.027 154.005 144.294 153.961 144.545 153.864C146.026 153.188 144.854 151.407 144.7 150.375C144.474 148.87 145.039 147.211 145.39 145.774C146.217 142.426 148.406 139.397 148.311 135.835C148.24 135.382 148.322 134.918 148.543 134.52C148.953 133.998 150.684 134.84 151.231 134.956C152.07 135.134 152.909 135.313 153.748 135.478C158.251 136.388 162.415 137.426 167.049 136.535C167.324 136.503 167.588 136.408 167.823 136.259C168.101 136.007 168.296 135.672 168.382 135.3C169.034 133.2 168.861 130.919 167.9 128.949C166.77 126.645 164.979 125.736 162.879 124.649C160.464 123.383 158.424 122.431 155.634 122.511C155.417 122.505 155.2 122.517 154.985 122.548C153.604 122.664 152.236 122.911 150.898 123.285C147.496 124.194 139.661 125.472 138.358 129.545C137.948 130.828 138.465 131.86 138.715 133.107C138.751 133.267 138.786 133.457 138.828 133.654Z" fill="url(#paint8_linear)"/>
<path d="M132.415 134.035C131.31 135.424 130.428 136.988 129.804 138.666C128.989 140.546 124.307 160.694 124.14 160.651L127.68 161.616C131.76 155.586 135.163 149.096 137.823 142.272C138.59 140.313 138.632 140.128 140.696 139.711C142.51 139.348 144.325 138.949 146.121 138.482C149.633 137.634 153.079 136.517 156.431 135.141C158.461 134.325 160.405 133.296 162.231 132.069C162.49 131.855 162.724 131.61 162.927 131.338C163.021 131.217 163.105 131.088 163.177 130.951C163.498 130.419 163.652 129.796 163.617 129.17C163.61 129.003 163.582 128.838 163.534 128.678C163.404 128.319 163.226 127.979 163.004 127.671C162.661 127.193 162.226 126.793 161.725 126.498C160.467 125.559 158.983 124.993 157.436 124.864C156.395 124.802 155.36 125.017 154.331 124.962C153.409 124.907 152.772 124.385 151.951 124.256C151.328 124.18 150.696 124.239 150.095 124.428C148.719 124.906 147.392 125.523 146.133 126.27L138.703 130.104H138.65L137.162 130.871C135.604 131.682 133.819 132.487 132.582 133.789L132.415 134.035Z" fill="#3E3E54"/>
<path d="M118.911 159.687C118.261 159.732 117.631 159.943 117.079 160.301C116.809 160.487 116.605 160.758 116.498 161.074C116.391 161.39 116.386 161.733 116.484 162.052C116.709 162.483 117.07 162.821 117.507 163.01C120.093 164.314 122.966 164.888 125.836 164.675C126.242 164.7 126.645 164.588 126.984 164.355C127.275 164.05 127.465 163.656 127.525 163.231C127.786 162.462 127.842 161.635 127.686 160.836C127.21 159.22 125.473 159.57 124.236 159.503C122.459 159.398 120.677 159.46 118.911 159.687Z" fill="#3E3E54"/>
<path d="M102.582 115.508V117.714H188.84C188.977 116.976 189.102 116.239 189.221 115.508H102.582Z" fill="#09254F"/>
<path d="M102.582 115.508V117.714H188.84C188.977 116.976 189.102 116.239 189.221 115.508H102.582Z" fill="url(#paint9_linear)"/>
<path d="M144.985 88.468C144.688 88.8489 144.218 89.2604 144.39 89.6966C144.491 89.9361 144.753 90.0528 144.955 90.2125C145.468 90.6862 145.781 91.3471 145.83 92.0554C145.877 92.7578 146.038 93.4471 146.306 94.0948C146.447 94.4134 146.691 94.6715 146.996 94.825C147.3 94.9785 147.648 95.0178 147.977 94.9363C148.352 94.7827 148.703 94.3957 149.084 94.5186C149.465 94.6415 149.506 94.9732 149.679 95.2373C149.915 95.5437 150.23 95.7749 150.588 95.9042C150.946 96.0336 151.332 96.0558 151.701 95.9683C152.438 95.7795 153.133 95.4458 153.748 94.9855C154.013 94.8469 154.236 94.6341 154.39 94.3712C154.48 94.113 154.48 93.8308 154.39 93.5726C154.086 92.7975 153.64 92.0905 153.076 91.4902C152.146 90.2649 151.522 88.8218 151.261 87.2886C151.077 86.2259 151.029 85.0281 150.303 84.2602C149.31 83.216 147.156 83.4432 146.139 84.3892C144.985 85.3659 145.901 87.2456 144.985 88.468Z" fill="url(#paint10_linear)"/>
<path d="M145.836 83.4433C145.986 83.7055 146.204 83.9185 146.466 84.0575C146.984 84.3155 147.436 84.6288 147.942 84.9114C148.422 85.1861 148.783 85.6382 148.953 86.1768C149.239 87.1596 148.822 88.3145 149.215 89.2482C149.352 89.4325 149.649 89.2482 149.756 89.0762C149.863 88.9042 149.905 88.6155 150.083 88.4619C150.387 88.2346 150.815 88.5295 150.988 88.8735C151.17 89.2815 151.196 89.7461 151.059 90.1728C150.922 90.5995 150.632 90.9564 150.25 91.1708C150.327 91.478 150.726 91.564 151.029 91.4903C151.319 91.3732 151.623 91.3008 151.933 91.2753C152.641 91.3428 153.004 92.3625 153.718 92.3994C154.2 92.3994 154.575 91.9571 154.854 91.5394L155.604 90.4399C155.717 90.2331 155.848 90.0378 155.996 89.8563C156.175 89.6782 156.49 89.6352 156.627 89.4324C156.764 89.2297 156.55 88.8182 156.71 88.554C156.787 88.4603 156.882 88.3849 156.99 88.3329C157.222 88.1746 157.396 87.9395 157.482 87.6662C157.569 87.3929 157.563 87.0974 157.466 86.8279C157.429 86.7652 157.412 86.6921 157.418 86.6191C157.418 86.5208 157.543 86.4655 157.626 86.4102C157.869 86.2067 158.034 85.9209 158.092 85.6038C158.149 85.2866 158.096 84.9585 157.942 84.678C157.616 84.1263 157.17 83.6613 156.639 83.3204C155.544 82.485 154.402 81.5144 154.081 80.1508C154.032 79.7796 153.932 79.4175 153.783 79.0758C153.7 78.9114 153.558 78.7867 153.387 78.7272C153.217 78.6678 153.031 78.6782 152.867 78.7564C152.954 78.043 152.906 77.319 152.725 76.6248C152.688 76.4558 152.617 76.2967 152.516 76.158C152.408 76.0427 152.273 75.9592 152.123 75.9161C151.974 75.8729 151.816 75.8716 151.666 75.9123C151.366 75.9984 151.084 76.1399 150.833 76.33C150.833 75.986 150.393 75.8508 150.059 75.8631C149.426 75.887 148.809 76.0801 148.269 76.4235C147.729 76.7669 147.284 77.249 146.978 77.8227C146.931 77.9249 146.871 78.02 146.8 78.1052C146.66 78.2219 146.503 78.3152 146.336 78.3817C146.082 78.5325 145.865 78.7398 145.699 78.9885C145.534 79.2372 145.424 79.5209 145.378 79.8191C145.289 80.4175 145.289 81.0266 145.378 81.625C145.407 82.0883 145.491 82.5462 145.628 82.9887C145.677 83.1493 145.747 83.3023 145.836 83.4433Z" fill="#DD8049"/>
<path d="M152.534 93.7323C151.792 94.1562 151.077 94.628 150.393 95.1452C150.176 95.3058 149.999 95.5161 149.875 95.7595C149.808 95.8855 149.773 96.0271 149.773 96.171C149.773 96.3149 149.808 96.4565 149.875 96.5826C150.113 96.9327 150.559 96.7484 150.904 96.5826C152.485 95.8422 154.19 95.425 155.925 95.354C156.044 95.362 156.163 95.3351 156.269 95.2765C156.374 95.2178 156.461 95.1297 156.52 95.0223C156.55 94.8985 156.553 94.7695 156.529 94.6442C156.506 94.519 156.456 94.4006 156.383 94.2975C155.318 92.4485 153.902 92.8908 152.534 93.7323Z" fill="white"/>
<path d="M149.506 116.743C148.316 114.194 147.722 111.552 146.871 108.893C144.914 110.471 144.717 113.358 142.945 115.287C142.687 115.588 142.386 115.847 142.052 116.055C140.863 116.755 139.161 116.448 137.852 116.356C137.185 116.305 136.555 116.019 136.068 115.545C135.765 115.14 135.598 114.644 135.592 114.132C135.485 112.382 136.449 110.778 137.377 109.316L143.795 99.1625C144.019 98.7085 144.344 98.3155 144.743 98.0155C145.142 97.7156 145.604 97.5172 146.092 97.4364C150.15 96.1904 154.275 95.1936 158.447 94.451C159.072 94.309 159.714 94.2676 160.351 94.3282C162.136 94.5985 163.325 96.3369 164.2 97.9463C168.899 106.356 172.231 115.908 171.707 125.589C171.696 126.113 171.616 126.634 171.469 127.137C171.158 127.888 170.654 128.538 170.012 129.016C167.918 130.724 165.158 131.363 162.493 131.387C158.507 131.424 153.254 130.159 150.28 127.229C148.602 125.558 150.28 124.55 151.089 122.929C152.094 120.822 150.41 118.629 149.506 116.743Z" fill="white"/>
<path d="M169.363 109.931C169.08 108.643 168.672 107.387 168.144 106.184C165.842 107.922 164.117 111.233 163.26 114.065C162.403 116.897 161.701 119.827 159.952 122.155L158.061 121.479L157.71 122.708C157.436 123.684 158.227 124.68 158.144 125.662C158.051 126.168 157.819 126.636 157.475 127.008C157.131 127.381 156.69 127.643 156.205 127.763C155.091 127.984 153.94 127.899 152.867 127.517C152.165 127.373 151.502 127.073 150.922 126.639C150.635 126.42 150.415 126.119 150.289 125.774C150.163 125.428 150.137 125.052 150.214 124.692C149.987 124.834 149.812 125.052 149.718 125.309C149.624 125.566 149.617 125.849 149.697 126.111C149.864 126.634 150.179 127.094 150.601 127.431C151.921 128.66 153.575 129.274 155.241 129.938C156.019 130.263 156.813 130.546 157.62 130.785C159.496 131.22 161.415 131.426 163.337 131.4C164.527 131.43 165.199 131.24 165.717 130.054C166.454 128.353 166.508 126.436 166.686 124.581C167.215 119.634 168.11 114.736 169.363 109.931Z" fill="url(#paint11_linear)"/>
<path d="M163.004 127.72C163.004 128.248 163.004 128.789 163.04 129.336C163.076 129.882 163.111 130.435 163.177 131C163.184 131.126 163.2 131.251 163.224 131.375C163.272 131.762 163.331 132.149 163.397 132.548C163.4 132.555 163.401 132.562 163.401 132.57C163.401 132.577 163.4 132.585 163.397 132.591L163.522 133.255C163.337 134.458 163.486 135.691 163.95 136.811C165.009 136.85 166.069 136.834 167.127 136.762C169.184 136.63 171.22 136.255 173.195 135.644C175.216 134.576 177.083 133.22 178.739 131.615C179.197 131.211 179.563 130.708 179.81 130.14C179.988 129.526 180.048 128.881 179.988 128.242C179.924 124.697 180.369 121.161 181.309 117.75C181.517 117.007 181.749 116.27 181.999 115.545C182.284 114.716 182.594 113.905 182.951 113.088C183.766 111.19 184.735 109.341 185.122 107.308C185.324 106.197 185.336 105.057 185.158 103.942C185.146 103.743 185.073 103.554 184.949 103.401C184.854 103.325 184.745 103.269 184.629 103.236C184.512 103.203 184.391 103.195 184.271 103.211C181.791 103.278 179.512 104.746 177.085 105.176C175.83 105.397 174.521 105.336 173.302 105.711C171.589 106.324 170.131 107.523 169.167 109.108C168.622 109.921 168.138 110.778 167.722 111.669C167.085 113.008 166.49 114.286 165.937 115.527C165.616 116.27 165.312 117.007 165.033 117.732C164.122 120.023 163.487 122.42 163.141 124.87V124.913C163.037 125.845 162.992 126.782 163.004 127.72Z" fill="#3E3E54"/>
<path d="M163.004 127.72C163.004 128.248 163.004 128.789 163.04 129.336C163.076 129.882 163.111 130.435 163.177 131C163.184 131.126 163.2 131.251 163.224 131.375C163.272 131.762 163.331 132.149 163.397 132.548C163.4 132.555 163.401 132.562 163.401 132.57C163.401 132.577 163.4 132.585 163.397 132.591L163.522 133.255C163.337 134.458 163.486 135.691 163.95 136.811C165.009 136.85 166.069 136.834 167.127 136.762C169.184 136.63 171.22 136.255 173.195 135.644C175.216 134.576 177.083 133.22 178.739 131.615C179.197 131.211 179.563 130.708 179.81 130.14C179.988 129.526 180.048 128.881 179.988 128.242C179.924 124.697 180.369 121.161 181.309 117.75C181.517 117.007 181.749 116.27 181.999 115.545C182.284 114.716 182.594 113.905 182.951 113.088C183.766 111.19 184.735 109.341 185.122 107.308C185.324 106.197 185.336 105.057 185.158 103.942C185.146 103.743 185.073 103.554 184.949 103.401C184.854 103.325 184.745 103.269 184.629 103.236C184.512 103.203 184.391 103.195 184.271 103.211C181.791 103.278 179.512 104.746 177.085 105.176C175.83 105.397 174.521 105.336 173.302 105.711C171.589 106.324 170.131 107.523 169.167 109.108C168.622 109.921 168.138 110.778 167.722 111.669C167.085 113.008 166.49 114.286 165.937 115.527C165.616 116.27 165.312 117.007 165.033 117.732C164.122 120.023 163.487 122.42 163.141 124.87V124.913C163.037 125.845 162.992 126.782 163.004 127.72Z" fill="url(#paint12_linear)"/>
<path d="M129.131 80.0525C127.799 78.8854 126.419 77.6876 124.753 77.1224C124.646 77.0648 124.526 77.0347 124.405 77.0347C124.284 77.0347 124.165 77.0648 124.057 77.1224C123.952 77.2176 123.882 77.3481 123.861 77.491C123.828 77.7989 123.865 78.1104 123.968 78.4012C124.072 78.6921 124.238 78.9545 124.456 79.168C124.884 79.5963 125.271 80.0675 125.61 80.5746C124.987 80.4585 124.346 80.4879 123.736 80.6606C123.615 80.685 123.505 80.7473 123.421 80.8388C123.38 80.9207 123.361 81.0122 123.367 81.104C123.372 81.1958 123.401 81.2845 123.45 81.3609C123.692 81.7332 124.017 82.0395 124.398 82.2535C124.78 82.4675 125.206 82.5828 125.639 82.5895C125.802 82.5951 125.961 82.6461 126.098 82.7369C126.389 82.9887 126.199 83.474 126.252 83.8549C126.295 84.038 126.378 84.2086 126.494 84.3534C126.611 84.4983 126.758 84.6135 126.924 84.6903C127.246 84.8623 127.609 84.9483 127.948 85.0957C128.44 85.4263 128.983 85.6673 129.554 85.8083C130.678 85.8574 131.803 84.3156 131.814 83.2222C131.838 82.0305 129.911 80.7344 129.131 80.0525Z" fill="url(#paint13_linear)"/>
<path d="M64.6282 133.937H62.6056V153.225H64.6282V133.937Z" fill="#4C506D"/>
<path d="M64.6282 133.937H62.6056V153.225H64.6282V133.937Z" fill="url(#paint14_linear)"/>
<path d="M74.1345 155.399C74.1345 156.824 69.423 157.979 63.6109 157.979C57.7989 157.979 53.0934 156.824 53.0934 155.399C53.0577 154.863 53.0577 154.326 53.0934 153.79C53.8429 152.561 58.3284 152.813 63.6109 152.813C68.6972 152.813 73.1291 152.61 74.1345 153.79C74.1999 154.324 74.1999 154.865 74.1345 155.399Z" fill="#2F3554"/>
<path d="M63.6109 156.376C69.4196 156.376 74.1285 155.218 74.1285 153.79C74.1285 152.362 69.4196 151.204 63.6109 151.204C57.8023 151.204 53.0934 152.362 53.0934 153.79C53.0934 155.218 57.8023 156.376 63.6109 156.376Z" fill="#4C506D"/>
<path d="M82.9863 129.901C83.0162 131.035 82.8135 132.164 82.3914 133.212H82.3319C81.1422 133.212 80.0059 133.212 78.84 133.285C76.9004 133.447 74.9716 133.726 73.0636 134.121C72.1832 134.293 71.279 134.477 70.4283 134.661L67.906 135.19C66.3117 135.509 64.7769 135.804 63.2897 136.007C61.3663 135.16 59.6478 133.884 58.257 132.272L57.8168 131.737C57.6383 131.504 57.4658 131.258 57.3052 131C56.8181 130.282 56.5021 129.455 56.3831 128.586C56.3444 128.234 56.3564 127.878 56.4188 127.53C56.727 126.332 57.4539 125.295 58.4592 124.618L58.7745 124.385C60.8966 122.865 63.4398 122.1 66.0202 122.204C66.237 122.198 66.4538 122.21 66.6686 122.241C68.0475 122.346 69.4138 122.584 70.7495 122.953C72.8614 123.512 74.9792 124.299 77.0672 124.987C78.6143 125.415 80.0945 126.069 81.4634 126.928C81.858 127.186 82.2012 127.519 82.4747 127.911C82.8249 128.51 83.0024 129.201 82.9863 129.901Z" fill="#3E3E54"/>
<path d="M82.8079 133.378C82.5283 134.827 82.2903 136.283 82.0762 137.745C81.7847 139.754 81.6597 141.799 81.3385 143.796C81.0173 145.792 81.0887 147.77 80.7436 149.736C80.5891 150.475 80.5054 151.228 80.4938 151.984C80.5853 153.028 80.8426 154.049 81.2552 155.006C81.2017 155.135 81.0173 155.123 80.8804 155.086C80.1097 154.907 79.3627 154.633 78.6556 154.269C77.9406 153.902 77.3739 153.287 77.0553 152.531C76.633 151.407 77.0077 150.221 76.9602 149.066C76.8336 147.848 76.5864 146.645 76.2225 145.479C75.3956 142.131 73.2124 139.103 73.3016 135.546C73.3783 135.091 73.2961 134.623 73.0696 134.225C72.6591 133.703 70.928 134.551 70.3867 134.661L67.8644 135.19C63.3611 136.093 59.2029 137.131 54.5687 136.246C54.293 136.208 54.0277 136.112 53.7894 135.964C53.5114 135.712 53.316 135.377 53.2302 135.005C52.5875 132.904 52.7602 130.627 53.7121 128.654C54.8424 126.356 56.633 125.441 58.7329 124.354C61.1481 123.125 63.1886 122.136 65.9786 122.216C66.1954 122.21 66.4122 122.222 66.627 122.253C68.0103 122.369 69.3803 122.616 70.7198 122.99C74.1166 123.899 81.9512 125.177 83.254 129.25C83.6645 130.54 83.1529 131.566 82.903 132.819C82.8793 132.997 82.8436 133.187 82.8079 133.378Z" fill="url(#paint15_linear)"/>
<path d="M76.7698 151.965C76.8088 151.921 76.8551 151.883 76.9066 151.855C77.1208 151.763 77.3171 152.015 77.442 152.223C77.9684 153.115 78.756 153.81 79.6907 154.208C79.8038 154.269 79.9348 154.287 80.0595 154.257C80.1963 154.201 80.2677 154.042 80.3807 153.937C80.4637 153.87 80.5613 153.825 80.6649 153.806C80.7686 153.787 80.8752 153.794 80.9756 153.827C81.1788 153.902 81.3695 154.01 81.5407 154.146C82.0758 154.51 82.5793 154.921 83.0458 155.375C83.2838 155.62 83.5158 155.989 83.373 156.296C83.2777 156.462 83.1277 156.586 82.9506 156.646C82.2979 156.859 81.594 156.833 80.9578 156.573C79.768 156.167 78.7032 155.412 77.5372 154.939C77.4581 154.897 77.3702 154.876 77.2814 154.877C77.2147 154.888 77.149 154.904 77.0851 154.926C76.9792 154.913 76.8775 154.876 76.7878 154.816C76.6982 154.756 76.6228 154.676 76.5675 154.582C76.2697 154.203 76.1245 153.719 76.1622 153.232C76.1998 152.745 76.4174 152.292 76.7698 151.965Z" fill="#3E3E54"/>
<path d="M88.4057 134.109C88.917 135.479 89.1616 136.94 89.1255 138.409C89.1255 142.168 88.1142 145.841 87.1267 149.465C86.7103 150.989 86.3593 152.537 85.8715 154.066C85.5146 155.16 85.0387 155.971 85.7228 157.107C85.8707 157.321 86.0077 157.542 86.1333 157.77C86.1891 157.889 86.2109 158.021 86.1961 158.152C86.1814 158.282 86.1306 158.406 86.05 158.508C85.7823 158.759 85.3599 158.594 85.0268 158.458C84.2174 158.219 83.4228 157.93 82.6472 157.592C81.1838 156.738 81.749 155.657 81.981 154.349C82.2665 152.77 82.4569 151.155 82.6175 149.558C83.0146 146.306 82.9343 143.011 82.3795 139.784C82.3364 139.402 82.19 139.041 81.9572 138.74C81.6568 138.484 81.287 138.329 80.8983 138.298C75.5443 137.321 70.3094 137.026 65.1993 134.889C63.171 134.073 61.2293 133.044 59.4051 131.817C59.1408 131.607 58.9047 131.361 58.7032 131.086C58.6139 130.964 58.5306 130.835 58.4533 130.706C58.1372 130.168 57.9839 129.546 58.0131 128.918C58.0259 128.752 58.0537 128.587 58.0964 128.427C58.2321 128.07 58.4121 127.734 58.6318 127.425C58.9749 126.945 59.4103 126.544 59.9108 126.246C61.1695 125.312 62.6495 124.747 64.1939 124.612C65.235 124.557 66.2701 124.772 67.2992 124.71C68.2213 124.661 68.8578 124.133 69.6788 124.004C70.3023 123.928 70.9342 123.987 71.5348 124.176C72.9098 124.657 74.2366 125.274 75.4967 126.019L80.1071 128.396C82.2427 129.495 84.8662 130.239 86.74 131.768C87.4817 132.387 88.0555 133.193 88.4057 134.109Z" fill="url(#paint16_linear)"/>
<path d="M83.5336 126.092C85.4864 127.34 87.1048 129.073 88.2408 131.133C89.3768 133.194 89.9939 135.516 90.0357 137.886C86.2479 140.823 81.8817 142.866 77.2457 143.869C76.7174 144.029 76.1559 144.029 75.6276 143.869C75.1916 143.641 74.8082 143.318 74.5033 142.923C70.2558 138.421 62.7781 138.869 58.3165 134.588C56.627 132.966 55.5265 130.171 56.859 128.224C57.4017 127.536 58.0761 126.971 58.84 126.565C62.3081 124.434 66.395 121.246 70.5889 121.983C74.7829 122.72 79.9108 123.838 83.5336 126.092Z" fill="#09254F"/>
<path d="M85.1695 141.228C83.0458 138.888 82.6532 135.435 82.3676 132.235C81.7625 132.782 81.078 133.228 80.3391 133.556L79.9762 132.561C79.9658 132.478 79.9245 132.403 79.8611 132.351C79.7978 132.3 79.7174 132.275 79.6371 132.284C79.5926 132.291 79.55 132.308 79.5122 132.333C76.4859 133.383 73.3174 133.931 70.1249 133.955C68.9351 133.955 67.6086 133.863 66.6091 133.138C65.6097 132.413 65.0922 130.853 65.8239 129.846C63.2457 130.571 60.619 131.099 57.9655 131.424C57.8563 131.42 57.7474 131.439 57.6452 131.479C57.5431 131.519 57.4497 131.58 57.3706 131.658C57.1683 131.928 57.3706 132.321 57.5431 132.597C59.6701 135.674 62.868 137.781 66.4664 138.476C67.4717 138.666 72.8019 140.718 75.1933 143.943C75.3608 144.148 75.5808 144.3 75.8281 144.381C76.0754 144.463 76.3399 144.471 76.5913 144.404L85.1695 141.228Z" fill="url(#paint17_linear)"/>
<path d="M53.0339 132.401C52.2308 132.401 51.2968 132.536 50.8864 133.242C50.7692 133.465 50.7079 133.714 50.7079 133.967C50.7079 134.22 50.7692 134.47 50.8864 134.692C51.1292 135.135 51.4992 135.489 51.9453 135.706C52.5121 135.97 53.1133 136.148 53.7299 136.234C56.282 136.732 58.834 137.229 61.392 137.696C62.6829 137.929 63.9857 138.157 65.2826 138.365C66.3177 138.531 67.2695 139.053 68.3224 139.262C69.3754 139.471 70.7733 139.619 71.6538 138.845C71.9285 138.6 72.1366 138.285 72.2576 137.932C72.3786 137.578 72.4083 137.199 72.3438 136.83C72.3076 136.572 72.1954 136.332 72.0226 136.142C71.8852 136.012 71.7285 135.907 71.5586 135.829C69.6808 134.973 67.703 134.374 65.6752 134.047L61.511 133.181C60.2493 132.825 58.9623 132.572 57.6621 132.425C56.1214 132.364 54.5985 132.358 53.0339 132.401Z" fill="#3E3E54"/>
<path d="M53.0339 132.401C52.2308 132.401 51.2968 132.536 50.8864 133.242C50.7692 133.465 50.7079 133.714 50.7079 133.967C50.7079 134.22 50.7692 134.47 50.8864 134.692C51.1292 135.135 51.4992 135.489 51.9453 135.706C52.5121 135.97 53.1133 136.148 53.7299 136.234C56.282 136.732 58.834 137.229 61.392 137.696C62.6829 137.929 63.9857 138.157 65.2826 138.365C66.3177 138.531 67.2695 139.053 68.3224 139.262C69.3754 139.471 70.7733 139.619 71.6538 138.845C71.9285 138.6 72.1366 138.285 72.2576 137.932C72.3786 137.578 72.4083 137.199 72.3438 136.83C72.3076 136.572 72.1954 136.332 72.0226 136.142C71.8852 136.012 71.7285 135.907 71.5586 135.829C69.6808 134.973 67.703 134.374 65.6752 134.047L61.511 133.181C60.2493 132.825 58.9623 132.572 57.6621 132.425C56.1214 132.364 54.5985 132.358 53.0339 132.401Z" fill="url(#paint18_linear)"/>
<path d="M119.048 115.232V117.443H32.7662C32.6294 116.706 32.5045 115.969 32.3855 115.232H119.048Z" fill="#09254F"/>
<path d="M75.5146 84.0637C75.2244 83.8383 74.9037 83.6582 74.5628 83.5293C73.5455 83.1361 72.1237 83.1116 71.3147 83.9593C70.5057 84.807 70.5413 85.9249 70.3629 86.9938C70.0946 88.5259 69.4699 89.9677 68.5425 91.1954C67.9773 91.7922 67.5306 92.4976 67.2278 93.2716C67.1448 93.533 67.1448 93.815 67.2278 94.0764C67.3826 94.341 67.6077 94.5541 67.8763 94.6906C68.4888 95.1508 69.1816 95.4845 69.9167 95.6735C70.1587 95.7434 70.4135 95.7515 70.6592 95.6969C70.9048 95.6423 71.1339 95.5267 71.3266 95.3602C71.4583 95.1982 71.6282 95.0741 71.82 94.9999C72.0118 94.9256 72.2188 94.9037 72.4212 94.9363C72.8391 95.0661 73.2704 95.1444 73.7061 95.1698C74.0418 95.1158 74.3556 94.964 74.6106 94.7322C74.8656 94.5004 75.0513 94.1983 75.1457 93.8614C75.3369 93.1904 75.4429 92.4966 75.461 91.7974C75.6633 89.9546 76.3474 88.1855 76.4545 86.3304C76.498 85.9011 76.4345 85.4675 76.2699 85.0708C76.1054 84.6741 75.8454 84.3274 75.5146 84.0637Z" fill="url(#paint19_linear)"/>
<path d="M65.2528 93.9596C65.1801 94.0627 65.1301 94.1811 65.1065 94.3063C65.0828 94.4316 65.0861 94.5606 65.116 94.6844C65.1747 94.7925 65.2616 94.8814 65.3667 94.9411C65.4718 95.0008 65.5911 95.029 65.7109 95.0223C67.448 95.0999 69.1536 95.5277 70.7317 96.2816C71.0767 96.4474 71.5229 96.6256 71.7609 96.2816C71.828 96.1544 71.8632 96.0118 71.8632 95.8669C71.8632 95.722 71.828 95.5795 71.7609 95.4523C71.6357 95.2197 71.4582 95.0217 71.2433 94.8749C70.5605 94.3536 69.8451 93.8796 69.1017 93.4559C67.7276 92.6205 66.3117 92.1782 65.2528 93.9596Z" fill="white"/>
<path d="M70.5532 122.665C71.3563 124.323 73.0399 125.331 71.3563 126.995C68.3819 129.956 63.1291 131.191 59.1434 131.154C56.4783 131.154 53.718 130.497 51.624 128.789C50.982 128.31 50.4799 127.657 50.1725 126.903C50.0192 126.404 49.939 125.885 49.9346 125.361C49.4111 115.662 52.7365 106.116 57.436 97.719C58.3284 96.1096 59.5003 94.3773 61.2849 94.1071C61.9217 94.0403 62.5648 94.0818 63.1886 94.2299C67.3611 94.9674 71.487 95.9623 75.5443 97.2091C76.0839 97.3323 76.5926 97.5709 77.0375 97.9094C77.3564 98.2066 77.6292 98.5526 77.8465 98.9352L84.2594 109.089C85.1933 110.557 86.1511 112.161 86.044 113.905C86.0389 114.419 85.8718 114.917 85.5681 115.324C85.0804 115.796 84.4502 116.08 83.7835 116.129C81.4437 116.517 79.0491 116.349 76.7817 115.637C78.0488 114.636 77.6502 112.566 76.8174 111.141C76.2517 110.193 75.5519 109.338 74.7412 108.604C74.1989 111.346 73.3193 114.004 72.1237 116.516C71.2552 118.365 69.536 120.558 70.5532 122.665Z" fill="white"/>
<path d="M76.6984 84.3646C76.8934 83.7487 76.9141 83.088 76.7579 82.4604C76.4952 81.5392 76.0381 80.6896 75.4194 79.9726C74.2296 78.4922 72.677 77.1961 70.8388 76.9012C65.8656 76.0597 60.0833 81.2994 58.1916 85.63C57.0018 88.3513 56.6449 91.3674 55.9786 94.279C55.3123 97.1907 54.2356 100.158 52.0167 102.068C51.1124 102.848 50.0119 103.462 49.4705 104.525C48.8102 105.834 49.1969 107.504 50.0654 108.671C50.8685 109.734 51.8917 110.158 52.9268 110.852C53.8544 111.546 54.5938 112.475 55.0744 113.549C56.2165 115.828 56.6627 118.463 58.0488 120.588L60.0833 119.427C61.8321 118.549 63.4377 117.395 64.8424 116.006C66.1808 114.55 67.0851 112.517 66.7519 110.539C66.5556 109.341 65.931 108.26 65.5622 107.105C64.42 103.462 66.9185 102.007 69.0898 99.8444C69.8294 99.0908 70.3845 98.1663 70.7093 97.1472C71.0341 96.1282 71.1193 95.0439 70.9578 93.9842C70.7532 93.4107 70.7411 92.7828 70.9234 92.2014C71.1057 91.6199 71.4719 91.1185 71.9631 90.7777C72.8911 89.6167 72.1594 88.1179 73.254 87.0429C74.1047 86.2136 75.4016 86.1153 76.1987 85.2001C76.4203 84.961 76.5906 84.6763 76.6984 84.3646Z" fill="#2F3554"/>
<path d="M52.2665 109.66C52.5396 108.373 52.9383 107.118 53.4563 105.913C55.7823 107.621 57.4836 110.957 58.3403 113.764C59.1969 116.571 59.8989 119.532 61.6478 121.86L63.5396 121.184L63.8905 122.413C64.1642 123.383 63.373 124.378 63.4563 125.361C63.5492 125.867 63.7816 126.335 64.1256 126.707C64.4697 127.08 64.9107 127.342 65.3956 127.462C66.5097 127.682 67.6603 127.598 68.7329 127.216C69.4288 127.076 70.0866 126.781 70.6603 126.35C70.9478 126.13 71.1675 125.828 71.2931 125.481C71.4186 125.135 71.4447 124.758 71.3682 124.397C71.5971 124.54 71.7726 124.758 71.8665 125.017C71.9604 125.275 71.9672 125.559 71.8858 125.822C71.7183 126.345 71.4035 126.805 70.9816 127.143C69.6669 128.371 68.0071 128.986 66.3415 129.649C65.5632 129.972 64.7689 130.253 63.9619 130.49C62.0855 130.922 60.1672 131.128 58.2451 131.105C57.0553 131.105 56.3831 130.945 55.8656 129.753C55.1279 128.052 55.0744 126.135 54.8959 124.286C54.3839 119.349 53.5049 114.459 52.2665 109.66Z" fill="url(#paint20_linear)"/>
<path d="M58.6318 127.45C58.6318 127.978 58.6318 128.513 58.5961 129.059C58.5604 129.606 58.5187 130.159 58.4533 130.73C58.4601 130.854 58.446 130.979 58.4117 131.099C58.3581 131.486 58.3046 131.873 58.2332 132.272V132.315C58.1975 132.53 58.1559 132.751 58.1142 132.978C58.2922 134.184 58.144 135.417 57.6859 136.541C56.6268 136.578 55.5665 136.56 54.5092 136.486C52.4515 136.357 50.4153 135.982 48.4414 135.368C46.4206 134.298 44.5545 132.941 42.8971 131.338C42.4375 130.934 42.0715 130.428 41.8263 129.858C41.6481 129.245 41.5875 128.602 41.6478 127.966C41.7134 124.41 41.2663 120.863 40.3212 117.443C40.119 116.7 39.887 115.963 39.6312 115.232C39.3456 114.409 39.0363 113.592 38.6853 112.775C37.8703 110.877 36.9006 109.034 36.508 106.995C36.2992 105.882 36.2811 104.741 36.4545 103.622C36.466 103.424 36.5389 103.234 36.6627 103.082C36.758 103.005 36.867 102.949 36.9834 102.917C37.0998 102.884 37.2212 102.875 37.3409 102.891C39.8215 102.959 42.0999 104.433 44.5271 104.857C45.7823 105.078 47.091 105.023 48.3105 105.397C50.035 105.999 51.5057 107.197 52.4747 108.788C53.0203 109.602 53.5036 110.458 53.9203 111.35C54.5568 112.689 55.1517 113.967 55.7049 115.207C56.0262 115.957 56.2998 116.688 56.6092 117.419C57.5261 119.705 58.1616 122.101 58.5009 124.55V124.593C58.6012 125.542 58.6449 126.496 58.6318 127.45Z" fill="#3E3E54"/>
<path d="M58.6318 127.45C58.6318 127.978 58.6318 128.513 58.5961 129.059C58.5604 129.606 58.5187 130.159 58.4533 130.73C58.4601 130.854 58.446 130.979 58.4117 131.099C58.3581 131.486 58.3046 131.873 58.2332 132.272V132.315C58.1975 132.53 58.1559 132.751 58.1142 132.978C58.2922 134.184 58.144 135.417 57.6859 136.541C56.6268 136.578 55.5665 136.56 54.5092 136.486C52.4515 136.357 50.4153 135.982 48.4414 135.368C46.4206 134.298 44.5545 132.941 42.8971 131.338C42.4375 130.934 42.0715 130.428 41.8263 129.858C41.6481 129.245 41.5875 128.602 41.6478 127.966C41.7134 124.41 41.2663 120.863 40.3212 117.443C40.119 116.7 39.887 115.963 39.6312 115.232C39.3456 114.409 39.0363 113.592 38.6853 112.775C37.8703 110.877 36.9006 109.034 36.508 106.995C36.2992 105.882 36.2811 104.741 36.4545 103.622C36.466 103.424 36.5389 103.234 36.6627 103.082C36.758 103.005 36.867 102.949 36.9834 102.917C37.0998 102.884 37.2212 102.875 37.3409 102.891C39.8215 102.959 42.0999 104.433 44.5271 104.857C45.7823 105.078 47.091 105.023 48.3105 105.397C50.035 105.999 51.5057 107.197 52.4747 108.788C53.0203 109.602 53.5036 110.458 53.9203 111.35C54.5568 112.689 55.1517 113.967 55.7049 115.207C56.0262 115.957 56.2998 116.688 56.6092 117.419C57.5261 119.705 58.1616 122.101 58.5009 124.55V124.593C58.6012 125.542 58.6449 126.496 58.6318 127.45Z" fill="url(#paint21_linear)"/>
<path d="M81.5824 155.725C81.6159 155.677 81.661 155.639 81.7133 155.614C81.9334 155.522 82.1297 155.774 82.2486 155.983C82.7751 156.874 83.5627 157.569 84.4973 157.967C84.6104 158.029 84.7415 158.046 84.8661 158.016C85.0089 157.961 85.0803 157.801 85.1874 157.697C85.2704 157.63 85.3679 157.585 85.4716 157.565C85.5752 157.546 85.6819 157.553 85.7823 157.586C85.9853 157.658 86.1745 157.766 86.3414 157.906C86.8776 158.268 87.3813 158.679 87.8465 159.134C88.0845 159.38 88.3165 159.748 88.1737 160.055C88.0836 160.222 87.9342 160.345 87.7573 160.399C87.1034 160.616 86.3972 160.592 85.7585 160.332C84.5687 159.926 83.5098 159.171 82.3438 158.698C82.2623 158.657 82.1727 158.636 82.0821 158.637C82.0173 158.647 81.9536 158.664 81.8917 158.686C81.7858 158.673 81.6842 158.635 81.5945 158.575C81.5048 158.516 81.4295 158.436 81.3742 158.342C81.077 157.961 80.9329 157.477 80.9717 156.99C81.0104 156.503 81.2291 156.05 81.5824 155.725Z" fill="#3E3E54"/>
<path d="M99.1969 78.6397L95.586 79.4444V62.9081L99.1969 62.1096V78.6397Z" fill="#09254F"/>
<path d="M104.01 77.5646L100.393 78.3693V65.8504L104.01 65.0519V77.5646Z" fill="#09254F"/>
<path d="M108.828 76.4958L105.217 77.3005V54.5969L108.828 53.7922V76.4958Z" fill="#09254F"/>
<path d="M113.641 75.4208L110.03 76.2255V48.6016L113.641 47.7969V75.4208Z" fill="#09254F"/>
<path d="M93.2064 79.9296L116.151 75.169V47.8461" stroke="#2F3554" stroke-width="1.0501" stroke-miterlimit="10"/>
<path d="M59.6074 57.9447C59.767 57.9996 59.9221 58.0674 60.0714 58.1475L61.511 58.9644C61.5789 59.0076 61.6533 59.0388 61.7311 59.0566C61.8135 59.0748 61.8986 59.0748 61.981 59.0566C64.0155 58.6204 64.0333 55.8685 62.3795 54.9164C62.0651 54.7691 61.7678 54.5857 61.4932 54.3697C61.2795 54.1269 61.0808 53.8704 60.8983 53.6018C60.7961 53.473 60.6616 53.3757 60.5095 53.3205C60.3574 53.2652 60.1935 53.2542 60.0357 53.2885C59.9031 53.3547 59.7879 53.4529 59.6999 53.5748C59.6119 53.6967 59.5536 53.8387 59.53 53.9888C59.4888 54.2886 59.417 54.583 59.3159 54.8672C59.2227 55.0413 59.1109 55.2041 58.9828 55.3525C58.7968 55.595 58.6259 55.8494 58.4712 56.1142C58.2931 56.3614 58.2085 56.6672 58.2332 56.9742C58.2795 57.1451 58.3663 57.3014 58.4857 57.429C58.6051 57.5567 58.7535 57.6516 58.9173 57.7052C59.1255 57.7973 59.3575 57.8587 59.6074 57.9447Z" fill="#FDB9A9"/>
<path d="M72.6532 69.0509C72.9194 69.5326 73.095 70.062 73.1707 70.6111C73.1671 71.1475 73.0439 71.6758 72.8108 72.1552C72.5776 72.6345 72.2408 73.052 71.8263 73.3754C70.6983 74.3889 69.2743 74.9835 67.7811 75.0646C67.4003 75.1036 67.016 75.0446 66.6627 74.8926C66.1758 74.5729 65.8055 74.0955 65.6098 73.5351C63.7656 69.616 61.749 64.7694 61.5646 60.3527C61.5051 58.9829 62.6651 56.5688 64.2237 57.4779C65.9369 58.4792 67.5253 60.9363 68.7032 62.5273C70.2218 64.5643 71.5447 66.7491 72.6532 69.0509Z" fill="white"/>
</g>
<defs>
<linearGradient id="paint0_linear" x1="60.7733" y1="90.5443" x2="69.2572" y2="201.417" gradientUnits="userSpaceOnUse">
<stop offset="0.01"/>
<stop offset="0.08" stop-opacity="0.69"/>
<stop offset="0.21" stop-opacity="0.32"/>
<stop offset="1" stop-opacity="0"/>
</linearGradient>
<linearGradient id="paint1_linear" x1="111992" y1="-5783.16" x2="111923" y2="-81.2805" gradientUnits="userSpaceOnUse">
<stop offset="0.01"/>
<stop offset="0.08" stop-opacity="0.69"/>
<stop offset="0.21" stop-opacity="0.32"/>
<stop offset="1" stop-opacity="0"/>
</linearGradient>
<linearGradient id="paint2_linear" x1="15269.1" y1="-526.851" x2="15234.8" y2="-263.972" gradientUnits="userSpaceOnUse">
<stop offset="0.01"/>
<stop offset="0.08" stop-opacity="0.69"/>
<stop offset="0.21" stop-opacity="0.32"/>
<stop offset="1" stop-opacity="0"/>
</linearGradient>
<linearGradient id="paint3_linear" x1="1388.24" y1="-1127.79" x2="1177.61" y2="-1044.83" gradientUnits="userSpaceOnUse">
<stop offset="0.01"/>
<stop offset="0.08" stop-opacity="0.69"/>
<stop offset="0.21" stop-opacity="0.32"/>
<stop offset="1" stop-opacity="0"/>
</linearGradient>
<linearGradient id="paint4_linear" x1="9713.53" y1="-445.954" x2="9394.88" y2="-240.099" gradientUnits="userSpaceOnUse">
<stop offset="0.01"/>
<stop offset="0.08" stop-opacity="0.69"/>
<stop offset="0.21" stop-opacity="0.32"/>
<stop offset="1" stop-opacity="0"/>
</linearGradient>
<linearGradient id="paint5_linear" x1="84634.8" y1="-4083.84" x2="84618.1" y2="-469.137" gradientUnits="userSpaceOnUse">
<stop offset="0.01"/>
<stop offset="0.08" stop-opacity="0.69"/>
<stop offset="0.21" stop-opacity="0.32"/>
<stop offset="1" stop-opacity="0"/>
</linearGradient>
<linearGradient id="paint6_linear" x1="9905.67" y1="-409.747" x2="9587.43" y2="-203.661" gradientUnits="userSpaceOnUse">
<stop offset="0.01"/>
<stop offset="0.08" stop-opacity="0.69"/>
<stop offset="0.21" stop-opacity="0.32"/>
<stop offset="1" stop-opacity="0"/>
</linearGradient>
<linearGradient id="paint7_linear" x1="158.899" y1="153.206" x2="157.473" y2="139.032" gradientUnits="userSpaceOnUse">
<stop stop-opacity="0"/>
<stop offset="0.99"/>
</linearGradient>
<linearGradient id="paint8_linear" x1="8325.1" y1="-4697.66" x2="9237.21" y2="-1894.32" gradientUnits="userSpaceOnUse">
<stop stop-opacity="0"/>
<stop offset="0.99"/>
</linearGradient>
<linearGradient id="paint9_linear" x1="70573.9" y1="-335.323" x2="70568.6" y2="-96.2601" gradientUnits="userSpaceOnUse">
<stop offset="0.01"/>
<stop offset="0.08" stop-opacity="0.69"/>
<stop offset="0.21" stop-opacity="0.32"/>
<stop offset="1" stop-opacity="0"/>
</linearGradient>
<linearGradient id="paint10_linear" x1="144.355" y1="89.7948" x2="154.456" y2="89.7948" gradientUnits="userSpaceOnUse">
<stop stop-color="#E5C5D5"/>
<stop offset="0.42" stop-color="#EAD4D1"/>
<stop offset="1" stop-color="#F0E9CB"/>
</linearGradient>
<linearGradient id="paint11_linear" x1="16352.4" y1="-2059.87" x2="14247.6" y2="-3705.93" gradientUnits="userSpaceOnUse">
<stop offset="0.01"/>
<stop offset="0.08" stop-opacity="0.69"/>
<stop offset="0.21" stop-opacity="0.32"/>
<stop offset="1" stop-opacity="0"/>
</linearGradient>
<linearGradient id="paint12_linear" x1="18342.1" y1="-4334.58" x2="17505.9" y2="-4334.58" gradientUnits="userSpaceOnUse">
<stop stop-opacity="0"/>
<stop offset="0.99"/>
</linearGradient>
<linearGradient id="paint13_linear" x1="1970.03" y1="-1595.42" x2="2090.51" y2="-1595.42" gradientUnits="userSpaceOnUse">
<stop stop-color="#E5C5D5"/>
<stop offset="0.42" stop-color="#EAD4D1"/>
<stop offset="1" stop-color="#F0E9CB"/>
</linearGradient>
<linearGradient id="paint14_linear" x1="1305.7" y1="-1430.79" x2="1529.89" y2="-1672.05" gradientUnits="userSpaceOnUse">
<stop stop-opacity="0"/>
<stop offset="0.99"/>
</linearGradient>
<linearGradient id="paint15_linear" x1="28238.3" y1="-4960.48" x2="27183.3" y2="-2082.27" gradientUnits="userSpaceOnUse">
<stop stop-color="#E5C5D5"/>
<stop offset="0.42" stop-color="#EAD4D1"/>
<stop offset="1" stop-color="#F0E9CB"/>
</linearGradient>
<linearGradient id="paint16_linear" x1="4250.11" y1="-3801.02" x2="5719.09" y2="-2306.1" gradientUnits="userSpaceOnUse">
<stop stop-color="#E5C5D5"/>
<stop offset="0.42" stop-color="#EAD4D1"/>
<stop offset="1" stop-color="#F0E9CB"/>
</linearGradient>
<linearGradient id="paint17_linear" x1="3041.37" y1="-1239.87" x2="3890.44" y2="-2313.11" gradientUnits="userSpaceOnUse">
<stop offset="0.01"/>
<stop offset="0.08" stop-opacity="0.69"/>
<stop offset="0.21" stop-opacity="0.32"/>
<stop offset="1" stop-opacity="0"/>
</linearGradient>
<linearGradient id="paint18_linear" x1="2791.65" y1="-769.496" x2="2685.97" y2="-472.014" gradientUnits="userSpaceOnUse">
<stop stop-opacity="0"/>
<stop offset="0.99"/>
</linearGradient>
<linearGradient id="paint19_linear" x1="20296" y1="-2055.06" x2="20150.8" y2="-2055.06" gradientUnits="userSpaceOnUse">
<stop stop-color="#E5C5D5"/>
<stop offset="0.42" stop-color="#EAD4D1"/>
<stop offset="1" stop-color="#F0E9CB"/>
</linearGradient>
<linearGradient id="paint20_linear" x1="6569.32" y1="-2069.5" x2="8671.57" y2="-3711.16" gradientUnits="userSpaceOnUse">
<stop offset="0.01"/>
<stop offset="0.08" stop-opacity="0.69"/>
<stop offset="0.21" stop-opacity="0.32"/>
<stop offset="1" stop-opacity="0"/>
</linearGradient>
<linearGradient id="paint21_linear" x1="7624.41" y1="-4355.93" x2="8460.34" y2="-4355.93" gradientUnits="userSpaceOnUse">
<stop stop-opacity="0"/>
<stop offset="0.99"/>
</linearGradient>
<clipPath id="clip0">
<rect width="230" height="179" fill="white"/>
</clipPath>
</defs>
</svg>
