<svg width="402" height="117" viewBox="0 0 402 117" fill="none" xmlns="http://www.w3.org/2000/svg">
<g clip-path="url(#clip0)">
<path opacity="0.18" d="M125.509 56.5428C125.509 66.4938 122.595 76.2687 117.062 84.8807C111.529 93.4926 103.573 100.637 93.9959 105.592C84.4192 110.547 73.5611 113.138 62.5179 113.103C51.4746 113.068 40.6371 110.408 31.0994 105.392L33.6618 107.485L2.86271 117.009L13.2625 91.3217C7.11578 84.2204 2.94008 75.8989 1.08296 67.0498C-0.774169 58.2006 -0.259019 49.0798 2.58554 40.4463C5.4301 31.8128 10.5218 23.9163 17.4369 17.414C24.352 10.9117 32.8905 5.99154 42.3419 3.06308C51.7933 0.134613 61.8842 -0.717494 71.7748 0.577662C81.6654 1.87282 91.0698 5.27778 99.2052 10.5092C107.341 15.7406 113.972 22.6472 118.547 30.6541C123.122 38.6611 125.509 47.5369 125.509 56.5428V56.5428Z" fill="#09254F"/>
<path d="M52.0792 75.5918C52.0792 75.5918 34.8229 75.9075 26.0546 88.8864C26.0546 88.8864 21.4803 107.331 22.0508 111.264L33.3615 106.646C33.7019 107.484 50.3176 113.401 64.8013 112.815C91.5165 111.742 103.618 99.5474 103.618 99.5474C103.618 99.5474 100.785 82.2391 84.9503 78.3066C69.1153 74.3742 52.0792 75.5918 52.0792 75.5918Z" fill="#3D9BE9"/>
<path d="M51.9591 74.8162C51.9591 74.8162 48.2256 75.3303 48.3457 77.7655C48.4658 80.2008 48.9162 87.5336 53.1102 85.7748C57.3042 84.016 60.8575 78.6945 60.8575 78.6945L51.9591 74.8162Z" fill="white"/>
<path d="M71.3474 74.8162C71.3474 74.8162 75.081 75.3303 74.9709 77.7655C74.8608 80.2008 74.3903 87.5336 70.2064 85.7748C66.0224 84.016 62.459 78.6945 62.459 78.6945L71.3474 74.8162Z" fill="white"/>
<path d="M37.8458 39.7125C37.8458 39.7125 33.6018 63.9116 44.2718 67.0053C45.4356 67.6287 46.7289 68.0304 48.0718 68.1855C49.4147 68.3407 50.7786 68.246 52.0792 67.9072V75.5557C52.0792 75.5557 62.8594 82.8975 71.6978 75.0416V55.3522C71.6978 55.3522 70.6968 43.3113 68.0243 44.592C67.4137 44.8987 62.0186 44.3936 61.1378 35.5726C61.1378 35.5726 48.7461 30.6119 43.0107 34.0212C37.2752 37.4306 37.8458 39.7125 37.8458 39.7125Z" fill="#F7AF87"/>
<path d="M35.2333 38.9008C35.882 39.9623 36.7614 40.8952 37.819 41.6437C38.8767 42.3921 40.0909 42.9409 41.3891 43.2572C42.6976 43.5383 44.0713 43.4393 45.3136 42.9744C46.5559 42.5094 47.6032 41.7024 48.3057 40.6686C49.3776 42.0245 50.9654 42.9778 52.7669 43.3471C54.5683 43.7163 56.4576 43.4756 58.0749 42.6709C59.4962 44.4748 62.2088 44.9709 64.6411 44.8356C67.7593 44.7092 70.7288 43.598 73.029 41.6968C74.147 40.7339 75.0005 39.5495 75.5218 38.2375C76.043 36.9254 76.2177 35.522 76.0319 34.1385C75.5014 30.9006 72.7888 28.2939 69.8861 26.3367C65.2975 23.186 59.8586 21.1963 54.1312 20.5733C48.9563 20.0502 40.6885 20.5733 36.7247 24.0909C32.761 27.6085 32.4006 34.6075 35.2333 38.9008Z" fill="#DD6034"/>
<path d="M52.0792 67.9794C52.0792 67.9794 58.6154 66.4281 61.0277 63.7403C61.0277 63.7403 57.6945 75.5287 52.0792 75.6279V67.9794Z" fill="url(#paint0_linear)"/>
<path d="M65.3418 41.4443L65.8122 49.7873L67.674 47.4963C67.9542 47.1446 68.3346 46.7657 68.805 46.8379C69.2755 46.9101 69.3856 47.2077 69.5457 47.4963C70.2716 48.8408 70.53 50.3514 70.2871 51.8304C70.0442 53.3094 69.3113 54.6878 68.1845 55.7852C67.7877 56.0934 67.4642 56.4708 67.2336 56.8946C67.1217 57.2615 67.0945 57.6452 67.1535 58.022C67.3437 60.4572 71.3274 63.3164 72.0081 61.5486C72.6887 59.7808 72.8188 57.8596 73.4594 56.0738C74.4731 53.7765 75.8965 51.6438 77.6734 49.7602C79.4678 47.87 80.8286 45.6782 81.6772 43.3113C82.3378 40.9121 81.8173 38.0891 79.6753 36.5107C79.2731 36.2789 78.9315 35.9712 78.6744 35.6087C78.5523 35.3206 78.4879 35.0152 78.4842 34.7068C78.2468 31.7104 76.8719 28.879 74.5905 26.6885C73.4429 25.6066 72.0538 24.7562 70.5148 24.1935C68.9758 23.6307 67.3218 23.3682 65.6621 23.4235C65.0999 23.4266 64.5456 23.5437 64.0405 23.7662C63.5805 24.053 63.1923 24.4236 62.901 24.8539C62.6096 25.2842 62.4216 25.7648 62.3489 26.2646C61.2779 30.7743 63.6001 35.284 64.4709 39.8659" fill="#DD6034"/>
<path opacity="0.18" d="M264.34 56.5429C264.338 66.4942 261.423 76.2688 255.888 84.8804C250.354 93.492 242.397 100.636 232.82 105.591C223.242 110.546 212.384 113.136 201.341 113.102C190.297 113.067 179.459 110.407 169.921 105.392L172.483 107.485L141.654 117.009L152.044 91.3218C145.9 84.2199 141.727 75.8986 139.872 67.0502C138.017 58.2019 138.534 49.0823 141.379 40.4502C144.225 31.8181 149.317 23.9232 156.232 17.4222C163.147 10.9212 171.684 6.0021 181.135 3.07423C190.585 0.146361 200.675 -0.705653 210.564 0.589071C220.454 1.88379 229.857 5.28782 237.992 10.5179C246.127 15.7481 252.758 22.653 257.334 30.6584C261.91 38.6638 264.298 47.5381 264.3 56.5429H264.34Z" fill="#09254F"/>
<path d="M190.62 75.5918C190.62 75.5918 173.364 75.9075 164.596 88.8864C164.596 88.8864 158.59 107.484 159.19 111.435L172.523 107.503C179.169 110.849 189.149 113.41 203.342 112.833C230.108 111.76 242.159 99.5384 242.159 99.5384C242.159 99.5384 239.326 82.2301 223.491 78.2976C207.656 74.3652 190.62 75.5918 190.62 75.5918Z" fill="#3D9BE9"/>
<path d="M228.136 54.9013C230.308 44.9077 232.26 29.4845 224.622 26.3277L219.618 26.1203C219.618 26.1203 215.944 18.4538 201.23 19.6984C186.516 20.9431 171.682 32.1182 178.389 50.2743C181.872 59.6906 175.686 73.3911 175.686 73.3911L197.327 73.3189L230.738 72.3629C227.748 66.9628 226.832 60.8209 228.136 54.9013V54.9013Z" fill="#404040"/>
<path d="M224.853 39.5232C224.853 39.5232 229.097 63.7223 218.426 66.825C217.263 67.4494 215.97 67.8517 214.627 68.0068C213.284 68.162 211.92 68.0667 210.619 67.7269V75.3844C210.619 75.3844 199.839 82.7262 191.001 74.8613V55.1087C191.001 55.1087 192.001 43.0768 194.674 44.3576C195.285 44.6552 200.68 44.1501 201.561 35.3381C201.561 35.3381 213.952 30.3684 219.688 33.7868C225.423 37.2052 224.853 39.5232 224.853 39.5232Z" fill="#F7AF87"/>
<path d="M210.619 67.754C210.619 67.754 204.083 66.2026 201.671 63.5148C201.671 63.5148 204.994 75.3032 210.619 75.4115V67.754Z" fill="url(#paint1_linear)"/>
<path d="M215.974 32.506C212.661 32.506 209.058 32.9299 206.725 35.0405C203.843 37.6471 203.913 41.796 202.652 45.2956C201.72 47.9619 199.856 50.2846 197.337 51.9158C196.075 52.7171 194.649 53.2838 193.142 53.5826C191.635 53.8815 190.076 53.9067 188.558 53.6566C188.246 53.627 187.945 53.5406 187.671 53.4026C187.397 53.2646 187.158 53.0779 186.967 52.8538C186.756 52.4491 186.683 51.9972 186.757 51.555C187.047 46.5943 187.697 41.4623 190.54 37.2141C192.126 34.8651 194.317 32.8945 196.926 31.4688C198.442 30.5966 200.149 30.0305 201.931 29.8092C205.434 29.4484 208.837 30.8554 212.01 32.2354" fill="#404040"/>
<path d="M190.51 74.8162C190.51 74.8162 186.777 75.3303 186.897 77.7655C187.017 80.2008 187.467 87.5336 191.661 85.7748C195.855 84.016 199.408 78.6945 199.408 78.6945L190.51 74.8162Z" fill="white"/>
<path d="M209.898 74.8162C209.898 74.8162 213.632 75.3303 213.522 77.7655C213.412 80.2008 212.941 87.5336 208.757 85.7748C204.573 84.016 201.01 78.6945 201.01 78.6945L209.898 74.8162Z" fill="white"/>
<path d="M199.999 90.2394C201.143 90.2394 202.071 89.4035 202.071 88.3723C202.071 87.3412 201.143 86.5053 199.999 86.5053C198.855 86.5053 197.927 87.3412 197.927 88.3723C197.927 89.4035 198.855 90.2394 199.999 90.2394Z" fill="white"/>
<path d="M199.999 96.8416C201.143 96.8416 202.071 96.0057 202.071 94.9746C202.071 93.9434 201.143 93.1075 199.999 93.1075C198.855 93.1075 197.927 93.9434 197.927 94.9746C197.927 96.0057 198.855 96.8416 199.999 96.8416Z" fill="white"/>
<path d="M199.999 103.444C201.143 103.444 202.071 102.608 202.071 101.577C202.071 100.546 201.143 99.7098 199.999 99.7098C198.855 99.7098 197.927 100.546 197.927 101.577C197.927 102.608 198.855 103.444 199.999 103.444Z" fill="white"/>
<path opacity="0.18" d="M402.01 56.5429C402.01 66.4939 399.096 76.2688 393.563 84.8807C388.03 93.4927 380.074 100.637 370.497 105.592C360.92 110.547 350.062 113.138 339.019 113.103C327.976 113.068 317.138 110.408 307.601 105.392L310.153 107.485L279.364 117.009L289.794 91.3218C283.65 84.2199 279.477 75.8986 277.622 67.0502C275.767 58.2019 276.284 49.0823 279.129 40.4502C281.975 31.8181 287.067 23.9232 293.982 17.4222C300.897 10.9212 309.435 6.0021 318.885 3.07423C328.335 0.146361 338.425 -0.705653 348.314 0.589071C358.204 1.88379 367.607 5.28782 375.742 10.5179C383.877 15.7481 390.508 22.653 395.084 30.6584C399.66 38.6638 402.048 47.5381 402.05 56.5429H402.01Z" fill="#09254F"/>
<path d="M328.3 75.5918C328.3 75.5918 311.044 75.9075 302.226 88.8864C302.226 88.8864 296.22 107.484 296.821 111.435L310.153 107.503C316.799 110.849 326.779 113.41 340.982 112.833C367.738 111.76 379.789 99.5384 379.789 99.5384C379.789 99.5384 376.956 82.2301 361.121 78.2976C345.286 74.3652 328.3 75.5918 328.3 75.5918Z" fill="#3D9BE9"/>
<path d="M329.602 62.3513C329.602 62.3513 329.381 73.346 328.3 75.5918C327.219 77.8376 336.778 84.7014 346.568 78.4329L347.218 75.682C347.218 75.682 345.487 68.0425 346.568 61.3772C347.649 54.7118 329.602 62.3513 329.602 62.3513Z" fill="#F7AF87"/>
<path d="M329.451 63.7944C329.451 63.7944 331.163 71.1813 338.41 71.6954C345.657 72.2095 346.247 69.9998 346.247 69.9998L346.427 60.5294L329.451 63.7944Z" fill="url(#paint2_linear)"/>
<path d="M318.581 40.0192C318.165 39.7474 317.687 39.5613 317.182 39.474C316.677 39.3867 316.157 39.4004 315.658 39.5141C315.272 39.6596 314.929 39.8852 314.657 40.1725C313.136 41.6247 313.216 43.9156 313.656 45.8728C313.928 46.9709 314.296 48.0476 314.758 49.0927C314.943 49.5781 315.217 50.0323 315.568 50.4366C316.639 51.6001 318.571 51.7535 320.223 51.5821C320.719 51.5822 321.209 51.4759 321.651 51.2721C322.093 51.0682 322.475 50.7726 322.765 50.4096C322.916 50.0985 323.004 49.7655 323.025 49.4265C323.446 45.485 322.415 42.1117 318.581 40.0192Z" fill="#F7AF87"/>
<path d="M359.95 41.6247C361.181 40.849 362.783 40.2537 364.164 40.7859C364.705 41.0318 365.165 41.4009 365.499 41.8566C365.832 42.3122 366.028 42.8386 366.066 43.3834C366.135 44.4766 365.922 45.5693 365.445 46.5763C364.974 47.871 364.23 49.0715 363.253 50.1119C362.257 51.1419 360.859 51.7876 359.35 51.9158C358.596 51.9668 357.841 51.8245 357.174 51.5052C356.506 51.186 355.952 50.703 355.576 50.1119C355.209 49.319 355.038 48.4632 355.076 47.6045C355.007 46.9406 355.092 46.2709 355.326 45.6383C355.916 44.3305 358.689 42.4094 359.95 41.6247Z" fill="#F7AF87"/>
<path d="M358.679 45.3317C357.118 57.1201 349.841 66.825 338.95 66.825C328.06 66.825 319.232 57.2012 319.232 45.3317C319.232 33.4621 326.238 20.0773 337.129 20.0773C348.019 20.0773 361.862 21.2227 358.679 45.3317Z" fill="#F7AF87"/>
<path d="M319.242 39.911L319.422 42.5446C319.422 42.9595 319.572 43.4466 320.023 43.5638C320.473 43.6811 320.913 42.9505 320.923 42.4093C320.923 40.2447 320.173 37.8004 321.664 36.0957C322.037 35.763 322.373 35.3974 322.665 35.0044C323.286 33.877 322.345 32.4429 322.905 31.2884C323.236 30.63 323.966 30.2241 324.497 29.6739C325.147 28.8142 325.644 27.8676 325.968 26.8689C326.089 26.5329 326.323 26.2395 326.639 26.0301C326.94 25.9171 327.256 25.8412 327.58 25.8046C328.801 25.525 329.521 24.3975 330.582 23.8113C331.543 23.3806 332.617 23.1995 333.685 23.2881C337.859 23.4054 342.203 24.7403 346.067 23.2881C347.655 25.3214 350.068 26.7085 352.783 27.1485C353.01 27.1605 353.228 27.2292 353.414 27.3469C353.593 27.5408 353.71 27.7745 353.754 28.0233C354.153 28.8163 354.717 29.5328 355.416 30.1339C357.828 32.8397 357.778 36.5828 357.598 40.0553L357.318 45.5661L359.45 42.3372C359.669 41.9602 359.957 41.6188 360.301 41.327C360.691 41.0294 361.211 40.849 361.452 40.4251C361.553 40.2137 361.611 39.9876 361.622 39.7576L362.142 35.0314C362.295 34.1799 362.261 33.3097 362.042 32.4699C361.862 31.9468 361.542 31.4688 361.362 30.9456C361.161 29.9849 361.131 29.0017 361.271 28.0324C361.341 27.5469 361.292 27.0537 361.13 26.5866C360.968 26.1195 360.695 25.6897 360.331 25.3265C361.031 23.216 361.692 20.9792 361.141 18.8325C360.591 16.6859 358.379 14.7287 355.966 15.0534C355.601 15.1408 355.221 15.1653 354.845 15.1256C354.529 15.0277 354.239 14.871 353.995 14.6656C352.312 13.4712 350.259 12.7778 348.119 12.6813C345.599 12.537 343.072 12.537 340.552 12.6813C334.887 13.1052 328.941 12.0499 323.646 13.8899C322.371 14.3135 321.196 14.95 320.183 15.7659C319.137 16.7275 318.238 17.8103 317.51 18.9859C317.104 19.5087 316.802 20.0918 316.619 20.7086C316.534 21.3859 316.534 22.0697 316.619 22.747C316.619 25.0109 315.338 27.2567 315.758 29.4665C315.909 30.2872 316.279 31.0539 316.409 31.8746C316.479 32.6219 316.479 33.3732 316.409 34.1205C316.34 36.0111 316.708 37.8939 317.49 39.6494C317.62 39.947 317.83 40.2898 318.191 40.3168C318.551 40.3439 318.921 39.5592 319.242 39.911Z" fill="#404040"/>
<path d="M322.114 59.7176C322.385 60.8084 322.802 61.8654 323.356 62.8654C324.778 65.0396 327.019 66.6816 329.672 67.4923C332.309 68.2825 335.07 68.6816 337.849 68.6739C341.578 68.7645 345.309 68.5653 349 68.0786C350.321 67.9072 350.221 67.6457 351.282 66.9331C352.994 65.7786 354.956 63.7222 355.286 61.8191C356.347 56.1639 358.119 48.29 357.858 42.5536C356.157 45.3857 356.177 51.4468 353.704 53.7738C352.363 55.0275 350.361 55.4604 348.459 55.74C342.341 56.6531 336.091 56.5767 330.002 55.5145C328.16 55.3265 326.42 54.6553 324.997 53.5844C322.835 51.6632 322.995 48.5696 322.525 45.8638C322.335 44.6732 321.824 42.8964 320.373 42.4995C319.932 44.8716 320.533 47.4692 320.593 49.8594C320.682 53.1869 321.193 56.4944 322.114 59.7176V59.7176Z" fill="#404040"/>
<path d="M317.23 43.7983C317.234 43.5275 317.197 43.2574 317.12 42.9956C317.079 42.8653 316.995 42.7495 316.878 42.664C316.762 42.5785 316.619 42.5273 316.469 42.5176C316.149 42.5176 315.919 42.7882 315.768 43.0407C315.23 44.1104 315.176 45.3271 315.618 46.432C315.946 47.5591 316.718 48.5401 317.79 49.1919C318.052 49.3679 318.364 49.4739 318.69 49.4978C319.015 49.5218 319.342 49.4626 319.632 49.3272C320.633 48.7049 320.243 46.883 319.342 46.3779C318.791 46.0712 318.341 46.1073 317.911 45.5661C317.499 45.0486 317.262 44.4345 317.23 43.7983V43.7983Z" fill="url(#paint3_linear)"/>
<path d="M361.752 43.7983C361.748 43.5275 361.785 43.2574 361.862 42.9956C361.903 42.8653 361.987 42.7495 362.104 42.664C362.22 42.5785 362.363 42.5273 362.513 42.5176C362.833 42.5176 363.063 42.7882 363.213 43.0407C363.752 44.1104 363.805 45.3271 363.363 46.432C363.035 47.5591 362.263 48.5401 361.191 49.1919C360.929 49.3679 360.618 49.4739 360.292 49.4978C359.966 49.5218 359.64 49.4626 359.35 49.3272C358.349 48.7049 358.749 46.883 359.64 46.3779C360.19 46.0712 360.641 46.1073 361.071 45.5661C361.483 45.0486 361.72 44.4345 361.752 43.7983V43.7983Z" fill="url(#paint4_linear)"/>
<path d="M350.581 71.0911C349.579 70.682 348.473 70.5201 347.378 70.6221C340.622 70.7845 333.635 72.0472 327.279 69.9818C326.19 70.9351 325.39 72.1245 324.957 73.4362C324.307 76.2052 326.899 78.7757 329.702 80.0384C334.436 82.185 339.981 82.1399 345.266 81.8423C347.338 81.7341 349.58 81.5447 351.122 80.2819C353.574 78.3157 353.704 72.6695 350.581 71.0911Z" fill="#3D9BE9"/>
<path d="M324.827 75.4926C324.827 75.4926 322.645 80.1917 333.525 80.3902C333.525 80.3902 322.645 80.5886 319.602 82.7442C316.559 84.8999 308.942 88.2281 308.512 92.5484C308.081 96.8687 305.459 108.423 305.459 108.423L296.801 111.417L302.206 88.8684C304.768 85.3691 308.095 82.3778 311.985 80.0778C315.875 77.7779 320.245 76.2176 324.827 75.4926V75.4926Z" fill="url(#paint5_linear)"/>
</g>
<defs>
<linearGradient id="paint0_linear" x1="58.8656" y1="78.0722" x2="52.7441" y2="50.6794" gradientUnits="userSpaceOnUse">
<stop stop-opacity="0"/>
<stop offset="0.99"/>
</linearGradient>
<linearGradient id="paint1_linear" x1="10426.9" y1="2466.4" x2="10539.8" y2="2124.24" gradientUnits="userSpaceOnUse">
<stop stop-opacity="0"/>
<stop offset="0.99"/>
</linearGradient>
<linearGradient id="paint2_linear" x1="6228.47" y1="2452.38" x2="6260.72" y2="1718.39" gradientUnits="userSpaceOnUse">
<stop stop-opacity="0"/>
<stop offset="0.99"/>
</linearGradient>
<linearGradient id="paint3_linear" x1="1908.15" y1="1210.55" x2="1957.67" y2="1205.52" gradientUnits="userSpaceOnUse">
<stop stop-opacity="0"/>
<stop offset="0.99"/>
</linearGradient>
<linearGradient id="paint4_linear" x1="4930.01" y1="1210.55" x2="4880.51" y2="1205.52" gradientUnits="userSpaceOnUse">
<stop stop-opacity="0"/>
<stop offset="0.99"/>
</linearGradient>
<linearGradient id="paint5_linear" x1="12500.8" y1="8787.16" x2="11274.5" y2="4462.85" gradientUnits="userSpaceOnUse">
<stop offset="0.471726"/>
<stop offset="1" stop-color="#4095DB"/>
</linearGradient>
<clipPath id="clip0">
<rect width="402" height="117" fill="white"/>
</clipPath>
</defs>
</svg>
