<svg width="402" height="130" viewBox="0 0 402 130" fill="none" xmlns="http://www.w3.org/2000/svg">
<g clip-path="url(#clip0)">
<path opacity="0.18" d="M125.509 62.8253C125.509 73.882 122.595 84.743 117.062 94.3118C111.529 103.881 103.573 111.819 93.9959 117.324C84.4192 122.83 73.5611 125.709 62.5179 125.67C51.4746 125.631 40.6371 122.676 31.0994 117.102L33.6618 119.427L2.86271 130.01L13.2625 101.469C7.11578 93.5782 2.94008 84.3321 1.08296 74.4997C-0.774169 64.6674 -0.259019 54.5331 2.58554 44.9403C5.4301 35.3475 10.5218 26.5737 17.4369 19.3489C24.352 12.124 32.8905 6.65724 42.3419 3.40339C51.7933 0.149543 61.8842 -0.797242 71.7748 0.64182C81.6654 2.08088 91.0698 5.86418 99.2052 11.6769C107.341 17.4895 113.972 25.1635 118.547 34.0601C123.122 42.9567 125.509 52.8187 125.509 62.8253Z" fill="#09254F"/>
<path d="M52.0792 83.9909C52.0792 83.9909 34.8229 84.3417 26.0546 98.7627C26.0546 98.7627 21.4803 119.257 22.0508 123.626L33.3615 118.495C33.7019 119.427 50.3176 126.001 64.8013 125.35C91.5165 124.157 103.618 110.608 103.618 110.608C103.618 110.608 100.785 91.3768 84.9503 87.0074C69.1153 82.638 52.0792 83.9909 52.0792 83.9909Z" fill="#3D9BE9"/>
<path d="M51.9591 83.1291C51.9591 83.1291 48.2256 83.7003 48.3457 86.4061C48.4658 89.112 48.9163 97.2595 53.1102 95.3053C57.3042 93.3511 60.8576 87.4383 60.8576 87.4383L51.9591 83.1291Z" fill="white"/>
<path d="M71.3474 83.1291C71.3474 83.1291 75.0809 83.7003 74.9708 86.4061C74.8607 89.112 74.3903 97.2595 70.2063 95.3053C66.0224 93.3511 62.459 87.4383 62.459 87.4383L71.3474 83.1291Z" fill="white"/>
<path d="M37.8458 44.125C37.8458 44.125 33.6018 71.013 44.2718 74.4504C45.4356 75.1431 46.7289 75.5894 48.0718 75.7618C49.4147 75.9341 50.7786 75.8289 52.0792 75.4525V83.9508C52.0792 83.9508 62.8594 92.1084 71.6978 83.3796V61.5025C71.6978 61.5025 70.6968 48.1237 68.0243 49.5467C67.4137 49.8875 62.0186 49.3262 61.1378 39.5251C61.1378 39.5251 48.7461 34.0133 43.0107 37.8014C37.2752 41.5896 37.8458 44.125 37.8458 44.125Z" fill="#F7AF87"/>
<path d="M35.2333 43.2231C35.882 44.4026 36.7614 45.4391 37.8191 46.2707C38.8767 47.1024 40.0909 47.7121 41.3891 48.0635C42.6977 48.3759 44.0713 48.2659 45.3136 47.7493C46.556 47.2327 47.6032 46.336 48.3057 45.1873C49.3776 46.6939 50.9654 47.7532 52.7669 48.1634C54.5684 48.5737 56.4576 48.3063 58.0749 47.4121C59.4963 49.4164 62.2088 49.9676 64.6411 49.8173C67.7593 49.6769 70.7288 48.4423 73.0291 46.3298C74.147 45.2599 75.0006 43.9439 75.5218 42.4861C76.0431 41.0283 76.2177 39.4689 76.0319 37.9317C75.5014 34.334 72.7888 31.4377 69.8861 29.263C65.2975 25.7622 59.8586 23.5515 54.1312 22.8592C48.9563 22.278 40.6885 22.8592 36.7247 26.7677C32.761 30.6761 32.4006 38.4528 35.2333 43.2231Z" fill="#DD6034"/>
<path d="M52.0792 75.5327C52.0792 75.5327 58.6154 73.809 61.0277 70.8225C61.0277 70.8225 57.6945 83.9207 52.0792 84.031V75.5327Z" fill="url(#paint0_linear)"/>
<path d="M65.3418 46.0492L65.8122 55.3192L67.674 52.7737C67.9542 52.3828 68.3346 51.9619 68.805 52.0421C69.2755 52.1223 69.3856 52.453 69.5457 52.7737C70.2716 54.2675 70.53 55.946 70.2871 57.5893C70.0442 59.2326 69.3113 60.7642 68.1845 61.9835C67.7877 62.326 67.4642 62.7453 67.2336 63.2162C67.1217 63.6239 67.0945 64.0502 67.1535 64.4689C67.3437 67.1747 71.3274 70.3515 72.0081 68.3873C72.6887 66.4231 72.8188 64.2885 73.4594 62.3042C74.4731 59.7516 75.8965 57.382 77.6734 55.2891C79.4678 53.1889 80.8286 50.7535 81.6772 48.1237C82.3378 45.4579 81.8173 42.3212 79.6753 40.5674C79.2731 40.3099 78.9315 39.968 78.6744 39.5652C78.5523 39.2451 78.4879 38.9058 78.4842 38.5631C78.2468 35.2338 76.8719 32.0878 74.5905 29.6539C73.4429 28.4518 72.0538 27.5069 70.5148 26.8816C68.9758 26.2563 67.3218 25.9647 65.6621 26.0261C65.0999 26.0295 64.5456 26.1597 64.0405 26.4069C63.5805 26.7256 63.1923 27.1373 62.901 27.6154C62.6096 28.0936 62.4216 28.6275 62.3489 29.1829C61.2779 34.1937 63.6001 39.2045 64.4709 44.2954" fill="#DD6034"/>
<path opacity="0.18" d="M264.34 62.8253C264.338 73.8823 261.423 84.743 255.888 94.3115C250.354 103.88 242.397 111.817 232.82 117.323C223.242 122.828 212.384 125.707 201.341 125.668C190.297 125.63 179.459 122.675 169.921 117.102L172.483 119.427L141.654 130.01L152.044 101.469C145.9 93.5775 141.727 84.3316 139.872 74.5001C138.017 64.6686 138.534 54.5357 141.379 44.9445C144.225 35.3533 149.317 26.5812 156.232 19.3578C163.147 12.1345 171.685 6.66887 181.135 3.41568C190.585 0.162492 200.675 -0.784191 210.564 0.654391C220.454 2.09297 229.857 5.87522 237.992 11.6865C246.127 17.4977 252.758 25.1699 257.334 34.0648C261.91 42.9596 264.298 52.8199 264.3 62.8253H264.34Z" fill="#09254F"/>
<path d="M190.62 83.9909C190.62 83.9909 173.364 84.3416 164.596 98.7627C164.596 98.7627 158.59 119.427 159.191 123.817L172.523 119.447C179.169 123.165 189.149 126.011 203.342 125.37C230.108 124.177 242.159 110.598 242.159 110.598C242.159 110.598 239.326 91.3668 223.491 86.9974C207.656 82.628 190.62 83.9909 190.62 83.9909Z" fill="#3D9BE9"/>
<path d="M228.136 61.0014C230.308 49.8975 232.26 32.7606 224.622 29.253L219.618 29.0225C219.618 29.0225 215.944 20.5042 201.23 21.8871C186.516 23.2701 171.682 35.6869 178.389 55.8603C181.872 66.3228 175.686 81.5456 175.686 81.5456L197.326 81.4655L230.738 80.4032C227.748 74.4031 226.832 67.5787 228.136 61.0014Z" fill="#404040"/>
<path d="M224.852 43.9146C224.852 43.9146 229.096 70.8025 218.426 74.2499C217.263 74.9437 215.97 75.3907 214.627 75.5631C213.284 75.7355 211.92 75.6296 210.619 75.2521V83.7604C210.619 83.7604 199.839 91.918 191 83.1792V61.2319C191 61.2319 192.001 47.8631 194.674 49.2862C195.285 49.6169 200.68 49.0557 201.56 39.2646C201.56 39.2646 213.952 33.7427 219.688 37.5409C225.423 41.339 224.852 43.9146 224.852 43.9146Z" fill="#F7AF87"/>
<path d="M210.619 75.2822C210.619 75.2822 204.083 73.5585 201.671 70.572C201.671 70.572 204.994 83.6702 210.619 83.7905V75.2822Z" fill="url(#paint1_linear)"/>
<path d="M215.974 36.1178C212.661 36.1178 209.058 36.5888 206.725 38.9339C203.843 41.8301 203.913 46.44 202.652 50.3284C201.72 53.291 199.856 55.8718 197.337 57.6843C196.075 58.5746 194.649 59.2042 193.142 59.5363C191.635 59.8684 190.076 59.8963 188.558 59.6184C188.246 59.5856 187.945 59.4895 187.671 59.3362C187.397 59.1829 187.158 58.9754 186.967 58.7265C186.756 58.2768 186.683 57.7746 186.757 57.2834C187.047 51.7715 187.697 46.0692 190.54 41.3491C192.126 38.739 194.317 36.5494 196.926 34.9653C198.442 33.9963 200.149 33.3672 201.931 33.1213C205.434 32.7205 208.837 34.2838 212.01 35.8171" fill="#404040"/>
<path d="M190.51 83.1291C190.51 83.1291 186.777 83.7003 186.897 86.4061C187.017 89.112 187.467 97.2595 191.661 95.3053C195.855 93.3511 199.408 87.4383 199.408 87.4383L190.51 83.1291Z" fill="white"/>
<path d="M209.898 83.1291C209.898 83.1291 213.632 83.7003 213.522 86.4061C213.412 89.112 212.941 97.2595 208.757 95.3053C204.573 93.3511 201.01 87.4383 201.01 87.4383L209.898 83.1291Z" fill="white"/>
<path d="M199.999 100.266C201.143 100.266 202.071 99.3372 202.071 98.1915C202.071 97.0458 201.143 96.117 199.999 96.117C198.855 96.117 197.927 97.0458 197.927 98.1915C197.927 99.3372 198.855 100.266 199.999 100.266Z" fill="white"/>
<path d="M199.999 107.602C201.143 107.602 202.071 106.673 202.071 105.527C202.071 104.382 201.143 103.453 199.999 103.453C198.855 103.453 197.927 104.382 197.927 105.527C197.927 106.673 198.855 107.602 199.999 107.602Z" fill="white"/>
<path d="M199.999 114.938C201.143 114.938 202.071 114.009 202.071 112.863C202.071 111.717 201.143 110.789 199.999 110.789C198.855 110.789 197.927 111.717 197.927 112.863C197.927 114.009 198.855 114.938 199.999 114.938Z" fill="white"/>
<path opacity="0.18" d="M402.01 62.8253C402.01 73.882 399.096 84.743 393.563 94.3118C388.03 103.881 380.074 111.819 370.497 117.324C360.92 122.83 350.062 125.709 339.019 125.67C327.976 125.631 317.138 122.676 307.601 117.102L310.153 119.427L279.364 130.01L289.794 101.469C283.65 93.5775 279.477 84.3316 277.622 74.5001C275.767 64.6686 276.284 54.5357 279.129 44.9445C281.975 35.3533 287.067 26.5812 293.982 19.3578C300.897 12.1345 309.435 6.66887 318.885 3.41568C328.335 0.162492 338.425 -0.784191 348.314 0.654391C358.204 2.09297 367.607 5.87522 375.742 11.6865C383.877 17.4977 390.508 25.1699 395.084 34.0648C399.66 42.9596 402.048 52.8199 402.05 62.8253H402.01Z" fill="#09254F"/>
<path d="M328.3 83.9909C328.3 83.9909 311.044 84.3416 302.226 98.7627C302.226 98.7627 296.22 119.427 296.821 123.817L310.153 119.447C316.799 123.165 326.779 126.011 340.982 125.37C367.738 124.177 379.789 110.598 379.789 110.598C379.789 110.598 376.956 91.3668 361.121 86.9974C345.286 82.628 328.3 83.9909 328.3 83.9909Z" fill="#3D9BE9"/>
<path d="M329.602 69.2792C329.602 69.2792 329.381 81.4955 328.3 83.9909C327.219 86.4863 336.778 94.1127 346.568 87.1477L347.218 84.0911C347.218 84.0911 345.487 75.6028 346.568 68.1969C347.649 60.7909 329.602 69.2792 329.602 69.2792Z" fill="#F7AF87"/>
<path d="M329.451 70.8827C329.451 70.8827 331.163 79.0904 338.41 79.6616C345.657 80.2328 346.247 77.7775 346.247 77.7775L346.427 67.2549L329.451 70.8827Z" fill="url(#paint2_linear)"/>
<path d="M318.581 44.4658C318.165 44.1638 317.687 43.957 317.182 43.86C316.677 43.763 316.157 43.7782 315.658 43.9046C315.272 44.0662 314.929 44.3168 314.657 44.6361C313.136 46.2496 313.216 48.7951 313.656 50.9698C313.928 52.1898 314.296 53.3862 314.757 54.5475C314.943 55.0868 315.217 55.5914 315.568 56.0407C316.639 57.3335 318.571 57.5039 320.223 57.3134C320.719 57.3136 321.209 57.1955 321.651 56.969C322.093 56.7425 322.475 56.414 322.765 56.0106C322.916 55.6649 323.004 55.295 323.025 54.9183C323.446 50.5388 322.415 46.7908 318.581 44.4658Z" fill="#F7AF87"/>
<path d="M359.95 46.2496C361.181 45.3878 362.783 44.7263 364.164 45.3176C364.705 45.5909 365.165 46.001 365.499 46.5073C365.832 47.0136 366.028 47.5985 366.066 48.2038C366.135 49.4184 365.922 50.6326 365.445 51.7515C364.974 53.19 364.23 54.5239 363.253 55.6799C362.257 56.8243 360.859 57.5418 359.35 57.6843C358.596 57.7409 357.841 57.5827 357.174 57.228C356.506 56.8733 355.952 56.3366 355.576 55.6799C355.209 54.7989 355.038 53.848 355.076 52.8939C355.007 52.1562 355.092 51.4121 355.326 50.7092C355.916 49.2561 358.689 47.1215 359.95 46.2496Z" fill="#F7AF87"/>
<path d="M358.679 50.3685C357.117 63.4667 349.841 74.2499 338.95 74.2499C328.06 74.2499 319.232 63.5569 319.232 50.3685C319.232 37.1801 326.238 22.308 337.129 22.308C348.019 22.308 361.862 23.5808 358.679 50.3685Z" fill="#F7AF87"/>
<path d="M319.242 44.3455L319.422 47.2718C319.422 47.7328 319.572 48.274 320.023 48.4043C320.473 48.5345 320.913 47.7228 320.923 47.1215C320.923 44.7163 320.173 42.0005 321.664 40.1064C322.037 39.7367 322.373 39.3305 322.665 38.8938C323.286 37.6411 322.345 36.0477 322.905 34.7649C323.236 34.0333 323.966 33.5823 324.497 32.971C325.147 32.0158 325.644 30.964 325.968 29.8543C326.089 29.481 326.323 29.155 326.639 28.9223C326.94 28.7968 327.256 28.7125 327.58 28.6718C328.801 28.3611 329.522 27.1084 330.583 26.457C331.543 25.9785 332.617 25.7772 333.685 25.8757C337.859 26.006 342.204 27.4892 346.067 25.8757C347.655 28.1349 350.068 29.6761 352.784 30.165C353.01 30.1784 353.228 30.2547 353.414 30.3855C353.593 30.601 353.71 30.8605 353.754 31.1371C354.153 32.0182 354.717 32.8143 355.416 33.4821C357.828 36.4886 357.778 40.6476 357.598 44.5059L357.318 50.6291L359.45 47.0413C359.669 46.6225 359.957 46.2432 360.301 45.9189C360.691 45.5882 361.211 45.3878 361.452 44.9168C361.553 44.682 361.611 44.4307 361.622 44.1752L362.142 38.9238C362.295 37.9777 362.261 37.0108 362.042 36.0777C361.862 35.4965 361.542 34.9653 361.362 34.3841C361.161 33.3166 361.131 32.2241 361.272 31.1471C361.341 30.6077 361.292 30.0597 361.13 29.5407C360.968 29.0217 360.695 28.5441 360.331 28.1406C361.031 25.7956 361.692 23.3102 361.141 20.9251C360.591 18.5399 358.379 16.3653 355.967 16.726C355.601 16.8232 355.221 16.8504 354.845 16.8062C354.529 16.6975 354.239 16.5234 353.995 16.2951C352.312 14.968 350.259 14.1975 348.119 14.0904C345.599 13.93 343.072 13.93 340.552 14.0904C334.887 14.5614 328.941 13.3888 323.646 15.4333C322.371 15.904 321.196 16.6111 320.183 17.5177C319.137 18.5862 318.238 19.7893 317.51 21.0954C317.104 21.6764 316.802 22.3243 316.619 23.0096C316.534 23.7621 316.534 24.5219 316.619 25.2745C316.619 27.7899 315.338 30.2852 315.759 32.7405C315.909 33.6525 316.279 34.5043 316.409 35.4163C316.479 36.2466 316.479 37.0814 316.409 37.9117C316.34 40.0123 316.708 42.1044 317.49 44.0549C317.62 44.3856 317.83 44.7664 318.191 44.7965C318.551 44.8266 318.922 43.9547 319.242 44.3455Z" fill="#404040"/>
<path d="M322.114 66.3529C322.385 67.5649 322.802 68.7394 323.356 69.8504C324.778 72.2663 327.019 74.0907 329.672 74.9915C332.309 75.8695 335.07 76.3129 337.849 76.3044C341.578 76.405 345.309 76.1837 349 75.6429C350.321 75.4525 350.221 75.1619 351.282 74.3702C352.994 73.0874 354.956 70.8025 355.286 68.6879C356.347 62.4044 358.119 53.6556 357.858 47.2818C356.157 50.4286 356.177 57.1631 353.704 59.7487C352.363 61.1417 350.361 61.6227 348.459 61.9334C342.341 62.9479 336.091 62.8631 330.002 61.6828C328.16 61.4739 326.42 60.7282 324.997 59.5382C322.835 57.4036 322.995 53.9662 322.525 50.9598C322.335 49.6369 321.824 47.6627 320.373 47.2217C319.932 49.8574 320.533 52.7436 320.593 55.3993C320.682 59.0966 321.193 62.7715 322.114 66.3529Z" fill="#404040"/>
<path d="M317.23 48.6648C317.234 48.3639 317.197 48.0638 317.12 47.7729C317.079 47.6281 316.995 47.4995 316.878 47.4044C316.762 47.3094 316.619 47.2526 316.469 47.2418C316.149 47.2418 315.919 47.5424 315.769 47.823C315.23 49.0116 315.176 50.3634 315.618 51.5911C315.946 52.8435 316.719 53.9335 317.79 54.6577C318.052 54.8532 318.364 54.971 318.69 54.9976C319.015 55.0242 319.342 54.9585 319.632 54.8081C320.633 54.1166 320.243 52.0922 319.342 51.531C318.791 51.1903 318.341 51.2303 317.911 50.629C317.499 50.054 317.262 49.3717 317.23 48.6648Z" fill="url(#paint3_linear)"/>
<path d="M361.752 48.6648C361.748 48.3639 361.785 48.0638 361.862 47.7729C361.903 47.6281 361.987 47.4995 362.104 47.4044C362.22 47.3094 362.363 47.2526 362.513 47.2418C362.833 47.2418 363.063 47.5424 363.213 47.823C363.752 49.0116 363.805 50.3634 363.364 51.5911C363.035 52.8435 362.263 53.9335 361.191 54.6577C360.929 54.8532 360.618 54.971 360.292 54.9976C359.966 55.0242 359.64 54.9585 359.35 54.8081C358.349 54.1166 358.749 52.0922 359.64 51.531C360.191 51.1903 360.641 51.2303 361.071 50.629C361.483 50.054 361.72 49.3717 361.752 48.6648Z" fill="url(#paint4_linear)"/>
<path d="M350.581 78.9901C349.579 78.5355 348.473 78.3557 347.378 78.469C340.622 78.6494 333.635 80.0524 327.279 77.7575C326.19 78.8167 325.39 80.1384 324.957 81.5957C324.307 84.6724 326.899 87.5285 329.702 88.9315C334.436 91.3167 339.981 91.2666 345.266 90.9359C347.338 90.8156 349.58 90.6051 351.122 89.2021C353.574 87.0174 353.704 80.7439 350.581 78.9901Z" fill="#3D9BE9"/>
<path d="M324.827 83.8807C324.827 83.8807 322.645 89.1019 333.525 89.3224C333.525 89.3224 322.645 89.5429 319.602 91.938C316.559 94.3332 308.942 98.0312 308.512 102.831C308.081 107.632 305.459 120.469 305.459 120.469L296.801 123.797L302.206 98.7427C304.768 94.8545 308.095 91.5309 311.985 88.9754C315.875 86.4198 320.245 84.6862 324.827 83.8807Z" fill="url(#paint5_linear)"/>
</g>
<defs>
<linearGradient id="paint0_linear" x1="58.8656" y1="86.7468" x2="51.3916" y2="56.6462" gradientUnits="userSpaceOnUse">
<stop stop-opacity="0"/>
<stop offset="0.99"/>
</linearGradient>
<linearGradient id="paint1_linear" x1="10426.9" y1="2740.44" x2="10563.1" y2="2368.81" gradientUnits="userSpaceOnUse">
<stop stop-opacity="0"/>
<stop offset="0.99"/>
</linearGradient>
<linearGradient id="paint2_linear" x1="6228.47" y1="2724.87" x2="6268.26" y2="1909.69" gradientUnits="userSpaceOnUse">
<stop stop-opacity="0"/>
<stop offset="0.99"/>
</linearGradient>
<linearGradient id="paint3_linear" x1="1908.15" y1="1345.06" x2="1957.77" y2="1340.52" gradientUnits="userSpaceOnUse">
<stop stop-opacity="0"/>
<stop offset="0.99"/>
</linearGradient>
<linearGradient id="paint4_linear" x1="4930.01" y1="1345.06" x2="4880.42" y2="1340.52" gradientUnits="userSpaceOnUse">
<stop stop-opacity="0"/>
<stop offset="0.99"/>
</linearGradient>
<linearGradient id="paint5_linear" x1="12500.8" y1="9763.51" x2="11012.8" y2="5041.18" gradientUnits="userSpaceOnUse">
<stop offset="0.471726"/>
<stop offset="1" stop-color="#4095DB"/>
</linearGradient>
<clipPath id="clip0">
<rect width="402" height="130" fill="white"/>
</clipPath>
</defs>
</svg>
