<svg width="48" height="48" viewBox="0 0 48 48" fill="none" xmlns="http://www.w3.org/2000/svg">
<path d="M42.5575 37.4425C41.3866 36.3209 40.247 35.1672 39.14 33.9825C38.21 33.0375 37.65 32.35 37.65 32.35L30.65 29.0075C33.4525 25.8291 34.9992 21.7375 35 17.5C35 7.8525 27.15 0 17.5 0C7.85 0 0 7.8525 0 17.5C0 27.1475 7.85 35 17.5 35C21.9075 35 25.925 33.35 29.0075 30.6525L32.35 37.6525C32.35 37.6525 33.0375 38.2125 33.9825 39.1425C34.95 40.05 36.2225 41.2775 37.4425 42.56L40.8375 46.04L42.3475 47.655L47.65 42.3525L46.035 40.8425C45.0875 39.9125 43.8225 38.6775 42.5575 37.4425ZM17.5 30C10.6075 30 5 24.3925 5 17.5C5 10.6075 10.6075 5 17.5 5C24.3925 5 30 10.6075 30 17.5C30 24.3925 24.3925 30 17.5 30Z" fill="#091B48"/>
</svg>
