<svg width="41" height="41" viewBox="0 0 41 41" fill="none" xmlns="http://www.w3.org/2000/svg">
<path d="M14.0938 14.0938C14.4336 14.0938 14.7594 14.2287 14.9997 14.469C15.24 14.7093 15.375 15.0352 15.375 15.375V30.75C15.375 31.0898 15.24 31.4157 14.9997 31.656C14.7594 31.8963 14.4336 32.0312 14.0938 32.0312C13.7539 32.0312 13.4281 31.8963 13.1878 31.656C12.9475 31.4157 12.8125 31.0898 12.8125 30.75V15.375C12.8125 15.0352 12.9475 14.7093 13.1878 14.469C13.4281 14.2287 13.7539 14.0938 14.0938 14.0938ZM20.5 14.0938C20.8398 14.0938 21.1657 14.2287 21.406 14.469C21.6463 14.7093 21.7812 15.0352 21.7812 15.375V30.75C21.7812 31.0898 21.6463 31.4157 21.406 31.656C21.1657 31.8963 20.8398 32.0312 20.5 32.0312C20.1602 32.0312 19.8343 31.8963 19.594 31.656C19.3537 31.4157 19.2188 31.0898 19.2188 30.75V15.375C19.2188 15.0352 19.3537 14.7093 19.594 14.469C19.8343 14.2287 20.1602 14.0938 20.5 14.0938ZM28.1875 15.375C28.1875 15.0352 28.0525 14.7093 27.8122 14.469C27.572 14.2287 27.2461 14.0938 26.9062 14.0938C26.5664 14.0938 26.2405 14.2287 26.0003 14.469C25.76 14.7093 25.625 15.0352 25.625 15.375V30.75C25.625 31.0898 25.76 31.4157 26.0003 31.656C26.2405 31.8963 26.5664 32.0312 26.9062 32.0312C27.2461 32.0312 27.572 31.8963 27.8122 31.656C28.0525 31.4157 28.1875 31.0898 28.1875 30.75V15.375Z" fill="#C12222"/>
<path fill-rule="evenodd" clip-rule="evenodd" d="M37.1562 7.6875C37.1562 8.36712 36.8863 9.0189 36.4057 9.49946C35.9251 9.98002 35.2734 10.25 34.5938 10.25H33.3125V33.3125C33.3125 34.6717 32.7725 35.9753 31.8114 36.9364C30.8503 37.8975 29.5467 38.4375 28.1875 38.4375H12.8125C11.4533 38.4375 10.1497 37.8975 9.18858 36.9364C8.22745 35.9753 7.6875 34.6717 7.6875 33.3125V10.25H6.40625C5.72663 10.25 5.07485 9.98002 4.59429 9.49946C4.11373 9.0189 3.84375 8.36712 3.84375 7.6875V5.125C3.84375 4.44538 4.11373 3.7936 4.59429 3.31304C5.07485 2.83248 5.72663 2.5625 6.40625 2.5625H15.375C15.375 1.88288 15.645 1.2311 16.1255 0.750539C16.6061 0.269977 17.2579 0 17.9375 0L23.0625 0C23.7421 0 24.3939 0.269977 24.8745 0.750539C25.355 1.2311 25.625 1.88288 25.625 2.5625H34.5938C35.2734 2.5625 35.9251 2.83248 36.4057 3.31304C36.8863 3.7936 37.1562 4.44538 37.1562 5.125V7.6875ZM10.5524 10.25L10.25 10.4012V33.3125C10.25 33.9921 10.52 34.6439 11.0005 35.1245C11.4811 35.605 12.1329 35.875 12.8125 35.875H28.1875C28.8671 35.875 29.5189 35.605 29.9995 35.1245C30.48 34.6439 30.75 33.9921 30.75 33.3125V10.4012L30.4476 10.25H10.5524ZM6.40625 7.6875V5.125H34.5938V7.6875H6.40625Z" fill="#C12222"/>
</svg>
