<svg width="27" height="27" viewBox="0 0 27 27" fill="none" xmlns="http://www.w3.org/2000/svg">
<path d="M13.5 1.6875C10.3788 1.72516 7.3961 2.98177 5.18894 5.18894C2.98177 7.3961 1.72516 10.3788 1.6875 13.5C1.72516 16.6212 2.98177 19.6039 5.18894 21.8111C7.3961 24.0182 10.3788 25.2748 13.5 25.3125C16.6212 25.2748 19.6039 24.0182 21.8111 21.8111C24.0182 19.6039 25.2748 16.6212 25.3125 13.5C25.2748 10.3788 24.0182 7.3961 21.8111 5.18894C19.6039 2.98177 16.6212 1.72516 13.5 1.6875ZM20.25 14.3438H14.3438V20.25H12.6562V14.3438H6.75V12.6562H12.6562V6.75H14.3438V12.6562H20.25V14.3438Z" fill="white"/>
</svg>
