<svg width="41" height="41" viewBox="0 0 41 41" fill="none" xmlns="http://www.w3.org/2000/svg">
<path d="M26.9062 20.5C26.9062 22.199 26.2313 23.8285 25.0299 25.0299C23.8285 26.2313 22.199 26.9062 20.5 26.9062C18.801 26.9062 17.1715 26.2313 15.9701 25.0299C14.7687 23.8285 14.0938 22.199 14.0938 20.5C14.0938 18.801 14.7687 17.1715 15.9701 15.9701C17.1715 14.7687 18.801 14.0938 20.5 14.0938C22.199 14.0938 23.8285 14.7687 25.0299 15.9701C26.2313 17.1715 26.9062 18.801 26.9062 20.5Z" fill="#009846"/>
<path d="M0 20.5C0 20.5 7.6875 6.40625 20.5 6.40625C33.3125 6.40625 41 20.5 41 20.5C41 20.5 33.3125 34.5938 20.5 34.5938C7.6875 34.5938 0 20.5 0 20.5ZM20.5 29.4688C22.8787 29.4688 25.1599 28.5238 26.8419 26.8419C28.5238 25.1599 29.4688 22.8787 29.4688 20.5C29.4688 18.1213 28.5238 15.8401 26.8419 14.1581C25.1599 12.4762 22.8787 11.5312 20.5 11.5312C18.1213 11.5312 15.8401 12.4762 14.1581 14.1581C12.4762 15.8401 11.5312 18.1213 11.5312 20.5C11.5312 22.8787 12.4762 25.1599 14.1581 26.8419C15.8401 28.5238 18.1213 29.4688 20.5 29.4688Z" fill="#009846"/>
</svg>
