<svg width="205" height="159" viewBox="0 0 205 159" fill="none" xmlns="http://www.w3.org/2000/svg">
<g clip-path="url(#clip0)">
<path opacity="0.24" d="M86.2612 10.4399C69.6156 6.68594 50.316 9.61411 39.0667 23.0807C34.2372 28.8385 31.2703 36.0434 28.5648 43.1877C25.0568 52.4116 21.7586 61.8931 16.1155 69.8594C10.9621 77.159 3.79515 83.2653 1.12272 91.921C-2.81229 104.675 4.33258 118.21 12.5339 128.468C16.9511 133.972 21.88 139.241 28.0678 142.295C33.3317 144.886 39.1993 145.73 44.9785 146.386C78.1666 150.155 111.668 148.712 145.021 147.268C154.404 146.863 163.828 146.45 173.052 144.617C180.326 143.162 187.574 140.749 193.578 136.188C199.582 131.627 204.223 124.665 204.915 116.907C205.534 109.952 202.994 103.084 199.651 97.0539C196.972 92.2279 193.677 87.4777 193.107 81.9471C192.588 76.9506 194.366 72.0489 195.223 67.1055C197.859 51.9305 190.961 35.4108 178.556 27.1983C170.203 21.6715 160.169 19.8911 150.429 18.2282L127.338 14.2848C120.495 13.1143 114.822 13.9552 108.064 14.3719C100.632 14.8265 93.4318 12.0574 86.2612 10.4399Z" fill="#09254F"/>
<path d="M128.957 143.208H84.0341L91.871 126.866H123.013L128.957 143.208Z" fill="#09254F"/>
<path d="M128.052 140.829H85.0869L91.871 126.866H123.013L128.052 140.829Z" fill="url(#paint0_linear)"/>
<path d="M133.11 142.029H80.3605V145.988H133.11V142.029Z" fill="#09254F"/>
<path d="M172.824 32.3803V125.836C172.829 126.402 172.726 126.964 172.52 127.489C172.315 128.015 172.01 128.493 171.625 128.897C171.239 129.302 170.78 129.624 170.273 129.845C169.766 130.067 169.222 130.183 168.672 130.188H47.1981C46.0858 130.178 45.0228 129.714 44.2429 128.898C43.4629 128.082 43.0297 126.98 43.0386 125.836V32.3803C43.0297 31.2335 43.4622 30.1297 44.2415 29.31C45.0209 28.4902 46.0838 28.0211 47.1981 28.0051H168.672C169.786 28.0211 170.848 28.4904 171.626 29.3104C172.404 30.1304 172.835 31.2342 172.824 32.3803Z" fill="#09254F"/>
<path d="M172.828 32.3803V110.532H43.0422V32.3803C43.0305 31.2333 43.4615 30.1283 44.2407 29.308C45.0198 28.4877 46.0835 28.0191 47.1981 28.0051H168.672C169.787 28.0191 170.85 28.4877 171.629 29.308C172.409 30.1283 172.84 31.2333 172.828 32.3803Z" fill="url(#paint1_linear)"/>
<path d="M168.606 33.5129H47.8055V107.138H168.606V33.5129Z" fill="white"/>
<path opacity="0.2" d="M135.465 58.3096C134.284 64.2151 129.303 68.651 123.34 68.651C116.479 68.651 110.924 62.806 110.924 55.5973C110.918 53.8505 111.25 52.12 111.9 50.5062C111.72 51.3997 111.63 52.3098 111.631 53.2222C111.631 60.4195 117.185 66.2759 124.036 66.2759C126.494 66.2635 128.893 65.4996 130.928 64.0812C132.963 62.6627 134.542 60.6538 135.465 58.3096Z" fill="#231F20"/>
<path d="M106.949 123.218C108.53 123.218 109.812 121.868 109.812 120.203C109.812 118.537 108.53 117.187 106.949 117.187C105.367 117.187 104.085 118.537 104.085 120.203C104.085 121.868 105.367 123.218 106.949 123.218Z" fill="url(#paint2_linear)"/>
<path opacity="0.2" d="M145.912 62.4991L143.656 63.0825L144.097 70.0942H132.686L132.211 62.4991L129.962 63.0825L134.126 130.188H136.419L136.032 124.063H147.443L147.83 130.188H150.109L145.912 62.4991ZM132.811 72.3254H144.223L144.731 80.4432H133.319L132.811 72.3254ZM133.452 82.6668H144.863L145.371 90.7959H133.96L133.452 82.6668ZM134.096 93.0195H145.507L146.015 101.153H134.604L134.096 93.0195ZM135.267 111.808L134.737 103.387H146.148L146.659 111.505H135.315L135.267 111.808ZM135.889 121.847L135.377 113.717H146.788L147.296 121.847H135.889Z" fill="#231F20"/>
<path opacity="0.07" d="M149.707 102.334C149.882 99.3322 148.927 96.3761 147.039 94.0802C146.67 95.4515 146.969 96.9024 146.98 98.3229C146.991 99.7434 146.612 101.353 145.412 102.024C144.112 101.046 143.781 99.1979 143.549 97.5387C142.705 91.4248 141.859 85.3109 141.013 79.197C140.162 79.6212 139.113 79.2614 138.418 78.5909C137.722 77.9204 137.313 76.9999 136.919 76.1021C135.149 72.0868 133.349 67.9313 133.213 63.5106C133.879 64.4501 134.567 65.4046 135.506 66.041C136.445 66.6774 137.715 66.9123 138.679 66.3327C139.282 65.9066 139.774 65.3341 140.111 64.666C140.777 63.5485 141.414 62.2947 141.259 60.984C141.137 60.3222 140.939 59.6776 140.67 59.0634C139.82 56.73 139.691 54.1844 139.566 51.6881C139.52 51.3361 139.566 50.9779 139.699 50.6502C139.904 50.3224 140.222 50.0869 140.589 49.991C141.574 49.6974 142.63 49.7944 143.549 50.2629C144.467 50.7313 145.182 51.5373 145.551 52.5215C145.964 53.7071 145.85 55.0102 145.92 56.2679C146.17 60.0105 148.183 63.3705 148.89 67.0487C149.446 69.9352 149.177 72.9164 148.909 75.8483L147.333 93.0916" fill="#231F20"/>
<path d="M130.161 63.0939L151.695 149.193C151.729 149.339 151.792 149.477 151.879 149.599C151.966 149.721 152.075 149.823 152.201 149.901C152.327 149.978 152.466 150.029 152.611 150.051C152.756 150.072 152.904 150.064 153.046 150.026C153.333 149.943 153.577 149.747 153.725 149.48C153.873 149.214 153.913 148.898 153.837 148.602L150.525 135.412H161.936L165.381 149.193C165.416 149.339 165.478 149.477 165.565 149.599C165.652 149.721 165.761 149.823 165.887 149.901C166.013 149.978 166.152 150.029 166.297 150.051C166.442 150.072 166.59 150.064 166.732 150.026C167.019 149.943 167.263 149.747 167.411 149.48C167.559 149.214 167.599 148.898 167.523 148.602L145.993 62.4991L143.854 63.0939L145.629 70.1965H134.218L132.292 62.4991L130.161 63.0939ZM145.29 114.426H156.701L158.763 122.665H147.351L145.29 114.426ZM142.677 103.929H154.088L156.145 112.168H144.804V112.479L142.677 103.929ZM140.056 93.4362H151.467L153.528 101.675H142.117L140.056 93.4362ZM137.42 82.9319H148.831L150.893 91.171H139.481L137.42 82.9319ZM134.795 72.439H146.207L148.268 80.678H136.857L134.795 72.439ZM161.395 133.146H149.983L147.922 124.907H159.333L161.395 133.146Z" fill="#231F20"/>
<path d="M142.099 63.9614C141.752 64.7191 141.174 65.3391 140.453 65.7266L137.416 67.6964C137.286 67.7686 137.175 67.8743 137.096 68.0033C137.062 68.1209 137.053 68.2447 137.069 68.3663C137.086 68.4878 137.128 68.6043 137.192 68.7078C137.352 69.1245 137.57 69.515 137.84 69.867C137.974 70.0411 138.145 70.182 138.339 70.279C138.533 70.3761 138.746 70.4269 138.962 70.4276C139.343 70.3682 139.701 70.2061 140 69.9579L143.457 67.5487C143.707 67.4037 143.919 67.1983 144.075 66.9502C144.175 66.7319 144.227 66.4942 144.23 66.2532C144.326 65.1461 144.167 64.0312 143.766 62.9992C143.096 61.484 142.577 63.1053 142.099 63.9614Z" fill="#09254F"/>
<path d="M142.099 63.9614C141.752 64.7191 141.174 65.3391 140.453 65.7266L137.416 67.6964C137.286 67.7686 137.175 67.8743 137.096 68.0033C137.062 68.1209 137.053 68.2447 137.069 68.3663C137.086 68.4878 137.128 68.6043 137.192 68.7078C137.352 69.1245 137.57 69.515 137.84 69.867C137.974 70.0411 138.145 70.182 138.339 70.279C138.533 70.3761 138.746 70.4269 138.962 70.4276C139.343 70.3682 139.701 70.2061 140 69.9579L143.457 67.5487C143.707 67.4037 143.919 67.1983 144.075 66.9502C144.175 66.7319 144.227 66.4942 144.23 66.2532C144.326 65.1461 144.167 64.0312 143.766 62.9992C143.096 61.484 142.577 63.1053 142.099 63.9614Z" fill="url(#paint3_linear)"/>
<path d="M135.977 69.4389C135.868 69.5306 135.742 69.5988 135.606 69.6394C135.471 69.68 135.329 69.6922 135.189 69.6753C135.049 69.6583 134.913 69.6125 134.791 69.5407C134.668 69.4689 134.561 69.3724 134.475 69.2571L131.078 64.7493C130.901 64.5145 130.82 64.2177 130.853 63.9224C130.886 63.6271 131.03 63.3569 131.254 63.1697C131.364 63.0782 131.49 63.0104 131.625 62.9701C131.76 62.9298 131.902 62.918 132.042 62.9354C132.182 62.9527 132.316 62.9988 132.439 63.0709C132.561 63.1431 132.667 63.2398 132.753 63.3553L136.15 67.8744C136.323 68.1077 136.402 68.4009 136.37 68.6925C136.337 68.9841 136.197 69.2516 135.977 69.4389Z" fill="#09254F"/>
<path d="M135.977 69.4389C135.868 69.5306 135.742 69.5988 135.606 69.6394C135.471 69.68 135.329 69.6922 135.189 69.6753C135.049 69.6583 134.913 69.6125 134.791 69.5407C134.668 69.4689 134.561 69.3724 134.475 69.2571L131.078 64.7493C130.901 64.5145 130.82 64.2177 130.853 63.9224C130.886 63.6271 131.03 63.3569 131.254 63.1697C131.364 63.0782 131.49 63.0104 131.625 62.9701C131.76 62.9298 131.902 62.918 132.042 62.9354C132.182 62.9527 132.316 62.9988 132.439 63.0709C132.561 63.1431 132.667 63.2398 132.753 63.3553L136.15 67.8744C136.323 68.1077 136.402 68.4009 136.37 68.6925C136.337 68.9841 136.197 69.2516 135.977 69.4389Z" fill="url(#paint4_linear)"/>
<path d="M142.275 77.6287C142.076 77.7955 141.846 77.9195 141.6 77.9932C141.353 78.0669 141.094 78.0889 140.839 78.0578C140.584 78.0267 140.338 77.9432 140.115 77.8122C139.891 77.6812 139.696 77.5055 139.54 77.2953L133.341 69.0412C133.021 68.6123 132.876 68.0722 132.936 67.535C132.995 66.9978 133.256 66.5055 133.662 66.1622C133.861 65.9961 134.091 65.8728 134.338 65.7997C134.585 65.7266 134.843 65.7051 135.098 65.7365C135.353 65.7679 135.6 65.8516 135.823 65.9827C136.046 66.1137 136.241 66.2894 136.397 66.4994L142.596 74.7497C142.917 75.1779 143.064 75.7184 143.004 76.2562C142.945 76.794 142.683 77.2865 142.275 77.6287Z" fill="#09254F"/>
<path d="M142.275 77.6287C142.076 77.7955 141.846 77.9195 141.6 77.9932C141.353 78.0669 141.094 78.0889 140.839 78.0578C140.584 78.0267 140.338 77.9432 140.115 77.8122C139.891 77.6812 139.696 77.5055 139.54 77.2953L133.341 69.0412C133.021 68.6123 132.876 68.0722 132.936 67.535C132.995 66.9978 133.256 66.5055 133.662 66.1622C133.861 65.9961 134.091 65.8728 134.338 65.7997C134.585 65.7266 134.843 65.7051 135.098 65.7365C135.353 65.7679 135.6 65.8516 135.823 65.9827C136.046 66.1137 136.241 66.2894 136.397 66.4994L142.596 74.7497C142.917 75.1779 143.064 75.7184 143.004 76.2562C142.945 76.794 142.683 77.2865 142.275 77.6287Z" fill="url(#paint5_linear)"/>
<path d="M123.822 40.2065C116.666 40.2065 110.836 46.3356 110.836 53.87C110.836 61.4045 116.666 67.5373 123.822 67.5373C130.978 67.5373 136.805 61.4082 136.805 53.87C136.805 46.3318 130.982 40.2065 123.822 40.2065ZM123.962 65.9122C117.66 65.9122 112.551 60.5181 112.551 53.8889C112.551 47.2598 117.675 41.8619 123.962 41.8619C130.249 41.8619 135.373 47.2598 135.373 53.8889C135.373 60.5181 130.26 65.9122 123.962 65.9122Z" fill="#09254F"/>
<path d="M123.822 40.2065C116.666 40.2065 110.836 46.3356 110.836 53.87C110.836 61.4045 116.666 67.5373 123.822 67.5373C130.978 67.5373 136.805 61.4082 136.805 53.87C136.805 46.3318 130.982 40.2065 123.822 40.2065ZM123.962 65.9122C117.66 65.9122 112.551 60.5181 112.551 53.8889C112.551 47.2598 117.675 41.8619 123.962 41.8619C130.249 41.8619 135.373 47.2598 135.373 53.8889C135.373 60.5181 130.26 65.9122 123.962 65.9122Z" fill="url(#paint6_linear)"/>
<path d="M151.54 86.8375C151.08 89.7922 151.747 92.8491 152.961 95.55C153.219 96.0334 153.395 96.5587 153.48 97.1031C153.522 97.3753 153.486 97.6539 153.378 97.9058C153.269 98.1577 153.093 98.3722 152.869 98.5237C152.313 98.8305 151.629 98.5237 151.125 98.1145C149.652 96.9781 148.758 95.1902 148.058 93.4136C146.871 90.411 146.117 87.2461 145.82 84.0192C145.632 82.579 145.709 81.1152 146.048 79.7046C146.412 78.5475 146.986 77.4718 147.738 76.534C148.138 75.9589 148.646 75.472 149.232 75.1021C149.706 74.8577 150.234 74.7446 150.763 74.7738C151.292 74.803 151.805 74.9736 152.251 75.2688C153.355 75.9696 153.491 76.784 153.484 78.0416C153.469 81.1365 152.004 83.8411 151.54 86.8375Z" fill="#606161"/>
<path d="M151.489 86.7579C151.025 89.7126 151.695 92.7696 152.91 95.4705C153.168 95.9522 153.344 96.4764 153.429 97.0198C153.47 97.2919 153.434 97.5706 153.326 97.8224C153.218 98.0743 153.041 98.2888 152.818 98.4403C152.262 98.7471 151.577 98.4403 151.073 98.0312C149.601 96.8948 148.706 95.1068 148.003 93.3302C146.819 90.3283 146.066 87.1649 145.769 83.9396C145.578 82.4995 145.656 81.0353 145.997 79.625C146.36 78.4665 146.933 77.3893 147.686 76.4506C148.088 75.8767 148.596 75.3901 149.181 75.0187C149.655 74.7755 150.182 74.6629 150.712 74.6922C151.241 74.7214 151.753 74.8913 152.199 75.1854C153.304 75.89 153.44 76.7006 153.433 77.9621C153.418 81.038 151.953 83.7616 151.489 86.7579Z" fill="url(#paint7_linear)"/>
<path d="M148.139 86.2389C147.669 86.9314 147.279 87.6776 146.976 88.4625C146.745 89.3137 146.648 90.1974 146.689 91.0801C146.697 92.576 146.78 94.0705 146.939 95.5575C147.031 96.3985 147.142 97.2925 146.832 98.0577C146.523 98.8228 145.603 99.3342 145.018 98.8153C144.814 98.5998 144.658 98.3413 144.561 98.0577C142.493 93.1533 141.785 87.7555 142.515 82.4622C142.761 80.7084 143.177 78.9431 144.057 77.4847C144.937 76.0263 146.35 74.8975 147.9 74.8331C148.732 74.799 150.138 75.1285 150.683 75.943C151.228 76.7574 150.856 78.1741 150.683 79.1515C150.275 81.6575 149.412 84.062 148.139 86.2389Z" fill="#606161"/>
<path d="M148.139 86.2389C147.669 86.9314 147.279 87.6776 146.976 88.4625C146.745 89.3137 146.648 90.1974 146.689 91.0801C146.697 92.576 146.78 94.0705 146.939 95.5575C147.031 96.3985 147.142 97.2925 146.832 98.0577C146.523 98.8228 145.603 99.3342 145.018 98.8153C144.814 98.5998 144.658 98.3413 144.561 98.0577C142.493 93.1533 141.785 87.7555 142.515 82.4622C142.761 80.7084 143.177 78.9431 144.057 77.4847C144.937 76.0263 146.35 74.8975 147.9 74.8331C148.732 74.799 150.138 75.1285 150.683 75.943C151.228 76.7574 150.856 78.1741 150.683 79.1515C150.275 81.6575 149.412 84.062 148.139 86.2389Z" fill="url(#paint8_linear)"/>
<path d="M134.777 68.704C134.622 68.9654 135.005 69.3669 134.777 69.5866C134.648 69.723 134.427 69.6245 134.247 69.6624C134.135 69.7011 134.039 69.7793 133.977 69.8832C133.915 69.987 133.891 70.1101 133.908 70.2306C133.95 70.4721 134.046 70.7004 134.188 70.8973L134.593 71.5489C134.648 71.6459 134.714 71.7351 134.792 71.814C134.877 71.8921 134.976 71.9537 135.083 71.9958C135.303 72.0813 135.541 72.1124 135.775 72.0868C136.01 72.0611 136.235 71.9794 136.434 71.8481C136.52 71.7956 136.595 71.7261 136.654 71.6436C136.711 71.5641 136.753 71.4741 136.776 71.3784C136.83 71.069 136.816 70.751 136.736 70.4476C136.656 70.1443 136.511 69.8631 136.312 69.6245C136.014 69.2722 135.256 68.6661 134.777 68.704Z" fill="#C8A59C"/>
<path d="M141.973 50.0516C141.795 51.0073 141.776 51.9873 141.918 52.9495L142.091 54.7981C142.095 55.2436 142.211 55.6806 142.426 56.0671C142.864 56.7224 143.74 56.8019 144.499 56.8247L144.646 58.3588C144.651 58.5614 144.699 58.7605 144.786 58.9422C144.902 59.1052 145.063 59.2285 145.248 59.296C145.433 59.3636 145.634 59.3723 145.824 59.321C146.928 59.1127 147.554 57.908 147.863 56.7868C148.294 55.2025 148.371 53.5383 148.088 51.9191C147.939 50.752 147.44 49.6619 146.659 48.8016C145.073 47.2333 142.533 47.7864 141.973 50.0516Z" fill="#C8A59C"/>
<path d="M144.127 45.9227C143.258 45.7749 142.286 45.5439 141.55 46.0515C141.214 46.3164 140.97 46.6857 140.854 47.1047C140.738 47.5236 140.756 47.9699 140.906 48.3773C141.064 48.7775 141.305 49.1375 141.612 49.4319C141.919 49.7263 142.285 49.9482 142.684 50.082C143.497 50.3812 144.524 50.5062 144.859 51.3434C145.069 51.8964 144.859 52.5821 145.172 53.0783L145.909 51.8245C145.929 51.7782 145.964 51.7407 146.008 51.7184C146.035 51.7113 146.063 51.7104 146.09 51.7156C146.118 51.7208 146.144 51.7321 146.166 51.7487C146.38 51.8686 146.557 52.0477 146.678 52.2657C146.798 52.4838 146.857 52.7321 146.847 52.9827C146.838 53.2333 146.76 53.4762 146.624 53.6838C146.487 53.8915 146.297 54.0557 146.074 54.1579C146.414 54.4239 146.678 54.7803 146.836 55.1887C146.994 55.5972 147.041 56.0423 146.972 56.4762C147.182 56.5714 147.414 56.6009 147.64 56.5612C147.866 56.5214 148.075 56.4141 148.242 56.2527C148.57 55.9187 148.822 55.5136 148.978 55.067C149.226 54.4849 149.435 53.8863 149.604 53.2753C149.859 52.4957 149.952 51.6698 149.877 50.8509C149.838 50.4445 149.709 50.0526 149.501 49.7053C149.292 49.3579 149.009 49.0643 148.673 48.8471C148.417 48.7845 148.19 48.6317 148.032 48.4152C147.874 48.1986 147.795 47.9319 147.808 47.6614C147.425 45.6348 145.596 46.1878 144.127 45.9227Z" fill="#606161"/>
<path d="M144.127 45.9227C143.258 45.7749 142.286 45.5439 141.55 46.0515C141.214 46.3164 140.97 46.6857 140.854 47.1047C140.738 47.5236 140.756 47.9699 140.906 48.3773C141.064 48.7775 141.305 49.1375 141.612 49.4319C141.919 49.7263 142.285 49.9482 142.684 50.082C143.497 50.3812 144.524 50.5062 144.859 51.3434C145.069 51.8964 144.859 52.5821 145.172 53.0783L145.909 51.8245C145.929 51.7782 145.964 51.7407 146.008 51.7184C146.035 51.7113 146.063 51.7104 146.09 51.7156C146.118 51.7208 146.144 51.7321 146.166 51.7487C146.38 51.8686 146.557 52.0477 146.678 52.2657C146.798 52.4838 146.857 52.7321 146.847 52.9827C146.838 53.2333 146.76 53.4762 146.624 53.6838C146.487 53.8915 146.297 54.0557 146.074 54.1579C146.414 54.4239 146.678 54.7803 146.836 55.1887C146.994 55.5972 147.041 56.0423 146.972 56.4762C147.182 56.5714 147.414 56.6009 147.64 56.5612C147.866 56.5214 148.075 56.4141 148.242 56.2527C148.57 55.9187 148.822 55.5136 148.978 55.067C149.226 54.4849 149.435 53.8863 149.604 53.2753C149.859 52.4957 149.952 51.6698 149.877 50.8509C149.838 50.4445 149.709 50.0526 149.501 49.7053C149.292 49.3579 149.009 49.0643 148.673 48.8471C148.417 48.7845 148.19 48.6317 148.032 48.4152C147.874 48.1986 147.795 47.9319 147.808 47.6614C147.425 45.6348 145.596 46.1878 144.127 45.9227Z" fill="url(#paint9_linear)"/>
<path d="M145.713 53.3624C145.752 53.3408 145.785 53.3104 145.811 53.2737C145.836 53.237 145.853 53.1948 145.861 53.1503C145.87 53.0875 145.87 53.0237 145.861 52.9609C145.834 52.8361 145.834 52.7068 145.861 52.5821C145.895 52.4573 145.976 52.3514 146.085 52.2866C146.108 52.2793 146.132 52.2793 146.155 52.2866C146.174 52.2816 146.195 52.2816 146.214 52.2866L146.335 52.3396C146.371 52.3529 146.402 52.3751 146.428 52.404C146.442 52.4286 146.452 52.4555 146.457 52.4836C146.498 52.6769 146.497 52.8773 146.453 53.0701C146.409 53.2628 146.323 53.4429 146.203 53.5973C146.179 53.6286 146.151 53.6555 146.118 53.6768C146.075 53.6992 146.027 53.7109 145.978 53.7109C145.87 53.7297 145.758 53.7192 145.655 53.6806C145.596 53.6465 145.463 53.567 145.493 53.4836C145.522 53.4003 145.651 53.3851 145.713 53.3624Z" fill="url(#paint10_linear)"/>
<path d="M153.65 74.1891C153.628 75.0149 153.561 75.8786 153.138 76.5642C152.431 77.7537 150.929 78.1022 149.597 78.1022C148.995 78.109 148.394 78.0506 147.804 77.9279C147.368 77.8535 146.942 77.7263 146.534 77.5491C145.556 77.1265 144.754 76.3636 144.267 75.3937C143.933 74.5884 143.738 73.7297 143.689 72.8557C143.534 71.5185 143.38 70.1776 143.258 68.8252C143.126 67.31 143.037 65.8213 143.026 64.3212C142.988 63.1239 143.118 61.9271 143.413 60.768C143.705 59.614 144.373 58.598 145.305 57.8891C146.041 57.3664 147.473 56.7035 148.404 56.8436C149.442 56.9951 150.142 58.427 150.55 59.3096C152.735 63.9393 153.799 69.0446 153.65 74.1891Z" fill="#09254F"/>
<path d="M148.128 71.0337C147.911 72.3177 147.834 73.6224 147.896 74.924C147.963 75.7953 148.426 76.8787 147.963 77.7045C147.917 77.7843 147.864 77.8592 147.804 77.928C147.368 77.8535 146.942 77.7263 146.534 77.5492C145.556 77.1265 144.754 76.3636 144.267 75.3937C143.933 74.5885 143.738 73.7298 143.689 72.8557C143.534 71.5186 143.38 70.1776 143.258 68.8253C143.556 67.579 144.477 66.5789 145.305 65.6243C146.49 64.2834 147.628 62.8288 148.161 61.0787C148.411 61.2217 148.624 61.4224 148.785 61.665C148.946 61.9076 149.05 62.1854 149.089 62.4765C149.159 63.0656 149.14 63.6622 149.034 64.2455C148.722 66.4956 148.42 68.7583 148.128 71.0337Z" fill="url(#paint11_linear)"/>
<path d="M145.857 59.7225C144.318 61.1961 143.884 63.5106 142.934 65.4615C142.808 65.7474 142.642 66.0129 142.441 66.2494C141.992 66.7494 141.337 66.9615 140.718 67.1888C139.453 67.6521 138.242 68.2581 137.107 68.9957C136.545 69.2905 136.095 69.7706 135.83 70.3594C135.539 71.2307 136.065 72.2345 136.835 72.6853C137.632 73.0927 138.535 73.2255 139.411 73.0641C141.084 72.8052 142.709 72.2866 144.23 71.5261C144.758 71.303 145.253 71.006 145.702 70.6435C146.088 70.2753 146.43 69.8621 146.722 69.4124C147.224 68.715 147.687 67.9891 148.11 67.2381C148.921 65.7438 149.422 64.0929 149.582 62.3893C149.692 61.609 149.614 60.8127 149.354 60.071C148.603 58.2414 147.02 58.6088 145.857 59.7225Z" fill="#09254F"/>
<path d="M147.219 99.535C147.322 99.9138 147.41 100.402 147.171 100.728C147.052 100.885 146.877 100.987 146.685 101.012C146.423 101.041 146.16 100.967 145.949 100.804C145.735 100.633 145.56 100.418 145.434 100.171C145.213 99.7633 145.087 99.3083 145.066 98.8418C145.05 98.6993 145.073 98.5552 145.132 98.4251C145.23 98.267 145.383 98.1523 145.559 98.1031C145.89 97.9743 146.516 97.7508 146.799 98.0766C147.083 98.4024 147.116 99.1259 147.219 99.535Z" fill="#C8A59C"/>
<path d="M154.088 98.4631C154.294 98.8154 154.504 99.2207 154.36 99.626C154.289 99.8104 154.15 99.9587 153.974 100.039C153.727 100.149 153.449 100.157 153.197 100.062C152.946 99.9627 152.72 99.8074 152.534 99.6071C152.215 99.2804 151.975 98.8806 151.835 98.4403C151.783 98.3071 151.766 98.1619 151.787 98.0199C151.837 97.8387 151.952 97.6834 152.107 97.5842C152.391 97.3645 152.932 96.963 153.293 97.2054C153.653 97.4479 153.882 98.0843 154.088 98.4631Z" fill="#C8A59C"/>
<path d="M146.42 100.376C146.203 100.457 145.97 100.478 145.743 100.437C145.628 100.416 145.511 100.416 145.397 100.437C145.3 100.471 145.208 100.519 145.124 100.581L143.851 101.421C143.687 101.497 143.556 101.632 143.483 101.8C143.459 101.913 143.472 102.03 143.517 102.135C143.563 102.24 143.64 102.327 143.737 102.384C143.933 102.487 144.149 102.543 144.37 102.547C145.367 102.638 146.371 102.603 147.359 102.44C147.504 102.429 147.644 102.375 147.76 102.285C147.84 102.204 147.899 102.104 147.933 101.993C148.097 101.595 148.138 101.155 148.051 100.732C148.014 100.536 147.936 100.35 147.821 100.188C147.707 100.026 147.559 99.8926 147.388 99.7964C147.005 99.6941 146.726 100.228 146.42 100.376Z" fill="#09254F"/>
<path d="M153.352 99.4631C153.145 99.5682 152.916 99.6177 152.685 99.607C152.569 99.6046 152.453 99.6238 152.343 99.6638C152.25 99.7094 152.164 99.7694 152.089 99.8419L150.926 100.838C150.776 100.939 150.666 101.09 150.613 101.266C150.603 101.381 150.629 101.496 150.686 101.594C150.744 101.693 150.83 101.77 150.933 101.815C151.14 101.895 151.362 101.922 151.581 101.895C152.578 101.86 153.568 101.697 154.526 101.41C154.664 101.375 154.791 101.303 154.894 101.202C154.962 101.11 155.01 101.004 155.034 100.891C155.148 100.476 155.137 100.035 155.004 99.6259C154.89 99.3078 154.585 98.8456 154.239 98.7812C153.86 98.7092 153.642 99.2737 153.352 99.4631Z" fill="#09254F"/>
<path d="M146.42 100.376C146.203 100.457 145.97 100.478 145.743 100.437C145.628 100.416 145.511 100.416 145.397 100.437C145.3 100.471 145.208 100.519 145.124 100.581L143.851 101.421C143.687 101.497 143.556 101.632 143.483 101.8C143.459 101.913 143.472 102.03 143.517 102.135C143.563 102.24 143.64 102.327 143.737 102.384C143.933 102.487 144.149 102.543 144.37 102.547C145.367 102.638 146.371 102.603 147.359 102.44C147.504 102.429 147.644 102.375 147.76 102.285C147.84 102.204 147.899 102.104 147.933 101.993C148.097 101.595 148.138 101.155 148.051 100.732C148.014 100.536 147.936 100.35 147.821 100.188C147.707 100.026 147.559 99.8926 147.388 99.7964C147.005 99.6941 146.726 100.228 146.42 100.376Z" fill="url(#paint12_linear)"/>
<path d="M153.352 99.4631C153.145 99.5682 152.916 99.6177 152.685 99.607C152.569 99.6046 152.453 99.6238 152.343 99.6638C152.25 99.7094 152.164 99.7694 152.089 99.8419L150.926 100.838C150.776 100.939 150.666 101.09 150.613 101.266C150.603 101.381 150.629 101.496 150.686 101.594C150.744 101.693 150.83 101.77 150.933 101.815C151.14 101.895 151.362 101.922 151.581 101.895C152.578 101.86 153.568 101.697 154.526 101.41C154.664 101.375 154.791 101.303 154.894 101.202C154.962 101.11 155.01 101.004 155.034 100.891C155.148 100.476 155.137 100.035 155.004 99.6259C154.89 99.3078 154.585 98.8456 154.239 98.7812C153.86 98.7092 153.642 99.2737 153.352 99.4631Z" fill="url(#paint13_linear)"/>
<path opacity="0.36" d="M92.6109 49.2107H62.4155C61.7629 49.2107 61.2339 49.7551 61.2339 50.4267V50.4532C61.2339 51.1247 61.7629 51.6691 62.4155 51.6691H92.6109C93.2635 51.6691 93.7925 51.1247 93.7925 50.4532V50.4267C93.7925 49.7551 93.2635 49.2107 92.6109 49.2107Z" fill="#09254F"/>
<path opacity="0.36" d="M103.128 56.3436H72.9322C72.2796 56.3436 71.7506 56.888 71.7506 57.5596V57.5861C71.7506 58.2577 72.2796 58.8021 72.9322 58.8021H103.128C103.78 58.8021 104.309 58.2577 104.309 57.5861V57.5596C104.309 56.888 103.78 56.3436 103.128 56.3436Z" fill="#09254F"/>
<path opacity="0.36" d="M94.0907 63.3932H63.8952C63.2427 63.3932 62.7136 63.9376 62.7136 64.6092V64.6357C62.7136 65.3072 63.2427 65.8516 63.8952 65.8516H94.0907C94.7433 65.8516 95.2723 65.3072 95.2723 64.6357V64.6092C95.2723 63.9376 94.7433 63.3932 94.0907 63.3932Z" fill="#09254F"/>
<path d="M126.682 51.5327C127.051 51.1539 127.419 50.8395 127.787 50.5137C127.868 50.438 127.967 50.3206 128.056 50.3243C128.221 50.3171 128.385 50.3678 128.519 50.4683C128.552 50.5051 128.577 50.5488 128.592 50.5962C128.606 50.6437 128.611 50.6939 128.606 50.7435C128.6 50.793 128.584 50.8408 128.559 50.8835C128.534 50.9262 128.5 50.9629 128.46 50.991C128.111 51.3282 127.757 51.6615 127.382 52.0176C127.484 52.1373 127.579 52.2639 127.665 52.3964C127.898 52.7634 128.093 53.1544 128.247 53.5631C128.269 53.7069 128.345 53.836 128.458 53.9225C128.572 54.009 128.714 54.046 128.854 54.0253C129.373 54.0253 129.892 54.0669 130.411 54.0972C130.735 54.0972 130.883 54.2715 130.872 54.5594C130.86 54.8473 130.695 55.0026 130.382 54.9912C129.741 54.9685 129.105 54.9306 128.431 54.8965C128.314 55.7251 127.942 56.4935 127.371 57.0898L123.149 52.1312L122.431 52.8017L126.69 57.8209C126.172 58.3088 125.503 58.5932 124.801 58.624C124.485 58.624 124.382 58.7452 124.4 59.0748C124.43 59.5634 124.4 60.0521 124.4 60.5407C124.4 60.9688 124.216 61.2188 123.903 61.215C123.59 61.2112 123.462 61.0029 123.462 60.5332C123.462 59.965 123.462 59.3967 123.462 58.8248C123.469 58.7354 123.448 58.646 123.403 58.5692C123.359 58.4924 123.291 58.4321 123.211 58.3967C122.733 58.0937 122.28 57.7414 121.757 57.3663L121.161 57.9308L120.793 58.2793C120.484 58.5672 120.23 58.5975 120.038 58.3778C119.847 58.158 119.898 57.9156 120.219 57.6201L121.279 56.6163C120.811 56.0708 120.366 55.5405 119.909 55.0253C119.82 54.9606 119.713 54.9286 119.604 54.9344C119.14 54.9003 118.676 54.8776 118.212 54.8511C117.874 54.8511 117.708 54.6768 117.712 54.3814C117.716 54.0859 117.87 53.9495 118.231 53.9609C118.706 53.9609 119.181 54.0253 119.655 54.0253C119.826 54.0183 119.989 53.953 120.119 53.8397C121.496 52.5593 122.865 51.2714 124.227 49.9758C124.337 49.8537 124.404 49.698 124.419 49.5326C124.467 49.0478 124.474 48.5553 124.5 48.0704C124.5 47.9795 124.5 47.8507 124.562 47.8053C124.698 47.6954 124.875 47.5401 125.015 47.5628C125.095 47.5936 125.166 47.6443 125.222 47.7104C125.278 47.7766 125.317 47.8561 125.335 47.9417C125.35 48.4298 125.331 48.9184 125.28 49.4038C125.259 49.5409 125.27 49.6813 125.312 49.8131C125.354 49.9449 125.427 50.0644 125.523 50.1615C125.917 50.6009 126.285 51.063 126.682 51.5327Z" fill="#09254F"/>
<path d="M123.167 49.597L119.773 52.7942C119.538 52.536 119.364 52.2248 119.267 51.8855C119.169 51.5461 119.15 51.188 119.21 50.8395C119.265 50.3932 119.444 49.9727 119.726 49.6287C120.007 49.2847 120.38 49.0318 120.798 48.9005C121.216 48.7692 121.662 48.7651 122.082 48.8887C122.503 49.0123 122.879 49.2583 123.167 49.597Z" fill="#09254F"/>
<path d="M126.69 51.5252C127.058 51.1463 127.426 50.8319 127.794 50.5062C127.875 50.4304 127.975 50.313 128.063 50.3168C128.229 50.3095 128.392 50.3603 128.527 50.4607C128.559 50.4975 128.584 50.5412 128.599 50.5887C128.614 50.6361 128.619 50.6863 128.613 50.7359C128.607 50.7855 128.592 50.8332 128.567 50.8759C128.542 50.9186 128.508 50.9553 128.468 50.9835C128.118 51.3206 127.765 51.654 127.389 52.01C127.492 52.1297 127.586 52.2563 127.673 52.3888C127.906 52.7558 128.1 53.1469 128.254 53.5556C128.276 53.6991 128.352 53.8279 128.466 53.9138C128.58 53.9997 128.722 54.0357 128.862 54.0139C129.381 54.0139 129.9 54.0594 130.419 54.0897C130.743 54.0897 130.89 54.2639 130.879 54.5518C130.868 54.8397 130.702 54.995 130.389 54.9837C129.749 54.9609 129.112 54.923 128.438 54.889C128.323 55.7181 127.951 56.4871 127.378 57.0822L123.156 52.1237L122.431 52.7942L126.69 57.8133C126.172 58.3013 125.503 58.5856 124.802 58.6164C124.485 58.6164 124.382 58.7376 124.4 59.0672C124.43 59.5558 124.419 60.0445 124.419 60.5332C124.419 60.9612 124.235 61.2112 123.922 61.2036C123.609 61.1961 123.48 60.9953 123.48 60.5256C123.48 59.9574 123.48 59.3892 123.48 58.8134C123.487 58.7246 123.466 58.6358 123.421 58.5597C123.377 58.4835 123.309 58.4238 123.23 58.3891C122.751 58.0861 122.298 57.7338 121.776 57.3588L121.168 57.9308L120.8 58.2793C120.491 58.5672 120.237 58.5975 120.046 58.3778C119.854 58.158 119.906 57.9156 120.226 57.6201L121.286 56.6163C120.819 56.0708 120.373 55.5405 119.917 55.0215C119.827 54.9597 119.72 54.9292 119.611 54.9344C119.147 54.9003 118.684 54.8776 118.22 54.8511C117.881 54.8321 117.716 54.6768 117.719 54.3814C117.723 54.0859 117.877 53.9495 118.238 53.9609C118.713 53.9609 119.188 54.0253 119.663 54.0253C119.834 54.0183 119.999 53.953 120.13 53.8397C121.505 52.5593 122.873 51.2714 124.235 49.9758C124.344 49.8537 124.411 49.698 124.426 49.5326C124.474 49.0478 124.481 48.5553 124.507 48.0704C124.507 47.9795 124.507 47.8507 124.57 47.8053C124.706 47.6954 124.882 47.5401 125.022 47.5628C125.102 47.5936 125.173 47.6443 125.229 47.7104C125.285 47.7766 125.324 47.8561 125.343 47.9417C125.357 48.4298 125.339 48.9184 125.287 49.4038C125.266 49.5409 125.277 49.6813 125.319 49.8131C125.361 49.9449 125.434 50.0644 125.53 50.1615C125.924 50.5933 126.292 51.0554 126.69 51.5252Z" fill="url(#paint14_linear)"/>
<path d="M123.167 49.5743L119.773 52.7715C119.539 52.5129 119.366 52.2016 119.269 51.8623C119.172 51.523 119.153 51.165 119.214 50.8168C119.269 50.3713 119.448 49.9518 119.73 49.6086C120.011 49.2653 120.383 49.013 120.801 48.8818C121.218 48.7506 121.663 48.7462 122.083 48.869C122.503 48.9919 122.879 49.2368 123.167 49.5743Z" fill="url(#paint15_linear)"/>
</g>
<defs>
<linearGradient id="paint0_linear" x1="106.51" y1="146.071" x2="107.076" y2="98.2968" gradientUnits="userSpaceOnUse">
<stop stop-color="#010101" stop-opacity="0"/>
<stop offset="0.95" stop-color="#010101"/>
</linearGradient>
<linearGradient id="paint1_linear" x1="38092.4" y1="75.0453" x2="38180.1" y2="51093.2" gradientUnits="userSpaceOnUse">
<stop stop-color="#010101" stop-opacity="0"/>
<stop offset="0.95" stop-color="#010101"/>
</linearGradient>
<linearGradient id="paint2_linear" x1="1767.97" y1="1817.27" x2="1768.79" y2="2088.53" gradientUnits="userSpaceOnUse">
<stop stop-color="#010101" stop-opacity="0"/>
<stop offset="0.95" stop-color="#010101"/>
</linearGradient>
<linearGradient id="paint3_linear" x1="2850.1" y1="1210" x2="2925.48" y2="1363.23" gradientUnits="userSpaceOnUse">
<stop stop-color="#010101" stop-opacity="0"/>
<stop offset="0.95" stop-color="#010101"/>
</linearGradient>
<linearGradient id="paint4_linear" x1="2152.44" y1="1097.8" x2="2118.51" y2="1122.57" gradientUnits="userSpaceOnUse">
<stop stop-color="#010101" stop-opacity="0"/>
<stop offset="0.95" stop-color="#010101"/>
</linearGradient>
<linearGradient id="paint5_linear" x1="4100.76" y1="1976.49" x2="3790.71" y2="2191.06" gradientUnits="userSpaceOnUse">
<stop stop-color="#010101" stop-opacity="0"/>
<stop offset="0.95" stop-color="#010101"/>
</linearGradient>
<linearGradient id="paint6_linear" x1="120.097" y1="48.5743" x2="157.242" y2="98.463" gradientUnits="userSpaceOnUse">
<stop stop-color="white" stop-opacity="0"/>
<stop offset="0.13" stop-color="white" stop-opacity="0.23"/>
<stop offset="0.23" stop-color="white" stop-opacity="0.41"/>
<stop offset="0.35" stop-color="white" stop-opacity="0.59"/>
<stop offset="0.48" stop-color="white" stop-opacity="0.74"/>
<stop offset="0.6" stop-color="white" stop-opacity="0.85"/>
<stop offset="0.72" stop-color="white" stop-opacity="0.93"/>
<stop offset="0.84" stop-color="white" stop-opacity="0.98"/>
<stop offset="0.95" stop-color="white"/>
</linearGradient>
<linearGradient id="paint7_linear" x1="3418.36" y1="5096.33" x2="3250.52" y2="5086.72" gradientUnits="userSpaceOnUse">
<stop stop-color="#010101" stop-opacity="0"/>
<stop offset="0.95" stop-color="#010101"/>
</linearGradient>
<linearGradient id="paint8_linear" x1="152.21" y1="88.1254" x2="140.061" y2="85.5181" gradientUnits="userSpaceOnUse">
<stop stop-color="#010101" stop-opacity="0"/>
<stop offset="0.55" stop-color="#010101" stop-opacity="0.26"/>
<stop offset="0.95" stop-color="#010101"/>
</linearGradient>
<linearGradient id="paint9_linear" x1="3753.32" y1="1165.36" x2="3731.11" y2="1383.86" gradientUnits="userSpaceOnUse">
<stop stop-color="#010101" stop-opacity="0"/>
<stop offset="0.95" stop-color="#010101"/>
</linearGradient>
<linearGradient id="paint10_linear" x1="542.929" y1="224.942" x2="538.741" y2="224.817" gradientUnits="userSpaceOnUse">
<stop stop-color="#010101" stop-opacity="0"/>
<stop offset="0.95" stop-color="#010101"/>
</linearGradient>
<linearGradient id="paint11_linear" x1="2379.28" y1="3222.68" x2="3020.96" y2="2973.28" gradientUnits="userSpaceOnUse">
<stop stop-color="#010101" stop-opacity="0"/>
<stop offset="0.95" stop-color="#010101"/>
</linearGradient>
<linearGradient id="paint12_linear" x1="1963.97" y1="734.452" x2="1971.45" y2="834.032" gradientUnits="userSpaceOnUse">
<stop stop-color="#010101" stop-opacity="0"/>
<stop offset="0.95" stop-color="#010101"/>
</linearGradient>
<linearGradient id="paint13_linear" x1="2009.15" y1="797.524" x2="2018.65" y2="908.291" gradientUnits="userSpaceOnUse">
<stop stop-color="#010101" stop-opacity="0"/>
<stop offset="0.95" stop-color="#010101"/>
</linearGradient>
<linearGradient id="paint14_linear" x1="4837.53" y1="1168.35" x2="4289.56" y2="2239.08" gradientUnits="userSpaceOnUse">
<stop stop-color="#010101" stop-opacity="0"/>
<stop offset="0.95" stop-color="#010101"/>
</linearGradient>
<linearGradient id="paint15_linear" x1="1503.89" y1="354.564" x2="1347.63" y2="670.752" gradientUnits="userSpaceOnUse">
<stop stop-color="#010101" stop-opacity="0"/>
<stop offset="0.95" stop-color="#010101"/>
</linearGradient>
<clipPath id="clip0">
<rect width="205" height="159" fill="white"/>
</clipPath>
</defs>
</svg>
