<svg width="205" height="159" viewBox="0 0 205 159" fill="none" xmlns="http://www.w3.org/2000/svg">
<g clip-path="url(#clip0)">
<path opacity="0.18" d="M75.1467 5.08351C49.986 13.2855 28.8389 30.637 21.1961 51.188C19.0003 57.1 17.8231 63.196 15.2796 69.0538C12.4494 75.5505 7.96008 81.6194 4.85541 88.0565C-4.55621 107.411 0.164854 129.521 15.0844 145.14C26.3259 156.905 42.9471 161.604 61.9046 157.592C71.243 155.622 79.2822 151.204 88.3339 148.892C100.82 145.703 114.928 146.007 127.682 145.714C141.931 145.384 171.788 140.842 186.085 139.759C208.007 138.091 206.958 97.7149 202.152 87.5368C197.345 77.3587 189.855 68.2038 184.463 58.2315C178.229 46.7108 174.734 34.0477 166.018 23.6585C152.672 7.74713 127.682 -0.915062 102.741 0.0756766C93.3077 0.476316 84.0002 2.16543 75.1467 5.08351Z" fill="#09254F"/>
<path d="M101.716 143.034C151.93 143.034 192.636 139.384 192.636 134.881C192.636 130.378 151.93 126.728 101.716 126.728C51.5025 126.728 10.7962 130.378 10.7962 134.881C10.7962 139.384 51.5025 143.034 101.716 143.034Z" fill="url(#paint0_linear)"/>
<path d="M126.487 105.836H92.0362L85.772 82.1555H120.222L126.487 105.836Z" fill="#09254F"/>
<path d="M124.449 105.836H92.0362L85.772 82.1555H118.185L124.449 105.836Z" fill="url(#paint1_linear)"/>
<path d="M172.123 104.975H49.2661V134.026H172.123V104.975Z" fill="#09254F"/>
<path d="M172.123 104.975H49.2661V134.026H172.123V104.975Z" fill="url(#paint2_linear)"/>
<path d="M151.861 20.8109H51.5779C45.6591 20.8109 40.861 25.0697 40.861 30.3231V80.0982C40.861 85.3517 45.6591 89.6104 51.5779 89.6104H151.861C157.78 89.6104 162.578 85.3517 162.578 80.0982V30.3231C162.578 25.0697 157.78 20.8109 151.861 20.8109Z" fill="#09254F"/>
<path d="M162.578 75.962V80.0928C162.574 82.6147 161.444 85.0325 159.435 86.8158C157.426 88.599 154.702 89.6021 151.861 89.605H51.5718C48.7295 89.605 46.0036 88.6028 43.9938 86.8189C41.984 85.0351 40.8549 82.6156 40.8549 80.0928V75.962H162.578Z" fill="url(#paint3_linear)"/>
<path opacity="0.1" d="M148.311 67.4514V94.2284H122.199C121.475 94.2284 120.782 93.9735 120.271 93.5196C119.759 93.0658 119.472 92.4503 119.472 91.8084V69.8714C119.472 69.2296 119.759 68.6141 120.271 68.1602C120.782 67.7064 121.475 67.4514 122.199 67.4514H148.311Z" fill="#020202"/>
<path d="M80.7276 90.2167H100.191C100.358 90.2167 100.523 90.2459 100.677 90.3025C100.831 90.359 100.971 90.442 101.088 90.5466C101.206 90.6511 101.3 90.7753 101.363 90.9119C101.427 91.0485 101.46 91.1949 101.46 91.3428C101.46 91.4907 101.427 91.6371 101.363 91.7738C101.3 91.9104 101.206 92.0345 101.088 92.1391C100.971 92.2437 100.831 92.3266 100.677 92.3832C100.523 92.4398 100.358 92.4689 100.191 92.4689H80.7276C80.561 92.4689 80.396 92.4398 80.2421 92.3832C80.0882 92.3266 79.9483 92.2437 79.8305 92.1391C79.7127 92.0345 79.6193 91.9104 79.5555 91.7738C79.4917 91.6371 79.4589 91.4907 79.4589 91.3428C79.4589 91.0442 79.5926 90.7577 79.8305 90.5466C80.0684 90.3354 80.3912 90.2167 80.7276 90.2167Z" fill="#473F47"/>
<path d="M83.875 84.1911L83.2955 87.5856L84.8997 87.748L86.6503 84.1586L83.875 84.1911Z" fill="#FCBDBA"/>
<path d="M85.3816 87.25C85.3037 87.1945 85.2359 87.1287 85.1803 87.0551C85.0984 87.1005 85.0062 87.1294 84.9103 87.1397C84.8143 87.15 84.717 87.1414 84.6253 87.1146L83.8201 86.9955C83.6787 86.9804 83.5408 86.9457 83.4114 86.8926H83.3566L83.1858 87.185C82.8937 87.7073 82.7216 88.276 82.6795 88.8579C84.2031 89.1783 85.7691 89.3113 87.3335 89.2531C87.4587 89.2684 87.5862 89.2539 87.703 89.2111C87.8198 89.1683 87.9217 89.0987 87.9983 89.0095C88.0284 88.9489 88.0439 88.8834 88.0439 88.8173C88.0439 88.7511 88.0284 88.6856 87.9983 88.6251C87.9245 88.4879 87.8207 88.365 87.693 88.2637C87.5652 88.1624 87.4161 88.0847 87.2542 88.035C86.8394 87.8834 86.4185 87.7534 86.0343 87.5802C85.8009 87.4969 85.5813 87.3858 85.3816 87.25Z" fill="#6B6B6B"/>
<path d="M94.6346 85.2251L94.1345 88.6305L95.7447 88.7604L97.4099 85.1439L94.6346 85.2251Z" fill="#FCBDBA"/>
<path opacity="0.1" d="M149.329 37.7834V48.2917C149.329 49.673 148.711 50.9977 147.611 51.9744C146.51 52.9512 145.018 53.4999 143.462 53.4999H109.103L95.1775 67.7167V32.5753H143.462C144.232 32.5753 144.995 32.71 145.707 32.9717C146.419 33.2334 147.066 33.6171 147.611 34.1007C148.156 34.5843 148.588 35.1584 148.883 35.7903C149.178 36.4222 149.329 37.0995 149.329 37.7834Z" fill="#020202"/>
<path d="M142.046 28.1034H103.192C99.9516 28.1034 97.3245 30.4352 97.3245 33.3115V43.8199C97.3245 46.6962 99.9516 49.028 103.192 49.028H142.046C145.287 49.028 147.914 46.6962 147.914 43.8199V33.3115C147.914 30.4352 145.287 28.1034 142.046 28.1034Z" fill="white"/>
<path opacity="0.1" d="M104.144 46.4348C103.947 46.4504 103.748 46.4244 103.564 46.359C103.267 46.1753 103.064 45.8953 102.997 45.5794C102.039 42.9537 100.057 40.3983 97.0806 39.6241C96.3059 42.4231 96.3608 45.3466 96.4218 48.2322C96.4218 49.001 96.5194 49.8834 97.2147 50.3382C97.6681 50.5864 98.1954 50.7072 98.7274 50.6847C102.103 50.7985 105.457 50.164 108.487 48.8386C109.396 48.4379 111.268 46.8733 109.524 46.3644C108.999 46.2074 107.84 46.4456 107.279 46.4456L104.144 46.4348Z" fill="#020202"/>
<path d="M83.7347 60.565L86.1257 72.3618L83.7347 85.0519L87.6079 85.3172L93.25 71.0246L91.3409 59.6987L83.7347 60.565Z" fill="#473F47"/>
<path d="M97.105 59.6987L101.405 75.4044L97.9284 86.2159L94.4821 86.0589L94.964 76.8336L88.895 61.9184L97.105 59.6987Z" fill="#473F47"/>
<path d="M108.944 46.673C109.461 46.4048 110.015 46.1957 110.591 46.0504C110.681 46.0145 110.78 45.9988 110.879 46.0044C110.978 46.0101 111.074 46.037 111.158 46.0829C111.248 46.1573 111.306 46.2566 111.323 46.3644C111.412 46.7111 111.38 47.0737 111.232 47.4039C111.881 47.7234 112.563 47.9881 113.269 48.1943C113.416 48.2166 113.556 48.2656 113.681 48.3383C113.806 48.4109 113.913 48.5057 113.995 48.6166C114.038 48.7325 114.042 48.8573 114.005 48.975C113.968 49.0928 113.892 49.198 113.787 49.2771C113.574 49.4341 113.317 49.5369 113.043 49.5748C111.274 49.943 108.395 49.5748 107.974 47.6962C107.883 47.2848 108.054 47.2144 108.42 46.9816C108.615 46.8679 108.792 46.7705 108.944 46.673Z" fill="#FCBDBA"/>
<path d="M95.6532 32.1801C96.0553 32.8964 96.3133 33.6696 96.4157 34.4647C96.4629 34.8617 96.3926 35.2628 96.2119 35.6283C96.0311 35.9938 95.746 36.3112 95.3849 36.5491C95.1647 36.6393 94.9595 36.7559 94.7749 36.8955C94.1284 37.4857 94.8664 38.5522 94.4943 39.3156C94.3509 39.5669 94.1069 39.7616 93.8102 39.8617C93.5136 39.9619 93.1855 39.9601 92.8901 39.8569C92.5947 39.7423 92.3319 39.5705 92.1208 39.3541C91.9098 39.1377 91.7558 38.8823 91.6702 38.6063C91.5057 38.0519 91.4318 37.4794 91.4507 36.9064L91.3836 33.4956C91.298 32.7365 91.4324 31.9706 91.7739 31.2705C92.0066 30.914 92.3454 30.6213 92.7532 30.4246C93.161 30.2278 93.6221 30.1346 94.0857 30.1553C95.0555 30.2636 95.33 31.5087 95.6532 32.1801Z" fill="#FCBDBA"/>
<path d="M109.06 49.2121C109.06 49.2121 101.692 55.0537 101.161 55.0537C100.63 55.0537 97.355 51.383 97.355 51.383L97.1049 59.7204C96.1953 60.1968 95.2473 60.613 94.2686 60.9656C92.584 61.6483 90.7463 61.9815 88.8949 61.9401C85.3145 61.6532 83.7347 60.5866 83.7347 60.5866L85.9427 41.0047C85.9427 41.0047 90.1148 38.341 91.5421 38.7471C92.5628 38.9095 93.6079 38.9095 94.6285 38.7471C96.6902 38.5034 98.7945 41.0047 98.7945 41.0047L101.533 48.9901L107.956 46.9653C108.374 47.197 108.704 47.5357 108.901 47.9367C109.098 48.3378 109.153 48.7824 109.06 49.2121Z" fill="white"/>
<path d="M96.4645 28.5041C96.5118 28.074 96.3982 27.6421 96.1412 27.2751C95.6471 26.6633 94.6346 26.6092 93.8051 26.7716C93.2347 26.9104 92.6826 27.1028 92.1582 27.3455C91.7725 27.4865 91.3518 27.5351 90.9383 27.4862C89.8433 27.469 88.7817 27.8211 87.9678 28.4716C86.8455 29.4136 86.5832 30.805 86.4673 32.1097C86.3453 33.5877 87.0773 34.8166 88.1813 35.9427C89.1145 36.9226 90.8163 37.8863 92.0301 36.6465C92.5714 36.0163 92.8182 35.2252 92.7193 34.4377C92.4286 34.4113 92.1545 34.3046 91.9357 34.1327C91.7169 33.9608 91.5643 33.7323 91.4994 33.4794C91.4576 33.3205 91.4662 33.1544 91.5244 32.9995C91.5825 32.8447 91.6879 32.7072 91.8288 32.6024C91.9153 32.5561 92.0112 32.5254 92.1111 32.5121C92.2109 32.4988 92.3128 32.503 92.4108 32.5247C92.5088 32.5463 92.601 32.5848 92.6822 32.6381C92.7634 32.6914 92.832 32.7583 92.884 32.8352C92.919 32.8837 92.9458 32.9366 92.9633 32.9922C93.1392 32.6781 93.2684 32.345 93.3476 32.0014C93.4879 31.6712 93.9575 31.3842 94.2625 31.6062C94.4394 31.7307 94.5431 32.0068 94.7688 31.9635C94.8437 31.9386 94.9092 31.8954 94.9579 31.839C95.402 31.4599 95.7765 31.0215 96.068 30.5397C96.341 29.9712 96.484 29.3602 96.4889 28.7423C96.4657 28.6646 96.4575 28.5841 96.4645 28.5041Z" fill="#FC682D"/>
<path d="M81.9842 27.7786C81.2085 27.6968 80.4232 27.8272 79.7332 28.1523C79.0433 28.4774 78.4816 28.9816 78.1231 29.5976C77.2753 31.1406 77.8852 32.965 78.0255 34.6812C78.1529 35.277 78.0485 35.8934 77.7293 36.4295C77.4101 36.9657 76.8952 37.3896 76.2689 37.6318C74.9026 38.3627 73.3289 38.8553 72.2371 39.8894C71.3773 40.7394 70.8696 41.824 70.7976 42.9645C70.7294 43.4399 70.8228 43.9225 71.0659 44.3504C71.3045 44.6669 71.6164 44.9345 71.9809 45.1354C72.9917 45.784 74.1382 46.2468 75.3531 46.4969C76.5681 46.747 77.8272 46.7792 79.0564 46.5918C80.2823 46.3854 81.4169 45.8736 82.3274 45.1163C83.2379 44.3589 83.8868 43.3873 84.1983 42.3148C84.735 40.0301 83.4297 37.7617 82.9357 35.4662C82.8453 35.1973 82.8165 34.915 82.8511 34.6361C82.8857 34.3571 82.9829 34.0871 83.137 33.8421C83.5456 33.3548 84.302 33.2411 84.8936 32.9326C88.0959 31.2597 84.3325 28.0601 81.9842 27.7786Z" fill="#FC682D"/>
<path d="M86.5466 29.9874H86.4917C85.8213 29.9874 85.2779 30.4698 85.2779 31.0648V31.1135C85.2779 31.7085 85.8213 32.1909 86.4917 32.1909H86.5466C87.217 32.1909 87.7604 31.7085 87.7604 31.1135V31.0648C87.7604 30.4698 87.217 29.9874 86.5466 29.9874Z" fill="#09254F"/>
<path d="M96.2083 88.257C96.1318 88.2001 96.0642 88.1346 96.007 88.0621C95.9263 88.1099 95.8348 88.1414 95.7389 88.1545C95.6431 88.1676 95.5451 88.1619 95.452 88.1379L94.6468 88.0296C94.5038 88.0157 94.364 87.9828 94.232 87.9321H94.1771L94.0125 88.2299C93.7372 88.7594 93.5798 89.3311 93.5489 89.9136C95.0796 90.2018 96.6468 90.3074 98.209 90.2276C98.335 90.2413 98.4628 90.2243 98.5788 90.1785C98.6948 90.1328 98.7947 90.0599 98.8677 89.9677C98.8978 89.9072 98.9133 89.8417 98.9133 89.7756C98.9133 89.7094 98.8978 89.6439 98.8677 89.5834C98.792 89.4472 98.6859 89.3262 98.5559 89.2275C98.4259 89.1289 98.2747 89.0547 98.1114 89.0095C97.6905 88.8633 97.2635 88.7442 96.8549 88.571C96.624 88.4933 96.4064 88.3876 96.2083 88.257Z" fill="#6B6B6B"/>
<path d="M96.5499 92.4689H94.0795L92.1094 97.2007H81.9292L83.8994 92.4689H81.4291L64.1002 134.026H66.5705L68.2845 129.917H78.4464L76.7324 134.026H79.2027L80.9167 129.917H80.9899V129.743L96.4035 92.7883V134.026H98.8738V92.4689H96.5499ZM91.4384 98.814L88.8705 104.975H78.6843L81.2522 98.814H91.4384ZM75.4393 112.776L78.0072 106.621H88.2057L85.6256 112.776H75.4393ZM84.9546 114.401L82.3867 120.556H72.2004L74.7866 114.368L84.9546 114.401ZM68.9555 128.336L71.5234 122.175H81.7096L79.1417 128.336H68.9555Z" fill="#214477"/>
<path d="M159.339 64.5712H122.199C120.693 64.5712 119.472 65.6547 119.472 66.9912V88.9228C119.472 90.2594 120.693 91.3428 122.199 91.3428H159.339C160.845 91.3428 162.065 90.2594 162.065 88.9228V66.9912C162.065 65.6547 160.845 64.5712 159.339 64.5712Z" fill="white"/>
<path d="M155.551 87.6452H125.986V68.2744H126.517V87.1688H155.551V87.6452Z" fill="#09254F"/>
<path d="M126.334 80.6829L126.053 80.2769L133.507 76.2111L144.468 77.7107L154.154 72.7516L154.422 73.163L144.572 78.2088L144.48 78.1925L133.623 76.7091L126.334 80.6829Z" fill="#09254F"/>
<path d="M133.897 77.5429C134.544 77.5429 135.069 77.0775 135.069 76.5034C135.069 75.9293 134.544 75.4639 133.897 75.4639C133.251 75.4639 132.726 75.9293 132.726 76.5034C132.726 77.0775 133.251 77.5429 133.897 77.5429Z" fill="#09254F"/>
<path d="M144.517 78.9992C145.164 78.9992 145.688 78.5338 145.688 77.9598C145.688 77.3857 145.164 76.9203 144.517 76.9203C143.87 76.9203 143.346 77.3857 143.346 77.9598C143.346 78.5338 143.87 78.9992 144.517 78.9992Z" fill="#09254F"/>
<path d="M154.087 74.1538C154.734 74.1538 155.258 73.6884 155.258 73.1143C155.258 72.5403 154.734 72.0749 154.087 72.0749C153.44 72.0749 152.916 72.5403 152.916 73.1143C152.916 73.6884 153.44 74.1538 154.087 74.1538Z" fill="#09254F"/>
<path opacity="0.28" d="M133.897 77.5429C134.544 77.5429 135.069 77.0775 135.069 76.5034C135.069 75.9293 134.544 75.4639 133.897 75.4639C133.251 75.4639 132.726 75.9293 132.726 76.5034C132.726 77.0775 133.251 77.5429 133.897 77.5429Z" fill="#020202"/>
<path opacity="0.28" d="M144.517 78.9992C145.164 78.9992 145.688 78.5338 145.688 77.9598C145.688 77.3857 145.164 76.9203 144.517 76.9203C143.87 76.9203 143.346 77.3857 143.346 77.9598C143.346 78.5338 143.87 78.9992 144.517 78.9992Z" fill="#020202"/>
<path opacity="0.28" d="M154.087 74.1538C154.734 74.1538 155.258 73.6884 155.258 73.1143C155.258 72.5403 154.734 72.0749 154.087 72.0749C153.44 72.0749 152.916 72.5403 152.916 73.1143C152.916 73.6884 153.44 74.1538 154.087 74.1538Z" fill="#020202"/>
<path d="M158.223 98.056C158.223 98.056 149.75 112.267 148.164 116.734C146.578 121.2 146.725 134.361 146.725 134.361H151.336C151.336 134.361 151.336 121.081 153.294 118.845C155.252 116.609 166.164 105.197 166.164 105.197L158.223 98.056Z" fill="#473F47"/>
<path d="M157.283 99.7831C157.283 99.7831 162.419 118.19 165.078 122.31C167.738 126.43 175.008 133.853 175.008 133.853L178.924 131.99C178.924 131.99 168.854 120.264 169.415 116.831C169.976 113.399 171.404 100.265 171.404 100.265C171.404 100.265 164.31 96.8488 157.283 99.7831Z" fill="#473F47"/>
<path d="M174.697 73.3309C174.697 73.3309 178.79 75.1878 177.265 79.6543C175.74 84.1207 170.916 94.1797 171.44 97.1573C171.965 100.135 171.404 100.232 171.404 100.232C171.404 100.232 160.638 103.676 157.283 99.7668C157.283 99.7668 163.688 79.6543 165.048 77.1422C166.408 74.6302 170.293 71.8475 174.697 73.3309Z" fill="#09254F"/>
<path d="M172.575 83.2599C172.177 84.3591 171.619 85.4074 170.916 86.3783C170.561 86.9592 170.135 87.5038 169.647 88.0025C168.262 89.3235 166.188 89.827 164.334 90.5524C164.002 90.668 163.695 90.8327 163.425 91.0397C163.149 91.3177 162.931 91.6365 162.779 91.9817C161.772 93.9361 160.418 95.9176 158.21 96.8C159.119 93.7195 160.04 90.639 161.077 87.5964C161.198 87.0323 161.455 86.4981 161.831 86.0307C162.207 85.5634 162.693 85.174 163.255 84.8895C165.572 83.379 167.872 81.8415 170.214 80.3581C171.013 79.8492 171.849 79.2753 172.526 80.1957C173.118 81.0023 172.849 82.4154 172.575 83.2599Z" fill="url(#paint4_linear)"/>
<path d="M167.085 65.4808C166.853 65.6919 166.555 65.9085 166.555 66.2008C166.594 66.4208 166.697 66.6279 166.853 66.8018C167.561 67.8845 166.914 69.4004 167.768 70.3803C168.087 70.7156 168.512 70.9572 168.988 71.0733C169.472 71.1314 169.941 71.2652 170.373 71.4685C170.7 71.7545 170.886 72.1438 170.891 72.5513C170.94 73.0385 170.842 73.5258 170.891 74.013C170.879 74.1763 170.914 74.3396 170.993 74.4875C171.072 74.6353 171.192 74.7628 171.343 74.8576C171.494 74.9168 171.659 74.9445 171.825 74.9388C172.775 74.977 173.728 74.9115 174.661 74.7439C174.795 74.7284 174.923 74.6838 175.033 74.614C175.141 74.502 175.211 74.3648 175.234 74.2188C175.637 72.5946 176.051 70.9704 176.454 69.3463C176.69 68.7623 176.987 68.1987 177.338 67.6626C177.66 66.8522 177.768 65.9875 177.656 65.1343C177.552 64.4955 177.307 63.8811 176.936 63.3261C176.632 62.8024 176.188 62.3526 175.643 62.0159C175.241 61.8058 174.808 61.6472 174.356 61.5449C172.794 61.1172 170.355 60.5433 169 61.7344C167.89 62.7305 168.256 64.4467 167.085 65.4808Z" fill="#FCBDBA"/>
<path d="M166.92 67.2999C167.256 67.1158 168.342 67.5002 168.75 67.4948C170.037 67.4623 171.086 68.0361 172.117 67.3323C172.959 66.791 173.295 65.8219 173.587 64.934C173.593 64.8854 173.593 64.8364 173.587 64.7878C173.575 64.7256 173.548 64.6665 173.508 64.6146C173.032 63.9974 172.062 63.9324 171.245 63.7538C169.787 63.3798 168.477 62.6501 167.463 61.6478C167.195 61.4426 167.014 61.1616 166.951 60.8519C166.966 60.6731 167.029 60.5001 167.136 60.3475C167.242 60.1949 167.388 60.0671 167.561 59.9749C168.603 59.3902 169.864 59.1955 171.068 59.4335C172.255 59.6768 173.425 59.9768 174.575 60.3322C175.686 60.6083 176.832 60.7762 177.936 61.0902C178.172 61.1502 178.396 61.2415 178.601 61.3608C178.871 61.5503 179.081 61.7983 179.211 62.0809C179.407 62.4367 179.508 62.8273 179.508 63.2232C179.508 63.6191 179.407 64.0098 179.211 64.3655C179.131 64.4698 179.072 64.5851 179.034 64.7066C179.028 64.8295 179.046 64.9523 179.089 65.0694C179.364 66.1521 178.76 67.2349 178.174 68.1715L176.649 70.6944C176.495 70.9988 176.265 71.2688 175.978 71.4848C175.833 71.5897 175.653 71.6496 175.466 71.6554C175.279 71.6613 175.095 71.6128 174.941 71.5173C174.624 71.2736 174.606 70.7864 174.234 70.624C174.108 70.5873 173.974 70.5756 173.842 70.5896C173.711 70.6036 173.584 70.6431 173.471 70.7052C172.8 70.9921 172.251 71.4469 171.593 71.788C170.454 72.3512 169.112 72.4969 167.854 72.194C167.484 72.1129 167.138 71.9614 166.841 71.7501C166.189 71.252 166.231 70.5861 166.365 69.9094C166.5 69.2326 166.231 67.6788 166.92 67.2999Z" fill="#473F47"/>
<path d="M173.746 80.3419C173.746 80.3419 169.342 90.3954 151.861 92.3174L151.251 90.1518C151.251 90.1518 162.925 86.0535 165.444 81.8957C166.168 80.7272 166.794 79.513 167.317 78.2629C168.11 76.3139 170.653 75.2637 172.691 76.2761C173.898 76.877 174.649 78.068 173.746 80.3419Z" fill="#09254F"/>
<path d="M148.292 89.7024C148.312 89.977 148.442 90.2362 148.658 90.4333C147.538 90.8043 146.353 90.9986 145.157 91.0072C144.939 90.9847 144.72 91.0392 144.547 91.1588C144.315 91.3807 144.498 91.7435 144.712 91.9763C145.62 92.8859 146.877 93.4646 148.238 93.6004C149.124 93.7533 150.043 93.6209 150.83 93.2269C151.373 92.8653 151.831 92.4129 152.178 91.895C152.248 91.8159 152.302 91.726 152.336 91.6298C152.363 91.4396 152.311 91.2473 152.19 91.0884C152.05 90.8556 151.855 90.3954 151.58 90.2817C151.306 90.168 150.927 90.2817 150.647 90.2384C149.842 90.076 149.122 89.6212 148.292 89.7024Z" fill="#FCBDBA"/>
<path d="M182.169 134.118C182.257 134.174 182.329 134.248 182.379 134.334C182.428 134.419 182.454 134.514 182.454 134.611C182.454 134.707 182.428 134.802 182.379 134.887C182.329 134.973 182.257 135.047 182.169 135.103C180.276 136.913 178.009 138.384 175.49 139.434C174.795 139.721 173.837 139.927 173.362 139.391C172.886 138.855 173.392 138.043 173.795 137.426C174.338 136.597 174.671 135.673 174.771 134.719C174.771 134.392 174.844 134.068 174.984 133.766C175.478 132.959 177.906 132.142 178.912 132.142C180.248 132.131 181.352 133.295 182.169 134.118Z" fill="#09254F"/>
<path d="M152.861 137.274C152.909 137.361 152.932 137.457 152.929 137.553C152.926 137.65 152.897 137.744 152.843 137.829C152.79 137.913 152.714 137.984 152.623 138.037C152.531 138.089 152.427 138.121 152.318 138.13C149.664 138.866 146.874 139.142 144.102 138.942C143.333 138.882 142.388 138.638 142.272 137.962C142.156 137.285 143.053 136.803 143.748 136.451C144.677 135.97 145.48 135.318 146.103 134.54C146.283 134.255 146.528 134.006 146.822 133.809C147.701 133.322 150.275 133.663 151.153 134.112C152.312 134.703 152.617 136.197 152.861 137.274Z" fill="#09254F"/>
<path d="M38.2991 132.364C38.273 133.054 38.4167 133.741 38.72 134.378C39.1026 134.971 39.679 135.446 40.373 135.742C41.8597 136.43 43.5883 136.581 45.1977 136.164C45.4161 136.125 45.6124 136.02 45.7528 135.867C45.8359 135.737 45.8701 135.587 45.8504 135.439C45.7283 134.651 45.2777 133.932 44.5878 133.425C43.9002 132.928 43.3124 132.331 42.8494 131.66C42.1113 130.328 42.6603 126.787 39.8484 127.372C37.5001 127.843 38.232 130.891 38.2991 132.364Z" fill="#FBB9AD"/>
<path d="M37.9088 134.751C37.9088 134.751 37.5062 135.628 38.0003 136.137C38.4943 136.646 43.5508 139.434 46.9544 137.188C50.358 134.941 42.3309 134.654 42.3309 134.654L37.9088 134.751Z" fill="#09254F"/>
<path d="M38.104 132.726C38.2579 132.658 38.4347 132.64 38.6018 132.678C38.7689 132.716 38.9149 132.806 39.0128 132.932C39.3448 133.268 39.7676 133.523 40.2414 133.674C40.7152 133.824 41.2244 133.865 41.721 133.793C42.8311 133.56 43.2703 132.423 43.8193 132.418C44.3682 132.412 47.3082 134.638 47.479 135.59C47.6498 136.543 46.1432 137.247 44.4841 137.339C42.825 137.431 39.0555 136.408 38.3419 135.634C38.0409 135.202 37.862 134.712 37.8206 134.206C37.7792 133.7 37.8764 133.192 38.104 132.726Z" fill="white"/>
<path d="M28.6557 133.723C28.6232 134.414 28.767 135.102 29.0766 135.737C29.4593 136.328 30.0358 136.802 30.7296 137.096C32.2141 137.783 33.9409 137.935 35.5482 137.518C35.7692 137.481 35.9682 137.375 36.1094 137.22C36.1897 137.091 36.2238 136.944 36.207 136.798C36.0837 136.01 35.6334 135.292 34.9444 134.784C34.2615 134.285 33.6745 133.69 33.206 133.024C32.468 131.698 33.0169 128.152 30.205 128.736C27.8567 129.213 28.5886 132.266 28.6557 133.723Z" fill="#FBB9AD"/>
<path d="M28.2653 136.121C28.2653 136.121 27.8628 136.993 28.3568 137.502C28.8509 138.01 33.8952 140.799 37.2988 138.557C40.7023 136.316 32.6875 136.024 32.6875 136.024L28.2653 136.121Z" fill="#09254F"/>
<path d="M28.4605 134.091C28.6154 134.024 28.7923 134.008 28.9591 134.047C29.1259 134.085 29.2715 134.176 29.3694 134.302C29.6995 134.64 30.1221 134.896 30.5965 135.047C31.0708 135.198 31.5809 135.238 32.0776 135.163C33.1816 134.925 33.6269 133.793 34.1697 133.788C34.7126 133.782 37.6587 136.002 37.8295 136.955C38.0002 137.908 36.4937 138.611 34.8346 138.703C33.1755 138.795 29.4121 137.778 28.6984 137.003C28.3959 136.571 28.2162 136.081 28.1748 135.573C28.1333 135.066 28.2314 134.557 28.4605 134.091Z" fill="white"/>
<path d="M26.6368 96.8759C26.6368 96.8759 26.1183 122.521 28.2532 131.075L33.6879 131.671L35.1701 96.6214L26.6368 96.8759Z" fill="#473F47"/>
<path d="M41.6478 94.1039C41.6478 94.1039 45.9723 107.909 42.8677 130.122L37.433 130.718L34.0111 95.3058L41.6478 94.1039Z" fill="#473F47"/>
<path d="M49.7785 83.0542C49.7175 83.9854 49.382 84.7867 48.4732 85.0574C48.3955 85.0805 48.316 85.0986 48.2353 85.1115C46.5701 85.4093 44.3804 84.2832 42.8616 83.2979C42.2249 82.8914 41.614 82.454 41.0317 81.9877V72.0641L49.1685 79.4378C49.5904 80.6062 49.7964 81.8274 49.7785 83.0542Z" fill="white"/>
<path d="M42.9226 83.2545C42.9226 83.7201 42.9897 84.1857 42.9897 84.6513C42.9897 87.2066 42.3248 89.8486 43.1788 92.3606C43.4597 92.8942 43.545 93.4925 43.4228 94.0714C43.1728 94.5359 42.7383 94.9022 42.2028 95.1C39.6593 96.3344 36.7132 96.7242 33.8586 97.0707C31.6994 97.3414 28.6374 97.9098 26.6429 96.8758C25.795 96.4373 25.5084 95.6198 25.2339 94.8023C24.4708 92.1605 24.021 89.455 23.892 86.7302C23.892 86.3729 23.831 86.021 23.8127 85.6474C23.646 83.2003 23.589 80.7497 23.6419 78.2954C23.6785 76.5142 23.8371 74.5923 25.1485 73.2497C26.8869 71.4631 30.2538 70.2774 32.8156 69.8606C33.6438 69.7086 34.4927 69.6666 35.3347 69.7361C36.5271 69.9038 37.6783 70.2517 38.7383 70.7647C40.007 71.3061 41.1354 71.7933 41.7881 72.9032C42.4732 74.1911 42.9515 75.5578 43.2093 76.9636C43.4491 78.2814 43.4819 79.6224 43.3069 80.9482C43.2337 81.5978 43.0446 82.2421 42.9714 82.8863C42.9428 83.0075 42.9264 83.1307 42.9226 83.2545Z" fill="white"/>
<path opacity="0.1" d="M31.1565 97.7475C30.3209 97.964 28.3934 97.2819 27.753 97.2061C27.3687 97.1465 27.021 96.9733 26.6368 96.8975C24.7276 96.4752 24.5019 91.711 24.3189 90.4279C23.8249 87.0442 23.0624 83.536 23.0075 80.1415C22.9217 78.8314 23.093 77.5179 23.5138 76.2598C23.728 75.6314 24.0953 75.0525 24.5897 74.5641C25.084 74.0757 25.6934 73.6898 26.3745 73.4338C28.8143 72.6542 29.5402 79.5027 29.8756 80.9211C30.2111 82.3396 30.2538 84.8516 31.309 85.9885C32.3642 87.1254 34.4747 87.3366 35.8532 86.7627C36.5946 86.4324 37.2115 85.9175 37.6285 85.281C38.0455 84.6446 38.2447 83.914 38.2015 83.1787C38.1182 82.6694 38.0714 82.1558 38.0612 81.6412C38.0618 81.3829 38.1453 81.1302 38.302 80.9125C38.4586 80.6948 38.6819 80.5213 38.9457 80.4122C39.1945 80.357 39.4557 80.3642 39.7002 80.433C39.9447 80.5019 40.1628 80.6296 40.3303 80.802C40.6553 81.157 40.8885 81.571 41.0134 82.0147C41.329 82.9423 41.5334 83.8968 41.6234 84.8624C41.8674 87.1525 41.477 89.5021 42.093 91.7381C42.3687 92.4332 42.5009 93.1668 42.4834 93.9036C42.3432 94.5132 41.9707 95.0614 41.4286 95.4558C40.8865 95.8502 40.2078 96.0668 39.5068 96.0692C38.8037 96.0454 38.1175 95.871 37.5068 95.5609C36.896 95.2507 36.3789 94.814 35.9996 94.288C35.8778 94.0998 35.7138 93.9358 35.5177 93.8062C35.2989 93.7086 35.0544 93.6656 34.8102 93.6816C33.6452 93.6816 31.9739 93.9199 31.5957 95.0784C31.3273 95.9067 31.9739 96.7026 31.4676 97.558C31.3932 97.6525 31.2826 97.7198 31.1565 97.7475Z" fill="#020202"/>
<path d="M37.7562 66.6015C37.5534 66.9606 37.2079 67.2403 36.7864 67.3865C36.2722 67.4896 35.7828 67.6729 35.3408 67.9279C34.9825 68.2725 34.7543 68.7078 34.6881 69.173L34.3405 70.6131L34.1575 71.3386C34.1337 71.4698 34.0841 71.5962 34.0111 71.7121C33.9082 71.8142 33.7807 71.8944 33.6382 71.9468C33.4957 71.9993 33.3417 72.0227 33.1877 72.0153C32.5448 72.0389 31.9084 71.8939 31.3578 71.5985C31.2615 71.5612 31.182 71.4964 31.1321 71.4144C31.0838 71.3137 31.071 71.2023 31.0955 71.095L31.2968 69.0215C31.4086 68.4545 31.3079 67.8707 31.0101 67.3594C30.3379 66.2746 29.8391 65.1121 29.5279 63.9053C29.4191 63.5702 29.3935 63.218 29.4531 62.8732C29.5126 62.5284 29.6558 62.1992 29.8727 61.9083C30.0896 61.6175 30.3751 61.3719 30.7095 61.1886C31.0438 61.0052 31.419 60.8885 31.8092 60.8465C32.9502 60.5355 34.1683 60.5242 35.3164 60.814C35.7434 60.944 35.8715 61.2038 36.0727 61.5449C36.3716 62.0863 36.6827 62.6277 36.9084 63.1691C37.1341 63.7104 37.439 64.4251 37.6647 65.0747C37.8985 65.5579 37.9309 66.0991 37.7562 66.6015Z" fill="#FBB9AD"/>
<path d="M55.0241 77.0448C55.0973 76.9365 55.2376 76.8282 55.3535 76.8932C55.4007 76.9351 55.4344 76.9874 55.451 77.0448C55.518 77.1488 55.6148 77.2351 55.7316 77.2951C55.8484 77.355 55.981 77.3863 56.1159 77.3859C56.3782 77.3859 56.6527 77.348 56.921 77.348C57.2718 77.3578 57.6151 77.4396 57.9242 77.5871C58.2332 77.7346 58.4995 77.9437 58.7021 78.198C59.1053 78.7123 59.33 79.3202 59.3487 79.9466C59.4205 80.5096 59.2458 81.0756 58.8607 81.5275C58.2507 82.1609 57.1467 82.1771 56.2013 82.1501H55.3352C55.1305 82.1739 54.9234 82.1271 54.7566 82.0193C54.5897 81.9115 54.4758 81.7509 54.4385 81.5708C54.0847 80.8074 53.4443 80.0441 53.8835 79.2753C54.3226 78.5065 54.4995 77.5862 55.0241 77.0448Z" fill="#FBB9AD"/>
<path d="M38.0002 85.1115V79.3728C38.0001 79.1483 38.0762 78.9289 38.2188 78.7435C38.3614 78.558 38.5637 78.4151 38.7993 78.3333L54.8106 72.6758C55.6401 72.3835 57.3297 73.2605 57.3297 74.051L56.5429 87.3312C56.5433 87.5529 56.4692 87.7697 56.3302 87.9539C56.1911 88.1381 55.9933 88.2813 55.7621 88.3652L40.5132 94.602C39.6776 94.9052 37.9758 94.0281 37.9758 93.2323L38.0002 85.1115Z" fill="#09254F"/>
<path d="M38.0002 85.1115V79.3728C37.9944 79.1479 38.0676 78.927 38.2097 78.7407C38.3518 78.5544 38.5557 78.412 38.7932 78.3333L54.8106 72.6758C55.6402 72.3835 57.3297 73.2605 57.3297 74.051L56.5429 87.3312C56.5425 87.5527 56.4681 87.7692 56.3291 87.9533C56.1902 88.1373 55.9929 88.2807 55.7621 88.3652L40.5132 94.602C39.6837 94.9052 37.9819 94.0281 37.9819 93.2323L38.0002 85.1115Z" fill="url(#paint5_linear)"/>
<path d="M38.7993 85.4472V79.7085C38.7987 79.4832 38.8746 79.263 39.0172 79.0766C39.1597 78.8902 39.3622 78.7463 39.5983 78.6636L55.6096 73.0115C55.8012 72.9434 56.0086 72.918 56.2137 72.9375C56.4189 72.957 56.6155 73.0208 56.7865 73.1233C56.9574 73.2259 57.0974 73.3641 57.1942 73.5258C57.2911 73.6875 57.3418 73.8678 57.3419 74.051V87.6831C57.3415 87.9047 57.2671 88.1211 57.1282 88.3052C56.9892 88.4892 56.7919 88.6326 56.5612 88.7171L40.5498 94.6183C40.3961 94.6749 40.2313 94.704 40.0648 94.7038C39.8984 94.7037 39.7336 94.6744 39.58 94.6175C39.4264 94.5607 39.2869 94.4774 39.1697 94.3726C39.0524 94.2677 38.9597 94.1433 38.8969 94.0065C38.832 93.8713 38.7988 93.7258 38.7993 93.5788V85.4472Z" fill="#294166"/>
<path d="M38.7993 79.7084L49.7785 84.7217L57.037 73.3526C57.037 73.3526 57.3176 73.2064 57.3176 74.051V87.6831L38.7993 92.7938V79.7084Z" fill="url(#paint6_linear)"/>
<path d="M34.9932 61.4583C34.8813 61.6086 34.7369 61.7378 34.5683 61.8382C34.3997 61.9385 34.2103 62.0082 34.0111 62.043C32.9254 62.2487 32.2667 61.7831 31.7177 62.9038C31.5407 63.2875 31.4858 63.707 31.5591 64.1165C31.5591 64.2031 31.9007 65.1614 31.9861 65.1126C31.7055 65.2913 31.4859 64.804 31.181 64.6633C30.876 64.5225 30.4246 64.934 30.4978 65.2859C30.6251 65.6314 30.8522 65.9413 31.1566 66.1846C31.6442 66.7218 31.9129 67.3896 31.919 68.0794C31.919 68.2364 31.8519 68.4476 31.6689 68.453C31.4859 68.4584 31.2846 68.231 31.1444 68.1444C30.9209 68.0115 30.6864 67.8938 30.4429 67.7925C29.6988 67.4785 28.5764 67.381 27.9543 66.9371C27.6336 66.7003 27.4176 66.3704 27.3443 66.0059C27.3443 65.9193 27.3443 64.9881 27.5273 65.0368C27.3425 64.988 27.1706 64.907 27.0214 64.7986C26.8723 64.6902 26.749 64.5564 26.6587 64.4052C26.5684 64.2541 26.513 64.0884 26.4956 63.918C26.4782 63.7476 26.4993 63.5758 26.5575 63.4127C26.6394 63.1834 26.7889 62.9778 26.9906 62.8171C26.2281 61.8751 26.5819 60.4784 27.4968 59.65C28.4789 58.8711 29.7216 58.3994 31.0346 58.3074C32.461 58.1078 33.9196 58.1929 35.3042 58.5564C35.7847 58.6744 36.2288 58.8872 36.6035 59.179C36.7866 59.3261 36.9271 59.5101 37.0131 59.7155C37.0991 59.921 37.128 60.1418 37.0975 60.3592C37.0169 60.3884 36.9286 60.3962 36.8431 60.3818C36.7576 60.3674 36.6786 60.3314 36.6157 60.278C36.6964 60.4733 36.6865 60.6891 36.5881 60.8779C36.4898 61.0667 36.311 61.2131 36.0911 61.285C35.9264 61.3382 35.7477 61.347 35.5773 61.3104C35.407 61.2738 35.2526 61.1934 35.1335 61.0793C35.1212 61.2137 35.0731 61.3436 34.9932 61.4583Z" fill="#473F47"/>
<path d="M35.6885 67.6897L35.5055 67.7384C35.4507 67.7434 35.3992 67.7643 35.3592 67.7979C35.3471 67.8351 35.3471 67.8745 35.3592 67.9116C35.0009 68.2563 34.7727 68.6916 34.7065 69.1568L34.3588 70.5969C33.7718 69.6764 33.3285 68.6892 33.0413 67.6626C33.9203 67.7528 34.8074 67.7618 35.6885 67.6897Z" fill="#DC9F95"/>
<path d="M36.6157 85.1656C36.7183 85.0536 36.8505 84.9659 37.0006 84.9102C37.1506 84.8545 37.3138 84.8325 37.4757 84.8462C37.6595 84.9282 37.8351 85.0242 38.0003 85.1331C38.1559 85.1947 38.3239 85.2278 38.4943 85.2305C39.184 85.2744 39.8764 85.1877 40.5255 84.9761C40.853 84.8343 41.2104 84.755 41.5746 84.7433C41.7923 84.7809 41.9982 84.8599 42.1783 84.9749C42.3583 85.0898 42.5082 85.238 42.6176 85.4092C42.9422 85.8225 43.1248 86.3105 43.1432 86.814C43.1616 87.3175 43.0151 87.815 42.7213 88.2461C42.4488 88.5964 42.0901 88.8871 41.6722 89.096C40.746 89.5266 39.7167 89.7531 38.6712 89.7565C37.6343 89.7998 36.5791 89.7565 35.5482 89.7998C35.304 89.8394 35.052 89.8091 34.8285 89.7132C34.705 89.6113 34.6094 89.4856 34.5491 89.3457C34.4889 89.2059 34.4655 89.0557 34.4808 88.9066C34.4442 88.2082 34.31 87.6181 34.7675 87.0279C35.3425 86.376 35.9596 85.7541 36.6157 85.1656Z" fill="#FBB9AD"/>
<path d="M25.1607 73.2551C25.1607 73.2551 13.6996 86.557 17.3228 91.2562C20.9459 95.9555 36.2314 90.482 36.2314 90.482L34.7431 86.5895C34.7431 86.5895 24.0079 87.7967 23.9286 86.7302C23.8493 85.6637 30.7357 79.5568 30.7357 79.5568C30.7357 79.5568 31.9678 70.6185 25.1607 73.2551Z" fill="white"/>
</g>
<defs>
<linearGradient id="paint0_linear" x1="95.7142" y1="89.605" x2="102.876" y2="158.17" gradientUnits="userSpaceOnUse">
<stop offset="0.01"/>
<stop offset="0.08" stop-opacity="0.69"/>
<stop offset="0.21" stop-opacity="0.32"/>
<stop offset="1" stop-opacity="0"/>
</linearGradient>
<linearGradient id="paint1_linear" x1="8610.64" y1="3861.29" x2="8686.28" y2="2167.05" gradientUnits="userSpaceOnUse">
<stop offset="0.01"/>
<stop offset="0.08" stop-opacity="0.69"/>
<stop offset="0.21" stop-opacity="0.32"/>
<stop offset="1" stop-opacity="0"/>
</linearGradient>
<linearGradient id="paint2_linear" x1="11565.9" y1="-570.748" x2="17388" y2="20587.3" gradientUnits="userSpaceOnUse">
<stop offset="0.01"/>
<stop offset="0.08" stop-opacity="0.69"/>
<stop offset="0.21" stop-opacity="0.32"/>
<stop offset="1" stop-opacity="0"/>
</linearGradient>
<linearGradient id="paint3_linear" x1="22559.6" y1="-3180.88" x2="22667.4" y2="-1039.53" gradientUnits="userSpaceOnUse">
<stop offset="0.01"/>
<stop offset="0.08" stop-opacity="0.69"/>
<stop offset="0.21" stop-opacity="0.32"/>
<stop offset="1" stop-opacity="0"/>
</linearGradient>
<linearGradient id="paint4_linear" x1="9681.95" y1="-3072.24" x2="10764.3" y2="-1872.29" gradientUnits="userSpaceOnUse">
<stop offset="0.01"/>
<stop offset="0.08" stop-opacity="0.69"/>
<stop offset="0.21" stop-opacity="0.32"/>
<stop offset="1" stop-opacity="0"/>
</linearGradient>
<linearGradient id="paint5_linear" x1="34.7065" y1="70.8135" x2="71.5869" y2="117.202" gradientUnits="userSpaceOnUse">
<stop offset="0.01"/>
<stop offset="0.13" stop-opacity="0.69"/>
<stop offset="0.25" stop-opacity="0.32"/>
<stop offset="1" stop-opacity="0"/>
</linearGradient>
<linearGradient id="paint6_linear" x1="2335.06" y1="3751.7" x2="2552.15" y2="2382.2" gradientUnits="userSpaceOnUse">
<stop offset="0.01"/>
<stop offset="0.13" stop-opacity="0.69"/>
<stop offset="0.25" stop-opacity="0.32"/>
<stop offset="1" stop-opacity="0"/>
</linearGradient>
<clipPath id="clip0">
<rect width="205" height="159" fill="white"/>
</clipPath>
</defs>
</svg>
