<svg width="205" height="159" viewBox="0 0 205 159" fill="none" xmlns="http://www.w3.org/2000/svg">
<g clip-path="url(#clip0)">
<path opacity="0.18" d="M91.01 0.15258C90.0655 0.118676 89.1265 0.0960735 88.1931 0.0734706C73.208 -0.248621 57.9154 0.271246 43.7649 5.35124C29.6144 10.4312 16.5732 20.7269 11.1315 35.0797C8.31464 42.533 7.65022 50.6248 6.60143 58.5471C4.64112 73.4029 1.23117 88.1287 1.04996 103.114C0.86876 118.1 4.3446 133.877 14.3438 144.794C31.6901 163.758 55.7519 152.519 76.3928 147.41C88.6426 144.39 101.385 144.156 113.732 146.727C121.881 148.422 129.749 151.343 137.893 153.14C143.752 154.434 149.847 155.146 155.815 154.349C161.548 153.587 165.968 150.773 171.19 148.507C181.129 144.167 191.178 138.64 197.515 129.322C202.371 122.007 204.6 113.18 203.818 104.358C201.869 81.0992 180.756 71.3347 169.856 53.0546C163.508 42.4313 159.181 30.3839 151.016 21.1733C136.366 4.67316 112.897 0.870222 91.01 0.15258Z" fill="#09254F"/>
<path d="M123.369 23.5918V138.951C123.369 141.623 122.337 144.186 120.501 146.076C118.665 147.965 116.175 149.026 113.578 149.026H65.0592C62.4626 149.026 59.9723 147.965 58.1362 146.076C56.3002 144.186 55.2686 141.623 55.2686 138.951V23.5918C55.2679 22.2682 55.5206 20.9574 56.0123 19.7344C56.504 18.5114 57.2251 17.4 58.1343 16.4638C59.0435 15.5277 60.1231 14.785 61.3113 14.2783C62.4995 13.7717 63.773 13.5109 65.0592 13.5109H113.578C114.864 13.5109 116.138 13.7717 117.326 14.2783C118.514 14.785 119.594 15.5277 120.503 16.4638C121.412 17.4 122.133 18.5114 122.625 19.7344C123.117 20.9574 123.369 22.2682 123.369 23.5918Z" fill="#09254F"/>
<path d="M112.557 15.223H66.0751C60.8468 15.223 56.6085 19.5846 56.6085 24.9649V137.363C56.6085 142.744 60.8468 147.105 66.0751 147.105H112.557C117.785 147.105 122.023 142.744 122.023 137.363V24.9649C122.023 19.5846 117.785 15.223 112.557 15.223Z" fill="#473F47"/>
<path d="M120.244 26.0668V134.905C120.22 137.373 119.244 139.729 117.532 141.456C115.819 143.183 113.51 144.14 111.113 144.116H67.5631C65.9722 144.121 64.4073 143.701 63.022 142.895C61.6329 142.106 60.474 140.949 59.665 139.545C58.856 138.14 58.4263 136.538 58.4205 134.905V26.0668C58.4466 23.5979 59.4244 21.2408 61.1388 19.5136C62.8532 17.7863 65.164 16.8305 67.5631 16.8561H74.9212V18.1953C74.9398 19.0739 75.2104 19.9273 75.6989 20.6481C76.1874 21.369 76.872 21.9252 77.6667 22.2469C78.2 22.4633 78.7682 22.5745 79.3415 22.5746H99.5705C100.729 22.5822 101.843 22.1186 102.671 21.2846C103.499 20.4506 103.973 19.3139 103.991 18.1219V16.8561H111.129C113.471 16.8508 115.728 17.7641 117.438 19.4102C118.325 20.2623 119.031 21.293 119.514 22.4382C119.997 23.5833 120.245 24.8185 120.244 26.0668Z" fill="white"/>
<path opacity="0.31" d="M92.2015 90.8862H66.8932C66.4535 90.8862 66.097 91.2531 66.097 91.7056V91.7112C66.097 92.1638 66.4535 92.5306 66.8932 92.5306H92.2015C92.6413 92.5306 92.9977 92.1638 92.9977 91.7112V91.7056C92.9977 91.2531 92.6413 90.8862 92.2015 90.8862Z" fill="#09254F"/>
<path opacity="0.31" d="M92.2015 94.9039H66.8932C66.4535 94.9039 66.097 95.2707 66.097 95.7232V95.7289C66.097 96.1814 66.4535 96.5482 66.8932 96.5482H92.2015C92.6413 96.5482 92.9977 96.1814 92.9977 95.7289V95.7232C92.9977 95.2707 92.6413 94.9039 92.2015 94.9039Z" fill="#09254F"/>
<path opacity="0.18" d="M123.369 76.087H55.2632V80.4889H123.369V76.087Z" fill="#09254F"/>
<path d="M45.0773 64.9833H128.025C129.5 64.9833 130.915 65.5864 131.958 66.6599C133.002 67.7333 133.588 69.1893 133.588 70.7075C133.588 72.2256 133.002 73.6816 131.958 74.7551C130.915 75.8286 129.5 76.4316 128.025 76.4316H45.0773V64.9833Z" fill="#09254F"/>
<path d="M112.057 64.9833H45.0773V76.426H112.057V64.9833Z" fill="white"/>
<path d="M122.001 72.8208C123.484 72.8208 124.687 71.5837 124.687 70.0576C124.687 68.5316 123.484 67.2944 122.001 67.2944C120.519 67.2944 119.316 68.5316 119.316 70.0576C119.316 71.5837 120.519 72.8208 122.001 72.8208Z" stroke="white" stroke-width="1.57687" stroke-miterlimit="10"/>
<path d="M124.456 74.55L123.358 72.4423" stroke="white" stroke-width="1.57687" stroke-miterlimit="10"/>
<path d="M108.104 86.812H67.382C66.6723 86.812 66.097 87.404 66.097 88.1343C66.097 88.8645 66.6723 89.4565 67.382 89.4565H108.104C108.813 89.4565 109.389 88.8645 109.389 88.1343C109.389 87.404 108.813 86.812 108.104 86.812Z" fill="#09254F"/>
<path opacity="0.31" d="M92.2015 104.714H66.8932C66.4535 104.714 66.097 105.08 66.097 105.533V105.539C66.097 105.991 66.4535 106.358 66.8932 106.358H92.2015C92.6413 106.358 92.9977 105.991 92.9977 105.539V105.533C92.9977 105.08 92.6413 104.714 92.2015 104.714Z" fill="#09254F"/>
<path opacity="0.31" d="M92.2015 108.731H66.8932C66.4535 108.731 66.097 109.098 66.097 109.551V109.556C66.097 110.009 66.4535 110.376 66.8932 110.376H92.2015C92.6413 110.376 92.9977 110.009 92.9977 109.556V109.551C92.9977 109.098 92.6413 108.731 92.2015 108.731Z" fill="#09254F"/>
<path d="M108.104 100.634H67.382C66.6723 100.634 66.097 101.226 66.097 101.956C66.097 102.686 66.6723 103.278 67.382 103.278H108.104C108.813 103.278 109.389 102.686 109.389 101.956C109.389 101.226 108.813 100.634 108.104 100.634Z" fill="#09254F"/>
<path opacity="0.31" d="M92.2015 118.535H66.8932C66.4535 118.535 66.097 118.902 66.097 119.355V119.36C66.097 119.813 66.4535 120.18 66.8932 120.18H92.2015C92.6413 120.18 92.9977 119.813 92.9977 119.36V119.355C92.9977 118.902 92.6413 118.535 92.2015 118.535Z" fill="#09254F"/>
<path opacity="0.31" d="M92.2015 122.558H66.8932C66.4535 122.558 66.097 122.925 66.097 123.378V123.383C66.097 123.836 66.4535 124.203 66.8932 124.203H92.2015C92.6413 124.203 92.9977 123.836 92.9977 123.383V123.378C92.9977 122.925 92.6413 122.558 92.2015 122.558Z" fill="#09254F"/>
<path d="M108.104 114.461H67.382C66.6723 114.461 66.097 115.053 66.097 115.783C66.097 116.514 66.6723 117.106 67.382 117.106H108.104C108.813 117.106 109.389 116.514 109.389 115.783C109.389 115.053 108.813 114.461 108.104 114.461Z" fill="#09254F"/>
<g opacity="0.41">
<path opacity="0.41" d="M114.632 48.2628C117.598 48.2593 120.546 48.734 123.369 49.6698V45.5392C118.55 44.1531 113.484 43.9333 108.569 44.8972C103.653 45.861 99.0214 47.9823 95.0353 51.095C91.0492 54.2077 87.8171 58.2274 85.5919 62.8395C83.3667 67.4517 82.2088 72.5311 82.2088 77.6805C82.2088 82.8298 83.3667 87.9093 85.5919 92.5214C87.8171 97.1336 91.0492 101.153 95.0353 104.266C99.0214 107.379 103.653 109.5 108.569 110.464C113.484 111.428 118.55 111.208 123.369 109.822V105.691C119.438 106.989 115.281 107.396 111.184 106.883C107.086 106.37 103.145 104.951 99.6314 102.721C96.1177 100.492 93.1148 97.5062 90.8293 93.969C88.5437 90.4317 87.0296 86.4271 86.3912 82.2303C85.7528 78.0336 86.0051 73.7444 87.1309 69.6576C88.2566 65.5708 90.2291 61.7833 92.9126 58.5557C95.5962 55.328 98.9272 52.7367 102.677 50.9599C106.426 49.1831 110.505 48.263 114.632 48.2628Z" fill="url(#paint0_linear)"/>
</g>
<path d="M116.362 109.443C109.947 109.443 103.675 107.485 98.3415 103.816C93.0077 100.148 88.851 94.9337 86.3975 88.8335C83.9439 82.7334 83.3036 76.0214 84.5576 69.5468C85.8116 63.0721 88.9035 57.1256 93.4422 52.4596C97.981 47.7937 103.763 44.6179 110.056 43.334C116.349 42.0501 122.87 42.7158 128.796 45.247C134.721 47.7781 139.783 52.0609 143.343 57.5536C146.902 63.0462 148.799 69.5019 148.792 76.1039C148.773 84.9459 145.35 93.4198 139.271 99.6689C133.192 105.918 124.954 109.433 116.362 109.443ZM116.362 46.6524C110.71 46.6524 105.184 48.3768 100.484 51.6078C95.7835 54.8387 92.1195 59.4312 89.9549 64.8046C87.7903 70.1779 87.2223 76.0911 88.3226 81.7967C89.423 87.5022 92.1423 92.744 96.1369 96.8595C100.131 100.975 105.222 103.779 110.765 104.918C116.308 106.057 122.055 105.479 127.279 103.258C132.503 101.037 136.97 97.2715 140.115 92.4383C143.26 87.605 144.942 81.9207 144.949 76.1039C144.946 68.3012 141.934 60.8187 136.574 55.2998C131.214 49.7809 123.944 46.6768 116.362 46.6693V46.6524Z" fill="#09254F"/>
<path d="M160.285 125.519C159.848 125.52 159.415 125.431 159.011 125.257C158.608 125.083 158.242 124.829 157.935 124.508L136.685 102.318C136.38 102.001 136.138 101.625 135.975 101.212C135.811 100.799 135.728 100.357 135.731 99.9107C135.734 99.4647 135.822 99.0236 135.991 98.6127C136.159 98.2019 136.405 97.8293 136.714 97.5163C137.023 97.2033 137.388 96.9562 137.79 96.7889C138.192 96.6217 138.622 96.5377 139.055 96.5417C139.489 96.5457 139.917 96.6377 140.316 96.8124C140.715 96.9871 141.076 97.2411 141.379 97.5597L162.63 119.75C163.085 120.226 163.394 120.83 163.517 121.486C163.64 122.142 163.572 122.821 163.322 123.437C163.071 124.054 162.65 124.58 162.109 124.951C161.569 125.321 160.934 125.519 160.285 125.519Z" fill="#09254F"/>
<path d="M170.466 132.572C170.103 132.941 169.673 133.233 169.2 133.431C168.728 133.628 168.222 133.728 167.712 133.725C167.202 133.721 166.698 133.614 166.228 133.409C165.758 133.204 165.332 132.906 164.975 132.532L139.957 106.403C139.818 106.261 139.691 106.106 139.578 105.94C139.512 105.849 139.452 105.759 139.397 105.669C139.219 105.36 139.138 105.001 139.166 104.643C139.193 104.285 139.328 103.944 139.551 103.668C140.037 103.073 140.568 102.517 141.138 102.007C141.793 101.408 142.503 100.876 143.257 100.419C143.565 100.229 143.924 100.143 144.282 100.175C144.639 100.206 144.978 100.353 145.251 100.594C145.326 100.655 145.398 100.721 145.465 100.792L170.526 126.927C170.882 127.301 171.164 127.744 171.354 128.231C171.544 128.717 171.638 129.238 171.633 129.762C171.627 130.286 171.521 130.804 171.321 131.286C171.121 131.768 170.83 132.205 170.466 132.572Z" fill="#473F47"/>
<path opacity="0.18" d="M80.5001 41.8549V53.3598C80.5001 54.868 79.9194 56.3148 78.8851 57.3834C77.8508 58.452 76.4472 59.0554 74.9815 59.0613H55.2686V36.1533H74.9815C76.4472 36.1593 77.8508 36.7626 78.8851 37.8312C79.9194 38.8998 80.5001 40.3467 80.5001 41.8549Z" fill="#09254F"/>
<path d="M74.0042 33.1302H37.3129C34.253 33.1302 31.7724 35.6829 31.7724 38.8318V50.3366C31.7724 53.4855 34.253 56.0382 37.3129 56.0382H74.0042C77.0641 56.0382 79.5446 53.4855 79.5446 50.3366V38.8318C79.5446 35.6829 77.0641 33.1302 74.0042 33.1302Z" fill="white"/>
<path d="M77.8698 37.9276C80.0746 37.9276 81.8618 36.0884 81.8618 33.8196C81.8618 31.5507 80.0746 29.7115 77.8698 29.7115C75.6651 29.7115 73.8778 31.5507 73.8778 33.8196C73.8778 36.0884 75.6651 37.9276 77.8698 37.9276Z" fill="#09254F"/>
<path d="M68.244 40.4479H42.3043C41.6977 40.4479 41.2061 40.9539 41.2061 41.578V41.5837C41.2061 42.2078 41.6977 42.7138 42.3043 42.7138H68.244C68.8505 42.7138 69.3422 42.2078 69.3422 41.5837V41.578C69.3422 40.9539 68.8505 40.4479 68.244 40.4479Z" fill="#09254F"/>
<path d="M68.244 46.4772H42.3043C41.6977 46.4772 41.2061 46.9832 41.2061 47.6073V47.613C41.2061 48.2371 41.6977 48.7431 42.3043 48.7431H68.244C68.8505 48.7431 69.3422 48.2371 69.3422 47.613V47.6073C69.3422 46.9832 68.8505 46.4772 68.244 46.4772Z" fill="#09254F"/>
<path d="M167.934 150.371C168.169 150.674 168.31 151.041 168.34 151.427C168.369 151.813 168.285 152.199 168.099 152.536C167.904 152.856 167.614 153.105 167.273 153.246C166.932 153.387 166.556 153.413 166.199 153.321C166.074 153.289 165.957 153.227 165.859 153.14C165.655 152.937 165.622 152.575 165.43 152.372C165.23 152.203 164.989 152.093 164.733 152.055C164.279 151.884 163.852 151.646 163.464 151.349C163.402 151.312 163.347 151.262 163.305 151.202C163.266 151.127 163.245 151.044 163.245 150.959C163.151 150.525 163.216 150.07 163.426 149.682C163.541 149.537 163.683 149.416 163.843 149.326C164.146 149.133 164.493 149.026 164.848 149.015C165.126 149.035 165.398 149.099 165.655 149.207C166.385 149.423 167.07 149.776 167.676 150.247" fill="#09254F"/>
<path d="M166.512 146.907L167.737 151.247C167.737 151.247 167.506 152.338 166.21 151.88C164.914 151.422 163.827 148.004 163.827 148.004L166.512 146.907Z" fill="#FCBDBA"/>
<path d="M153.586 155.983C153.252 155.924 152.914 155.9 152.576 155.909C152.406 155.917 152.24 155.96 152.087 156.035C151.934 156.111 151.798 156.218 151.686 156.35C151.525 156.616 151.462 156.933 151.506 157.243C151.55 157.553 151.699 157.837 151.928 158.045C152.388 158.437 152.953 158.677 153.548 158.734C153.909 158.819 154.284 158.819 154.646 158.734C155.102 158.599 155.535 158.209 155.991 158.356C156.19 158.441 156.375 158.557 156.54 158.701C156.851 158.932 157.237 159.034 157.618 158.985C157.999 158.935 158.348 158.739 158.594 158.435C158.726 158.232 158.821 158.006 158.874 157.768C159.066 157.017 158.978 156.073 158.374 155.638C157.66 155.112 157.106 155.474 156.419 155.717C155.504 156.011 154.538 156.101 153.586 155.983Z" fill="#09254F"/>
<path d="M154.179 151.773L155.969 156.293C155.969 156.293 156.996 156.932 157.726 156.649L158.446 156.344L157.814 150.032L154.179 151.773Z" fill="#FCBDBA"/>
<path d="M140.874 105.821C140.753 105.657 140.594 105.476 140.402 105.505C140.21 105.533 140.177 105.612 140.062 105.578C139.99 105.552 139.928 105.502 139.886 105.437C139.613 105.138 139.309 104.871 138.98 104.64C138.779 104.459 138.538 104.332 138.277 104.273C138.087 104.263 137.898 104.311 137.735 104.412C137.572 104.513 137.441 104.661 137.36 104.838C137.196 105.19 137.156 105.589 137.245 105.968C137.341 106.347 137.489 106.71 137.684 107.047C137.802 107.3 137.951 107.535 138.129 107.748C138.678 108.364 139.589 108.466 140.325 108.844C140.404 108.894 140.492 108.924 140.583 108.935C140.661 108.921 140.735 108.889 140.799 108.841C140.863 108.793 140.915 108.73 140.951 108.658C141.236 108.24 141.408 107.753 141.451 107.245C141.411 106.719 141.209 106.22 140.874 105.821Z" fill="#FCBDBA"/>
<path d="M148.013 100.922C147.924 100.897 147.83 100.907 147.749 100.95C147.703 100.988 147.663 101.031 147.628 101.08C147.474 101.25 147.222 101.255 147.013 101.351C146.879 101.421 146.761 101.519 146.667 101.639C146.572 101.758 146.503 101.897 146.464 102.046C146.391 102.344 146.36 102.65 146.371 102.956C146.357 103.118 146.374 103.281 146.42 103.436C146.445 103.512 146.49 103.579 146.55 103.629C146.611 103.679 146.684 103.71 146.761 103.719C146.886 103.696 147.004 103.644 147.107 103.566C147.316 103.448 147.558 103.408 147.793 103.453C148.094 103.554 148.382 103.692 148.65 103.866C148.786 103.949 148.941 103.993 149.1 103.993C149.258 103.993 149.414 103.949 149.55 103.866C149.672 103.753 149.767 103.614 149.83 103.459C150.077 102.894 150.379 102.267 149.83 101.809C149.315 101.348 148.686 101.041 148.013 100.922Z" fill="#FCBDBA"/>
<path d="M164.332 121.688C164.203 124.065 163.945 126.433 163.558 128.78C163.064 131.108 162.767 133.753 162.767 133.753L167.341 147.314C167.341 147.314 164.557 149.219 162.767 148.478C160.977 147.738 156.447 137.341 156.447 137.341L154.723 125.514L159.286 120.123L164.332 121.688Z" fill="#473F47"/>
<path d="M151.708 120.745C151.708 120.745 148.446 131.747 148.446 134.606C148.446 137.465 152.356 151.558 152.356 151.558C152.356 151.558 156.601 153.038 157.595 151.558L158.588 150.078L156.2 135.894C156.2 135.894 159.582 128.492 160.181 126.587C160.543 125.414 160.802 124.209 160.955 122.988L151.708 120.745Z" fill="#473F47"/>
<path d="M153.081 90.6093C152.699 91.3935 152.456 92.241 152.362 93.1126C152.319 93.5438 152.386 93.9791 152.556 94.3755C152.726 94.7719 152.994 95.1157 153.333 95.3729C153.541 95.4748 153.735 95.6039 153.91 95.7571C154.525 96.4013 153.822 97.571 154.174 98.4073C154.315 98.6761 154.548 98.8821 154.827 98.9862C155.106 99.0904 155.413 99.0854 155.689 98.9724C155.959 98.8413 156.198 98.6502 156.388 98.4127C156.578 98.1753 156.714 97.8975 156.787 97.5993C156.945 96.9934 157.015 96.367 156.996 95.7402L157.056 92.005C157.143 91.1741 157.016 90.3344 156.688 89.5696C156.47 89.1748 156.149 88.8511 155.76 88.6353C155.372 88.4195 154.933 88.3203 154.492 88.349C153.646 88.5355 153.388 89.8804 153.081 90.6093Z" fill="#FCBDBA"/>
<path d="M140.418 109.257C140.418 109.257 147.381 115.659 147.875 115.659C148.37 115.659 151.461 111.636 151.461 111.636L151.708 120.739C152.568 121.261 153.463 121.718 154.388 122.106C155.892 122.739 157.798 123.327 159.461 123.169C162.844 122.852 164.332 121.688 164.332 121.688L162.251 100.249C162.251 100.249 158.308 97.328 156.963 97.7744C155.999 97.9514 155.012 97.9514 154.047 97.7744C152.103 97.5145 150.116 100.249 150.116 100.249L147.529 108.991L141.462 106.776C141.065 107.033 140.754 107.408 140.568 107.85C140.382 108.293 140.33 108.783 140.418 109.257Z" fill="#09254F"/>
<path d="M153.668 86.5577C154.399 85.874 156.052 85.5915 156.859 85.5011C157.479 85.4102 158.111 85.4569 158.713 85.6382C159.314 85.8195 159.871 86.1311 160.346 86.5521C161.663 87.8405 161.801 89.9425 161.784 91.8751C161.768 93.8076 161.74 95.8814 162.838 97.3506C163.783 98.6051 165.326 99.1249 166.528 100.091C167.122 100.544 167.615 101.122 167.975 101.787C168.335 102.451 168.553 103.187 168.615 103.945C168.895 109.754 160.274 107.262 157.424 105.968C156.92 105.768 156.456 105.473 156.057 105.098C155.636 104.629 155.325 104.066 155.151 103.453C154.482 101.377 154.596 99.1184 155.469 97.1246C155.601 96.8307 155.744 96.4635 155.563 96.2035C155.464 96.0885 155.34 95.9993 155.2 95.9436C154.836 95.7879 154.523 95.5279 154.298 95.1943C154.073 94.8607 153.946 94.4676 153.932 94.0619C154.05 93.4667 154.31 92.9112 154.69 92.4458C154.876 92.2128 155.004 91.9368 155.063 91.6414C155.123 91.3461 155.111 91.0404 155.03 90.7506C154.833 90.2929 154.36 90.0668 154.009 89.7334C153.394 89.1684 152.949 87.6483 153.46 86.8346C153.518 86.7339 153.588 86.641 153.668 86.5577Z" fill="#F6A569"/>
</g>
<defs>
<linearGradient id="paint0_linear" x1="75.4208" y1="204.5" x2="173.066" y2="-175.631" gradientUnits="userSpaceOnUse">
<stop offset="0.01"/>
<stop offset="0.08" stop-opacity="0.69"/>
<stop offset="0.21" stop-opacity="0.32"/>
<stop offset="1" stop-opacity="0"/>
</linearGradient>
<clipPath id="clip0">
<rect width="205" height="159" fill="white"/>
</clipPath>
</defs>
</svg>
