<svg width="205" height="159" viewBox="0 0 205 159" fill="none" xmlns="http://www.w3.org/2000/svg">
<g clip-path="url(#clip0)">
<path opacity="0.18" d="M190.414 97.7891C187.179 104.06 181.325 108.957 179.703 115.86C179 118.838 179.164 121.962 178.819 125.009C177.547 135.686 169.769 144.585 160.494 149.628C160.106 149.846 159.712 150.046 159.319 150.246C153.234 153.307 146.642 154.976 139.921 156.017C135.833 156.645 131.697 157.036 127.597 157.381C110.549 158.77 93.4628 159.276 76.3386 158.9C68.071 158.727 59.6399 158.322 51.8629 155.499C51.4652 155.358 51.0719 155.208 50.6786 155.044C44.3686 152.52 38.77 148.387 33.8121 143.648L33.5868 143.43C26.1897 136.318 20.0785 127.728 16.1237 118.138C10.4723 104.443 9.48202 89.1856 13.3134 74.839C15.6509 66.3129 19.7339 58.1824 20.3834 49.3743C20.8562 42.7353 19.3406 36.0144 20.3525 29.4391C22.3542 16.3884 34.1435 6.77999 46.5913 3.54688C59.039 0.313763 72.1407 2.15541 84.8536 4.0016C91.0664 4.91106 98.3353 7.35294 104.482 5.39762C112.025 2.99211 118.388 0.0181891 126.527 0C129.855 0 133.248 0.359235 136.297 1.73251C139.991 3.39227 142.925 6.40256 145.917 9.17185C154.29 16.9022 163.835 23.1502 172.394 30.6532C180.953 38.1562 188.704 47.2871 191.837 58.3916C193.379 63.821 193.759 69.5278 193.923 75.1801C194.161 82.9014 193.918 90.9728 190.414 97.7891Z" fill="#09254F"/>
<path d="M147.097 51.4297H60.316C56.5895 51.4297 53.5685 54.5385 53.5685 58.3734V117.979C53.5685 121.814 56.5895 124.923 60.316 124.923H147.097C150.823 124.923 153.844 121.814 153.844 117.979V58.3734C153.844 54.5385 150.823 51.4297 147.097 51.4297Z" fill="#09254F"/>
<path d="M147.724 56.6772H59.6885V118.175H147.724V56.6772Z" fill="white"/>
<path d="M102.688 85.2978H100.063V109.994H102.688V85.2978Z" fill="#09254F"/>
<path d="M107.252 89.3358H104.628V109.994H107.252V89.3358Z" fill="#09254F"/>
<path d="M111.724 93.0236H109.099V109.994H111.724V93.0236Z" fill="#09254F"/>
<path d="M116.289 89.3358H113.664V109.994H116.289V89.3358Z" fill="#09254F"/>
<path d="M120.761 97.6436H118.136V109.994H120.761V97.6436Z" fill="#09254F"/>
<path d="M125.325 89.3358H122.701V109.994H125.325V89.3358Z" fill="#09254F"/>
<path d="M129.797 95.5383H127.172V109.994H129.797V95.5383Z" fill="#09254F"/>
<path d="M134.362 92.7553H131.737V109.994H134.362V92.7553Z" fill="#09254F"/>
<path d="M84.3189 100.327H69.3083V101.227H84.3189V100.327Z" fill="#09254F"/>
<path d="M84.3189 102.823H69.3083V103.723H84.3189V102.823Z" fill="#09254F"/>
<path d="M84.3189 105.324H69.3083V106.224H84.3189V105.324Z" fill="#09254F"/>
<path d="M84.3189 107.825H69.3083V108.725H84.3189V107.825Z" fill="#09254F"/>
<path d="M84.3189 110.326H69.3083V111.226H84.3189V110.326Z" fill="#09254F"/>
<path d="M84.6282 68.7002C82.0382 68.6924 79.5513 69.7437 77.7145 71.6228C75.8778 73.5019 74.8416 76.0549 74.834 78.7202C74.8263 81.3854 75.8479 83.9447 77.6739 85.8349C79.4999 87.725 81.9808 88.7913 84.5708 88.7992V85.2978H84.531C83.2533 85.2978 82.0043 84.9079 80.9419 84.1774C79.8795 83.4469 79.0514 82.4086 78.5625 81.1938C78.0735 79.979 77.9456 78.6423 78.1949 77.3527C78.4441 76.0631 79.0594 74.8785 79.9629 73.9487C80.8664 73.019 82.0175 72.3858 83.2707 72.1293C84.5238 71.8728 85.8228 72.0044 87.0032 72.5076C88.1837 73.0108 89.1927 73.8629 89.9025 74.9562C90.6124 76.0495 90.9913 77.3348 90.9913 78.6497C90.9922 78.9679 90.9686 79.2857 90.9206 79.6001H94.354C94.3826 79.3176 94.3959 79.0337 94.3937 78.7497C94.3943 77.4298 94.1421 76.1228 93.6516 74.9032C93.161 73.6837 92.4417 72.5756 91.5348 71.6423C90.6278 70.709 89.5511 69.9688 88.366 69.464C87.1809 68.9592 85.9108 68.6996 84.6282 68.7002Z" fill="#09254F"/>
<path d="M176.853 60.4151H152.359C150.536 60.4151 149.059 61.9359 149.059 63.8119V88.4172C149.059 90.2932 150.536 91.814 152.359 91.814H176.853C178.676 91.814 180.154 90.2932 180.154 88.4172V63.8119C180.154 61.9359 178.676 60.4151 176.853 60.4151Z" fill="url(#paint0_linear)"/>
<path d="M136.827 15.0333H112.334C110.511 15.0333 109.033 16.5541 109.033 18.4301V43.0354C109.033 44.9114 110.511 46.4322 112.334 46.4322H136.827C138.65 46.4322 140.128 44.9114 140.128 43.0354V18.4301C140.128 16.5541 138.65 15.0333 136.827 15.0333Z" fill="url(#paint1_linear)"/>
<path d="M60.8595 11.5319H36.3662C34.5432 11.5319 33.0653 13.0527 33.0653 14.9287V39.534C33.0653 41.4101 34.5432 42.9309 36.3662 42.9309H60.8595C62.6825 42.9309 64.1604 41.4101 64.1604 39.534V14.9287C64.1604 13.0527 62.6825 11.5319 60.8595 11.5319Z" fill="url(#paint2_linear)"/>
<path d="M51.8143 58.6053H27.3209C25.4979 58.6053 24.0201 60.1261 24.0201 62.0021V86.6074C24.0201 88.4834 25.4979 90.0042 27.3209 90.0042H51.8143C53.6373 90.0042 55.1151 88.4834 55.1151 86.6074V62.0021C55.1151 60.1261 53.6373 58.6053 51.8143 58.6053Z" fill="url(#paint3_linear)"/>
<path d="M133.443 95.6246L133.098 95.5337L138.887 72.6427H149.324V73.011H139.165L133.443 95.6246Z" fill="#09254F"/>
<path d="M109.064 37.415H104.261L91.2387 82.4921L90.9338 82.4603L103.987 37.0466H109.064V37.415Z" fill="#09254F"/>
<path d="M83.908 71.9242L72.4368 34.8912H63.4799V34.5229H72.6975L72.7373 34.6548L84.2482 71.8105L83.908 71.9242Z" fill="#09254F"/>
<path d="M70.6825 85.9526L62.5254 76.5943H54.5274V76.226H62.6845L70.952 85.707L70.6825 85.9526Z" fill="#09254F"/>
<path d="M94.354 79.7228C94.15 82.2314 93.0374 84.5695 91.2367 86.2734C89.4361 87.9774 87.0789 88.9227 84.6326 88.9219H84.5752V85.4251C86.1219 85.415 87.6136 84.8338 88.779 83.7872C89.9444 82.7407 90.7059 81.2984 90.925 79.7228H94.354Z" fill="#09254F"/>
<path d="M94.354 79.6C94.15 82.1086 93.0374 84.4468 91.2367 86.1507C89.4361 87.8546 87.0789 88.8 84.6326 88.7992H84.5752V85.2978C86.1215 85.2888 87.6132 84.7086 88.7786 83.6628C89.9441 82.617 90.7058 81.1752 90.925 79.6H94.354Z" fill="url(#paint4_linear)"/>
<path d="M60.4619 90.0815L65.0088 80.2548L75.5123 86.571L68.2831 101.918L62.6447 98.6895L60.4619 90.0815Z" fill="#09254F"/>
<path d="M61.3235 89.0993L65.1458 81.4735L73.7845 86.6665L67.2359 100.19L62.7817 96.6796L61.3235 89.0993Z" fill="white"/>
<path d="M61.0186 113.277L64.0366 132.494L61.0186 151.688L62.7198 153.052L59.9272 152.929L60.1702 133.09L54.956 119.116L55.5879 133.626L52.5478 152.334L53.8734 153.079L50.8421 152.957L52.1413 133.558L49.7772 121.958C49.7772 121.958 47.6915 113.527 49.7772 112.154C51.8629 110.781 61.0186 113.277 61.0186 113.277Z" fill="#3E3E54"/>
<path d="M49.9849 84.452C49.9849 84.452 57.3245 85.2978 59.1406 86.6619C60.9567 88.0261 62.8391 90.1906 62.8391 91.9368C62.8391 93.6829 63.5682 102.291 63.5682 102.291L66.5995 95.0562L68.2964 96.0521C68.2964 96.0521 66.3565 108.593 65.2651 108.966C64.1736 109.339 61.2042 108.512 61.2042 108.512L61.0186 113.254C61.0186 113.254 51.0763 114.25 49.7463 112.131C48.4162 110.012 45.2745 87.917 49.9849 84.452Z" fill="#09254F"/>
<path d="M56.2861 82.0829C56.2861 82.0829 55.4023 84.0063 55.8751 85.5797C55.8751 85.5797 53.1487 85.1977 53.0692 84.8658C52.9897 84.5338 53.4094 81.5918 53.0957 80.6868C52.782 79.7819 56.2861 82.0829 56.2861 82.0829Z" fill="#EEA886"/>
<path d="M53.3564 74.2525C54.4302 73.7977 57.3687 73.1156 58.4557 77.6311C59.5427 82.1465 57.8901 82.3648 56.18 82.383C54.47 82.4012 51.5889 79.5409 51.3194 78.6178C51.0498 77.6947 50.303 75.6075 53.3564 74.2525Z" fill="#EEA886"/>
<path d="M66.7542 92.9645C66.7511 92.8416 66.766 92.719 66.7984 92.6007C66.9 92.2687 67.2403 92.0869 67.4258 91.7913C67.5224 91.6018 67.5824 91.3949 67.6026 91.1819C67.6172 90.9936 67.6666 90.8099 67.7484 90.6408C67.7892 90.5571 67.8525 90.4872 67.9309 90.4396C68.0093 90.392 68.0994 90.3687 68.1903 90.3725C68.4377 90.4089 68.5659 90.6908 68.6322 90.9364C69.0682 92.4299 69.006 94.0307 68.4554 95.4837C68.3759 95.6974 68.2301 95.9384 68.0135 95.9384C67.9383 95.9285 67.866 95.9022 67.8014 95.8611C67.3596 95.6155 66.7321 95.4064 66.71 94.8743C66.6879 94.2241 66.7409 93.5875 66.7542 92.9645Z" fill="#EEA886"/>
<path d="M67.7794 91.3775L65.7202 89.3903L65.539 89.7632L67.4259 91.8004C67.4259 91.8004 67.8103 91.664 67.7794 91.3775Z" fill="#09254F"/>
<path d="M61.2042 108.534C61.2042 108.534 60.1393 108.08 59.7769 104.897C59.4146 101.713 58.9594 98.4394 58.9594 98.4394V113.4H61.3854L61.2042 108.534Z" fill="url(#paint5_linear)"/>
<path d="M56.6396 73.2657C56.4541 72.7686 56.0991 72.3581 55.641 72.1107C55.4745 72.0029 55.2841 71.9404 55.0878 71.9293C54.8914 71.9181 54.6955 71.9587 54.5186 72.047C54.4121 71.8982 54.2729 71.7774 54.1124 71.6944C53.9519 71.6114 53.7747 71.5687 53.5951 71.5696C53.2934 71.524 52.9854 71.5731 52.7113 71.7105C52.574 71.7853 52.4635 71.9033 52.396 72.0473C52.3284 72.1913 52.3073 72.3537 52.3357 72.5109C51.8961 72.4458 51.4497 72.4458 51.0101 72.5109C50.8732 72.5248 50.7407 72.5682 50.6212 72.6382C50.4778 72.756 50.3704 72.9139 50.3119 73.0929C50.069 73.667 49.9413 74.2857 49.9363 74.9118C49.7073 75.0796 49.5181 75.2985 49.3827 75.552C49.2473 75.8055 49.1691 76.0872 49.1542 76.376C49.1429 76.6658 49.1946 76.9546 49.3054 77.2212C49.4162 77.4879 49.5835 77.7258 49.7949 77.9176C49.7116 78.2146 49.6898 78.5263 49.7309 78.8326C49.772 79.1389 49.8751 79.4328 50.0335 79.6955C50.198 79.9549 50.4354 80.1566 50.7141 80.2735C50.9928 80.3905 51.2995 80.4173 51.5933 80.3503C51.5933 80.6232 51.6287 80.9551 51.8717 81.0779C51.9571 81.1138 52.0492 81.1294 52.1413 81.1234C52.401 81.119 52.6575 81.0634 52.8969 80.9597C52.8506 81.1692 52.8506 81.3868 52.8969 81.5963C52.9216 81.6992 52.978 81.7911 53.0576 81.8583C53.1372 81.9255 53.2359 81.9644 53.3388 81.9692C53.4894 81.9374 53.626 81.856 53.7276 81.7373C54.0163 81.5088 54.2393 81.2038 54.3728 80.8551C54.4172 80.528 54.4437 80.1985 54.4523 79.8683C54.523 79.4818 54.7616 79.1044 54.6644 78.727C54.5672 78.3495 54.2623 78.1813 54.0281 77.9312C53.7939 77.6811 53.6525 77.2355 53.9088 77.0217C54.1651 76.808 54.5407 76.999 54.7704 77.2355C54.8853 77.3491 55.0488 77.481 55.1814 77.3946C55.314 77.3082 55.2742 77.1263 55.2256 76.9899C55.0993 76.6961 54.9973 76.3919 54.9207 76.0805C54.8813 75.9198 54.8835 75.7514 54.9269 75.5919C54.9703 75.4323 55.0534 75.2872 55.1681 75.171C55.5482 74.8391 56.1624 75.0255 56.5335 74.7163C56.9047 74.4071 56.781 73.6613 56.6396 73.2657Z" fill="#3E3E54"/>
</g>
<defs>
<linearGradient id="paint0_linear" x1="170.945" y1="-43.1036" x2="161.326" y2="127.685" gradientUnits="userSpaceOnUse">
<stop offset="0.02" stop-color="white" stop-opacity="0"/>
<stop offset="0.14" stop-color="white" stop-opacity="0.06"/>
<stop offset="0.32" stop-color="white" stop-opacity="0.39"/>
<stop offset="0.68" stop-color="white" stop-opacity="0.68"/>
<stop offset="1" stop-color="white"/>
</linearGradient>
<linearGradient id="paint1_linear" x1="133.279" y1="-132.735" x2="123.655" y2="38.0533" gradientUnits="userSpaceOnUse">
<stop offset="0.02" stop-color="white" stop-opacity="0"/>
<stop offset="0.32" stop-color="white" stop-opacity="0.39"/>
<stop offset="0.68" stop-color="white" stop-opacity="0.68"/>
<stop offset="1" stop-color="white"/>
</linearGradient>
<linearGradient id="paint2_linear" x1="3128.89" y1="-6392.28" x2="2476.74" y2="5402.04" gradientUnits="userSpaceOnUse">
<stop offset="0.02" stop-color="white" stop-opacity="0"/>
<stop offset="0.32" stop-color="white" stop-opacity="0.39"/>
<stop offset="0.68" stop-color="white" stop-opacity="0.68"/>
<stop offset="1" stop-color="white"/>
</linearGradient>
<linearGradient id="paint3_linear" x1="2477.42" y1="-2990.54" x2="1825.58" y2="8803.77" gradientUnits="userSpaceOnUse">
<stop offset="0.02" stop-color="white" stop-opacity="0"/>
<stop offset="0.32" stop-color="white" stop-opacity="0.39"/>
<stop offset="0.68" stop-color="white" stop-opacity="0.68"/>
<stop offset="1" stop-color="white"/>
</linearGradient>
<linearGradient id="paint4_linear" x1="1766.43" y1="1901.77" x2="2104.03" y2="2397.89" gradientUnits="userSpaceOnUse">
<stop offset="0.02" stop-color="white" stop-opacity="0"/>
<stop offset="0.32" stop-color="white" stop-opacity="0.39"/>
<stop offset="0.68" stop-color="white" stop-opacity="0.68"/>
<stop offset="1" stop-color="white"/>
</linearGradient>
<linearGradient id="paint5_linear" x1="67.006" y1="99.8172" x2="46.3251" y2="117.287" gradientUnits="userSpaceOnUse">
<stop stop-opacity="0"/>
<stop offset="0.99"/>
</linearGradient>
<clipPath id="clip0">
<rect width="205" height="159" fill="white"/>
</clipPath>
</defs>
</svg>
