<svg width="205" height="159" viewBox="0 0 205 159" fill="none" xmlns="http://www.w3.org/2000/svg">
<g clip-path="url(#clip0)">
<path opacity="0.18" d="M169.047 150.045C163.884 153.318 161.304 153.413 155.239 153.413C141.487 153.413 127.735 153.347 113.983 153.213L116.83 152.088C116.997 150.463 114.815 149.868 113.226 149.894L41.2829 150.978C28.451 151.171 13.7909 150.548 5.57164 140.406C0.99627 134.767 -0.597762 126.975 0.206726 119.673C1.01121 112.37 1.66377 96.4228 22.568 77.3329C29.4846 71.0148 37.263 79.3833 39.0065 70.0306C41.6217 56.031 31.263 42.0928 33.6366 28.0394C34.9093 20.509 39.8832 13.9424 46.222 9.94649C52.5607 5.95063 60.1299 4.38201 67.5571 4.47941C72.0403 4.54092 76.5833 5.20989 80.6331 7.18091C84.5883 9.10836 87.8885 12.1815 91.343 14.9548C96.3991 19.0224 101.976 22.5621 108.155 24.3383C120.526 27.8933 133.59 24.064 146.352 22.5749C157.411 21.2933 168.987 21.8649 179.065 26.7245C189.142 31.5842 197.453 41.3162 198.604 52.7066C199.862 65.1402 192.93 78.6913 198.808 89.6306C200.46 92.7063 203.69 94.8952 204.656 98.2605C206.345 104.133 201.229 113.18 204.108 124.722C205.804 131.527 199.376 140.557 192.868 144.268C189.976 145.916 181.411 142.207 169.047 150.045Z" fill="#09254F"/>
<path d="M122.198 136.271H77.7489V154.116H122.198V136.271Z" fill="#09254F"/>
<path d="M122.198 136.271H77.7489V154.116H122.198V136.271Z" fill="url(#paint0_linear)"/>
<path d="M182.397 27.0834V126.532C182.396 129.438 181.274 132.225 179.277 134.28C177.28 136.334 174.571 137.489 171.747 137.489H31.238C29.8389 137.489 28.4536 137.205 27.1611 136.654C25.8686 136.102 24.6944 135.294 23.7055 134.276C22.7167 133.257 21.9326 132.048 21.3981 130.718C20.8635 129.387 20.5891 127.961 20.5904 126.521V27.0731C20.5904 24.1669 21.7121 21.3796 23.7089 19.3243C25.7056 17.269 28.4139 16.114 31.238 16.1133H171.747C173.146 16.1137 174.532 16.3977 175.825 16.9493C177.117 17.5008 178.292 18.309 179.281 19.3278C180.27 20.3465 181.054 21.5558 181.589 22.8865C182.123 24.2172 182.398 25.6434 182.397 27.0834Z" fill="#09254F"/>
<path d="M182.397 27.0834V126.532C182.396 129.438 181.274 132.225 179.277 134.28C177.28 136.334 174.571 137.489 171.747 137.489H31.238C29.8389 137.489 28.4536 137.205 27.1611 136.654C25.8686 136.102 24.6944 135.294 23.7055 134.276C22.7167 133.257 21.9326 132.048 21.3981 130.718C20.8635 129.387 20.5891 127.961 20.5904 126.521V27.0731C20.5904 24.1669 21.7121 21.3796 23.7089 19.3243C25.7056 17.269 28.4139 16.114 31.238 16.1133H171.747C173.146 16.1137 174.532 16.3977 175.825 16.9493C177.117 17.5008 178.292 18.309 179.281 19.3278C180.27 20.3465 181.054 21.5558 181.589 22.8865C182.123 24.2172 182.398 25.6434 182.397 27.0834Z" fill="url(#paint1_linear)"/>
<path d="M182.397 111.499V126.521C182.397 127.961 182.122 129.386 181.587 130.715C181.052 132.045 180.267 133.253 179.278 134.271C178.289 135.288 177.115 136.095 175.823 136.646C174.531 137.196 173.146 137.479 171.747 137.479H31.2381C28.4141 137.479 25.7059 136.324 23.709 134.269C21.7122 132.214 20.5904 129.427 20.5904 126.521V111.499H182.397Z" fill="#09254F"/>
<path d="M182.397 111.499V126.521C182.397 127.961 182.122 129.386 181.587 130.715C181.052 132.045 180.267 133.253 179.278 134.271C178.289 135.288 177.115 136.095 175.823 136.646C174.531 137.196 173.146 137.479 171.747 137.479H31.2381C28.4141 137.479 25.7059 136.324 23.709 134.269C21.7122 132.214 20.5904 129.427 20.5904 126.521V111.499H182.397Z" fill="url(#paint2_linear)"/>
<path opacity="0.19" d="M182.397 125.681V126.521C182.398 128.372 181.943 130.193 181.075 131.814C180.206 133.435 178.952 134.803 177.431 135.789C176.323 136.283 175.185 136.702 174.023 137.043C171.136 130.596 168.25 124.15 165.366 117.704C164.422 115.602 163.451 113.455 162.248 111.499C161.26 109.831 160.022 108.336 158.579 107.067L158.355 111.499C158.287 112.814 158.218 114.134 158.153 115.449C158.113 116.218 158.058 117.03 157.625 117.656C156.81 118.824 154.982 118.747 153.874 117.871C152.766 116.994 152.198 115.587 151.7 114.247C151.358 113.334 151.025 112.418 150.703 111.499C149.516 108.177 148.418 104.822 147.408 101.434C143.231 100.783 140.033 96.2383 140.721 91.9656C140.88 90.9788 141.219 90.0305 141.388 89.0539C141.622 87.7724 141.585 86.4421 141.553 85.1298L140.99 64.52C139.027 64.458 137.073 64.2178 135.152 63.8023C135.062 64.4993 134.771 65.1523 134.315 65.6762C133.86 66.2 133.261 66.5704 132.598 66.739C131.935 66.9075 131.238 66.8664 130.597 66.621C129.957 66.3756 129.404 65.9372 129.01 65.3632C128.419 64.5046 128.237 63.423 128.098 62.3772C127.906 60.9111 126.698 55.5081 127.861 54.406C128.902 53.4192 132.678 54.6034 134.232 54.2138C136.285 53.7011 138.19 52.7118 140.173 51.9608C143.383 50.7486 146.786 50.1653 150.205 50.241C152.676 50.2973 155.231 50.7331 157.269 52.1787C159.306 53.6243 160.681 56.2617 160.101 58.7351C158.923 59.1426 158.018 57.5048 156.805 57.2408C156.2 57.1101 155.585 57.3382 155.007 57.5612C152.719 58.4514 150.43 59.3408 148.14 60.2293C147.707 60.3959 147.244 60.5882 147.002 60.9983C146.761 61.4084 146.808 61.9312 146.883 62.408C147.386 65.6587 148.616 68.7446 150.477 71.4224C152.138 73.8112 154.277 75.8412 155.752 78.3581C157.226 80.8751 157.944 84.1712 156.519 86.7164C156.405 86.8807 156.328 87.0689 156.292 87.2675C156.253 87.6929 156.616 88.0236 156.942 88.2927C164.676 94.4441 170.38 102.677 175.239 111.499C177.797 116.133 180.123 120.931 182.397 125.681Z" fill="url(#paint3_linear)"/>
<path d="M199.144 140.957L199.117 140.977C198.407 141.545 197.658 142.059 196.875 142.515C195.619 143.261 194.282 143.85 192.89 144.271C192.89 144.271 171.625 111.54 169.052 109.092C167.072 107.219 163.52 106.101 161.682 105.365C161.296 105.237 160.931 105.053 160.596 104.817C159.837 104.11 156.788 92.7525 154.681 89.3897C152.384 85.7219 152.347 83.9072 153.186 83.0665C153.659 82.6582 154.255 82.4317 154.873 82.4257C156.409 82.3155 158.19 82.8999 158.19 82.8999C158.601 82.0746 158.487 81.2032 158.091 80.2215C157.483 78.6836 156.198 76.8895 155.167 74.5827C153.48 70.7867 156.287 68.9926 156.287 68.9926C156.287 68.9926 164.163 77.6507 168.596 81.2621C173.03 84.8735 173.124 95.9538 179.904 102.39C186.684 108.826 204.106 124.742 204.106 124.742C206.098 133.083 202.711 138.101 199.144 140.957Z" fill="url(#paint4_linear)"/>
<path opacity="0.19" d="M164.223 100.836C164.845 101.985 165.109 106.36 161.677 105.36C160.601 105.048 159.453 105.132 158.372 104.848C158.014 104.77 157.675 104.618 157.376 104.402C156.733 103.889 156.629 102.956 156.482 102.131C155.881 98.581 153.916 95.4053 153.244 91.8785C152.942 90.3201 152.875 88.6464 152.053 87.3033C151.555 86.4883 150.763 85.604 151.124 84.7172C151.291 84.3096 151.667 84.0405 152.026 83.7945C152.398 83.5255 152.789 83.2856 153.196 83.0768C153.266 83.0435 153.338 83.0076 153.411 82.9794C153.762 82.8384 154.13 82.7487 154.482 82.6077C154.619 82.5539 154.753 82.4975 154.883 82.436C156.419 82.3258 158.2 82.9102 158.2 82.9102C158.611 82.0849 158.497 81.2134 158.101 80.2318C159.316 81.257 163.311 86.7625 162.118 92.0348C161.911 92.8576 160.253 93.5137 164.223 100.836Z" fill="url(#paint5_linear)"/>
<path d="M135.219 151.594H65.4674V154.523H135.219V151.594Z" fill="#09254F"/>
<path d="M135.219 151.594H65.4674V154.523H135.219V151.594Z" fill="url(#paint6_linear)"/>
<path d="M127.311 52.9937L131.179 51.602L131.752 52.7169C131.752 52.7169 151.971 43.9409 159.71 43.7461C167.448 43.5513 170.315 50.7203 171.269 55.3364C171.269 55.3364 164.544 48.1597 155.164 51.1124C145.784 54.0651 133.66 58.3506 133.66 58.3506L134.041 60.1448L130.32 61.6185L127.311 52.9937Z" fill="#09254F"/>
<path d="M138.589 49.6924L141.538 57.5893C141.694 58.0098 141.996 58.3562 142.385 58.5623C142.774 58.7684 143.224 58.8199 143.647 58.7068L149.376 57.1844C149.785 57.0761 150.143 56.8218 150.387 56.4669C150.63 56.1119 150.743 55.6795 150.706 55.2467L149.939 46.3117C149.915 46.0385 149.832 45.7743 149.696 45.5384C149.559 45.3025 149.374 45.101 149.152 44.9486C148.93 44.7962 148.678 44.6968 148.415 44.6577C148.151 44.6186 147.882 44.6408 147.627 44.7226L139.717 47.2857C139.485 47.361 139.27 47.4844 139.087 47.6483C138.903 47.8121 138.753 48.0129 138.648 48.2383C138.542 48.4637 138.482 48.709 138.472 48.9591C138.462 49.2092 138.502 49.4587 138.589 49.6924Z" fill="#09254F"/>
<path d="M140.883 55.8362C136.686 57.2767 133.66 58.3481 133.66 58.3481L134.041 60.1422L130.32 61.616L127.311 52.9886L131.179 51.5969L131.752 52.7118C131.752 52.7118 134.643 51.4559 138.661 49.8924L140.883 55.8362Z" fill="url(#paint7_linear)"/>
<path d="M171.269 55.3338C171.269 55.3338 164.544 48.1572 155.164 51.1098C153.652 51.584 152.071 52.0941 150.479 52.6144L149.939 46.3117C149.926 46.1693 149.897 46.029 149.851 45.8939C153.69 44.697 157.304 43.805 159.71 43.7435C167.448 43.5487 170.315 50.7177 171.269 55.3338Z" fill="url(#paint8_linear)"/>
<path d="M149.376 57.1844L143.647 58.7069C143.224 58.8199 142.774 58.7684 142.385 58.5623C141.996 58.3562 141.694 58.0098 141.538 57.5894L140.883 55.8362L138.661 49.8872L138.589 49.6924C138.501 49.4586 138.461 49.2088 138.471 48.9584C138.481 48.7081 138.541 48.4624 138.646 48.2367C138.752 48.011 138.902 47.8099 139.086 47.6459C139.27 47.4819 139.485 47.3585 139.717 47.2831L147.627 44.72C148.073 44.5758 148.556 44.6178 148.972 44.837C149.389 45.0561 149.704 45.4348 149.851 45.8914C149.897 46.0264 149.926 46.1667 149.939 46.3092L150.479 52.6118L150.706 55.2441C150.744 55.6774 150.631 56.1104 150.387 56.4659C150.144 56.8214 149.785 57.076 149.376 57.1844Z" fill="url(#paint9_linear)"/>
<path d="M143.647 58.7069L155.727 116.969C155.727 116.969 158.467 121.764 162.524 120.472C166.581 119.181 162.113 103.638 157.48 89.3179C152.848 74.9979 149.416 60.6112 149.376 57.1946L143.647 58.7069Z" fill="#3F3D56"/>
<path d="M148.621 82.7C148.621 82.7 143.575 84.1328 144.479 86.7266C145.383 89.3205 154.013 91.4812 158.584 90.5969C163.154 89.7126 162.046 87.6724 160.546 86.7266C159.047 85.7809 148.992 84.4942 148.992 84.4942L148.621 82.7Z" fill="url(#paint10_linear)"/>
<path d="M146.282 88.4722C146.282 88.4722 142.965 91.1224 144.183 93.5471C145.401 95.9718 157.729 96.8919 160.011 96.1999C162.292 95.5078 161.328 93.0985 160.671 92.6116C159.942 91.9815 159.245 91.3124 158.584 90.6072C158.584 90.6072 152.22 91.553 146.282 88.4722Z" fill="url(#paint11_linear)"/>
<path d="M146.768 99.924C146.768 99.924 144.372 96.4228 148.051 95.4053C148.051 95.4053 157.635 96.9893 160.006 96.1998C160.006 96.1998 162.788 97.325 162.519 99.3627C162.178 101.985 148.23 102.408 146.768 99.924Z" fill="url(#paint12_linear)"/>
<path d="M152.198 105.847C152.198 105.847 160.666 106.565 162.028 104.486C163.391 102.408 160.666 100.836 160.666 100.836C160.666 100.836 152.631 101.936 150.188 101.318C147.744 100.701 147.142 104.597 152.198 105.847Z" fill="url(#paint13_linear)"/>
<path opacity="0.47" d="M98.3991 59.1785C98.3867 59.1477 98.3767 59.1119 98.3667 59.0785C98.0906 58.0887 97.7063 57.1342 97.221 56.2335C96.434 54.7956 95.2285 53.2859 93.485 52.9912C93.2934 52.9482 93.1252 52.8312 93.0151 52.6642C92.905 52.4972 92.8615 52.2931 92.8934 52.094C92.9254 51.895 93.0305 51.7161 93.1869 51.5945C93.3434 51.4729 93.5393 51.4177 93.7341 51.4405C98.0305 52.1736 99.6669 58.0123 99.8312 58.6428C101.524 58.1536 103.314 58.1439 105.012 58.6146C105.211 57.8662 106.855 52.1659 111.102 51.4379C111.296 51.4152 111.492 51.4703 111.649 51.5919C111.805 51.7136 111.91 51.8924 111.942 52.0915C111.974 52.2906 111.931 52.4947 111.821 52.6616C111.71 52.8286 111.542 52.9457 111.351 52.9886C109.62 53.2834 108.402 54.7828 107.615 56.2309C107.129 57.1306 106.745 58.0842 106.469 59.0734L106.454 59.1349C109.042 60.3011 111.186 62.5797 112.526 65.4965H92.4215C93.7341 62.6182 95.8487 60.355 98.3991 59.1785Z" fill="url(#paint14_linear)"/>
<path opacity="0.47" d="M113.973 73.1269C113.928 74.1875 113.786 75.2414 113.547 76.2744H116.992C117.219 76.2736 117.441 76.3424 117.63 76.4719C117.82 76.6014 117.967 76.7858 118.054 77.0017C118.141 77.2176 118.164 77.4552 118.119 77.6844C118.075 77.9136 117.965 78.1241 117.804 78.289C117.587 78.5084 117.296 78.6317 116.992 78.6324H113.415C113.223 78.634 113.033 78.5837 112.865 78.4863C112.569 79.2486 112.211 79.9842 111.796 80.6855H114.058C114.362 80.6855 114.653 80.8097 114.868 81.0308C115.083 81.2519 115.204 81.5518 115.204 81.8645C115.204 82.1772 115.083 82.4771 114.868 82.6982C114.653 82.9193 114.362 83.0435 114.058 83.0435H110.481C110.352 83.0439 110.223 83.0214 110.1 82.9769C108.07 85.1811 105.398 86.5216 102.474 86.5216C99.5498 86.5216 96.8624 85.176 94.83 82.9615C94.6961 83.0164 94.5532 83.0443 94.409 83.0435H90.8299C90.6794 83.0438 90.5303 83.0136 90.3911 82.9544C90.2519 82.8953 90.1255 82.8085 90.0191 82.6989C89.9126 82.5894 89.8282 82.4593 89.7708 82.3161C89.7133 82.1729 89.6839 82.0194 89.6842 81.8645C89.6839 81.7096 89.7133 81.5561 89.7708 81.4129C89.8282 81.2697 89.9126 81.1396 90.0191 81.03C90.1255 80.9205 90.2519 80.8336 90.3911 80.7745C90.5303 80.7154 90.6794 80.6851 90.8299 80.6855H93.1463C92.7286 79.9744 92.3679 79.2295 92.0678 78.4581C91.8894 78.5729 91.683 78.6334 91.4725 78.6324H87.8934C87.5896 78.6324 87.2982 78.5082 87.0833 78.2871C86.8684 78.066 86.7477 77.7661 86.7477 77.4534C86.7477 77.1407 86.8684 76.8408 87.0833 76.6197C87.2982 76.3986 87.5896 76.2744 87.8934 76.2744H91.3978C91.159 75.2477 91.0172 74.1996 90.9744 73.1448H87.4401C87.285 73.1523 87.13 73.1272 86.9846 73.0713C86.8391 73.0153 86.7062 72.9296 86.5939 72.8193C86.4816 72.7089 86.3921 72.5763 86.3311 72.4294C86.27 72.2825 86.2385 72.1243 86.2385 71.9645C86.2385 71.8047 86.27 71.6466 86.3311 71.4997C86.3921 71.3528 86.4816 71.2201 86.5939 71.1098C86.7062 70.9994 86.8391 70.9137 86.9846 70.8577C87.13 70.8018 87.285 70.7768 87.4401 70.7842H91.0416C91.124 69.8928 91.2773 69.0099 91.4999 68.1442H113.465C113.69 69.0191 113.844 69.9115 113.926 70.8124C114.008 70.7939 114.091 70.7844 114.175 70.7842H117.752C117.907 70.7768 118.062 70.8018 118.207 70.8577C118.353 70.9137 118.486 70.9994 118.598 71.1098C118.71 71.2201 118.8 71.3528 118.861 71.4997C118.922 71.6466 118.953 71.8047 118.953 71.9645C118.953 72.1243 118.922 72.2825 118.861 72.4294C118.8 72.5763 118.71 72.7089 118.598 72.8193C118.486 72.9296 118.353 73.0153 118.207 73.0713C118.062 73.1272 117.907 73.1523 117.752 73.1448H114.165C114.101 73.1453 114.036 73.1393 113.973 73.1269Z" fill="url(#paint15_linear)"/>
<path opacity="0.47" d="M86.282 58.7095C85.2475 58.7095 84.2362 59.0252 83.3761 59.6166C82.516 60.208 81.8456 61.0487 81.4497 62.0322C81.0538 63.0157 80.9502 64.0979 81.152 65.1421C81.3539 66.1862 81.852 67.1452 82.5835 67.898C83.315 68.6507 84.247 69.1634 85.2616 69.3711C86.2762 69.5788 87.3278 69.4722 88.2836 69.0648C89.2393 68.6574 90.0562 67.9675 90.6309 67.0823C91.2056 66.1972 91.5124 65.1565 91.5124 64.092C91.5124 62.6645 90.9613 61.2954 89.9804 60.286C88.9995 59.2766 87.6692 58.7095 86.282 58.7095ZM86.282 60.3191C86.7632 60.3188 87.2398 60.4161 87.6844 60.6054C88.1291 60.7948 88.5331 61.0725 88.8734 61.4226C89.2137 61.7728 89.4835 62.1886 89.6675 62.6462C89.8515 63.1038 89.9461 63.5942 89.9458 64.0894C89.946 64.4181 89.905 64.7455 89.8237 65.0634L83.7041 61.4212C84.0424 61.0723 84.4442 60.7954 84.8865 60.6063C85.3288 60.4172 85.803 60.3196 86.282 60.3191ZM86.282 67.8597C85.7168 67.8593 85.1593 67.7245 84.6531 67.4657C84.147 67.2068 83.7058 66.8311 83.3641 66.3678C83.0224 65.9045 82.7894 65.3662 82.6833 64.7948C82.5773 64.2235 82.601 63.6347 82.7527 63.0744L88.9022 66.7268C88.5606 67.0855 88.1529 67.3705 87.703 67.565C87.2531 67.7595 86.77 67.8597 86.282 67.8597Z" fill="url(#paint16_linear)"/>
<path opacity="0.19" d="M199.144 140.957L199.117 140.977C198.94 141.105 197.996 141.797 196.875 142.515C195.441 143.425 193.707 144.373 192.89 144.271C192.89 144.271 171.655 111.537 169.082 109.09C169.082 109.09 172.038 109.126 175.274 111.502C178.509 113.878 199.144 140.957 199.144 140.957Z" fill="url(#paint17_linear)"/>
</g>
<defs>
<linearGradient id="paint0_linear" x1="99.4975" y1="132.24" x2="100.334" y2="153.747" gradientUnits="userSpaceOnUse">
<stop/>
<stop offset="0.98" stop-opacity="0"/>
</linearGradient>
<linearGradient id="paint1_linear" x1="101.495" y1="28.7622" x2="101.495" y2="159.039" gradientUnits="userSpaceOnUse">
<stop stop-color="white" stop-opacity="0"/>
<stop offset="0.01" stop-color="white" stop-opacity="0.01"/>
<stop offset="0.38" stop-color="white" stop-opacity="0.43"/>
<stop offset="0.67" stop-color="white" stop-opacity="0.74"/>
<stop offset="0.88" stop-color="white" stop-opacity="0.93"/>
<stop offset="0.98" stop-color="white"/>
</linearGradient>
<linearGradient id="paint2_linear" x1="64494.1" y1="7739.88" x2="64553.8" y2="13481.3" gradientUnits="userSpaceOnUse">
<stop/>
<stop offset="0.98" stop-opacity="0"/>
</linearGradient>
<linearGradient id="paint3_linear" x1="127.371" y1="93.6393" x2="182.397" y2="93.6393" gradientUnits="userSpaceOnUse">
<stop stop-color="#183866"/>
<stop offset="1" stop-color="#1A7FC1"/>
</linearGradient>
<linearGradient id="paint4_linear" x1="152.681" y1="106.627" x2="204.696" y2="106.627" gradientUnits="userSpaceOnUse">
<stop stop-color="#ECC4D7"/>
<stop offset="0.42" stop-color="#EFD4D1"/>
<stop offset="1" stop-color="#F2EAC9"/>
</linearGradient>
<linearGradient id="paint5_linear" x1="9316.92" y1="8691.46" x2="6781.52" y2="8876.63" gradientUnits="userSpaceOnUse">
<stop stop-color="#183866"/>
<stop offset="1" stop-color="#1A7FC1"/>
</linearGradient>
<linearGradient id="paint6_linear" x1="28166.9" y1="1763.18" x2="28166.9" y2="1901.14" gradientUnits="userSpaceOnUse">
<stop/>
<stop offset="0.98" stop-opacity="0"/>
</linearGradient>
<linearGradient id="paint7_linear" x1="7257.19" y1="2395.2" x2="7996.71" y2="2395.2" gradientUnits="userSpaceOnUse">
<stop/>
<stop offset="0.98" stop-opacity="0"/>
</linearGradient>
<linearGradient id="paint8_linear" x1="12777.7" y1="2081.89" x2="14619.4" y2="2081.89" gradientUnits="userSpaceOnUse">
<stop/>
<stop offset="0.98" stop-opacity="0"/>
</linearGradient>
<linearGradient id="paint9_linear" x1="6962.81" y1="2291.27" x2="7951.53" y2="3051.59" gradientUnits="userSpaceOnUse">
<stop/>
<stop offset="0.98" stop-opacity="0"/>
</linearGradient>
<linearGradient id="paint10_linear" x1="10294.1" y1="2682.03" x2="11521" y2="2682.03" gradientUnits="userSpaceOnUse">
<stop stop-color="#ECC4D7"/>
<stop offset="0.42" stop-color="#EFD4D1"/>
<stop offset="1" stop-color="#F2EAC9"/>
</linearGradient>
<linearGradient id="paint11_linear" x1="10915.7" y1="2727.84" x2="10912.6" y2="2945.17" gradientUnits="userSpaceOnUse">
<stop stop-color="#ECC4D7"/>
<stop offset="0.42" stop-color="#EFD4D1"/>
<stop offset="1" stop-color="#F2EAC9"/>
</linearGradient>
<linearGradient id="paint12_linear" x1="10403.9" y1="2310.46" x2="10403.9" y2="2408.02" gradientUnits="userSpaceOnUse">
<stop stop-color="#ECC4D7"/>
<stop offset="0.42" stop-color="#EFD4D1"/>
<stop offset="1" stop-color="#F2EAC9"/>
</linearGradient>
<linearGradient id="paint13_linear" x1="8921.67" y1="1996.28" x2="8923.28" y2="2115.86" gradientUnits="userSpaceOnUse">
<stop stop-color="#ECC4D7"/>
<stop offset="0.42" stop-color="#EFD4D1"/>
<stop offset="1" stop-color="#F2EAC9"/>
</linearGradient>
<linearGradient id="paint14_linear" x1="8733.43" y1="2023.43" x2="8070.31" y2="6125.11" gradientUnits="userSpaceOnUse">
<stop/>
<stop offset="0.98" stop-opacity="0"/>
</linearGradient>
<linearGradient id="paint15_linear" x1="14533.1" y1="2695.19" x2="13830.8" y2="8103.8" gradientUnits="userSpaceOnUse">
<stop/>
<stop offset="0.98" stop-opacity="0"/>
</linearGradient>
<linearGradient id="paint16_linear" x1="3970.29" y1="1423.82" x2="3245.08" y2="4473.04" gradientUnits="userSpaceOnUse">
<stop/>
<stop offset="0.98" stop-opacity="0"/>
</linearGradient>
<linearGradient id="paint17_linear" x1="20601" y1="16886.7" x2="24233.8" y2="16886.7" gradientUnits="userSpaceOnUse">
<stop stop-color="#183866"/>
<stop offset="1" stop-color="#1A7FC1"/>
</linearGradient>
<clipPath id="clip0">
<rect width="205" height="159" fill="white"/>
</clipPath>
</defs>
</svg>
