<svg width="205" height="159" viewBox="0 0 205 159" fill="none" xmlns="http://www.w3.org/2000/svg">
<g clip-path="url(#clip0)">
<path opacity="0.18" d="M38.0549 154.582C30.9923 153.388 24.3438 150.356 18.7415 145.772C12.1523 140.433 4.97952 133.239 5.20003 124.309C5.4335 114.845 8.87075 105.729 12.5933 97.1993C17.626 85.68 24.6302 73.5335 22.7754 60.7061C20.9206 47.8788 23.4109 32.5288 29.9741 21.6636C40.3507 4.5516 58.5097 0.40041 76.6688 -2.62581e-05C88.6667 -0.253636 101.015 0.480499 111.949 5.56604C123.441 10.9052 132.702 20.7826 144.376 25.361C152.158 28.3776 160.667 28.9782 168.281 32.3686C177.866 36.6533 185.26 45.1425 190.046 54.6996C194.832 64.2567 197.271 74.8683 199.125 85.3997C202.161 103.206 194.949 125.443 184.559 140.019C177.633 149.71 166.037 160.935 154.117 158.586C93.427 146.733 105.088 165.781 38.0549 154.582Z" fill="#09254F"/>
<path d="M119.991 28.3509L160.654 33.917L132.08 37.0404L119.991 28.3509Z" fill="#09254F"/>
<path d="M132.08 37.0404L134.246 50.1747L137.709 39.2695L160.654 33.917L132.08 37.0404Z" fill="#09254F"/>
<path d="M132.08 37.0404L134.246 50.1747L137.709 39.2695L160.654 33.917L132.08 37.0404Z" fill="url(#paint0_linear)"/>
<path d="M146.361 51.2959L137.709 39.2695L160.654 33.917L146.361 51.2959Z" fill="#09254F"/>
<path d="M134.246 50.1747L142.56 45.9968L137.709 39.2695L134.246 50.1747Z" fill="white"/>
<path opacity="0.59" d="M134.246 50.1747L142.56 45.9968L137.709 39.2695L134.246 50.1747Z" fill="#09254F"/>
<path d="M127.384 51.4427L127.008 49.6942C127.447 49.6052 127.88 49.4893 128.305 49.3471L128.902 51.0156C128.406 51.1917 127.899 51.3344 127.384 51.4427V51.4427Z" fill="#09254F"/>
<path d="M74.6973 132.825C73.7504 132.504 72.8295 132.184 71.9345 131.837L72.5311 130.169C73.4002 130.502 74.3081 130.823 75.2291 131.13L74.6973 132.825ZM66.5257 129.501C65.6177 129.047 64.7357 128.58 63.9315 128.166L64.7487 126.551C65.5399 127.005 66.383 127.459 67.265 127.886L66.5257 129.501ZM136.568 128.407H133.649V126.618L136.516 126.698L136.568 128.407ZM142.404 128.3L142.314 126.525C143.287 126.525 144.246 126.404 145.167 126.311L145.31 128.086C144.402 128.18 143.429 128.246 142.43 128.3H142.404ZM127.851 127.886L124.959 127.579L125.153 125.804C126.113 125.924 127.06 126.017 128.007 126.111L127.851 127.886ZM151.199 127.245L150.9 125.497C151.847 125.323 152.794 125.123 153.689 124.909L154.078 126.645C153.105 126.925 152.133 127.125 151.147 127.299L151.199 127.245ZM159.72 124.896L159.111 123.241C160.019 122.881 160.888 122.507 161.705 122.106L162.457 123.708C161.536 124.189 160.615 124.589 159.669 124.95L159.72 124.896ZM59.0545 124.656C58.2779 124.01 57.5415 123.314 56.8495 122.574L58.1466 121.346C58.79 122.034 59.4744 122.68 60.196 123.281L59.0545 124.656ZM167.542 120.518L166.478 119.103C166.932 118.743 167.373 118.356 167.775 117.955L168.515 117.208L169.721 118.476L168.917 119.263C168.515 119.744 167.983 120.171 167.49 120.571L167.542 120.518ZM53.3993 117.475C52.9578 116.534 52.6102 115.551 52.3617 114.538L54.0478 114.151C54.2407 115.071 54.5322 115.967 54.9169 116.821L53.3993 117.475ZM85.6964 117.048L82.9077 115.873L83.6081 114.245C84.4772 114.632 85.3592 115.019 86.2023 115.392L85.6964 117.048ZM173.664 113.857L172.25 112.83C172.782 112.053 173.263 111.242 173.69 110.4L175.22 111.215C174.74 112.15 174.199 113.051 173.599 113.911L173.664 113.857ZM77.6805 113.35C76.7985 112.91 75.9295 112.456 75.0864 112.015L75.8646 110.534C76.7077 110.988 77.5638 111.441 78.4588 111.869L77.6805 113.35ZM69.937 109.199C69.0939 108.692 68.2508 108.171 67.4466 107.637L68.3675 106.129C69.1588 106.65 69.9889 107.17 70.819 107.677L69.937 109.199ZM53.983 108.678L52.2838 108.345C52.4839 107.327 52.7614 106.328 53.114 105.355L54.7353 105.969C54.4284 106.83 54.1856 107.713 54.0089 108.612L53.983 108.678ZM176.946 105.368L175.22 105.181C175.27 104.738 175.296 104.293 175.298 103.847C175.297 103.4 175.271 102.955 175.22 102.512L176.946 102.325C176.997 102.844 177.023 103.365 177.023 103.887C177.027 104.359 177.01 104.831 176.971 105.301L176.946 105.368ZM62.6085 104.274C61.8173 103.673 61.0261 103.072 60.2738 102.458L61.3374 101.057C62.0767 101.657 62.842 102.245 63.6202 102.832L62.6085 104.274ZM57.3554 100.843L55.9156 99.8555C56.4604 99.0413 57.0571 98.2271 57.6926 97.4129L58.9897 98.5341C58.432 99.2949 57.8612 100.082 57.3554 100.843ZM55.8508 98.5207C55.1244 97.8266 54.424 97.1059 53.7625 96.3984L55.0596 95.1571C55.7081 95.8512 56.3566 96.4919 57.083 97.226L55.8508 98.5207ZM173.612 97.0925C173.178 96.2576 172.688 95.4548 172.146 94.6899L173.547 93.6354C174.136 94.4877 174.669 95.3795 175.143 96.305L173.612 97.0925ZM62.9198 94.2895L61.7395 92.9547C62.4399 92.2873 63.1792 91.6199 63.9445 90.9525L65.047 92.2873C64.3077 92.9814 63.5943 93.6354 62.9198 94.2895ZM49.9491 91.7267C49.3524 90.8991 48.7817 90.0582 48.2759 89.2173L49.7416 88.2696C50.2215 89.0704 50.7662 89.8713 51.337 90.6588L49.9491 91.7267ZM168.372 90.3919C167.71 89.7645 166.984 89.1372 166.219 88.5232L167.282 87.1884C168.087 87.8291 168.839 88.5232 169.539 89.1505L168.372 90.3919ZM69.5868 88.7901L68.6399 87.3219C69.4311 86.7612 70.2613 86.2006 71.0784 85.6534L72.0123 87.1617C71.2341 87.6822 70.365 88.2295 69.5868 88.7901ZM161.536 85.1728C160.745 84.6656 159.915 84.1718 159.072 83.6912L159.915 82.1295C160.784 82.6234 161.64 83.144 162.444 83.6512L161.536 85.1728ZM76.9023 84.1851L76.0851 82.6234C76.9282 82.1429 77.8102 81.6757 78.6793 81.2886L79.4575 82.8904C78.6014 83.2374 77.7194 83.7046 76.9023 84.1718V84.1851ZM45.565 83.8381C45.2018 82.877 44.8775 81.8893 44.6181 80.9282L46.2913 80.461C46.5378 81.3554 46.8361 82.2764 47.1734 83.1306L45.565 83.8381ZM153.974 81.0484L151.38 79.8604L152.055 78.2186C152.95 78.619 153.858 79.0195 154.727 79.4333L153.974 81.0484ZM84.6458 80.3676L83.9713 78.7258C84.8533 78.3387 85.7743 77.9516 86.6692 77.5912L87.3048 79.2464C86.4228 79.5534 85.5019 79.9405 84.6458 80.3276V80.3676ZM146.01 77.698C145.115 77.3777 144.207 77.0573 143.287 76.7503L143.818 75.0551C144.752 75.3621 145.686 75.6958 146.581 76.0162L146.01 77.698ZM92.7006 77.1641L92.1559 75.4689C93.0897 75.1619 94.0236 74.8549 94.9575 74.5746L95.4504 76.2831C94.5814 76.6035 93.6086 76.8972 92.7006 77.1641ZM137.774 75.0418C136.853 74.8015 135.906 74.5613 134.985 74.3477L135.374 72.6125C136.308 72.826 137.268 73.0663 138.215 73.3199L137.774 75.0418ZM43.7491 74.7882C43.7491 74.3077 43.7491 73.8405 43.7491 73.3733C43.7491 72.9061 43.7491 72.2788 43.7491 71.7449L45.4742 71.825C45.4742 72.3322 45.4742 72.8394 45.4742 73.3733C45.4742 73.9072 45.4742 74.2676 45.4742 74.7081L43.7491 74.7882ZM100.989 74.7882L100.6 73.1597C101.547 72.9328 102.507 72.7193 103.453 72.519L103.791 74.2676C102.857 74.3878 101.91 74.6013 100.989 74.8149V74.7882ZM129.369 73.2398L128.305 73.1597L126.567 72.9462L126.749 71.1709L128.552 71.3978L129.654 71.5713L129.369 73.2398ZM109.446 73.2398L109.212 71.4779C110.185 71.3444 111.158 71.2377 112.118 71.1442L112.286 72.9061C111.34 72.9862 110.393 73.1598 109.446 73.2265V73.2398ZM117.994 72.5457V70.7705C118.966 70.7705 119.939 70.7705 120.912 70.7705V72.5591C119.9 72.5057 118.94 72.519 117.994 72.5324V72.5457ZM46.2006 66.1254L44.5144 65.7383C44.7219 64.7372 44.9943 63.7495 45.2926 62.7884L46.9399 63.3491C46.6448 64.2601 46.398 65.1869 46.2006 66.1254V66.1254ZM49.2098 58.1167L47.7181 57.2224C48.2205 56.3402 48.7659 55.4849 49.3524 54.6596L50.7533 55.7141C50.1872 56.4797 49.6632 57.2774 49.1838 58.1033L49.2098 58.1167ZM121.405 51.9366C120.409 51.8848 119.418 51.7734 118.435 51.6029L118.72 49.841C119.639 50.0004 120.565 50.1074 121.496 50.1613L121.405 51.9366ZM54.5018 51.4294L53.3345 50.0946C54.0608 49.4272 54.8261 48.7598 55.6303 48.1458L56.6679 49.574C55.9156 50.1747 55.1763 50.7887 54.5018 51.4294ZM112.74 49.8677C111.822 49.4744 110.926 49.0288 110.055 48.5329L110.886 46.9712C111.704 47.4279 112.544 47.8422 113.402 48.2126L112.74 49.8677ZM61.4412 46.464L60.624 44.8889C61.4801 44.4351 62.3751 43.9813 63.2182 43.5541L63.9186 45.1826C63.1144 45.6097 62.2453 46.0368 61.4412 46.464ZM105.127 45.1292C104.387 44.6088 103.601 44.1619 102.779 43.7944L103.505 42.1793C104.415 42.6166 105.283 43.1394 106.099 43.741L105.127 45.1292ZM69.3144 43.1804L68.8085 41.4719C69.7295 41.1916 70.6893 40.9246 71.6491 40.671L72.0512 42.4062C71.1303 42.6331 70.2094 42.9001 69.3144 43.1804ZM97.4609 41.939C96.5789 41.7255 95.645 41.5386 94.6852 41.3784L94.9575 39.6299C95.9563 39.79 96.9291 39.9903 97.863 40.2172L97.4609 41.939ZM77.7194 41.2984L77.473 39.5364C78.4328 39.403 79.4186 39.2828 80.3914 39.1894L80.5471 40.9647C79.5353 41.1248 78.5885 41.1248 77.7194 41.2984ZM89.0948 40.7778C88.1609 40.7778 87.201 40.6977 86.2412 40.6977V38.9224C87.227 38.9224 88.2128 38.9224 89.1726 39.0025L89.0948 40.7778Z" fill="#09254F"/>
<path d="M81.7663 134.894L80.3135 134.56L80.7416 132.825C81.2085 132.958 81.6625 133.078 82.1294 133.185L81.7663 134.894Z" fill="#09254F"/>
<path d="M99.9253 63.4959C99.8853 64.0975 99.7495 64.6882 99.5232 65.2445C99.3259 65.5537 99.064 65.8137 98.7566 66.0053C98.4491 66.197 98.1039 66.3156 97.7462 66.3524C97.0328 66.4725 96.3065 66.4191 95.5931 66.4858C94.8797 66.5526 94.1015 66.9797 94.1793 67.6604C94.2159 67.8692 94.3004 68.0659 94.4257 68.2344L95.2948 69.7427C95.4073 69.8905 95.4627 70.0759 95.4504 70.2633C95.4504 70.5169 95.1261 70.6504 94.8927 70.7571C94.3045 71.0657 93.7851 71.4968 93.3676 72.023C92.95 72.5492 92.6434 73.1591 92.4671 73.8138C92.1132 75.1238 92.1132 76.5082 92.4671 77.8182C92.478 77.9099 92.5065 77.9985 92.5511 78.0787C92.5956 78.1589 92.6553 78.2292 92.7266 78.2854C92.8457 78.352 92.9802 78.3843 93.1157 78.3788C93.5228 78.45 93.9118 78.6049 94.2594 78.8342C94.6071 79.0636 94.9062 79.3626 95.1391 79.7136C95.5894 80.4418 95.9923 81.1998 96.3454 81.9827C97.3172 83.8584 98.7366 85.4489 100.47 86.6048C102.204 87.7606 104.194 88.4437 106.255 88.5899C106.592 88.6242 106.933 88.5832 107.254 88.4698C107.638 88.27 107.947 87.9466 108.136 87.5488C109.031 85.867 108.771 83.8514 108.836 82.0094C108.832 81.0952 109 80.1888 109.329 79.3398C109.537 78.8593 109.731 78.8326 110.03 78.5523C110.172 78.4561 110.288 78.3254 110.37 78.1718C110.451 78.0182 110.495 77.8463 110.496 77.6713C110.427 77.2173 110.319 76.7706 110.172 76.3366C110.065 75.4978 110.248 74.6469 110.691 73.9339C111.13 73.2359 111.533 72.5141 111.897 71.7716C112.15 71.0814 112.308 70.3579 112.364 69.6226C112.735 67.7461 112.425 65.7949 111.495 64.1366C111.131 63.6068 110.662 63.1626 110.119 62.8335C109.575 62.5045 108.97 62.298 108.343 62.2279C107.829 62.2125 107.317 62.15 106.813 62.041C106.048 61.7874 105.788 60.9731 104.984 60.7062C104.288 60.4562 103.538 60.41 102.818 60.5727C102.116 60.7279 101.472 61.085 100.959 61.6025C100.447 62.1201 100.089 62.7767 99.9253 63.4959Z" fill="#473F47"/>
<path d="M103.83 143.717C104.304 144.143 104.711 144.643 105.036 145.198C105.1 145.301 105.127 145.424 105.114 145.545C105.114 145.732 104.867 145.839 104.673 145.892C103.868 146.106 103.018 146.037 102.257 145.696C101.495 145.355 100.866 144.761 100.47 144.01C99.8696 143.125 99.544 142.073 99.5362 140.994L99.7567 139.258C99.7833 138.989 99.8444 138.724 99.9383 138.471C100.063 138.224 100.225 137.999 100.418 137.804C100.739 137.432 101.126 137.128 101.56 136.909C101.61 136.891 101.665 136.891 101.715 136.909C101.819 136.909 101.871 137.043 101.897 137.136C101.969 137.581 101.943 138.038 101.819 138.471C101.668 139.742 101.957 141.028 102.636 142.102C102.964 142.691 103.365 143.234 103.83 143.717V143.717Z" fill="#F89659"/>
<path d="M108.175 133.893C108.199 134.027 108.252 134.155 108.33 134.266C108.399 134.358 108.488 134.432 108.59 134.48C109.032 134.669 109.516 134.734 109.991 134.667C110.574 134.667 111.145 134.547 111.716 134.453C111.878 134.455 112.038 134.414 112.181 134.335C112.324 134.255 112.445 134.14 112.533 133.999C112.575 133.841 112.563 133.673 112.499 133.522C112.436 133.372 112.324 133.248 112.183 133.172C111.9 133.023 111.591 132.932 111.275 132.905C110.955 132.863 110.659 132.712 110.432 132.478C110.107 132.064 110.25 131.41 109.913 131.009C109.706 130.85 109.465 130.744 109.21 130.7C108.955 130.656 108.693 130.675 108.447 130.756C107.396 131.09 107.954 133.132 108.175 133.893Z" fill="#F89659"/>
<path d="M112.74 117.995C112.676 118.276 112.624 118.556 112.572 118.836C111.988 122.307 111.275 125.764 110.613 129.221C110.531 129.982 110.233 130.701 109.757 131.29C109.627 131.456 109.46 131.587 109.271 131.673C109.081 131.759 108.874 131.797 108.668 131.784H108.551C108.006 131.597 107.695 130.809 107.695 130.022L107.98 115.873C108.025 115.707 108.025 115.532 107.98 115.366C107.873 115.216 107.73 115.096 107.565 115.019C107.176 114.805 106.8 114.578 106.424 114.351C105.269 113.671 104.141 112.936 103.038 112.176C101.56 111.148 100.12 110.067 98.732 108.905C97.7234 108.273 96.9234 107.343 96.4362 106.236C95.9745 104.874 95.4464 103.538 94.8538 102.231C94.1681 100.582 93.3525 98.9925 92.4153 97.4796C92.2985 97.3061 91.8575 96.4251 91.6111 96.3851L101.041 97.4529C101.877 97.4152 102.695 97.7118 103.324 98.2805C104.351 99.5149 105.288 100.827 106.125 102.205C108.084 104.874 110.017 107.637 112.014 110.347C112.834 111.253 113.356 112.402 113.506 113.631C113.394 115.108 113.138 116.571 112.74 117.995V117.995Z" fill="#473F47"/>
<path d="M102.027 138.031C101.899 138.213 101.746 138.375 101.573 138.511C101.306 138.75 101.009 138.952 100.691 139.112H100.6C100.238 139.265 99.8327 139.265 99.4713 139.112C98.5244 138.698 98.8098 136.309 98.7579 135.374C98.6671 133.906 98.5893 132.451 98.4985 130.983C98.3429 128.126 98.1742 125.27 98.0186 122.4C97.9408 121.065 97.85 119.731 97.7851 118.396L97.3052 117.528L97.0847 117.141L96.8253 116.674L96.5529 116.153C96.3972 115.886 96.2416 115.593 96.073 115.286C95.8006 114.765 95.5412 114.218 95.2688 113.684C95.099 113.325 94.9085 112.978 94.6981 112.643C94.6287 112.53 94.5506 112.423 94.4646 112.322C93.9452 111.744 93.386 111.204 92.7914 110.707C90.9973 108.988 89.8031 106.708 89.3931 104.22C89.2855 103.541 89.2421 102.853 89.2634 102.165C89.2772 101.096 89.4433 100.034 89.7562 99.0146C90.0015 98.2869 90.3143 97.5851 90.6901 96.919C90.9853 96.3269 91.3806 95.7935 91.8575 95.344C92.0806 95.1315 92.3344 94.9559 92.6098 94.8234C94.3998 93.9825 96.2157 96.0781 97.4608 97.186C98.706 98.2938 100.859 99.8556 101.534 101.524C102.208 103.193 103.479 117.208 103.479 117.208C103.479 120.652 103.479 124.095 103.285 127.526C103.207 129.568 103.116 131.61 102.922 133.639C102.913 135.15 102.608 136.643 102.027 138.031V138.031Z" fill="#473F47"/>
<path d="M100.691 139.112H100.6C100.238 139.265 99.8327 139.265 99.4713 139.112C98.5244 138.698 98.8098 136.309 98.7579 135.374C98.6671 133.906 98.5893 132.451 98.4985 130.983C98.3429 128.126 98.1742 125.27 98.0186 122.4C97.9408 121.065 97.85 119.731 97.7851 118.396L97.3052 117.528L97.0847 117.141L96.8253 116.674L96.5529 116.153C96.3972 115.886 96.2416 115.593 96.073 115.286L95.1521 113.59L94.4646 112.256C93.9452 111.677 93.386 111.137 92.7914 110.641C91.0097 108.938 89.8165 106.684 89.3931 104.22C89.2855 103.541 89.2421 102.853 89.2634 102.165C89.2772 101.096 89.4433 100.034 89.7562 99.0146C90.0015 98.2869 90.3143 97.5851 90.6901 96.919C90.9853 96.3268 91.3806 95.7935 91.8575 95.3439C91.9619 95.4426 92.0534 95.5548 92.1299 95.6776C93.1157 97.1325 93.0638 99.0413 93.1675 100.817C93.2328 103.031 93.6717 105.217 94.4646 107.277V107.277L94.8148 108.011C94.8616 108.116 94.9135 108.219 94.9705 108.318C96.3226 110.525 97.5232 112.826 98.5634 115.206C100.6 120.545 99.8604 126.391 100.12 132.051C100.2 133.616 100.365 135.176 100.613 136.722C100.766 137.509 100.792 138.316 100.691 139.112V139.112Z" fill="url(#paint1_linear)"/>
<path d="M129.745 95.384C129.213 95.384 128.681 95.384 128.163 95.384C127.618 95.3394 127.083 95.2042 126.58 94.9836C126.1 94.7567 125.698 94.4096 125.205 94.196C124.194 93.7422 123.091 93.5287 122.105 93.0081C120.614 92.2339 119.174 91.353 117.747 90.4853L114.297 88.3764C113.131 87.6901 112.001 86.9416 110.912 86.1339L110.276 85.6267C109.965 85.3597 109.576 85.0661 109.186 85.1862C109.029 85.2632 108.887 85.3721 108.771 85.5066C108.32 86.1427 108.034 86.8871 107.941 87.6689C107.77 88.3503 107.513 89.0055 107.176 89.6177C106.54 90.819 105.944 92.047 105.256 93.2083C104.757 94.3442 104.053 95.3723 103.181 96.2383C102.608 96.5501 101.954 96.6669 101.313 96.572C99.9421 96.3829 98.5566 96.3293 97.1755 96.4118C96.5438 96.565 95.9023 96.6721 95.2558 96.7321C94.2569 96.7103 93.29 96.3646 92.4931 95.7444C91.7927 95.1838 92.104 94.4096 92.3893 93.6755C93.4789 90.7523 94.5554 89.0438 93.2843 86.0405C93.5307 86.6278 88.2517 88.7101 87.5902 88.7101C84.8274 88.7101 83.1801 86.6278 81.1048 85.0127C79.8708 84.0808 78.57 83.2464 77.2136 82.5166C76.8013 82.2697 76.367 82.0641 75.9165 81.9026C75.4885 81.7558 74.9307 81.7692 74.6194 81.4622C74.4897 81.3402 74.3763 81.2011 74.2822 81.0484C74.1102 80.7728 73.9709 80.477 73.8671 80.1674C73.7801 79.7986 73.5961 79.4615 73.3353 79.193C72.944 78.9572 72.4795 78.8855 72.0382 78.9928C71.8012 79.0194 71.5619 79.0194 71.3249 78.9928C71.2798 78.9914 71.2356 78.9799 71.1953 78.9591C71.155 78.9384 71.1195 78.9089 71.0914 78.8727C71.0588 78.8285 71.0411 78.7746 71.0411 78.7192C71.0411 78.6637 71.0588 78.6098 71.0914 78.5657C71.1818 78.5023 71.283 78.457 71.3897 78.4322L73.1667 78.0451C72.6608 77.5913 71.8696 77.7114 71.247 77.4978C71.1631 77.4747 71.0869 77.4286 71.0265 77.3644C70.9961 77.29 70.9954 77.2062 71.0245 77.1313C71.0536 77.0563 71.1103 76.9962 71.1822 76.9639C71.3344 76.9164 71.4969 76.9164 71.6491 76.9639L73.5688 77.1908C72.9981 76.47 71.7788 76.6836 71.1951 75.9762C71.422 75.8199 71.6833 75.7245 71.9552 75.6989C72.2271 75.6732 72.5009 75.7181 72.7516 75.8294C73.4987 75.9391 74.2224 76.1783 74.8918 76.5368C75.2985 76.7805 75.6733 77.0765 76.0073 77.4178C77.2896 78.8501 78.6679 80.1881 80.132 81.4221C81.1555 82.1089 82.2634 82.652 83.4265 83.0372C83.9324 83.2241 84.4642 83.3442 84.9701 83.5177C85.4759 83.6913 86.1115 84.0116 86.6692 84.2519C86.8769 84.3655 87.1085 84.4251 87.3437 84.4254C87.5322 84.3883 87.7124 84.3159 87.8755 84.2118C89.0466 83.4734 90.0827 82.5292 90.9366 81.4221C91.8575 80.3009 92.9341 79.3132 93.9069 78.2453C94.2841 77.7871 94.7531 77.4183 95.2818 77.1641C96.2676 76.8171 97.3182 77.3243 98.3688 77.3644C98.8069 77.3866 99.2447 77.3137 99.6537 77.1505C100.063 76.9872 100.434 76.7372 100.742 76.4167C101.352 75.6825 101.326 74.588 102.04 73.8539C102.44 73.4631 102.939 73.1951 103.479 73.0797C104.072 72.8823 104.649 72.6369 105.204 72.3456C105.645 72.132 106.203 71.9318 106.592 72.2388C106.653 72.2792 106.702 72.3346 106.736 72.4C106.77 72.4653 106.788 72.5384 106.787 72.6125C106.784 72.742 106.744 72.8677 106.67 72.9729C106.394 73.5285 106.148 74.0988 105.931 74.6814C105.651 75.2691 105.543 75.9274 105.619 76.5768C105.801 77.4978 106.917 78.0184 107.669 78.3521C108.758 78.8326 109.965 78.9127 111.054 79.3665C112.141 79.8829 113.115 80.6182 113.921 81.5289C115.218 82.8637 116.294 84.1985 117.475 85.5333C118.071 86.2007 118.681 86.8681 119.343 87.4954C120.221 88.1336 121.15 88.6962 122.118 89.1772C123.189 89.9011 124.312 90.5392 125.478 91.086C126.31 91.4695 127.18 91.7604 128.072 91.9536C128.435 92.0615 128.803 92.1506 129.174 92.2206C129.563 92.2206 129.771 92.0871 130.095 91.8869C130.59 91.6212 131.162 91.55 131.704 91.6866C132.874 91.9542 133.97 92.4929 134.907 93.2617C135.18 93.4486 135.478 93.7289 135.426 94.0626C135.44 94.1059 135.44 94.1527 135.426 94.196C135.322 94.2895 135.167 94.196 135.05 94.1026C134.649 93.8042 134.155 93.6666 133.662 93.7155C134.025 94.0092 134.414 94.3696 134.376 94.8367C134.389 94.8711 134.389 94.9092 134.376 94.9435C134.357 94.9529 134.337 94.9578 134.317 94.9578C134.297 94.9578 134.277 94.9529 134.259 94.9435C133.857 94.9435 133.558 94.5564 133.182 94.3696C132.817 94.1979 132.415 94.1244 132.015 94.156C131.833 94.156 131.25 94.156 131.25 94.3963C131.238 94.4355 131.238 94.4772 131.25 94.5164C131.358 94.6616 131.485 94.7917 131.626 94.9035C131.696 94.9581 131.75 95.0326 131.78 95.1179C131.81 95.2033 131.815 95.2957 131.794 95.384C131.704 95.5709 131.457 95.5976 131.25 95.5842C130.705 95.5575 130.238 95.4374 129.745 95.384Z" fill="#F89659"/>
<path d="M128.111 95.1971C127.969 95.288 127.809 95.3471 127.644 95.3706C127.107 95.3322 126.599 95.1061 126.204 94.7299C124.869 94.0471 123.491 93.4584 122.079 92.968C120.588 92.1938 119.148 91.3129 117.721 90.4452L114.297 88.3763C113.131 87.6901 112.001 86.9416 110.911 86.1339C111.21 86.3608 112.442 84.4387 112.65 84.2652C113.856 83.2507 113.428 85.4264 113.402 86.1606C113.376 86.3062 113.376 86.4555 113.402 86.6011C113.495 86.791 113.645 86.9453 113.83 87.0415C116.009 88.5098 118.253 89.8713 120.562 91.126C121.729 91.7533 122.935 92.3273 124.116 92.9413C125.089 93.4485 126.139 93.7422 127.151 94.156C127.579 94.3295 128.059 94.5964 128.072 95.0636C128.091 95.1058 128.104 95.1508 128.111 95.1971Z" fill="#D57439"/>
<path d="M101.391 74.6147C101.422 75.0819 101.313 75.5476 101.08 75.9495C100.742 76.4166 102.999 77.0306 103.674 76.3633C104.377 75.5501 105.027 74.6895 105.619 73.7871L101.391 74.6147Z" fill="#D57439"/>
<path d="M104.063 74.7749C103.34 75.0642 102.55 75.1247 101.793 74.9484C101.418 74.8532 101.069 74.6732 100.771 74.4215C100.472 74.1698 100.232 73.8527 100.068 73.4935C99.9047 73.0048 99.8386 72.4873 99.8734 71.9718C99.9557 69.4728 100.79 67.0616 102.26 65.0709C102.477 64.7412 102.76 64.4635 103.09 64.2567C103.538 64.0338 104.05 63.9863 104.53 64.1233C105.453 64.3742 106.273 64.927 106.865 65.6983C107.451 66.4584 107.947 67.2873 108.343 68.1677C108.629 68.7149 109.16 69.5825 108.914 70.2232C108.554 70.8154 108.118 71.3543 107.617 71.825C106.717 73.1245 105.488 74.1449 104.063 74.7749V74.7749Z" fill="#F89659"/>
<path d="M104.776 96.4385C104.473 96.9356 104.043 97.3377 103.533 97.6012C103.023 97.8647 102.453 97.9796 101.884 97.9334C99.64 98.1203 97.3831 97.5196 95.1521 97.9334C94.4646 98.0535 93.855 98.2671 93.1027 98.3205H92.9082C92.5306 98.3571 92.1499 98.3026 91.7964 98.1612C91.4429 98.0199 91.1263 97.7956 90.8717 97.5063C90.1713 96.5586 90.6123 95.1971 91.0663 94.0892C91.9094 92.1004 93.4918 89.8179 92.5839 87.6022C92.4672 87.3619 92.3115 87.1483 92.2077 86.9081C92.1011 86.6473 92.027 86.3737 91.9872 86.0938L91.65 84.3853C91.4165 83.2507 91.196 82.1162 90.9625 80.9683C90.9106 80.74 90.9106 80.5024 90.9625 80.2742C91.0769 79.9757 91.2816 79.723 91.5462 79.5534L93.8939 77.6313C94.3507 77.1904 94.9016 76.8658 95.5023 76.6836C96.1396 76.6261 96.7816 76.6621 97.409 76.7904C98.2441 76.7591 99.072 76.6201 99.8734 76.3766C99.9772 76.3766 100.094 76.3766 100.172 76.3766C100.253 76.4574 100.299 76.5677 100.301 76.6836C100.392 77.0589 100.56 77.4095 100.794 77.7114C100.962 77.9242 101.144 78.1249 101.339 78.312L101.586 78.5523L102.999 79.8871C103.296 80.2096 103.642 80.4801 104.024 80.6879C105.321 81.2886 106.242 79.6869 106.177 78.4989C106.103 77.8319 105.909 77.1849 105.607 76.5901C106.203 76.8304 106.8 77.0974 107.396 77.3777C107.937 77.7092 108.501 77.9992 109.083 78.2453C109.991 78.4989 110.86 78.2453 111.677 78.8326C112.756 79.5549 113.749 80.4062 114.634 81.3687L114.037 82.7836C113.246 84.4921 112.325 86.3341 110.639 87.0816C110.198 87.2685 109.744 87.3886 109.342 87.6022C108.616 87.9759 108.538 88.5632 108.214 89.2306C107.656 90.3919 107.098 91.5531 106.592 92.7277C106.086 94.0132 105.478 95.2541 104.776 96.4385V96.4385Z" fill="white"/>
<path d="M107.124 79.7403C107.229 79.6085 107.362 79.5034 107.513 79.4333C107.636 79.3999 107.766 79.3999 107.889 79.4333C109.524 79.5667 111.158 79.7536 112.779 79.9805C110.769 78.1385 107.591 78.2186 105.438 76.6569C105.14 77.2309 105.438 77.8983 105.594 78.5256C105.684 79.0913 105.684 79.6685 105.594 80.2341C105.868 80.2996 106.155 80.2884 106.424 80.2015C106.693 80.1147 106.935 79.9555 107.124 79.7403Z" fill="url(#paint2_linear)"/>
<path d="M75.4106 81.1685C75.0519 81.2649 74.6719 81.232 74.334 81.0751C74.1596 80.8009 74.0201 80.5048 73.919 80.1941C73.8319 79.8253 73.6479 79.4882 73.3872 79.2197C72.9954 78.9852 72.5314 78.9136 72.0901 79.0195C72.335 78.8602 72.6175 78.7725 72.9072 78.7659C73.063 78.7609 73.2153 78.717 73.3509 78.638C73.4865 78.5589 73.6013 78.447 73.6855 78.3121C73.6855 78.2053 73.6855 78.0718 73.8152 77.9784C73.9449 77.8849 74.1524 77.8582 74.334 77.8849C74.7006 77.9759 75.057 78.1056 75.3976 78.272C75.6421 78.3645 75.8667 78.5051 76.0591 78.6858C76.1519 78.7572 76.2296 78.8473 76.2876 78.9505C76.3456 79.0538 76.3826 79.1681 76.3964 79.2865C76.2796 79.2865 76.111 79.153 75.9943 79.0862C75.8457 79.0067 75.6891 78.944 75.5273 78.8994C75.1977 78.8089 74.8556 78.7773 74.5156 78.8059C74.5156 78.8059 74.4118 78.8059 74.3989 78.8059C74.3859 78.8059 74.3989 78.9261 74.4767 78.9661C74.9566 79.3532 75.5662 79.5401 76.0332 79.9538C76.1092 79.9998 76.1684 80.0701 76.2018 80.1541C76.2465 80.2652 76.2465 80.39 76.2018 80.5011C76.1383 80.6739 76.0318 80.8266 75.8929 80.9437C75.7541 81.0608 75.5877 81.1383 75.4106 81.1685V81.1685Z" fill="#D57439"/>
<path d="M113.415 133.305C113.219 133.192 113.002 133.124 112.778 133.106C112.554 133.087 112.329 133.119 112.118 133.199C111.923 133.334 111.737 133.481 111.56 133.639C111.002 133.866 110.38 133.866 109.822 133.639C109.209 133.442 108.579 133.303 107.941 133.225C107.941 133.225 107.941 134.56 108.175 134.68C108.48 134.79 108.799 134.853 109.122 134.867C110.413 135.038 111.721 135.038 113.013 134.867C113.376 134.787 114.595 134.587 114.764 134.173C114.932 133.759 113.752 133.425 113.415 133.305Z" fill="#09254F"/>
<path d="M105.905 145.452C106.139 145.72 106.288 146.055 106.333 146.413C106.339 146.538 106.302 146.66 106.229 146.76C106.142 146.827 106.039 146.869 105.931 146.88C105.078 147.073 104.199 147.1 103.337 146.96C102.486 146.823 101.708 146.39 101.132 145.732C100.755 145.265 100.509 144.704 100.159 144.224C99.8086 143.743 99.4843 143.436 99.2119 142.996C98.9395 142.555 99.2119 141.768 99.4195 141.287C99.6529 141.287 99.5751 141.755 99.6789 141.968C100.032 142.753 100.535 143.456 101.158 144.037C101.424 144.351 101.75 144.606 102.116 144.785C102.482 144.964 102.88 145.064 103.285 145.078C103.432 145.078 103.577 145.042 103.708 144.972C103.839 144.903 103.952 144.802 104.037 144.678C104.167 144.464 104.037 143.97 104.258 143.89C104.478 143.81 105.697 145.238 105.905 145.452Z" fill="#09254F"/>
<path d="M108.719 131.784H108.603C108.058 131.597 107.747 130.809 107.747 130.022L107.98 115.873C108.025 115.707 108.025 115.532 107.98 115.366C107.873 115.216 107.73 115.096 107.565 115.019C107.176 114.805 106.8 114.578 106.424 114.351C105.269 113.671 104.141 112.936 103.038 112.176L102.364 106.529C102.364 106.529 109.199 111.188 109.913 113.377C110.626 115.566 108.719 131.784 108.719 131.784Z" fill="url(#paint3_linear)"/>
<path d="M105.464 68.755C105.979 68.951 106.508 69.1072 107.046 69.2221C107.578 69.409 108.11 69.8228 108.123 70.3834C108.577 70.3834 108.823 69.8495 108.953 69.409C109.216 68.6728 109.39 67.9063 109.472 67.1265C109.545 66.3447 109.362 65.5602 108.953 64.8974C108.214 63.8162 105.477 61.7874 104.608 63.6828C103.946 65.151 103.868 67.9007 105.464 68.755Z" fill="#473F47"/>
<path d="M119.226 126.818C118.266 126.658 117.306 126.498 116.346 126.311L116.658 124.562C117.604 124.736 118.551 124.909 119.498 125.056L119.226 126.818Z" fill="#09254F"/>
<path d="M110.6 125.136C109.653 124.923 108.719 124.696 107.773 124.456L108.175 122.734L110.976 123.401L110.6 125.136Z" fill="#09254F"/>
<path d="M102.13 122.947L99.3287 122.106L99.8345 120.398C100.755 120.692 101.676 120.959 102.597 121.225L102.13 122.947Z" fill="#09254F"/>
<path d="M93.7902 120.264C92.8822 119.944 91.9613 119.61 91.0533 119.263L91.65 117.595L94.3609 118.583L93.7902 120.264Z" fill="#09254F"/>
<path d="M136.282 96.4652L149.629 67.3935L173.469 73.2399L159.889 102.632L136.282 96.4652Z" fill="#09254F"/>
<path d="M36.4206 33.917L77.4081 20.449L87.655 64.0432L53.3474 82.1162L36.4206 33.917Z" fill="white"/>
<path d="M34.0469 120.264L53.5419 132.825L60.0922 110.467L38.5867 95.3707L34.0469 120.264Z" fill="#09254F"/>
<path d="M136.607 144.171L140.316 119.17L168.515 117.261L162.457 141.448L136.607 144.171Z" fill="white"/>
<path d="M145.842 92.3007L143.377 91.7267L145.31 87.7891L147.787 88.363L145.842 92.3007Z" fill="white"/>
<path d="M148.89 92.9947L146.412 92.4341L150.368 84.412L152.846 84.9727L148.89 92.9947Z" fill="#09254F"/>
<path d="M151.938 93.7021L149.461 93.1282L151.873 88.2429L154.338 88.8168L151.938 93.7021Z" fill="white"/>
<path d="M154.973 94.4096L152.509 93.8356L157.723 83.2775L160.187 83.8514L154.973 94.4096Z" fill="#09254F"/>
<path d="M148.89 92.9947L146.412 92.4341L150.368 84.412L152.846 84.9727L148.89 92.9947Z" fill="url(#paint4_linear)"/>
<path d="M154.973 94.4096L152.509 93.8356L157.723 83.2775L160.187 83.8514L154.973 94.4096Z" fill="url(#paint5_linear)"/>
<path d="M158.021 95.1171L155.557 94.5431L162.224 81.035L164.688 81.609L158.021 95.1171Z" fill="white"/>
<path d="M57.1868 48.1592C57.181 46.9976 57.4246 45.849 57.9002 44.7955L53.075 42.0592C52.157 43.9535 51.6818 46.0424 51.6872 48.1592C51.6968 51.2255 52.6975 54.2013 54.5315 56.6179C56.3656 59.0345 58.9288 60.7546 61.8173 61.5071L62.8031 55.8609C61.1896 55.3641 59.7734 54.348 58.7625 52.9618C57.7516 51.5756 57.1993 49.8923 57.1868 48.1592V48.1592Z" fill="#473F47"/>
<path opacity="0.18" d="M76.578 55.2602C75.3786 57.3017 73.6864 58.9892 71.6659 60.1587C69.6454 61.3281 67.3652 61.9398 65.047 61.9342C63.9358 61.9345 62.8289 61.791 61.7524 61.507L62.7382 55.8609C63.4872 56.0918 64.2651 56.2087 65.047 56.2079C66.3702 56.2105 67.6726 55.8694 68.8335 55.216C69.9944 54.5627 70.9762 53.6183 71.688 52.4705L76.578 55.2602Z" fill="#09254F"/>
<path d="M78.4847 48.1592C78.488 50.6605 77.8289 53.1155 76.578 55.2602L71.688 52.5239C72.278 51.5874 72.6735 50.5355 72.8499 49.4343C73.0263 48.333 72.9797 47.2062 72.713 46.1243C72.4463 45.0425 71.9653 44.029 71.3001 43.1475C70.635 42.2659 69.8 41.5353 68.8475 41.0015C67.8951 40.4676 66.8457 40.142 65.7653 40.0451C64.6848 39.9481 63.5965 40.082 62.5687 40.4382C61.5408 40.7944 60.5956 41.3653 59.7922 42.1151C58.9889 42.8649 58.3447 43.7775 57.9001 44.7955L53.075 42.0592C54.4122 39.2575 56.6319 37.0043 59.3725 35.6669C62.1131 34.3294 65.2131 33.9864 68.1673 34.6938C71.1216 35.4012 73.756 37.1173 75.6413 39.5625C77.5266 42.0077 78.5517 45.0378 78.5495 48.1592H78.4847Z" fill="#09254F"/>
<path d="M145.167 136.455C145.164 136.379 145.176 136.303 145.203 136.232C145.229 136.16 145.27 136.096 145.323 136.042C145.564 135.789 145.739 135.476 145.829 135.134C145.884 134.919 145.872 134.691 145.796 134.483C145.719 134.274 145.581 134.096 145.401 133.973C145.179 133.801 144.929 133.674 144.661 133.599C144.529 133.562 144.414 133.476 144.338 133.358C144.261 133.241 144.229 133.099 144.246 132.958C144.246 132.785 144.246 132.598 144.246 132.424C144.251 132.344 144.272 132.265 144.306 132.192C144.341 132.12 144.389 132.055 144.448 132.002C144.507 131.948 144.576 131.907 144.65 131.881C144.725 131.856 144.804 131.845 144.882 131.85C145.137 131.847 145.389 131.788 145.621 131.677C145.871 131.578 146.075 131.385 146.193 131.138C146.311 130.89 146.334 130.606 146.257 130.342C146.194 130.108 146.112 129.88 146.01 129.661C145.951 129.535 145.936 129.39 145.969 129.254C146.003 129.117 146.081 128.997 146.192 128.914C146.327 128.814 146.457 128.708 146.581 128.593C146.696 128.503 146.838 128.453 146.983 128.453C147.129 128.453 147.27 128.503 147.385 128.593C147.575 128.791 147.8 128.949 148.047 129.061C148.272 129.159 148.523 129.176 148.759 129.108C148.995 129.04 149.201 128.892 149.344 128.687C149.515 128.445 149.642 128.174 149.72 127.886C149.764 127.752 149.855 127.639 149.974 127.568C150.093 127.496 150.233 127.472 150.369 127.499H150.887C151.026 127.512 151.155 127.579 151.249 127.685C151.342 127.791 151.394 127.93 151.393 128.073C151.407 128.418 151.496 128.755 151.653 129.061C151.768 129.258 151.939 129.415 152.142 129.511C152.346 129.606 152.574 129.635 152.794 129.595C153.047 129.54 153.291 129.45 153.52 129.328C153.654 129.248 153.812 129.224 153.962 129.261C154.112 129.298 154.242 129.394 154.325 129.528C154.415 129.688 154.558 129.822 154.662 129.982C154.732 130.094 154.763 130.227 154.752 130.36C154.74 130.493 154.686 130.618 154.597 130.716C154.4 130.922 154.246 131.168 154.143 131.437C154.028 131.699 154.018 131.997 154.115 132.267C154.212 132.537 154.409 132.756 154.662 132.878C154.851 132.993 155.051 133.087 155.258 133.158C155.382 133.194 155.49 133.272 155.565 133.378C155.64 133.485 155.678 133.614 155.674 133.746C155.674 133.959 155.674 134.173 155.596 134.4C155.577 134.54 155.508 134.668 155.402 134.759C155.297 134.851 155.163 134.898 155.025 134.894C154.719 134.907 154.419 134.985 154.143 135.121C153.933 135.223 153.762 135.393 153.657 135.606C153.551 135.818 153.517 136.061 153.559 136.295C153.601 136.569 153.684 136.835 153.806 137.083C153.848 137.149 153.877 137.223 153.891 137.301C153.905 137.379 153.904 137.459 153.887 137.536C153.87 137.614 153.838 137.687 153.793 137.751C153.747 137.815 153.69 137.869 153.624 137.91L153.261 138.191C153.154 138.3 153.01 138.361 152.859 138.361C152.708 138.361 152.564 138.3 152.457 138.191C152.245 137.983 151.993 137.824 151.717 137.723C151.487 137.63 151.231 137.621 150.995 137.699C150.759 137.777 150.556 137.936 150.42 138.151C150.26 138.38 150.141 138.638 150.07 138.911C150.031 139.042 149.949 139.154 149.837 139.227C149.725 139.3 149.592 139.331 149.461 139.312L148.851 139.232C148.727 139.209 148.613 139.143 148.529 139.047C148.444 138.95 148.393 138.827 148.384 138.698C148.38 138.375 148.309 138.056 148.176 137.764C148.07 137.516 147.879 137.318 147.64 137.207C147.4 137.096 147.13 137.081 146.879 137.163C146.635 137.232 146.396 137.321 146.166 137.43C146.049 137.491 145.916 137.512 145.787 137.487C145.658 137.463 145.541 137.396 145.453 137.296C145.323 137.123 145.193 136.963 145.076 136.776C145.018 136.672 144.974 136.559 144.947 136.442L145.167 136.455ZM150.018 131.45C149.643 131.447 149.276 131.559 148.963 131.772C148.65 131.984 148.405 132.288 148.26 132.644C148.114 133 148.075 133.392 148.146 133.771C148.218 134.15 148.397 134.498 148.662 134.772C148.926 135.046 149.263 135.233 149.631 135.309C149.999 135.385 150.38 135.348 150.727 135.2C151.074 135.053 151.37 134.804 151.579 134.483C151.788 134.162 151.899 133.785 151.899 133.399C151.899 133.141 151.849 132.885 151.752 132.647C151.656 132.409 151.514 132.193 151.335 132.011C151.157 131.83 150.945 131.687 150.712 131.591C150.479 131.494 150.23 131.446 149.979 131.45H150.018Z" fill="#09254F"/>
<path d="M159.513 130.796C159.519 130.871 159.519 130.947 159.513 131.023C159.509 131.115 159.475 131.204 159.416 131.274C159.357 131.344 159.277 131.392 159.189 131.41L158.799 131.517C158.698 131.545 158.59 131.535 158.494 131.489C158.399 131.442 158.323 131.362 158.281 131.263C158.19 131.103 158.099 130.943 157.995 130.796C157.927 130.702 157.841 130.624 157.742 130.566C157.643 130.508 157.533 130.472 157.42 130.46C157.307 130.447 157.193 130.459 157.084 130.494C156.976 130.528 156.875 130.586 156.789 130.662C156.659 130.763 156.537 130.874 156.426 130.996C156.358 131.076 156.265 131.13 156.163 131.147C156.062 131.164 155.957 131.144 155.868 131.09L155.557 130.903C155.448 130.848 155.365 130.752 155.324 130.635C155.282 130.518 155.287 130.389 155.336 130.275C155.4 130.09 155.439 129.897 155.453 129.701C155.468 129.488 155.402 129.277 155.269 129.113C155.136 128.949 154.946 128.844 154.74 128.82C154.537 128.807 154.333 128.807 154.13 128.82C154.029 128.818 153.932 128.777 153.858 128.705C153.784 128.634 153.737 128.537 153.728 128.433C153.71 128.32 153.684 128.209 153.65 128.1C153.618 127.991 153.626 127.875 153.671 127.772C153.716 127.669 153.796 127.586 153.897 127.539C154.091 127.443 154.27 127.317 154.428 127.165C154.57 127.034 154.659 126.855 154.681 126.661C154.702 126.467 154.654 126.271 154.545 126.111C154.44 125.967 154.327 125.829 154.208 125.697C154.153 125.661 154.107 125.614 154.072 125.558C154.036 125.503 154.013 125.44 154.003 125.374C153.993 125.308 153.997 125.241 154.015 125.177C154.032 125.113 154.063 125.054 154.104 125.003L154.26 124.709C154.317 124.612 154.406 124.54 154.511 124.505C154.616 124.471 154.729 124.477 154.83 124.522C155.051 124.618 155.292 124.655 155.531 124.629C155.694 124.625 155.852 124.565 155.978 124.458C156.105 124.352 156.194 124.206 156.231 124.042C156.279 123.823 156.301 123.599 156.296 123.375C156.287 123.272 156.312 123.169 156.366 123.082C156.42 122.995 156.5 122.929 156.594 122.894L157.048 122.787C157.152 122.758 157.262 122.77 157.356 122.823C157.45 122.875 157.521 122.963 157.554 123.067C157.655 123.307 157.811 123.518 158.008 123.682C158.153 123.808 158.337 123.877 158.527 123.877C158.717 123.877 158.901 123.808 159.046 123.682C159.163 123.59 159.272 123.487 159.37 123.375C159.438 123.291 159.531 123.233 159.635 123.212C159.739 123.19 159.847 123.205 159.941 123.254L160.317 123.481C160.404 123.537 160.469 123.622 160.5 123.723C160.531 123.823 160.526 123.932 160.486 124.029C160.403 124.245 160.363 124.477 160.369 124.709C160.37 124.911 160.441 125.105 160.57 125.257C160.698 125.409 160.876 125.508 161.069 125.537H161.614C161.724 125.525 161.833 125.558 161.92 125.627C162.007 125.697 162.065 125.798 162.081 125.911C162.081 126.044 162.146 126.178 162.172 126.311C162.201 126.41 162.191 126.517 162.145 126.609C162.099 126.701 162.021 126.771 161.925 126.805C161.715 126.897 161.525 127.034 161.368 127.205C161.245 127.328 161.165 127.489 161.142 127.663C161.118 127.837 161.152 128.014 161.238 128.166C161.35 128.353 161.485 128.523 161.64 128.674C161.732 128.748 161.794 128.855 161.813 128.973C161.832 129.092 161.808 129.214 161.744 129.314L161.562 129.621C161.537 129.675 161.502 129.722 161.459 129.761C161.416 129.8 161.366 129.83 161.312 129.849C161.257 129.867 161.2 129.875 161.142 129.87C161.085 129.865 161.029 129.849 160.979 129.822C160.7 129.729 160.401 129.729 160.122 129.822C159.981 129.865 159.855 129.948 159.756 130.061C159.658 130.174 159.592 130.313 159.565 130.462C159.551 130.613 159.551 130.765 159.565 130.916L159.513 130.796ZM157.905 125.67C157.718 125.669 157.533 125.705 157.359 125.777C157.186 125.85 157.029 125.956 156.896 126.092C156.764 126.227 156.658 126.388 156.587 126.565C156.515 126.743 156.478 126.933 156.478 127.125C156.475 127.416 156.557 127.701 156.712 127.945C156.867 128.188 157.089 128.378 157.349 128.491C157.61 128.604 157.897 128.635 158.175 128.58C158.452 128.525 158.708 128.386 158.909 128.182C159.11 127.977 159.247 127.715 159.303 127.43C159.359 127.145 159.331 126.849 159.224 126.58C159.116 126.311 158.933 126.081 158.699 125.919C158.464 125.757 158.187 125.67 157.905 125.67V125.67Z" fill="#09254F"/>
<path d="M45.2666 120.318C48.655 120.318 51.4018 117.491 51.4018 114.004C51.4018 110.517 48.655 107.691 45.2666 107.691C41.8783 107.691 39.1315 110.517 39.1315 114.004C39.1315 117.491 41.8783 120.318 45.2666 120.318Z" fill="#473F47"/>
<path d="M45.2925 106.529V114.245L51.8946 109.346C51.8946 109.346 48.8465 105.929 45.2925 106.529Z" fill="white"/>
<path d="M88.07 135.468L79.9374 137.817L82.752 143.41L88.524 141.741L88.07 135.468Z" fill="#09254F"/>
<path d="M88.07 135.468L79.9374 137.817L82.752 143.41L88.524 141.741L88.07 135.468Z" fill="url(#paint6_linear)"/>
<path d="M74.8659 123.775C74.7926 124.255 74.8372 124.746 74.9956 125.203C75.4593 127.354 76.2845 129.405 77.4341 131.263C79.237 133.933 82.0517 135.601 84.7755 137.216C84.542 137.016 84.581 135.534 84.542 135.201L84.3475 133.225C84.1816 132.182 83.7868 131.191 83.1931 130.329C82.0048 128.316 80.3688 126.624 78.4199 125.39C77.3153 124.682 76.1187 124.138 74.8659 123.775V123.775Z" fill="#09254F"/>
<path d="M74.8659 123.775C74.7926 124.255 74.8372 124.746 74.9956 125.203C75.4593 127.354 76.2845 129.405 77.4341 131.263C79.237 133.933 82.0517 135.601 84.7755 137.216C84.542 137.016 84.581 135.534 84.542 135.201L84.3475 133.225C84.1816 132.182 83.7868 131.191 83.1931 130.329C82.0048 128.316 80.3688 126.624 78.4199 125.39C77.3153 124.682 76.1187 124.138 74.8659 123.775V123.775Z" fill="url(#paint7_linear)"/>
<path d="M86.0726 127.886C86.3497 126.121 86.3976 124.325 86.2153 122.547C86.0093 120.737 85.1136 119.086 83.7249 117.955L81.6885 125.323C81.2241 126.721 80.9747 128.185 80.9492 129.661C81.0568 131.115 81.4585 132.53 82.1286 133.815C82.7987 135.1 83.7224 136.227 84.8404 137.123C85.4889 136.068 85.3462 134.173 85.4889 132.932L86.0726 127.886Z" fill="#09254F"/>
<path d="M86.0726 127.886C86.3497 126.121 86.3976 124.325 86.2153 122.547C86.0093 120.737 85.1136 119.086 83.7249 117.955L81.6885 125.323C81.2241 126.721 80.9747 128.185 80.9492 129.661C81.0568 131.115 81.4585 132.53 82.1286 133.815C82.7987 135.1 83.7224 136.227 84.8404 137.123C85.4889 136.068 85.3462 134.173 85.4889 132.932L86.0726 127.886Z" fill="url(#paint8_linear)"/>
<path d="M87.8199 133.331L79.0929 135.861C78.362 136.073 77.9356 136.851 78.1405 137.6C78.3454 138.349 79.104 138.784 79.8349 138.572L88.5619 136.042C89.2928 135.831 89.7192 135.052 89.5143 134.303C89.3094 133.555 88.5508 133.12 87.8199 133.331Z" fill="#09254F"/>
</g>
<defs>
<linearGradient id="paint0_linear" x1="132.08" y1="42.0459" x2="160.654" y2="42.0459" gradientUnits="userSpaceOnUse">
<stop offset="0.01"/>
<stop offset="0.08" stop-opacity="0.69"/>
<stop offset="0.21" stop-opacity="0.32"/>
<stop offset="1" stop-opacity="0"/>
</linearGradient>
<linearGradient id="paint1_linear" x1="-3096.09" y1="3841.99" x2="78.3907" y2="4845.45" gradientUnits="userSpaceOnUse">
<stop offset="0.01"/>
<stop offset="0.08" stop-opacity="0.69"/>
<stop offset="0.21" stop-opacity="0.32"/>
<stop offset="1" stop-opacity="0"/>
</linearGradient>
<linearGradient id="paint2_linear" x1="-1334.37" y1="36.7893" x2="-1002.89" y2="733.418" gradientUnits="userSpaceOnUse">
<stop offset="0.01"/>
<stop offset="0.08" stop-opacity="0.69"/>
<stop offset="0.21" stop-opacity="0.32"/>
<stop offset="1" stop-opacity="0"/>
</linearGradient>
<linearGradient id="paint3_linear" x1="-1587.19" y1="3092.36" x2="-1279.09" y2="3113.79" gradientUnits="userSpaceOnUse">
<stop offset="0.01"/>
<stop offset="0.08" stop-opacity="0.69"/>
<stop offset="0.21" stop-opacity="0.32"/>
<stop offset="1" stop-opacity="0"/>
</linearGradient>
<linearGradient id="paint4_linear" x1="-2866.91" y1="328.923" x2="-2739.59" y2="652.701" gradientUnits="userSpaceOnUse">
<stop offset="0.01"/>
<stop offset="0.08" stop-opacity="0.69"/>
<stop offset="0.21" stop-opacity="0.32"/>
<stop offset="1" stop-opacity="0"/>
</linearGradient>
<linearGradient id="paint5_linear" x1="-3610.76" y1="433.291" x2="-3438.59" y2="832.406" gradientUnits="userSpaceOnUse">
<stop offset="0.01"/>
<stop offset="0.08" stop-opacity="0.69"/>
<stop offset="0.21" stop-opacity="0.32"/>
<stop offset="1" stop-opacity="0"/>
</linearGradient>
<linearGradient id="paint6_linear" x1="4151.89" y1="9.0101" x2="4258.71" y2="145.946" gradientUnits="userSpaceOnUse">
<stop offset="0.01"/>
<stop offset="0.08" stop-opacity="0.69"/>
<stop offset="0.21" stop-opacity="0.32"/>
<stop offset="1" stop-opacity="0"/>
</linearGradient>
<linearGradient id="paint7_linear" x1="87.4309" y1="126.637" x2="64.9099" y2="137.149" gradientUnits="userSpaceOnUse">
<stop offset="0.01"/>
<stop offset="0.13" stop-opacity="0.69"/>
<stop offset="0.25" stop-opacity="0.32"/>
<stop offset="1" stop-opacity="0"/>
</linearGradient>
<linearGradient id="paint8_linear" x1="-3983.52" y1="17024.5" x2="-3773.19" y2="17023.9" gradientUnits="userSpaceOnUse">
<stop offset="0.01"/>
<stop offset="0.13" stop-opacity="0.69"/>
<stop offset="0.25" stop-opacity="0.32"/>
<stop offset="1" stop-opacity="0"/>
</linearGradient>
<clipPath id="clip0">
<rect width="205" height="159" fill="white"/>
</clipPath>
</defs>
</svg>
