<svg width="60" height="60" viewBox="0 0 60 60" fill="none" xmlns="http://www.w3.org/2000/svg">
<path d="M47.5575 42.4425C46.3866 41.3209 45.247 40.1672 44.14 38.9825C43.21 38.0375 42.65 37.35 42.65 37.35L35.65 34.0075C38.4525 30.8291 39.9992 26.7375 40 22.5C40 12.8525 32.15 5 22.5 5C12.85 5 5 12.8525 5 22.5C5 32.1475 12.85 40 22.5 40C26.9075 40 30.925 38.35 34.0075 35.6525L37.35 42.6525C37.35 42.6525 38.0375 43.2125 38.9825 44.1425C39.95 45.05 41.2225 46.2775 42.4425 47.56L45.8375 51.04L47.3475 52.655L52.65 47.3525L51.035 45.8425C50.0875 44.9125 48.8225 43.6775 47.5575 42.4425ZM22.5 35C15.6075 35 10 29.3925 10 22.5C10 15.6075 15.6075 10 22.5 10C29.3925 10 35 15.6075 35 22.5C35 29.3925 29.3925 35 22.5 35Z" fill="#091B48"/>
</svg>
