<svg width="25" height="25" viewBox="0 0 25 25" fill="none" xmlns="http://www.w3.org/2000/svg">
<path d="M12.5 0.6875C9.37883 0.725156 6.3961 1.98177 4.18894 4.18894C1.98177 6.3961 0.725156 9.37883 0.6875 12.5C0.725156 15.6212 1.98177 18.6039 4.18894 20.8111C6.3961 23.0182 9.37883 24.2748 12.5 24.3125C15.6212 24.2748 18.6039 23.0182 20.8111 20.8111C23.0182 18.6039 24.2748 15.6212 24.3125 12.5C24.2748 9.37883 23.0182 6.3961 20.8111 4.18894C18.6039 1.98177 15.6212 0.725156 12.5 0.6875ZM19.25 13.3438H13.3438V19.25H11.6562V13.3438H5.75V11.6562H11.6562V5.75H13.3438V11.6562H19.25V13.3438Z" fill="white"/>
</svg>
