<svg width="38" height="38" viewBox="0 0 38 38" fill="none" xmlns="http://www.w3.org/2000/svg">
<path d="M10.8058 26.2625L17.618 26.2394L32.4867 11.5127C33.0702 10.9292 33.3913 10.1543 33.3913 9.32996C33.3913 8.50564 33.0702 7.73071 32.4867 7.1472L30.0384 4.69894C28.8714 3.53192 26.8353 3.53809 25.6775 4.6943L10.8058 19.424V26.2625ZM27.8557 6.88169L30.3086 9.32533L27.8433 11.7674L25.3951 9.3207L27.8557 6.88169ZM13.8931 20.7115L23.2015 11.4911L25.6498 13.9394L16.3429 23.1567L13.8931 23.1644V20.7115Z" fill="#091B48"/>
<path d="M7.71833 32.4172H29.3298C31.0324 32.4172 32.4171 31.0325 32.4171 29.3298V15.9493L29.3298 19.0366V29.3298H12.5933C12.5531 29.3298 12.5114 29.3453 12.4713 29.3453C12.4204 29.3453 12.3694 29.3314 12.3169 29.3298H7.71833V7.71838H18.2879L21.3752 4.63103H7.71833C6.01566 4.63103 4.63098 6.0157 4.63098 7.71838V29.3298C4.63098 31.0325 6.01566 32.4172 7.71833 32.4172Z" fill="#091B48"/>
</svg>
