<svg width="31" height="35" viewBox="0 0 31 35" fill="none" xmlns="http://www.w3.org/2000/svg">
<path fill-rule="evenodd" clip-rule="evenodd" d="M30.5749 6.94654C30.5749 7.56065 30.331 8.14961 29.8967 8.58385C29.4625 9.01809 28.8735 9.26205 28.2594 9.26205H27.1017V30.1017C27.1017 31.3299 26.6137 32.5078 25.7453 33.3763C24.8768 34.2448 23.6989 34.7327 22.4706 34.7327H8.57756C7.34933 34.7327 6.17142 34.2448 5.30293 33.3763C4.43444 32.5078 3.94653 31.3299 3.94653 30.1017V9.26205H2.78878C2.17467 9.26205 1.58571 9.01809 1.15146 8.58385C0.717222 8.14961 0.473267 7.56065 0.473267 6.94654V4.63102C0.473267 4.01691 0.717222 3.42795 1.15146 2.99371C1.58571 2.55947 2.17467 2.31551 2.78878 2.31551H10.8931C10.8931 1.7014 11.137 1.11244 11.5713 0.678198C12.0055 0.243955 12.5945 0 13.2086 0L17.8396 0C18.4537 0 19.0427 0.243955 19.4769 0.678198C19.9112 1.11244 20.1551 1.7014 20.1551 2.31551H28.2594C28.8735 2.31551 29.4625 2.55947 29.8967 2.99371C30.331 3.42795 30.5749 4.01691 30.5749 4.63102V6.94654ZM6.53528 9.26205L6.26205 9.39866V30.1017C6.26205 30.7158 6.506 31.3047 6.94024 31.739C7.37449 32.1732 7.96345 32.4172 8.57756 32.4172H22.4706C23.0847 32.4172 23.6737 32.1732 24.1079 31.739C24.5422 31.3047 24.7861 30.7158 24.7861 30.1017V9.39866L24.5129 9.26205H6.53528ZM2.78878 6.94654V4.63102H28.2594V6.94654H2.78878Z" fill="#C12222"/>
</svg>
