<svg width="231" height="179" viewBox="0 0 231 179" fill="none" xmlns="http://www.w3.org/2000/svg">
<g clip-path="url(#clip0)">
<path opacity="0.18" d="M212.838 120.295C211.36 126.292 208.798 132.277 206.552 137.614C198.021 157.768 183.626 171.551 161.086 168.734C150.223 167.373 139.591 163.616 128.653 163.979C118.188 164.312 108.226 168.371 98.2863 171.753C79.8158 178.047 59.3655 182.077 41.0971 175.147C22.8286 168.217 8.62367 146.897 15.123 127.997C20.1793 113.246 35.9888 103.35 37.6339 87.8021C39.7984 67.5944 16.5718 50.1624 21.4722 30.4421C23.5559 22.1392 30.263 15.958 37.3684 11.5005C53.6916 1.22429 73.761 -2.1694 92.5143 1.32533C110.35 4.62392 125.19 20.0887 143.164 20.8019C154.754 21.2536 165.906 14.4722 177.45 15.5895C191.73 17.01 202.2 30.032 208.878 43.1135C211.028 47.1973 212.826 51.4671 214.252 55.874C217.027 64.8548 217.59 74.4049 215.891 83.6654C214.16 93.1749 214.368 102.09 214.102 111.843C213.985 114.7 213.561 117.534 212.838 120.295Z" fill="#09254F"/>
<path d="M89.1376 158.802C88.4334 159.028 87.6427 159.397 87.4637 160.116C89.6802 161.566 92.4219 161.899 95.0424 161.827C97.6629 161.756 100.278 161.281 102.904 161.263C106.367 161.263 110.269 161.899 113.051 159.735C111.816 158.93 110.397 158.471 108.936 158.404C109.449 155.076 91.1925 158.142 89.1376 158.802Z" fill="url(#paint0_linear)"/>
<path d="M44.6411 119.154C43.7061 119.154 42.4131 119.641 42.644 120.574L85.3166 124.14C90.3383 124.562 95.3657 124.978 100.41 124.978C108.03 124.978 115.614 124.015 123.216 123.564C130.373 123.142 137.542 123.171 144.705 123.207C151.337 123.243 159.493 124.473 165.934 122.684C166.904 122.417 167.88 121.614 167.816 120.586C167.787 120.111 167.545 119.617 167.724 119.177C167.828 118.962 167.993 118.783 168.197 118.666C169.519 117.828 171.204 118.482 172.728 118.827C175.154 119.37 177.686 119.038 179.903 117.888C180.318 117.71 180.672 117.407 180.919 117.02C181.036 116.824 181.079 116.59 181.038 116.364C180.998 116.138 180.877 115.935 180.699 115.796C180.52 115.704 180.322 115.657 180.122 115.659L167.06 114.613C166.578 114.536 166.085 114.581 165.623 114.744C165.109 114.975 165.138 115.594 164.722 115.849C164.047 116.259 162.512 116.039 161.738 116.087C159.758 116.2 157.779 116.313 155.793 116.414C151.841 116.608 147.881 116.772 143.914 116.907C135.833 117.186 127.712 117.353 119.614 117.501C103.597 117.769 87.5735 117.911 71.5619 118.547C62.5864 118.892 53.6166 118.952 44.6411 119.154Z" fill="url(#paint1_linear)"/>
<path d="M77.4551 27.5834C76.7039 27.3148 75.8835 27.3359 75.1463 27.6429C74.6707 27.8176 74.236 28.0929 73.8701 28.4512C73.5043 28.8095 73.2154 29.2428 73.0222 29.7231C73.0184 29.7855 73.0017 29.8464 72.9732 29.9017C72.9447 29.9569 72.9051 30.0053 72.857 30.0435C72.809 30.0818 72.7535 30.109 72.6944 30.1235C72.6353 30.1379 72.5739 30.1392 72.5142 30.1272C71.6742 30.1252 70.8636 30.4451 70.24 31.0247C69.5128 31.7082 69.5128 32.5462 69.4146 33.5269C69.2956 33.4652 69.1641 33.4331 69.0308 33.4331C68.8975 33.4331 68.7661 33.4652 68.647 33.5269C68.4092 33.6476 68.1927 33.8083 68.0063 34.0023C67.6878 34.2656 67.433 34.6013 67.2617 34.983C67.0308 35.6308 67.2905 36.344 67.3021 37.0335C67.3061 37.0644 67.3036 37.0958 67.2946 37.1256C67.2856 37.1553 67.2705 37.1827 67.2501 37.2058C67.2264 37.2163 67.2009 37.2217 67.1751 37.2217C67.1493 37.2217 67.1238 37.2163 67.1001 37.2058C66.9211 37.1702 66.7595 37.0751 66.5806 37.0573C66.3713 37.0593 66.1692 37.1363 66.009 37.2752C65.8489 37.414 65.7408 37.606 65.7032 37.818C65.6351 38.2437 65.6568 38.6795 65.7667 39.0958C65.874 39.5124 65.8619 39.9521 65.7321 40.3618C65.5938 40.6309 65.4123 40.8741 65.1953 41.0809C64.5693 41.6817 64.1619 42.485 64.0409 43.3573C64.0069 43.7788 64.1172 44.1993 64.3526 44.546C64.4735 44.7171 64.6354 44.8531 64.8226 44.9406C65.0097 45.0281 65.2157 45.0641 65.4204 45.0452C66.3786 44.9144 66.7133 43.5296 67.6253 43.2027C68.5373 42.8759 69.559 41.7704 70.1477 40.8967C70.621 40.1954 71.0828 39.3811 71.8793 39.1137C72.1415 39.0563 72.3942 38.9602 72.6297 38.8284C72.7863 38.7025 72.916 38.5447 73.0106 38.3648C73.3405 37.864 73.5954 37.3151 73.7668 36.7363C74.0554 35.5952 73.7668 34.3114 74.3036 33.2594C74.4568 32.9576 74.6702 32.6926 74.9298 32.4816C75.1895 32.2706 75.4894 32.1185 75.8101 32.0351C76.0813 31.9637 76.3873 31.9459 76.6355 31.8686C76.9493 31.7754 77.2459 31.6287 77.5128 31.4348C77.8639 31.2269 78.166 30.9417 78.3975 30.5995C78.629 30.2574 78.7842 29.8667 78.8519 29.4556C78.9039 28.6176 78.1708 27.8687 77.4551 27.5834Z" fill="#FF681C"/>
<path d="M79.8158 28.992C80.1042 29.1066 80.3434 29.3234 80.4905 29.6034C80.6376 29.8834 80.6828 30.2082 80.6181 30.5195C80.5194 30.7711 80.3721 30.9996 80.1852 31.1911L79.1405 32.3797L78.7076 30.7275C78.6628 30.4174 78.5137 30.1335 78.2862 29.9251C78.1377 29.8375 77.9696 29.7915 77.7985 29.7915C77.6274 29.7915 77.4592 29.8375 77.3107 29.9251C77.0048 30.0856 76.7335 30.3352 76.4623 30.5195C76.3872 30.567 76.2833 30.6205 76.2025 30.5729C76.1217 30.5254 76.1102 30.353 76.1506 30.2342C76.647 28.8196 78.546 28.4274 79.8158 28.992Z" fill="#FF681C"/>
<path d="M80.5258 73.7044C80.5574 74.2607 80.7372 74.7974 81.0453 75.2556C81.5128 75.8499 82.292 76.1471 82.9385 76.581C83.005 76.6157 83.0633 76.6652 83.1092 76.7258C83.1551 76.7864 83.1875 76.8567 83.204 76.9316C83.2002 77.004 83.1757 77.0737 83.1336 77.1318C83.0915 77.19 83.0337 77.2341 82.9673 77.2585C82.8304 77.2984 82.6869 77.3085 82.546 77.2882C81.8866 77.1817 81.2217 77.1162 80.5546 77.0921C80.2199 77.0921 79.8331 77.1278 79.6196 76.8603C79.4821 76.6337 79.4345 76.3613 79.4868 76.0996C79.5459 75.1165 79.4682 74.1298 79.2559 73.1694C79.1852 72.9351 79.1597 72.6888 79.1809 72.4443C79.2025 72.3313 79.2524 72.2261 79.3258 72.1391C79.3991 72.0521 79.4933 71.9864 79.599 71.9485C79.7046 71.9107 79.8181 71.9019 79.928 71.9232C80.038 71.9445 80.1406 71.9951 80.2256 72.0699C80.6066 72.4087 80.4796 73.2467 80.5258 73.7044Z" fill="#FCBDBA"/>
<path d="M69.8475 77.3833C69.7692 77.9345 69.837 78.4971 70.0437 79.0118C70.3843 79.7191 71.0943 80.1411 71.6426 80.6998C71.702 80.7465 71.7501 80.8068 71.7832 80.8759C71.8162 80.945 71.8333 81.021 71.8331 81.098C71.8161 81.168 71.7788 81.2311 71.7262 81.2788C71.6737 81.3266 71.6083 81.3568 71.5387 81.3654C71.398 81.3804 71.2559 81.3621 71.1231 81.3119C70.4959 81.0763 69.8561 80.8778 69.2068 80.7176C68.8778 80.6582 68.4911 80.5987 68.3352 80.3016C68.2406 80.0532 68.2406 79.7773 68.3352 79.5289C68.5858 78.5763 68.7025 77.5915 68.6816 76.6048C68.6581 76.3607 68.6817 76.1143 68.7508 75.8797C68.7942 75.7735 68.8638 75.6809 68.9528 75.611C69.0417 75.5412 69.1469 75.4965 69.2578 75.4815C69.3687 75.4664 69.4815 75.4816 69.5849 75.5254C69.6884 75.5692 69.7789 75.6401 69.8475 75.7311C70.1765 76.1293 69.8879 76.9257 69.8475 77.3833Z" fill="#FCBDBA"/>
<path d="M67.7465 50.6379C67.7465 50.6379 73.253 59.0538 76.8605 61.5679C76.7912 62.4094 76.8086 63.2561 76.9125 64.0938C77.0972 65.4549 77.7379 66.6495 77.9457 67.9868L78.6383 72.4859C78.6672 72.688 78.7249 72.9317 78.9154 73.003C79.0299 73.0408 79.153 73.0408 79.2675 73.003L80.7913 72.5751C80.6999 69.8717 80.7557 67.1652 80.9587 64.4683C81.0836 63.3776 81.1107 62.2774 81.0395 61.1816C80.7855 58.8042 78.8923 56.6824 77.5763 54.7746C76.7855 53.6215 75.937 51.8979 74.8288 51.0243C73.9053 50.2992 72.6008 50.6439 71.4406 50.7627C70.5706 50.8482 69.6928 50.784 68.8432 50.5726C68.6695 50.4888 68.4783 50.4509 68.2868 50.4623C68.0954 50.4737 67.9097 50.5341 67.7465 50.6379Z" fill="#473F47"/>
<path d="M65.6512 50.5844C65.6512 50.5844 67.7927 60.4921 70.2689 64.1889C69.909 64.9499 69.6248 65.7464 69.4204 66.5663C69.2837 67.2373 69.2045 67.9195 69.1837 68.6049L68.6873 76.8781C69.4546 76.9195 70.2229 76.8189 70.9557 76.5809L73.7725 69.2883C74.3103 68.1267 74.6277 66.8699 74.7076 65.5856C74.7076 63.1012 72.3987 54.0316 72.1275 53.5739C71.5214 52.5457 70.1881 52.3853 69.0683 52.0524C68.2275 51.8077 67.4332 51.4178 66.7191 50.8994C66.367 50.6736 66.0495 50.4537 65.6512 50.5844Z" fill="#473F47"/>
<path d="M85.4205 42.8699C86.5939 43.4274 87.8962 43.6334 89.1781 43.4642C89.554 43.3575 89.9481 43.3373 90.3325 43.4048C90.1651 43.6485 90.0035 43.9991 90.2401 44.2071C90.3126 44.2559 90.3961 44.2846 90.4825 44.2903C90.7938 44.3316 91.1101 44.297 91.406 44.1893C91.5457 44.118 91.7004 44.0833 91.8563 44.0883C91.9938 44.1234 92.1122 44.2132 92.1857 44.3378C92.2592 44.4625 92.2819 44.6121 92.2488 44.7539C92.167 45.0369 91.986 45.2784 91.7408 45.4315C91.3444 45.7018 90.8853 45.8586 90.4105 45.8858C89.9358 45.9129 89.4626 45.8095 89.0395 45.586C88.7971 45.4493 88.572 45.277 88.3238 45.1403C87.8463 44.9162 87.3414 44.7602 86.8231 44.6767C85.3057 44.3532 83.8141 43.9122 82.3613 43.3572C82.1412 43.3033 81.9341 43.2038 81.7525 43.0649C81.5709 42.9259 81.4186 42.7504 81.305 42.5489C81.0106 41.8001 81.5532 40.546 82.419 41.0334C83.4233 41.6336 84.3295 42.4063 85.4205 42.8699Z" fill="#FCBDBA"/>
<path d="M78.2516 38.6025C79.9657 39.7563 81.8776 40.5632 83.8851 40.9799C83.9717 40.9799 84.0756 41.0393 84.0987 41.1285C84.1079 41.1892 84.0934 41.2512 84.0582 41.3008C83.6483 42.1505 83.13 42.9401 82.5171 43.6485C82.4513 43.7384 82.3664 43.8116 82.2689 43.8624C82.173 43.8914 82.0724 43.9 81.9732 43.8877C81.874 43.8754 81.7782 43.8426 81.6917 43.7911C80.3949 43.2562 79.1251 42.6619 77.8822 42.0081C76.776 41.5085 75.7906 40.7637 74.9962 39.8269C74.6 39.3407 74.3653 38.7367 74.3266 38.1033C74.3266 37.4019 74.95 36.1419 75.81 36.4867C76.1967 36.6412 76.5373 37.1345 76.8317 37.4138C77.2809 37.8396 77.7551 38.2366 78.2516 38.6025Z" fill="#09254F"/>
<path d="M78.2516 38.6025C79.9657 39.7563 81.8776 40.5632 83.8851 40.9799C83.9717 40.9799 84.0756 41.0393 84.0987 41.1285C84.1079 41.1892 84.0934 41.2512 84.0582 41.3008C83.6483 42.1505 83.13 42.9401 82.5171 43.6485C82.4513 43.7384 82.3664 43.8116 82.2689 43.8624C82.173 43.8914 82.0724 43.9 81.9732 43.8877C81.874 43.8754 81.7782 43.8426 81.6917 43.7911C80.3949 43.2562 79.1251 42.6619 77.8822 42.0081C76.776 41.5085 75.7906 40.7637 74.9962 39.8269C74.6 39.3407 74.3653 38.7367 74.3266 38.1033C74.3266 37.4019 74.95 36.1419 75.81 36.4867C76.1967 36.6412 76.5373 37.1345 76.8317 37.4138C77.2809 37.8396 77.7551 38.2366 78.2516 38.6025Z" fill="url(#paint2_linear)"/>
<path d="M102.413 35.0603C102.722 35.4607 102.906 35.9475 102.942 36.4572C102.977 36.9669 102.863 37.4759 102.614 37.9178C102.365 38.3598 101.992 38.7142 101.545 38.9349C101.097 39.1557 100.595 39.2324 100.105 39.1553C100.105 39.1553 97.3743 39.2206 97.9919 41.8714L103.187 48.6826L96.572 54.0317C93.9977 54.6676 93.9342 51.8564 93.9342 51.8564C94.0048 51.3517 93.9269 50.8369 93.7105 50.3783C93.4941 49.9197 93.1491 49.5385 92.7202 49.2838C92.2912 49.0292 91.798 48.9128 91.3042 48.9496C90.8103 48.9865 90.3385 49.175 89.9498 49.4908C89.561 49.8065 89.2731 50.2351 89.1233 50.721C88.9734 51.2069 88.9685 51.728 89.1091 52.2168C89.2497 52.7057 89.5294 53.1399 89.9121 53.4634C90.2948 53.7869 90.7629 53.9848 91.256 54.0317C93.6052 54.8281 92.6932 57.1817 92.6932 57.1817L86.0785 62.5307L72.6354 44.9561L79.1867 39.607C81.761 38.971 81.8245 41.7823 81.8245 41.7823C81.7632 42.199 81.8035 42.625 81.9417 43.0218C82.0799 43.4186 82.3117 43.7738 82.6162 44.0555C82.9207 44.3372 83.2885 44.5365 83.6864 44.6356C84.0843 44.7347 84.4999 44.7304 84.8958 44.6231C85.2917 44.5158 85.6555 44.3089 85.9545 44.021C86.2535 43.7331 86.4783 43.3732 86.6088 42.9736C86.7392 42.574 86.7712 42.1473 86.7018 41.7319C86.6324 41.3165 86.4638 40.9253 86.2112 40.5936C86.0007 40.321 85.7387 40.0952 85.4411 39.9297C85.1435 39.7643 84.8164 39.6626 84.4796 39.6307C82.1535 38.8403 83.0655 36.4629 83.0655 36.4629L89.7437 31.0366L94.9386 37.8537C94.9386 37.8537 97.2474 38.7927 97.9977 36.3737C98.0473 35.8672 98.2429 35.3875 98.5596 34.9965C98.8762 34.6055 99.2992 34.321 99.7742 34.1797C100.249 34.0384 100.754 34.0467 101.225 34.2037C101.695 34.3606 102.109 34.6589 102.413 35.0603Z" fill="#09254F"/>
<path d="M102.413 35.0603C102.722 35.4607 102.906 35.9475 102.942 36.4572C102.977 36.9669 102.863 37.4759 102.614 37.9178C102.365 38.3598 101.992 38.7142 101.545 38.9349C101.097 39.1557 100.595 39.2324 100.105 39.1553C100.105 39.1553 97.3743 39.2206 97.9919 41.8714L103.187 48.6826L96.572 54.0317C93.9977 54.6676 93.9342 51.8564 93.9342 51.8564C94.0048 51.3517 93.9269 50.8369 93.7105 50.3783C93.4941 49.9197 93.1491 49.5385 92.7202 49.2838C92.2912 49.0292 91.798 48.9128 91.3042 48.9496C90.8103 48.9865 90.3385 49.175 89.9498 49.4908C89.561 49.8065 89.2731 50.2351 89.1233 50.721C88.9734 51.2069 88.9685 51.728 89.1091 52.2168C89.2497 52.7057 89.5294 53.1399 89.9121 53.4634C90.2948 53.7869 90.7629 53.9848 91.256 54.0317C93.6052 54.8281 92.6932 57.1817 92.6932 57.1817L86.0785 62.5307L72.6354 44.9561L79.1867 39.607C81.761 38.971 81.8245 41.7823 81.8245 41.7823C81.7632 42.199 81.8035 42.625 81.9417 43.0218C82.0799 43.4186 82.3117 43.7738 82.6162 44.0555C82.9207 44.3372 83.2885 44.5365 83.6864 44.6356C84.0843 44.7347 84.4999 44.7304 84.8958 44.6231C85.2917 44.5158 85.6555 44.3089 85.9545 44.021C86.2535 43.7331 86.4783 43.3732 86.6088 42.9736C86.7392 42.574 86.7712 42.1473 86.7018 41.7319C86.6324 41.3165 86.4638 40.9253 86.2112 40.5936C86.0007 40.321 85.7387 40.0952 85.4411 39.9297C85.1435 39.7643 84.8164 39.6626 84.4796 39.6307C82.1535 38.8403 83.0655 36.4629 83.0655 36.4629L89.7437 31.0366L94.9386 37.8537C94.9386 37.8537 97.2474 38.7927 97.9977 36.3737C98.0473 35.8672 98.2429 35.3875 98.5596 34.9965C98.8762 34.6055 99.2992 34.321 99.7742 34.1797C100.249 34.0384 100.754 34.0467 101.225 34.2037C101.695 34.3606 102.109 34.6589 102.413 35.0603Z" fill="url(#paint3_linear)"/>
<path d="M80.5546 50.5607C81.9688 51.7494 83.4406 53.0272 85.1722 53.3362C85.5054 53.4131 85.8501 53.4206 86.1861 53.3583C86.5221 53.2961 86.8427 53.1653 87.1289 52.9737C87.2277 52.9132 87.3082 52.8255 87.3612 52.7205C87.4142 52.6155 87.4377 52.4974 87.4291 52.3794C87.3656 52.0881 87.0193 51.9871 86.7364 51.9336C85.4136 51.7473 84.1434 51.2776 83.0077 50.5547C82.5865 50.2478 82.1872 49.9101 81.8129 49.5443L79.0019 46.9649C78.9676 46.9219 78.9244 46.8873 78.8755 46.8637C78.8266 46.84 78.7732 46.8279 78.7191 46.8282C78.6037 46.8282 78.5344 46.9649 78.4825 47.0719C78.3082 47.437 78.1764 47.822 78.09 48.219C78.0034 48.6528 78.09 48.7123 78.4536 48.9619C79.1809 49.4691 79.8812 50.002 80.5546 50.5607Z" fill="url(#paint4_linear)"/>
<path d="M81.8591 48.3854C82.8372 49.2665 84.0382 49.8436 85.3223 50.0495C85.7043 50.0548 86.0806 50.1461 86.4248 50.317C86.1881 50.5012 85.9342 50.8162 86.1131 51.0599C86.1705 51.1277 86.2441 51.1789 86.3267 51.2085C86.6143 51.3349 86.9263 51.3918 87.2386 51.3749C87.3932 51.3507 87.5511 51.3628 87.7004 51.4106C87.7607 51.4468 87.8135 51.4949 87.8557 51.5522C87.898 51.6095 87.9288 51.6747 87.9465 51.7443C87.9642 51.8139 87.9684 51.8863 87.9588 51.9576C87.9493 52.0288 87.9262 52.0974 87.8909 52.1594C87.7401 52.4112 87.4999 52.5925 87.2213 52.6646C86.768 52.8118 86.2846 52.831 85.8216 52.7202C85.3587 52.6094 84.9331 52.3726 84.5893 52.0346C84.3873 51.8325 84.2199 51.6007 84.0121 51.4046C83.615 51.0518 83.172 50.7577 82.696 50.5309C81.3271 49.782 80.0151 48.9276 78.7711 47.9753C78.5747 47.8605 78.4029 47.7061 78.266 47.5212C78.1291 47.3363 78.03 47.1249 77.9745 46.8995C77.8937 46.0912 78.7538 45.0392 79.4579 45.7643C80.2776 46.6202 80.9414 47.6008 81.8591 48.3854Z" fill="#FCBDBA"/>
<path d="M65.6512 51.8563C65.7547 51.9839 65.8849 52.0855 66.0322 52.1535C66.613 52.4946 67.2168 52.7926 67.8389 53.045C69.4553 53.6408 71.2248 53.6261 72.8317 53.0034C73.4746 52.7651 74.0781 52.4263 74.621 51.999C74.827 51.8545 75.0002 51.666 75.1289 51.4462C75.2821 51.0879 75.3303 50.6912 75.2675 50.3051C75.1232 48.3022 74.9096 46.2338 75.2675 44.2903C75.3825 43.6227 75.5763 42.972 75.8447 42.3528C76.312 41.5078 76.6987 40.618 76.9991 39.6961C77.102 39.1295 77.0836 38.5466 76.945 37.9882C76.8064 37.4297 76.551 36.9091 76.1967 36.4629C75.4464 35.4763 74.0726 34.6026 72.8605 35.0483C71.4604 35.5916 70.2461 36.5464 69.3684 37.7942C68.4115 39.1915 67.6534 40.7226 67.1173 42.3409C66.8865 42.9769 66.6614 43.6128 66.4824 44.2666C66.1003 45.848 65.8531 47.4609 65.7436 49.0867C65.6801 49.7642 65.6224 50.4418 65.5531 51.1193C65.4986 51.3692 65.5335 51.6308 65.6512 51.8563Z" fill="#09254F"/>
<path d="M72.8316 53.0034C73.4746 52.7651 74.0781 52.4263 74.621 51.999C74.8269 51.8545 75.0002 51.666 75.1289 51.4462C75.2821 51.0879 75.3303 50.6912 75.2674 50.3051C75.1231 48.3022 74.9096 46.2338 75.2674 44.2903C75.0366 44.0526 74.7768 43.8386 74.5228 43.6247C73.9456 43.1373 73.1145 42.1745 72.2775 42.2399C72.4795 43.1492 72.6412 44.0764 72.7624 45.0036C72.8836 45.9307 72.8374 46.8936 72.9817 47.8088C73.1732 49.4284 73.1362 51.0679 72.8721 52.6765C72.8475 52.7837 72.8339 52.8933 72.8316 53.0034Z" fill="url(#paint5_linear)"/>
<path d="M79.8562 45.2651C79.9013 45.2887 79.9414 45.3214 79.9741 45.3612C80.0068 45.401 80.0315 45.4471 80.0467 45.4969C80.0484 45.5957 80.0133 45.6914 79.9486 45.7643C79.4241 46.5265 78.7664 47.1815 78.0092 47.6959C77.9361 47.7557 77.848 47.7928 77.7552 47.8029C77.6487 47.7912 77.5492 47.743 77.4724 47.6662C76.318 46.7569 75.1636 45.8832 74.038 44.9322C73.3101 44.4004 72.6674 43.7547 72.1332 43.0185C71.7407 42.3539 71.4415 41.6356 71.2443 40.8848C70.5575 38.656 72.6354 37.6872 74.0265 39.3217C75.862 41.4851 77.5359 43.595 79.8562 45.2651Z" fill="#09254F"/>
<path d="M79.5734 76.9435C79.5433 76.8697 79.5327 76.789 79.5429 76.7096C79.553 76.6302 79.5835 76.5551 79.6311 76.4918C79.7581 76.367 79.9659 76.4264 80.1275 76.4918C80.4844 76.67 80.8575 76.8114 81.2415 76.9138C81.6282 77.0186 82.0387 76.9742 82.3959 76.789C82.5921 76.6701 82.7826 76.4918 83.0077 76.5096C83.1211 76.5271 83.2294 76.5696 83.3252 76.6344C83.6718 76.8194 84.0434 76.9497 84.4276 77.0208C84.5893 77.0349 84.7454 77.0878 84.8836 77.1753C84.9254 77.2056 84.9559 77.2496 84.9702 77.3001C84.9702 77.419 84.8605 77.5081 84.7509 77.5497C83.5503 78.0312 82.2054 77.8528 80.924 77.7102C80.7804 77.6894 80.6347 77.6894 80.4911 77.7102C80.2776 77.7518 80.0178 77.8647 79.8389 77.7102C79.6857 77.4835 79.594 77.2189 79.5734 76.9435Z" fill="#473F47"/>
<path d="M68.1736 80.3312C68.1548 80.2543 68.155 80.1738 68.1742 80.097C68.1933 80.0202 68.2308 79.9495 68.2833 79.8914C68.4276 79.7845 68.6238 79.8914 68.7797 79.9568C69.1151 80.1765 69.4685 80.3654 69.836 80.5214C70.2083 80.664 70.618 80.664 70.9904 80.5214C71.1982 80.4323 71.406 80.2778 71.6311 80.3253C71.7403 80.3582 71.8422 80.4128 71.9312 80.4858C72.2491 80.7255 72.6017 80.912 72.976 81.0385C73.1367 81.0727 73.2871 81.1461 73.4146 81.2525C73.4333 81.2687 73.4486 81.2886 73.4595 81.3111C73.4704 81.3336 73.4768 81.3581 73.4781 81.3832C73.4781 81.5021 73.3511 81.5734 73.2357 81.6031C71.9832 81.93 70.6729 81.6031 69.4204 81.2763C69.2797 81.2342 69.134 81.2122 68.9875 81.2109C68.7739 81.2109 68.5026 81.306 68.341 81.1039C68.2241 80.8645 68.1666 80.5991 68.1736 80.3312Z" fill="#473F47"/>
<path d="M78.8635 33.0692C78.7653 33.3961 78.6672 33.723 78.5864 34.0558C78.4948 34.5522 78.3675 35.0409 78.2055 35.5179C78.1232 35.7557 77.9918 35.9724 77.8205 36.153C77.6491 36.3336 77.4417 36.4738 77.2127 36.5639C76.9791 36.6408 76.7257 36.6219 76.5052 36.5112C76.2848 36.4005 76.1144 36.2065 76.0294 35.9696C75.7523 36.035 75.6542 36.3856 75.66 36.6828C75.7064 36.9735 75.6534 37.2718 75.5099 37.5268C75.2502 37.8418 74.7422 37.711 74.4017 37.4851C73.8861 37.1274 73.4853 36.6202 73.25 36.0277C73.0147 35.4351 72.9555 34.784 73.0799 34.1568C73.3627 32.8315 73.3512 31.2446 74.0842 30.0975C74.3476 29.7104 74.6831 29.3811 75.0712 29.1287C75.4114 28.8723 75.8081 28.7068 76.2256 28.6473C76.518 28.6296 76.8113 28.6536 77.0972 28.7186C78.3209 28.9326 79.3599 29.1168 79.3656 30.5611C79.3281 31.4192 79.1586 32.2657 78.8635 33.0692Z" fill="#FCBDBA"/>
<path d="M77.3569 30.7335C77.1664 30.7335 76.9471 30.6859 76.7797 30.8048C76.6123 30.9236 76.6008 31.1911 76.4969 31.3991C76.2949 31.7854 75.7812 31.8389 75.3944 32.041C75.1602 32.1701 74.9651 32.3632 74.8307 32.5992C74.6962 32.8352 74.6277 33.1048 74.6325 33.3783C74.64 33.2033 74.5979 33.0298 74.5113 32.879C74.4882 32.8433 74.4583 32.8128 74.4234 32.7894C74.3885 32.766 74.3492 32.7502 74.3082 32.743C74.2671 32.7357 74.225 32.7372 74.1845 32.7473C74.144 32.7574 74.1059 32.776 74.0726 32.8018C74.0206 32.8653 73.9902 32.9446 73.9861 33.0276C73.9704 33.1973 73.9971 33.3684 74.0638 33.5244C74.1305 33.6805 74.2349 33.8164 74.367 33.9191C74.2471 34.174 74.059 34.3883 73.8249 34.5367C73.5907 34.6852 73.3202 34.7617 73.0452 34.7571C72.8715 34.7614 72.7019 34.7025 72.5661 34.5907C72.4808 34.5003 72.4175 34.3903 72.3814 34.2698C72.0524 33.3188 72.5546 32.3025 72.6758 31.2981C72.6874 30.9434 72.7436 30.5918 72.8432 30.252C72.9502 30.0121 73.0967 29.7929 73.2761 29.6042C73.8149 28.9379 74.5281 28.4449 75.3309 28.1837C76.1044 27.9638 77.6398 28.0767 78.2458 28.7067C78.3833 28.887 78.4702 29.1027 78.4971 29.3303C78.5239 29.5578 78.4896 29.7886 78.398 29.9976C78.3064 30.2065 78.1609 30.3856 77.9773 30.5153C77.7938 30.645 77.5792 30.7205 77.3569 30.7335Z" fill="#FF681C"/>
<path d="M77.0164 120.96V109.84C78.4363 106.667 81.2358 108.83 81.2358 108.83C81.6728 109.302 82.237 109.628 82.8556 109.766C83.4743 109.904 84.119 109.849 84.7066 109.606C85.2943 109.364 85.798 108.946 86.1528 108.406C86.5076 107.866 86.6972 107.229 86.6972 106.577C86.6972 105.925 86.5076 105.289 86.1528 104.749C85.798 104.209 85.2943 103.791 84.7066 103.548C84.119 103.306 83.4743 103.25 82.8556 103.389C82.237 103.527 81.6728 103.853 81.2358 104.325C78.5922 106.108 77.0164 103.314 77.0164 103.314V92.1883H87.8159C87.8159 92.1883 90.5518 90.5658 88.7971 87.8437C88.3391 87.3937 88.0225 86.8127 87.8881 86.1757C87.7537 85.5387 87.8077 84.8749 88.0431 84.2698C88.2785 83.6646 88.6845 83.146 89.2088 82.7807C89.7331 82.4153 90.3517 82.2201 90.9847 82.2201C91.6178 82.2201 92.2363 82.4153 92.7606 82.7807C93.2849 83.146 93.691 83.6646 93.9264 84.2698C94.1617 84.8749 94.2157 85.5387 94.0813 86.1757C93.9469 86.8127 93.6303 87.3937 93.1723 87.8437C93.1723 87.8437 91.0713 90.7263 94.1536 92.1883H104.953V120.96H77.0164Z" fill="url(#paint6_linear)"/>
<path d="M56.3237 120.366H54.3727L74.344 66.0671C74.4112 65.8918 74.528 65.7413 74.6793 65.6353C74.8307 65.5293 75.0094 65.4727 75.1925 65.4727C75.3402 65.4725 75.4858 65.5092 75.6167 65.5797C75.7477 65.6503 75.86 65.7525 75.944 65.8776C76.0281 66.0028 76.0813 66.1471 76.0992 66.2981C76.1171 66.4491 76.0991 66.6023 76.0467 66.7446L56.3237 120.366Z" fill="#09254F"/>
<path d="M68.0236 120.366H66.0726L86.2632 65.4608H88.2141L68.0236 120.366Z" fill="#09254F"/>
<path d="M83.1117 74.0371H72.7913L73.3107 72.6226H83.6311L83.1117 74.0371Z" fill="#09254F"/>
<path d="M79.937 82.6611H69.6166L70.1419 81.2465H80.4623L79.937 82.6611Z" fill="#09254F"/>
<path d="M76.7682 91.2849H66.4478L66.9673 89.8644H77.2877L76.7682 91.2849Z" fill="#09254F"/>
<path d="M73.5994 99.9029H63.279L63.7985 98.4884H74.1189L73.5994 99.9029Z" fill="#09254F"/>
<path d="M70.4247 108.527H60.1044L60.6296 107.112H70.9442L70.4247 108.527Z" fill="#09254F"/>
<path d="M73.3627 74.0372L70.7076 81.2465H80.4796L79.9601 82.6611H70.2054L67.5561 89.8645H77.305L76.7855 91.279H67.0193L64.3699 98.4884H74.1304L73.6109 99.9029H63.8504L61.1953 107.112H70.95L70.4247 108.527H60.6758L56.3237 120.366H54.3727L74.344 66.067C74.4307 65.8807 74.5747 65.7291 74.7536 65.6355C74.9325 65.542 75.1364 65.5119 75.3337 65.5498C75.5309 65.5877 75.7106 65.6916 75.8447 65.8453C75.9788 65.9989 76.0599 66.1939 76.0756 66.3999C76.0755 66.5135 76.056 66.6261 76.0178 66.7327L73.8533 72.6226H83.6023L83.0828 74.0372H73.3627Z" fill="url(#paint7_linear)"/>
<path d="M68.0236 120.366H66.0726L86.2632 65.4608H88.2141L68.0236 120.366Z" fill="url(#paint8_linear)"/>
<path d="M164.815 73.4191C164.526 73.6703 164.181 73.842 163.81 73.9183C163.47 73.933 163.131 73.8701 162.818 73.7341L158.015 72.0878C157.652 72.3788 157.41 72.8006 157.337 73.2682C157.265 73.7358 157.366 74.2145 157.623 74.6078C158.093 75.1388 158.706 75.515 159.383 75.6895L162.679 76.9079C163.44 77.2738 164.27 77.461 165.109 77.4558C165.949 77.4507 166.777 77.2534 167.533 76.8782C168.515 76.5394 169.594 76.1174 170.067 75.1665C170.541 74.2155 170.194 72.9555 170.333 71.8441C170.515 71.1382 170.644 70.4189 170.719 69.6926C170.719 69.0685 170.223 68.1294 169.502 68.2602C168.878 68.3731 168.463 69.4905 168.134 69.96C167.206 71.2814 166.087 72.448 164.815 73.4191Z" fill="white"/>
<path d="M157.415 71.8084C157.365 71.6747 157.288 71.5532 157.19 71.4518C157.141 71.4009 157.079 71.3658 157.012 71.351C156.944 71.3362 156.873 71.3423 156.809 71.3686C156.746 71.4085 156.695 71.466 156.662 71.5343C156.63 71.6027 156.616 71.6791 156.624 71.7549C156.629 71.7817 156.628 71.8093 156.622 71.8358C156.616 71.8624 156.605 71.8874 156.59 71.9094C156.555 71.9451 156.491 71.9094 156.439 71.9094C155.897 71.8025 155.343 71.7193 154.789 71.6598C154.729 71.6476 154.668 71.6522 154.611 71.6731C154.553 71.6941 154.503 71.7306 154.464 71.7788C154.426 71.827 154.401 71.8851 154.392 71.9468C154.383 72.0086 154.39 72.0716 154.414 72.1293C154.474 72.3186 154.565 72.4956 154.685 72.6524C154.968 73.1278 155.072 73.7519 155.522 74.061C155.797 74.2267 156.117 74.2956 156.434 74.2571C156.751 74.2571 157.063 74.1798 157.38 74.1977C157.59 74.2439 157.809 74.2188 158.004 74.1263C158.076 74.0703 158.134 73.9963 158.172 73.911C158.209 73.8258 158.225 73.7322 158.217 73.639C158.184 73.3454 158.083 73.0642 157.923 72.8188C157.744 72.4978 157.577 72.1531 157.415 71.8084Z" fill="#FDB9A9"/>
<path d="M170.806 109.032C168.971 108.604 169.328 111.285 168.844 112.283C168.537 112.796 168.146 113.25 167.689 113.626C167.239 114.012 166.945 114.557 166.864 115.154C166.853 115.265 166.875 115.377 166.927 115.475C167.021 115.592 167.152 115.672 167.297 115.701C168.346 116.016 169.473 115.901 170.442 115.38C170.896 115.159 171.273 114.8 171.522 114.351C171.723 113.868 171.817 113.344 171.799 112.818C171.857 111.701 172.341 109.383 170.806 109.032Z" fill="#FDB9A9"/>
<path d="M169.178 114.559C169.178 114.559 163.949 114.791 166.165 116.479C168.382 118.167 171.689 116.069 172.012 115.683C172.336 115.296 172.07 114.637 172.07 114.637L169.178 114.559Z" fill="#09254F"/>
<path d="M171.782 115.302C171.32 115.897 168.861 116.675 167.77 116.592C166.679 116.509 165.704 115.998 165.813 115.267C165.923 114.536 167.839 112.854 168.203 112.86C168.567 112.866 168.849 113.727 169.577 113.906C169.902 113.961 170.235 113.93 170.545 113.816C170.855 113.701 171.132 113.507 171.349 113.252C171.414 113.163 171.506 113.098 171.61 113.069C171.715 113.04 171.826 113.048 171.926 113.091C172.078 113.444 172.144 113.83 172.119 114.215C172.094 114.6 171.978 114.974 171.782 115.302Z" fill="white"/>
<path d="M177.115 110.09C175.279 109.65 175.637 112.337 175.152 113.329C174.846 113.844 174.455 114.3 173.998 114.678C173.548 115.062 173.254 115.604 173.173 116.2C173.163 116.313 173.185 116.426 173.236 116.527C173.331 116.642 173.461 116.722 173.605 116.753C174.655 117.066 175.782 116.951 176.751 116.432C177.204 116.207 177.581 115.847 177.831 115.397C178.031 114.915 178.125 114.394 178.108 113.87C178.165 112.741 178.65 110.429 177.115 110.09Z" fill="#FDB9A9"/>
<path d="M175.487 115.594C175.487 115.594 170.258 115.819 172.474 117.519C174.691 119.219 177.998 117.103 178.321 116.717C178.644 116.331 178.379 115.671 178.379 115.671L175.487 115.594Z" fill="#09254F"/>
<path d="M178.09 116.325C177.629 116.919 175.17 117.703 174.079 117.62C172.988 117.537 172.012 117.026 172.122 116.295C172.232 115.564 174.148 113.882 174.512 113.917C174.875 113.953 175.158 114.785 175.885 114.958C176.21 115.014 176.543 114.985 176.853 114.871C177.164 114.758 177.44 114.565 177.657 114.31C177.722 114.22 177.814 114.155 177.919 114.125C178.024 114.096 178.135 114.105 178.235 114.149C178.381 114.497 178.444 114.877 178.419 115.255C178.394 115.633 178.281 116 178.09 116.325Z" fill="white"/>
<path d="M172.376 85.6447L174.835 112.295L178.379 111.843C179.782 105.341 179.435 85.8883 179.435 85.8883L172.376 85.6447Z" fill="#473F47"/>
<path d="M174.835 84.9255L172.376 111.57L168.82 111.118C166.794 94.2626 168.468 83.7784 168.468 83.7784L174.835 84.9255Z" fill="#473F47"/>
<path d="M168.792 75.2912C168.745 74.8039 168.618 74.3165 168.572 73.8172C168.457 72.813 168.474 71.7973 168.624 70.798C168.791 69.7317 169.104 68.6952 169.554 67.7193C169.958 66.8753 170.708 66.5306 171.528 66.0908C172.225 65.7049 172.98 65.4417 173.761 65.3122C174.311 65.2605 174.866 65.2925 175.406 65.4073C177.08 65.7342 179.279 66.596 180.422 67.9808C181.282 68.9971 181.38 70.4592 181.409 71.8084C181.444 73.6687 181.409 75.5289 181.294 77.3892C181.294 77.6567 181.265 77.9241 181.242 78.1975C181.149 80.2671 180.845 82.3209 180.336 84.3252C180.24 84.9514 179.911 85.5145 179.418 85.8943C178.108 86.6788 176.111 86.2449 174.696 86.0429C172.82 85.7695 170.898 85.4842 169.236 84.5451C168.891 84.3927 168.612 84.1158 168.451 83.7665C168.368 83.3266 168.423 82.871 168.607 82.4649C169.184 80.563 168.734 78.5601 168.734 76.6166C168.734 76.2659 168.774 75.9093 168.774 75.5527C168.792 75.4695 168.792 75.3804 168.792 75.2912Z" fill="white"/>
<path d="M174.679 78.7325C175.124 79.0175 175.615 79.2188 176.128 79.3268C177.657 79.7844 179.227 80.0281 180.745 80.5155C180.849 80.5362 180.945 80.5855 181.023 80.6581C181.085 80.7568 181.113 80.8739 181.103 80.991C181.11 81.4487 181.044 81.9046 180.907 82.3401C180.863 82.5576 180.741 82.7503 180.567 82.881C180.345 82.9641 180.102 82.9641 179.88 82.881L174.16 81.6329C173.75 81.5252 173.329 81.4733 172.907 81.4783C172.407 81.5383 171.916 81.6641 171.447 81.8528C170.57 82.1421 169.667 82.3411 168.751 82.4471C168.8 81.3228 168.933 80.2041 169.149 79.101C169.233 78.7749 169.354 78.4598 169.507 78.1619C169.692 77.8677 169.909 77.5965 170.154 77.3536C171.077 76.361 171.718 75.1189 172.653 74.1263C173.144 73.6033 173.756 73.2705 174.188 72.7118C174.362 72.4859 175.862 70.5424 175.718 70.3344C176.007 70.7029 176.722 70.3344 176.982 70.7148C177.144 70.9525 176.982 71.2735 176.832 71.5171C175.726 73.4241 174.955 75.5163 174.552 77.6983C174.437 78.2035 174.264 78.3818 174.679 78.7325Z" fill="url(#paint9_linear)"/>
<path d="M170.015 54.3347C170.546 54.6858 170.963 55.192 171.212 55.7884C171.462 56.3848 171.533 57.0444 171.417 57.6827C171.3 58.321 171.001 58.909 170.558 59.3714C170.115 59.8337 169.548 60.1495 168.93 60.2781C168.93 60.2781 165.652 61.55 167.493 64.4861L176.601 70.4592L170.829 79.8379C167.978 81.7339 166.743 78.358 166.743 78.358C166.618 77.7207 166.312 77.1361 165.863 76.6796C165.413 76.2231 164.841 75.9155 164.221 75.7964C163.6 75.6773 162.959 75.7521 162.38 76.0112C161.801 76.2704 161.311 76.7019 160.972 77.2505C160.633 77.799 160.462 78.4393 160.479 79.0891C160.497 79.7389 160.703 80.3684 161.071 80.8966C161.439 81.4248 161.952 81.8275 162.544 82.053C163.136 82.2785 163.78 82.3164 164.393 82.1618C167.568 82.0964 167.429 85.3475 167.429 85.3475L161.657 94.7262L138.084 79.2733L143.828 69.9778C146.679 68.0878 147.914 71.4577 147.914 71.4577C148.036 72.0974 148.342 72.6848 148.792 73.144C149.241 73.6031 149.814 73.9131 150.436 74.034C151.058 74.1548 151.701 74.0809 152.283 73.8218C152.864 73.5628 153.356 73.1304 153.696 72.5805C154.036 72.0306 154.209 71.3883 154.191 70.7366C154.173 70.0848 153.966 69.4535 153.597 68.9239C153.228 68.3944 152.713 67.9909 152.118 67.7656C151.524 67.5403 150.878 67.5035 150.263 67.6599C147.089 67.7252 147.233 64.4742 147.233 64.4742L153.086 55.0004L162.2 60.9795C162.2 60.9795 165.357 61.1221 165.294 57.8532C165.193 57.4239 165.177 56.9781 165.246 56.5422C165.316 56.1063 165.469 55.6891 165.698 55.3154C166.152 54.6061 166.858 54.107 167.663 53.9239C168.469 53.7408 169.313 53.8882 170.015 54.3347Z" fill="#0F479B"/>
<path d="M184.07 73.5498C184.307 73.974 184.5 74.4221 184.647 74.8871C184.834 75.7021 184.853 76.5482 184.705 77.3714C184.635 78.1785 184.354 78.9508 183.891 79.6061C182.916 80.7948 181.173 80.9077 179.66 80.7592C177.944 80.596 176.249 80.2454 174.604 79.7131C174.451 79.6777 174.307 79.6088 174.183 79.511C174.049 79.3557 173.958 79.1672 173.917 78.9642C173.791 78.4716 173.708 77.9684 173.669 77.4606C175.401 76.9494 177.317 77.3655 179.123 77.0921C179.247 77.0915 179.368 77.0607 179.477 77.0023C179.586 76.9438 179.68 76.8593 179.752 76.7558C179.823 76.6523 179.869 76.5329 179.886 76.4074C179.903 76.2818 179.891 76.1539 179.851 76.0342C179.764 74.9881 179.135 74.0728 178.841 73.0624C178.552 72.0901 178.577 71.0478 178.91 70.0907C179.009 69.7534 179.178 69.4423 179.406 69.1786C179.633 68.915 179.913 68.705 180.226 68.5633C180.947 68.3196 181.225 68.9021 181.623 69.4488C182.54 70.7491 183.358 72.1202 184.07 73.5498Z" fill="white"/>
<path d="M172.948 76.7949C172.879 76.7379 172.798 76.7009 172.711 76.6879C172.644 76.695 172.581 76.7203 172.527 76.761C172.474 76.8018 172.431 76.8566 172.405 76.9197C172.354 77.0478 172.296 77.1729 172.232 77.2942C172.145 77.3933 172.038 77.471 171.918 77.5214C171.798 77.5718 171.668 77.5937 171.539 77.5854C171.28 77.5586 171.019 77.5586 170.76 77.5854C170.664 77.6056 170.575 77.6506 170.5 77.7161C170.429 77.7877 170.379 77.8783 170.356 77.9777C170.312 78.1796 170.317 78.3896 170.372 78.5888C170.426 78.788 170.528 78.9701 170.668 79.1188C170.949 79.413 171.296 79.6331 171.678 79.7607C172.067 79.9378 172.499 79.9916 172.919 79.9152C173.149 79.8463 173.368 79.7443 173.571 79.6121L174.414 79.1307C174.484 79.0964 174.547 79.0479 174.598 78.988C174.783 78.7503 174.529 78.0371 174.362 77.7994C173.94 77.3953 173.464 77.0569 172.948 76.7949Z" fill="#FDB9A9"/>
<path d="M172.382 62.6139C172.382 62.1028 172.422 61.5857 172.474 61.0864C172.526 60.5872 172.59 60.1949 172.67 59.7551C172.676 59.6249 172.709 59.4975 172.766 59.3816C172.824 59.2657 172.906 59.164 173.005 59.0835C173.672 58.6733 174.439 58.4672 175.216 58.4892C175.51 58.4679 175.804 58.5097 176.082 58.612C176.359 58.7143 176.612 58.8749 176.826 59.0835C177.087 59.4248 177.242 59.839 177.271 60.2722C177.298 61.397 177.189 62.521 176.947 63.6183C176.825 64.48 176.781 65.3515 176.815 66.2216C176.406 66.5016 175.936 66.6731 175.447 66.7208C175.219 66.7186 174.993 66.6805 174.777 66.6079C174.657 66.5798 174.55 66.5081 174.477 66.4058C174.451 66.3105 174.451 66.2098 174.477 66.1146C174.483 66.0235 174.483 65.9322 174.477 65.8412C174.511 65.3321 174.501 64.821 174.448 64.3137C174.449 64.2917 174.446 64.2696 174.438 64.2491C174.43 64.2286 174.417 64.2101 174.402 64.1948C174.37 64.183 174.336 64.183 174.304 64.1948H174.165C173.92 64.2216 173.672 64.2216 173.427 64.1948C173.131 64.165 172.856 64.0256 172.653 63.8026C172.419 63.4566 172.321 63.0313 172.382 62.6139Z" fill="#FDB9A9"/>
<path d="M173.409 59.3569C173.236 59.3569 173.08 59.452 172.93 59.3569C172.773 59.2229 172.635 59.0669 172.52 58.8933C172.245 58.5167 172.109 58.0505 172.139 57.5798C172.15 57.3668 172.218 57.1611 172.336 56.9855C172.464 56.8257 172.628 56.7012 172.815 56.6229C173.173 56.4414 173.571 56.3614 173.969 56.3911C174.546 56.4683 175.084 56.7327 175.504 57.1459C175.593 57.2412 175.702 57.3144 175.822 57.3599C175.932 57.3838 176.046 57.3838 176.157 57.3599C176.887 57.2966 177.613 57.5266 178.183 58.0018C178.506 58.293 178.76 58.6675 179.095 58.923C179.429 59.1786 179.758 59.2737 179.932 59.6006C180.004 59.7525 180.033 59.9224 180.016 60.0906C179.998 60.2589 179.935 60.4187 179.833 60.5515C179.619 60.8121 179.323 60.9885 178.997 61.0508C179.032 61.1475 179.049 61.2506 179.046 61.354C179.043 61.4575 179.019 61.5592 178.977 61.6533C178.936 61.7474 178.876 61.8319 178.802 61.9019C178.728 61.972 178.641 62.0261 178.546 62.0612C178.413 62.0821 178.284 62.1263 178.165 62.1919C178.085 62.2573 178.05 62.3583 177.969 62.4237C177.779 62.5842 177.53 62.6377 177.45 62.9111C177.426 63.0262 177.416 63.144 177.421 63.2617C177.407 63.4361 177.338 63.601 177.225 63.7313C177.149 63.8145 177.017 64.0225 176.907 64.0463C176.797 64.07 176.699 63.9333 176.665 63.8145C176.529 63.3105 176.564 62.7741 176.763 62.293C176.906 62.0606 176.989 61.7948 177.005 61.5203C177.005 61.2469 176.624 61.0329 176.428 61.1934C176.232 61.3539 176.22 61.7402 176.012 61.6629C176.141 61.2788 176.132 60.8597 175.986 60.4822C175.839 60.1047 175.566 59.7939 175.216 59.6065C174.827 59.4841 174.422 59.4259 174.015 59.4342C173.825 59.393 173.632 59.3711 173.438 59.3688L173.409 59.3569Z" fill="#473F47"/>
<path d="M174.165 64.2068C174.738 64.0944 175.299 63.9232 175.839 63.6957C175.888 64.1641 175.778 64.6354 175.529 65.0305C175.28 65.4255 174.907 65.7202 174.471 65.865C174.515 65.3568 174.515 64.8457 174.471 64.3376C174.471 64.2934 174.454 64.2511 174.425 64.2187C174.393 64.2069 174.359 64.2069 174.327 64.2187H174.194L174.165 64.2068Z" fill="#DE9F93"/>
<path d="M156.093 68.4801C156.181 68.6092 156.237 68.7578 156.258 68.9138C156.279 69.0698 156.264 69.2287 156.214 69.3775C156.114 69.6751 155.968 69.9541 155.782 70.2037L154.875 71.5825C154.639 71.9391 154.298 72.3433 153.9 72.3076C152.907 72.2363 152.468 69.5855 152.838 68.801C153.265 67.8203 155.441 67.642 156.093 68.4801Z" fill="#FDB9A9"/>
<path d="M160.769 92.1883V120.96H132.832V109.834C132.832 109.834 134.408 107.017 137.051 108.824C137.488 109.296 138.052 109.622 138.671 109.76C139.29 109.898 139.934 109.843 140.522 109.6C141.11 109.358 141.613 108.94 141.968 108.4C142.323 107.86 142.513 107.223 142.513 106.571C142.513 105.92 142.323 105.283 141.968 104.743C141.613 104.203 141.11 103.785 140.522 103.542C139.934 103.3 139.29 103.244 138.671 103.383C138.052 103.521 137.488 103.847 137.051 104.319C137.051 104.319 134.252 106.482 132.832 103.308V92.1883H143.631C146.714 90.7263 144.613 87.8437 144.613 87.8437C144.155 87.3937 143.838 86.8127 143.704 86.1757C143.569 85.5387 143.623 84.8749 143.859 84.2698C144.094 83.6646 144.5 83.146 145.024 82.7807C145.549 82.4153 146.167 82.2201 146.8 82.2201C147.433 82.2201 148.052 82.4153 148.576 82.7807C149.1 83.146 149.506 83.6646 149.742 84.2698C149.977 84.8749 150.031 85.5387 149.897 86.1757C149.762 86.8127 149.446 87.3937 148.988 87.8437C147.256 90.5658 149.969 92.1883 149.969 92.1883H160.769Z" fill="#09254F"/>
<path d="M160.769 92.1883V120.96H132.832V109.834C132.832 109.834 134.408 107.017 137.051 108.824C137.488 109.296 138.052 109.622 138.671 109.76C139.29 109.898 139.934 109.843 140.522 109.6C141.11 109.358 141.613 108.94 141.968 108.4C142.323 107.86 142.513 107.223 142.513 106.571C142.513 105.92 142.323 105.283 141.968 104.743C141.613 104.203 141.11 103.785 140.522 103.542C139.934 103.3 139.29 103.244 138.671 103.383C138.052 103.521 137.488 103.847 137.051 104.319C137.051 104.319 134.252 106.482 132.832 103.308V92.1883H143.631C146.714 90.7263 144.613 87.8437 144.613 87.8437C144.155 87.3937 143.838 86.8127 143.704 86.1757C143.569 85.5387 143.623 84.8749 143.859 84.2698C144.094 83.6646 144.5 83.146 145.024 82.7807C145.549 82.4153 146.167 82.2201 146.8 82.2201C147.433 82.2201 148.052 82.4153 148.576 82.7807C149.1 83.146 149.506 83.6646 149.742 84.2698C149.977 84.8749 150.031 85.5387 149.897 86.1757C149.762 86.8127 149.446 87.3937 148.988 87.8437C147.256 90.5658 149.969 92.1883 149.969 92.1883H160.769Z" fill="url(#paint10_linear)"/>
<path d="M114.581 77.7994C114.579 78.4509 114.388 79.087 114.032 79.626C113.677 80.1651 113.173 80.5824 112.586 80.8245C111.998 81.0666 111.354 81.1224 110.735 80.9847C110.117 80.8471 109.553 80.5222 109.115 80.0519C106.471 78.2689 104.895 81.0623 104.895 81.0623V92.1884H132.832V63.4163H104.895V74.5365C106.315 77.7102 109.115 75.5468 109.115 75.5468C109.553 75.0765 110.117 74.7517 110.735 74.6141C111.354 74.4764 111.998 74.5322 112.586 74.7743C113.173 75.0164 113.677 75.4337 114.032 75.9727C114.388 76.5117 114.579 77.1478 114.581 77.7994Z" fill="#09254F"/>
<path d="M116.676 96.533C116.218 96.983 115.901 97.564 115.767 98.201C115.633 98.838 115.687 99.5018 115.922 100.107C116.157 100.712 116.563 101.231 117.088 101.596C117.612 101.961 118.231 102.157 118.864 102.157C119.497 102.157 120.115 101.961 120.639 101.596C121.164 101.231 121.57 100.712 121.805 100.107C122.041 99.5018 122.095 98.838 121.96 98.201C121.826 97.564 121.509 96.983 121.051 96.533C121.051 96.533 118.95 93.6504 122.032 92.1884H115.689C115.689 92.1884 118.431 93.8109 116.676 96.533Z" fill="#09254F"/>
<path d="M104.895 63.4163V74.5364C106.315 77.7102 109.115 75.5468 109.115 75.5468C109.552 75.0752 110.116 74.7492 110.734 74.6108C111.353 74.4724 111.998 74.528 112.585 74.7704C113.173 75.0128 113.677 75.4309 114.032 75.9707C114.386 76.5106 114.576 77.1475 114.576 77.7994C114.576 78.4512 114.386 79.0882 114.032 79.628C113.677 80.1679 113.173 80.586 112.585 80.8284C111.998 81.0707 111.353 81.1263 110.734 80.9879C110.116 80.8496 109.552 80.5235 109.115 80.0519C106.471 78.2689 104.895 81.0623 104.895 81.0623V92.1884H115.689C115.689 92.1884 118.425 93.811 116.67 96.533C116.212 96.9831 115.896 97.564 115.761 98.201C115.627 98.838 115.681 99.5019 115.916 100.107C116.152 100.712 116.558 101.231 117.082 101.596C117.606 101.961 118.225 102.157 118.858 102.157C119.491 102.157 120.109 101.961 120.634 101.596C121.158 101.231 121.564 100.712 121.799 100.107C122.035 99.5019 122.089 98.838 121.954 98.201C121.82 97.564 121.503 96.9831 121.045 96.533C121.045 96.533 118.944 93.6505 122.027 92.1884H132.832V63.4163H104.895Z" fill="url(#paint11_linear)"/>
<path d="M104.895 92.1884V120.96H132.832V109.834C132.832 109.834 134.408 107.017 137.051 108.824C137.488 109.296 138.052 109.622 138.671 109.76C139.29 109.898 139.934 109.843 140.522 109.6C141.11 109.358 141.613 108.94 141.968 108.4C142.323 107.86 142.513 107.223 142.513 106.571C142.513 105.92 142.323 105.283 141.968 104.743C141.613 104.203 141.11 103.785 140.522 103.542C139.934 103.3 139.29 103.244 138.671 103.383C138.052 103.521 137.488 103.847 137.051 104.319C137.051 104.319 134.252 106.482 132.832 103.308V92.1884H122.038C118.956 93.6504 121.057 96.533 121.057 96.533C121.515 96.983 121.832 97.564 121.966 98.201C122.1 98.838 122.046 99.5018 121.811 100.107C121.576 100.712 121.17 101.231 120.645 101.596C120.121 101.961 119.502 102.157 118.869 102.157C118.236 102.157 117.618 101.961 117.093 101.596C116.569 101.231 116.163 100.712 115.928 100.107C115.692 99.5018 115.638 98.838 115.773 98.201C115.907 97.564 116.224 96.983 116.682 96.533C118.413 93.8109 115.7 92.1884 115.7 92.1884H104.895Z" fill="#335992"/>
<path d="M77.0164 120.96V109.84C78.4363 106.667 81.2358 108.83 81.2358 108.83C81.6728 109.302 82.237 109.628 82.8556 109.766C83.4743 109.904 84.119 109.849 84.7066 109.606C85.2943 109.364 85.798 108.946 86.1528 108.406C86.5076 107.866 86.6972 107.229 86.6972 106.577C86.6972 105.925 86.5076 105.289 86.1528 104.749C85.798 104.209 85.2943 103.791 84.7066 103.548C84.119 103.306 83.4743 103.25 82.8556 103.389C82.237 103.527 81.6728 103.853 81.2358 104.325C78.5922 106.108 77.0164 103.314 77.0164 103.314V92.1883H87.8159C87.8159 92.1883 90.5518 90.5658 88.7971 87.8437C88.3391 87.3937 88.0225 86.8127 87.8881 86.1757C87.7537 85.5387 87.8077 84.8749 88.0431 84.2698C88.2785 83.6646 88.6845 83.146 89.2088 82.7807C89.7331 82.4153 90.3517 82.2201 90.9847 82.2201C91.6178 82.2201 92.2363 82.4153 92.7606 82.7807C93.2849 83.146 93.691 83.6646 93.9264 84.2698C94.1617 84.8749 94.2157 85.5387 94.0813 86.1757C93.9469 86.8127 93.6303 87.3937 93.1723 87.8437C93.1723 87.8437 91.0713 90.7263 94.1536 92.1883H104.953V120.96H77.0164Z" fill="#09254F"/>
<path d="M77.0164 120.96V109.84C78.4363 106.667 81.2358 108.83 81.2358 108.83C81.6728 109.302 82.237 109.628 82.8556 109.766C83.4743 109.904 84.119 109.849 84.7066 109.606C85.2943 109.364 85.798 108.946 86.1528 108.406C86.5076 107.866 86.6972 107.229 86.6972 106.577C86.6972 105.925 86.5076 105.289 86.1528 104.749C85.798 104.209 85.2943 103.791 84.7066 103.548C84.119 103.306 83.4743 103.25 82.8556 103.389C82.237 103.527 81.6728 103.853 81.2358 104.325C78.5922 106.108 77.0164 103.314 77.0164 103.314V92.1883H87.8159C87.8159 92.1883 90.5518 90.5658 88.7971 87.8437C88.3391 87.3937 88.0225 86.8127 87.8881 86.1757C87.7537 85.5387 87.8077 84.8749 88.0431 84.2698C88.2785 83.6646 88.6845 83.146 89.2088 82.7807C89.7331 82.4153 90.3517 82.2201 90.9847 82.2201C91.6178 82.2201 92.2363 82.4153 92.7606 82.7807C93.2849 83.146 93.691 83.6646 93.9264 84.2698C94.1617 84.8749 94.2157 85.5387 94.0813 86.1757C93.9469 86.8127 93.6303 87.3937 93.1723 87.8437C93.1723 87.8437 91.0713 90.7263 94.1536 92.1883H104.953V120.96H77.0164Z" fill="url(#paint12_linear)"/>
<path d="M114.615 77.8053C114.613 78.4569 114.423 79.093 114.067 79.632C113.712 80.171 113.208 80.5883 112.62 80.8304C112.033 81.0725 111.389 81.1283 110.77 80.9907C110.152 80.853 109.587 80.5282 109.149 80.0579C109.149 80.0579 106.35 77.8945 104.93 81.0683V92.1884H94.1305C91.0482 90.7263 93.1492 87.8438 93.1492 87.8438C93.6072 87.3938 93.9238 86.8128 94.0582 86.1758C94.1926 85.5388 94.1387 84.875 93.9033 84.2698C93.6679 83.6647 93.2619 83.1461 92.7376 82.7807C92.2132 82.4154 91.5947 82.2202 90.9616 82.2202C90.3286 82.2202 89.71 82.4154 89.1857 82.7807C88.6614 83.1461 88.2554 83.6647 88.02 84.2698C87.7846 84.875 87.7306 85.5388 87.865 86.1758C87.9994 86.8128 88.316 87.3938 88.774 87.8438C90.5056 90.5659 87.7928 92.1884 87.7928 92.1884H77.0164V63.4163H87.712C90.7942 64.8784 88.6932 67.761 88.6932 67.761C88.2352 68.211 87.9186 68.7919 87.7842 69.4289C87.6498 70.0659 87.7038 70.7298 87.9392 71.3349C88.1746 71.94 88.5806 72.4587 89.1049 72.824C89.6292 73.1893 90.2478 73.3846 90.8808 73.3846C91.5139 73.3846 92.1324 73.1893 92.6567 72.824C93.181 72.4587 93.5871 71.94 93.8225 71.3349C94.0578 70.7298 94.1118 70.0659 93.9774 69.4289C93.843 68.7919 93.5264 68.211 93.0684 67.761C91.3368 65.0389 94.0497 63.4163 94.0497 63.4163H104.953V74.5424C104.953 74.5424 106.529 77.3596 109.172 75.5528C109.61 75.0825 110.175 74.7577 110.793 74.62C111.412 74.4824 112.056 74.5382 112.643 74.7802C113.231 75.0223 113.735 75.4397 114.09 75.9787C114.446 76.5177 114.637 77.1538 114.638 77.8053H114.615Z" fill="#1A51A4"/>
<path d="M121.461 133.091C121.471 133.743 121.291 134.384 120.944 134.93C120.597 135.476 120.099 135.902 119.514 136.154C118.929 136.405 118.284 136.47 117.663 136.341C117.042 136.211 116.473 135.893 116.03 135.427C116.03 135.427 113.201 133.305 111.828 136.497L111.983 147.617L101.184 147.777C98.0785 146.363 100.139 143.45 100.139 143.45C100.589 142.994 100.895 142.409 101.02 141.772C101.144 141.134 101.08 140.473 100.836 139.874C100.592 139.274 100.18 138.763 99.6517 138.407C99.1235 138.05 98.5039 137.865 97.8725 137.874C97.2412 137.884 96.627 138.088 96.1091 138.46C95.5912 138.831 95.1932 139.354 94.9664 139.961C94.7396 140.568 94.6944 141.231 94.8365 141.864C94.9787 142.498 95.3017 143.073 95.764 143.516C97.5591 146.208 94.8462 147.872 94.8462 147.872L84.0467 148.033L83.6427 119.261L94.3383 119.106C97.4436 120.521 95.383 123.433 95.383 123.433C94.9334 123.889 94.6267 124.474 94.5025 125.111C94.3783 125.749 94.4422 126.41 94.686 127.01C94.9298 127.61 95.3423 128.12 95.8705 128.477C96.3987 128.833 97.0183 129.018 97.6497 129.009C98.281 128.999 98.8952 128.796 99.4131 128.424C99.931 128.052 100.329 127.529 100.556 126.922C100.783 126.315 100.828 125.653 100.686 125.019C100.544 124.386 100.221 123.81 99.7582 123.368C97.9631 120.675 100.676 119.011 100.676 119.011L111.579 118.851L111.735 129.977C111.735 129.977 113.351 132.77 115.966 130.922C116.263 130.596 116.62 130.336 117.017 130.156C117.413 129.976 117.841 129.881 118.275 129.876C119.111 129.869 119.915 130.204 120.512 130.806C121.109 131.409 121.45 132.23 121.461 133.091Z" fill="#09254F"/>
<path d="M87.5561 119.368C87.1694 119.807 86.8692 120.776 87.4811 121.186C87.6999 121.308 87.9426 121.377 88.191 121.388L91.458 121.798C91.3599 121.798 93.0684 141.62 93.7379 145.834C93.8188 146.333 94.0208 146.957 94.5114 147.022C94.6585 147.013 94.8015 146.969 94.9288 146.892C95.0561 146.816 95.1642 146.71 95.2444 146.583C95.716 145.822 95.9848 144.946 96.0237 144.045C96.8352 137.575 97.2208 131.056 97.1781 124.532C97.1781 123.243 97.1319 121.894 96.5085 120.77C96.1256 120.159 95.6237 119.636 95.0346 119.235C94.4454 118.834 93.7818 118.564 93.0857 118.44C91.2213 118.007 88.9125 117.81 87.5561 119.368Z" fill="url(#paint13_linear)"/>
<path d="M95.4176 160.508V160.585C95.5562 160.948 95.9948 161.067 96.3642 161.114C96.713 161.154 97.0639 161.169 97.4148 161.162C97.583 161.168 97.751 161.144 97.9111 161.09C98.0579 161.024 98.1957 160.938 98.321 160.835L99.3311 160.062C99.6149 159.861 99.8745 159.625 100.105 159.361C100.332 159.089 100.451 158.739 100.439 158.38C100.427 158.203 100.363 158.034 100.254 157.896C100.146 157.758 99.9989 157.657 99.8332 157.608C99.6224 157.581 99.4092 157.581 99.1983 157.608C98.9638 157.638 98.7257 157.599 98.5126 157.493C98.2995 157.388 98.1207 157.221 97.9977 157.013C97.956 156.819 97.8548 156.644 97.7091 156.514C97.5622 156.44 97.3956 156.42 97.2358 156.455C96.8854 156.473 96.5394 156.543 96.2084 156.663C96.0415 156.724 95.8901 156.823 95.7653 156.953C95.6405 157.082 95.5453 157.239 95.4869 157.411C95.4516 157.571 95.436 157.735 95.4407 157.899C95.4609 158.237 95.4609 158.577 95.4407 158.915C95.3946 159.337 95.3715 159.762 95.3715 160.187C95.3747 160.295 95.3902 160.403 95.4176 160.508Z" fill="#262836"/>
<path d="M105.213 160.645C104.533 160.965 103.833 161.239 103.117 161.465C102.833 161.591 102.514 161.61 102.217 161.518C102.101 161.46 101.998 161.377 101.915 161.275C101.832 161.172 101.772 161.053 101.738 160.924C101.676 160.662 101.65 160.391 101.663 160.122C101.707 159.704 101.79 159.292 101.911 158.891C101.975 158.517 102.027 158.142 102.073 157.768C102.148 157.227 102.217 156.692 102.281 156.157L104.099 156.556C104.289 156.597 104.468 157.352 104.584 157.513C104.668 157.631 104.777 157.728 104.903 157.797C105.029 157.866 105.168 157.905 105.311 157.911C105.621 157.865 105.933 157.839 106.246 157.833C106.448 157.882 106.628 157.998 106.759 158.164C106.889 158.33 106.963 158.535 106.967 158.749C106.966 158.961 106.921 159.17 106.837 159.364C106.752 159.557 106.63 159.73 106.477 159.872C106.171 160.157 105.819 160.387 105.438 160.55L105.213 160.645Z" fill="#262836"/>
<path d="M105.242 158.553C104.764 158.832 104.269 159.076 103.758 159.284H103.712C102.869 159.622 101.928 158.261 101.928 158.261C101.928 158.261 100.739 150.701 100.774 147.563C100.814 145.412 100.318 142.345 99.5734 136.782C99.3887 142.464 98.4537 144.96 98.6903 146.999C99.054 150.095 98.6211 157.786 98.6211 157.786C98.6211 157.786 97.8245 159.284 96.9529 159.082H96.901C96.3762 158.959 95.8611 158.796 95.3599 158.594C95.3599 158.594 94.344 148.003 94.344 145.21C94.344 142.416 94.4594 139.914 94.4594 139.914L93.9284 131.07L96.191 127.682L96.3757 127.605L96.5489 127.427L99.0597 125.531C99.0597 125.531 99.0597 125.971 99.0136 126.72L100.965 127.795L101.149 127.938L101.34 127.986L104.607 128.58C104.607 128.58 105.461 142.149 105.761 144.924C106.061 147.7 105.242 158.553 105.242 158.553Z" fill="#09254F"/>
<path d="M105.242 158.553C104.764 158.832 104.269 159.076 103.758 159.284H103.712C102.869 159.622 101.928 158.261 101.928 158.261C101.928 158.261 100.739 150.701 100.774 147.563C100.814 145.412 100.318 142.345 99.5734 136.782C99.3887 142.464 98.4537 144.96 98.6903 146.999C99.054 150.095 98.6211 157.786 98.6211 157.786C98.6211 157.786 97.8245 159.284 96.9529 159.082H96.901C96.3762 158.959 95.8611 158.796 95.3599 158.594C95.3599 158.594 94.344 148.003 94.344 145.21C94.344 142.416 94.4594 139.914 94.4594 139.914L93.9284 131.07L96.191 127.682L96.3757 127.605L96.5489 127.427L99.0597 125.531C99.0597 125.531 99.0597 125.971 99.0136 126.72L100.965 127.795L101.149 127.938L101.34 127.986L104.607 128.58C104.607 128.58 105.461 142.149 105.761 144.924C106.061 147.7 105.242 158.553 105.242 158.553Z" fill="url(#paint14_linear)"/>
<path d="M120.618 111.255C120.659 111.225 120.707 111.209 120.757 111.207C120.89 111.207 120.895 111.427 120.849 111.558C120.728 111.923 120.553 112.265 120.33 112.574C120.257 112.651 120.214 112.753 120.208 112.86C120.208 112.967 120.301 113.044 120.37 113.121C120.582 113.375 120.733 113.677 120.811 114.002C120.888 114.328 120.889 114.667 120.815 114.993C120.654 115.644 120.325 116.238 119.862 116.711C119.751 116.857 119.612 116.979 119.455 117.07C119.297 117.161 119.124 117.218 118.944 117.24C118.321 117.24 117.542 116.449 117.294 115.903C117.203 115.629 117.183 115.337 117.236 115.053C117.289 114.77 117.412 114.506 117.594 114.286C118.33 113.023 119.372 111.979 120.618 111.255Z" fill="#A67C52"/>
<path d="M102.535 105.014C102.737 105.228 103.048 105.448 102.962 105.727C102.915 105.876 102.76 105.965 102.644 106.072C102.359 106.383 102.206 106.798 102.217 107.225C102.229 107.65 102.171 108.074 102.044 108.479C101.972 108.68 101.835 108.848 101.656 108.956C101.477 109.065 101.268 109.106 101.063 109.074C100.826 109.008 100.589 108.794 100.358 108.895C100.128 108.996 100.128 109.192 100.035 109.359C99.9092 109.564 99.7298 109.728 99.5176 109.833C99.3053 109.938 99.0687 109.98 98.8346 109.953C98.3716 109.882 97.9254 109.722 97.5186 109.484C97.3458 109.413 97.1958 109.293 97.0857 109.139C97.0186 108.988 97.0023 108.819 97.0395 108.658C97.1822 108.174 97.4156 107.724 97.7264 107.332C98.2241 106.542 98.5236 105.638 98.598 104.699C98.6442 104.045 98.598 103.326 99.0078 102.821C99.585 102.132 100.895 102.138 101.582 102.643C102.269 103.148 101.9 104.343 102.535 105.014Z" fill="#A67C52"/>
<path d="M101.715 102.054C101.634 102.217 101.513 102.355 101.363 102.453C101.057 102.637 100.786 102.851 100.509 103.047C100.229 103.237 100.032 103.531 99.9602 103.867C99.839 104.462 100.162 105.139 99.9602 105.739C99.8852 105.864 99.6947 105.787 99.6196 105.668C99.5446 105.549 99.4984 105.401 99.383 105.329C99.181 105.21 98.9385 105.412 98.852 105.632C98.7625 105.888 98.7727 106.17 98.8803 106.418C98.9879 106.666 99.1846 106.862 99.4292 106.964C99.4003 107.154 99.1636 107.231 98.9732 107.207C98.7852 107.154 98.5909 107.128 98.396 107.13C97.9631 107.213 97.8188 107.849 97.3685 107.915C97.2195 107.904 97.0747 107.859 96.9455 107.782C96.8164 107.704 96.7063 107.597 96.624 107.469L96.0987 106.875C96.014 106.759 95.9214 106.65 95.8216 106.548C95.7004 106.453 95.5042 106.447 95.4061 106.334C95.3079 106.221 95.4061 105.953 95.3022 105.811C95.253 105.758 95.1914 105.719 95.1232 105.698C94.9721 105.619 94.8518 105.489 94.7825 105.33C94.7131 105.171 94.6989 104.993 94.7423 104.824C94.7563 104.782 94.7563 104.736 94.7423 104.693C94.7423 104.634 94.6615 104.61 94.6037 104.58C94.4444 104.474 94.3272 104.313 94.2732 104.125C94.2192 103.938 94.2321 103.737 94.3094 103.558C94.3972 103.353 94.5226 103.167 94.6788 103.011C94.7339 102.924 94.812 102.855 94.904 102.812C94.996 102.768 95.0981 102.753 95.1983 102.768L95.2848 101.989C95.2827 101.857 95.3091 101.726 95.362 101.606C95.4149 101.486 95.493 101.38 95.5908 101.294C95.6885 101.209 95.8034 101.147 95.9272 101.113C96.0509 101.079 96.1805 101.074 96.3065 101.098L96.1333 100.456C96.1015 100.374 96.1015 100.282 96.1333 100.2C96.1809 100.143 96.2462 100.105 96.318 100.093C96.5194 100.034 96.7266 99.9981 96.9356 99.9862C96.8607 99.8061 96.8027 99.619 96.7625 99.4275C96.7493 99.3999 96.7444 99.3689 96.7484 99.3385C96.7524 99.308 96.7651 99.2795 96.7849 99.2565C96.8048 99.2336 96.8308 99.2172 96.8597 99.2095C96.8886 99.2019 96.9191 99.2033 96.9472 99.2135C97.0237 99.2254 97.1015 99.2254 97.1781 99.2135C97.1781 99.2135 97.0626 98.6667 97.0569 98.6192C97.0219 98.4475 97.0529 98.2685 97.1434 98.1199C97.2066 98.046 97.2866 97.9893 97.3763 97.9551C97.4659 97.9209 97.5624 97.9101 97.6571 97.9238C97.8445 97.958 98.0243 98.0264 98.1882 98.1259C98.1882 97.9179 98.4364 97.8109 98.6384 97.793C99.0273 97.7706 99.4155 97.8498 99.7667 98.0233C100.118 98.1969 100.421 98.4591 100.647 98.7856C100.684 98.8431 100.727 98.8968 100.774 98.9461C100.866 99.0066 100.968 99.0508 101.074 99.0768C101.238 99.1515 101.384 99.2627 101.5 99.4026C101.617 99.5424 101.702 99.7072 101.75 99.8851C101.836 100.238 101.871 100.603 101.853 100.967C101.867 101.246 101.841 101.527 101.778 101.799C101.767 101.886 101.746 101.972 101.715 102.054Z" fill="#2F3554"/>
<path d="M98.8462 108.794C99.3269 109.002 99.7935 109.242 100.243 109.513C100.382 109.59 100.502 109.698 100.595 109.828C100.645 109.9 100.675 109.984 100.683 110.072C100.692 110.159 100.677 110.248 100.641 110.328C100.52 110.548 100.231 110.47 100.012 110.387C98.995 110.032 97.9217 109.879 96.8491 109.935C96.7774 109.948 96.7038 109.939 96.6365 109.911C96.5693 109.882 96.511 109.835 96.4681 109.775C96.4432 109.702 96.4339 109.624 96.4408 109.548C96.4478 109.471 96.4709 109.396 96.5085 109.329C97.0569 108.194 97.9515 108.378 98.8462 108.794Z" fill="white"/>
<path d="M118.604 117.555C118.395 118.089 118.087 118.575 117.698 118.987C117.322 119.421 116.936 119.837 116.543 120.241C115.595 121.185 114.595 122.072 113.548 122.898C112.836 123.545 111.988 124.013 111.071 124.265C110.699 124.355 110.31 124.33 109.952 124.194C109.66 124.044 109.396 123.843 109.172 123.599C108.907 123.326 105.825 119.671 105.773 119.671C105.598 119.767 105.462 119.926 105.392 120.117C104.946 121.067 104.671 122.091 104.578 123.142C104.54 123.61 104.54 124.082 104.578 124.55C104.699 126.149 105.242 127.795 104.705 129.305C104.598 129.624 104.42 129.913 104.185 130.149C103.959 130.352 103.699 130.512 103.418 130.619C102.92 130.828 102.401 130.98 101.871 131.07C101.568 131.128 101.261 131.161 100.953 131.171C99.7986 131.219 98.7019 130.993 97.5706 131.046C96.6124 131.1 95.66 131.356 94.6846 131.32C94.547 131.347 94.4052 131.344 94.269 131.31C94.1329 131.275 94.0055 131.211 93.8958 131.121C93.7861 131.032 93.6966 130.918 93.6334 130.789C93.5703 130.661 93.5351 130.519 93.5301 130.375C93.1563 128.259 92.9632 126.113 92.9529 123.962C92.9529 123.213 92.9125 122.458 92.8664 121.709C92.826 121.073 92.9934 119.457 92.2892 119.332C90.4998 118.975 88.6412 119.427 86.8346 119.166C86.8848 117.948 87.3869 116.797 88.2372 115.95C88.6543 115.588 89.1069 115.271 89.5879 115.005C90.1415 114.597 90.6386 114.113 91.0655 113.567C92.2929 112.006 93.848 110.752 95.6139 109.9C95.8951 109.758 96.1915 109.65 96.497 109.579H96.572C96.6161 109.574 96.6607 109.574 96.7048 109.579C97.0909 109.545 97.4797 109.569 97.8592 109.65C100.434 110.09 102.982 110.685 105.49 111.433C105.821 111.51 106.134 111.651 106.413 111.849C106.608 112.031 106.775 112.241 106.91 112.473C107.614 113.567 108.301 114.672 109.011 115.766C109.623 116.705 110.223 117.882 111.123 118.571C113.083 117.751 114.934 116.676 116.63 115.374C116.866 115.189 117.172 114.987 117.444 115.112C117.534 115.154 117.615 115.214 117.68 115.29C118.344 115.885 118.927 116.539 118.604 117.555Z" fill="white"/>
</g>
<defs>
<linearGradient id="paint0_linear" x1="99.4292" y1="143.284" x2="100.696" y2="166.929" gradientUnits="userSpaceOnUse">
<stop offset="0.01"/>
<stop offset="0.08" stop-opacity="0.69"/>
<stop offset="0.21" stop-opacity="0.32"/>
<stop offset="1" stop-opacity="0"/>
</linearGradient>
<linearGradient id="paint1_linear" x1="27562.4" y1="1319.43" x2="27569.2" y2="2805.09" gradientUnits="userSpaceOnUse">
<stop offset="0.01"/>
<stop offset="0.08" stop-opacity="0.69"/>
<stop offset="0.21" stop-opacity="0.32"/>
<stop offset="1" stop-opacity="0"/>
</linearGradient>
<linearGradient id="paint2_linear" x1="-19808.1" y1="9422.01" x2="-19629.4" y2="9489.66" gradientUnits="userSpaceOnUse">
<stop offset="0.01"/>
<stop offset="0.08" stop-opacity="0.69"/>
<stop offset="0.21" stop-opacity="0.32"/>
<stop offset="1" stop-opacity="0"/>
</linearGradient>
<linearGradient id="paint3_linear" x1="108.787" y1="83.9634" x2="56.3407" y2="-19.4497" gradientUnits="userSpaceOnUse">
<stop offset="0.01"/>
<stop offset="0.08" stop-opacity="0.69"/>
<stop offset="0.21" stop-opacity="0.32"/>
<stop offset="1" stop-opacity="0"/>
</linearGradient>
<linearGradient id="paint4_linear" x1="1493.68" y1="633.759" x2="1536.01" y2="929.847" gradientUnits="userSpaceOnUse">
<stop offset="0.01"/>
<stop offset="0.08" stop-opacity="0.69"/>
<stop offset="0.21" stop-opacity="0.32"/>
<stop offset="1" stop-opacity="0"/>
</linearGradient>
<linearGradient id="paint5_linear" x1="-7925.48" y1="-1464.11" x2="-8011.95" y2="-1402.73" gradientUnits="userSpaceOnUse">
<stop offset="0.01"/>
<stop offset="0.08" stop-opacity="0.69"/>
<stop offset="0.21" stop-opacity="0.32"/>
<stop offset="1" stop-opacity="0"/>
</linearGradient>
<linearGradient id="paint6_linear" x1="4820.65" y1="5034.01" x2="4739.54" y2="11956.5" gradientUnits="userSpaceOnUse">
<stop offset="0.01"/>
<stop offset="0.08" stop-opacity="0.69"/>
<stop offset="0.21" stop-opacity="0.32"/>
<stop offset="1" stop-opacity="0"/>
</linearGradient>
<linearGradient id="paint7_linear" x1="4832.82" y1="8733.42" x2="2246.31" y2="9524.22" gradientUnits="userSpaceOnUse">
<stop offset="0.01"/>
<stop offset="0.08" stop-opacity="0.69"/>
<stop offset="0.21" stop-opacity="0.32"/>
<stop offset="1" stop-opacity="0"/>
</linearGradient>
<linearGradient id="paint8_linear" x1="2965.28" y1="7997.08" x2="-599.673" y2="8821.54" gradientUnits="userSpaceOnUse">
<stop offset="0.01"/>
<stop offset="0.08" stop-opacity="0.69"/>
<stop offset="0.21" stop-opacity="0.32"/>
<stop offset="1" stop-opacity="0"/>
</linearGradient>
<linearGradient id="paint9_linear" x1="3718.91" y1="1291.89" x2="4553.28" y2="3211.15" gradientUnits="userSpaceOnUse">
<stop offset="0.01"/>
<stop offset="0.08" stop-opacity="0.69"/>
<stop offset="0.21" stop-opacity="0.32"/>
<stop offset="1" stop-opacity="0"/>
</linearGradient>
<linearGradient id="paint10_linear" x1="4864.73" y1="5303.64" x2="12741.3" y2="9285.75" gradientUnits="userSpaceOnUse">
<stop offset="0.01"/>
<stop offset="0.08" stop-opacity="0.69"/>
<stop offset="0.21" stop-opacity="0.32"/>
<stop offset="1" stop-opacity="0"/>
</linearGradient>
<linearGradient id="paint11_linear" x1="5669.03" y1="9868.98" x2="8002.17" y2="822.175" gradientUnits="userSpaceOnUse">
<stop offset="0.01" stop-color="#AAA3A3"/>
<stop offset="0.08" stop-opacity="0.69"/>
<stop offset="0.21" stop-opacity="0.32"/>
<stop offset="1" stop-opacity="0"/>
</linearGradient>
<linearGradient id="paint12_linear" x1="4875.69" y1="3510.35" x2="4512.7" y2="15023.5" gradientUnits="userSpaceOnUse">
<stop offset="0.01"/>
<stop offset="0.08" stop-opacity="0.69"/>
<stop offset="0.21" stop-opacity="0.32"/>
<stop offset="1" stop-opacity="0"/>
</linearGradient>
<linearGradient id="paint13_linear" x1="1541.93" y1="6297.73" x2="3221.41" y2="6932.63" gradientUnits="userSpaceOnUse">
<stop offset="0.01"/>
<stop offset="0.08" stop-opacity="0.69"/>
<stop offset="0.21" stop-opacity="0.32"/>
<stop offset="1" stop-opacity="0"/>
</linearGradient>
<linearGradient id="paint14_linear" x1="2039.73" y1="8086.7" x2="3460.55" y2="8786.75" gradientUnits="userSpaceOnUse">
<stop offset="0.01"/>
<stop offset="0.08" stop-opacity="0.69"/>
<stop offset="0.21" stop-opacity="0.32"/>
<stop offset="1" stop-opacity="0"/>
</linearGradient>
<clipPath id="clip0">
<rect width="230.339" height="178.76" fill="white"/>
</clipPath>
</defs>
</svg>
