<svg width="231" height="179" viewBox="0 0 231 179" fill="none" xmlns="http://www.w3.org/2000/svg">
<g clip-path="url(#clip0)">
<path opacity="0.18" d="M31.5532 104.82C37.3144 94.876 43.0385 84.9215 45.6856 73.7289C48.7784 60.6381 46.996 46.2545 51.8977 33.6164C55.956 23.171 61.9825 10.8657 71.8338 5.07298C78.0035 1.42936 85.3296 0.54028 92.433 0.163919C109.038 -0.659712 126.125 1.12391 141.589 7.6966C157.164 14.3238 165.074 23.9019 169.769 40.68C172.883 51.8236 174.899 63.6544 181.376 73.1453C186.108 80.0725 192.872 85.2215 198.453 91.4451C218.314 113.596 220.426 156.839 190.097 170.759C177.997 176.323 164.299 176.546 151.048 176.677L81.8018 177.359C72.863 177.446 62.7411 179.639 54.0781 177.741C44.9171 175.716 36.3239 171.575 28.9485 165.632C25.7177 163.046 22.7098 160.057 20.6197 156.425C13.7603 144.501 18.3544 129.152 24.7363 116.945C26.8795 112.865 29.2137 108.834 31.5532 104.82Z" fill="#09254F"/>
<path opacity="0.47" d="M112.995 174.408C152.862 174.408 185.18 166.635 185.18 157.046C185.18 147.458 152.862 139.685 112.995 139.685C73.1286 139.685 40.8104 147.458 40.8104 157.046C40.8104 166.635 73.1286 174.408 112.995 174.408Z" fill="white"/>
<path d="M147.727 166.046H128.756L111.032 147.823H80.1838L84.449 155.639H63.1337V155.094H83.5419L79.282 147.277H111.25L128.979 165.501H146.353L136.973 156.774H153.801L148.39 151.204L148.761 150.823L155.085 157.319H138.347L147.727 166.046Z" fill="#09254F"/>
<path d="M124.348 170.89L112.353 158.557H122.114V159.103H113.632L124.724 170.502L124.348 170.89Z" fill="#09254F"/>
<path d="M105 167.279L102.157 162.79H82.5021L78.1627 155.508L78.6136 155.219L82.7992 162.244H102.443L105.446 166.979L105 167.279Z" fill="#09254F"/>
<path d="M66.7676 162.79H58.0515V162.244H65.94L61.8499 153.054L62.3327 152.83L66.7676 162.79Z" fill="#09254F"/>
<path d="M148.655 151.314C147.684 151.314 146.034 151.106 146.034 150.326C146.034 149.546 147.684 149.334 148.655 149.334C149.626 149.334 151.276 149.541 151.276 150.326C151.276 151.112 149.631 151.314 148.655 151.314ZM148.655 149.879C147.414 149.879 146.634 150.179 146.533 150.343C146.607 150.468 147.387 150.768 148.655 150.768C149.923 150.768 150.629 150.49 150.74 150.326C150.629 150.163 149.854 149.879 148.655 149.879Z" fill="#09254F"/>
<path d="M124.73 172.406C123.759 172.406 122.109 172.199 122.109 171.413C122.109 170.628 123.759 170.421 124.73 170.421C125.7 170.421 127.35 170.634 127.35 171.413C127.35 172.193 125.706 172.406 124.73 172.406ZM124.73 170.966C123.488 170.966 122.708 171.266 122.639 171.43C122.708 171.561 123.488 171.861 124.73 171.861C125.971 171.861 126.703 171.577 126.814 171.413C126.703 171.228 125.934 170.966 124.73 170.966Z" fill="#09254F"/>
<path d="M105.701 168.839C104.725 168.839 103.08 168.626 103.08 167.846C103.08 167.066 104.725 166.854 105.701 166.854C106.677 166.854 108.321 167.066 108.321 167.846C108.321 168.626 106.672 168.839 105.701 168.839ZM105.701 167.399C104.459 167.399 103.68 167.699 103.579 167.863C103.653 167.994 104.433 168.294 105.701 168.294C106.969 168.294 107.674 168.01 107.786 167.846C107.674 167.683 106.884 167.41 105.701 167.41V167.399Z" fill="#09254F"/>
<path d="M56.1683 163.504C55.1921 163.504 53.5476 163.297 53.5476 162.512C53.5476 161.726 55.1921 161.524 56.1683 161.524C57.1444 161.524 58.7889 161.732 58.7889 162.512C58.7889 163.292 57.1391 163.504 56.1683 163.504ZM56.1683 162.07C54.9269 162.07 54.1471 162.37 54.0463 162.528C54.1205 162.659 54.9004 162.959 56.1683 162.959C57.4361 162.959 58.1417 162.681 58.2531 162.512C58.1417 162.348 57.3725 162.07 56.1683 162.07Z" fill="#09254F"/>
<path d="M62.2 153.228C61.2292 153.228 59.5794 153.015 59.5794 152.235C59.5794 151.455 61.2292 151.243 62.2 151.243C63.1708 151.243 64.8207 151.45 64.8207 152.235C64.8207 153.021 63.1761 153.228 62.2 153.228ZM62.2 151.788C60.9587 151.788 60.1788 152.088 60.1099 152.252C60.1788 152.377 60.9587 152.683 62.2 152.683C63.4414 152.683 64.1735 152.399 64.2849 152.235C64.1735 152.05 63.383 151.766 62.2 151.766V151.788Z" fill="#09254F"/>
<path opacity="0.1" d="M86.7832 155.634C86.3201 155.826 85.9422 156.187 85.7222 156.648C85.1917 158.088 87.4835 159.326 87.1652 160.832C86.7779 162.621 83.7276 161.835 82.6719 163.314C81.9929 164.257 82.5711 165.697 83.5472 166.308C84.5233 166.919 85.7329 166.919 86.8734 166.908C99.7609 166.755 112.641 166.308 125.515 165.566C133.78 165.092 142.252 164.448 149.774 160.897C150.402 160.683 150.933 160.244 151.27 159.659C151.382 159.312 151.414 158.942 151.365 158.58C151.315 158.218 151.185 157.872 150.984 157.57C149.069 154.063 144.469 153.49 140.56 153.332C141.202 151.532 140.029 149.481 138.385 148.543C136.74 147.605 134.814 147.517 132.947 147.452L127.212 147.228C124.857 147.135 122.326 147.097 120.38 148.45C118.788 149.541 117.86 151.401 116.396 152.655C112.979 155.574 107.908 154.51 103.605 153.441C100.735 152.726 97.478 152.105 94.5868 152.955C93.3455 153.321 92.4277 154.248 91.2606 154.657C89.7699 155.159 88.2421 154.864 86.7832 155.634Z" fill="#020202"/>
<path d="M98.1889 144.566C97.6266 145.832 97.0483 147.141 97.0589 148.532C97.1266 149.905 97.5984 151.225 98.4117 152.317C100.106 154.759 102.653 156.432 105.52 156.986C105.893 157.095 106.292 157.064 106.645 156.899C106.885 156.732 107.069 156.494 107.175 156.217C107.817 154.777 107.488 153.081 107 151.575C106.512 150.07 105.855 148.575 105.876 146.988C105.913 144.01 109.892 138.114 105.027 136.854C100.969 135.774 99.4037 141.866 98.1889 144.566Z" fill="#FFBBAB"/>
<path d="M124.624 139.963C124.226 141.288 123.828 142.69 124.013 144.043C124.26 145.395 124.9 146.639 125.849 147.61C127.844 149.796 130.582 151.105 133.493 151.264C133.879 151.321 134.272 151.236 134.602 151.024C134.82 150.826 134.974 150.563 135.042 150.272C135.493 148.755 134.947 147.124 134.268 145.701C133.589 144.277 132.745 142.881 132.56 141.305C132.21 138.348 135.393 131.961 130.406 131.377C126.242 130.865 125.478 137.115 124.624 139.963Z" fill="#FFBBAB"/>
<path d="M116.841 88.5921C120.167 91.7067 123.409 94.9357 126.507 98.2902C128.395 100.366 130.178 102.54 131.849 104.803C134.385 108.163 135.324 110.868 135.467 115.21C135.684 121.646 135.891 128.159 134.592 134.459C134.284 135.943 133.806 137.535 132.576 138.37C130.761 139.603 128.157 138.441 126.984 136.554C125.812 134.666 125.669 132.321 125.499 130.085C125.128 125.257 124.618 120.266 123.451 115.537C122.783 112.843 120.544 112.014 118.406 110.557C114.358 107.83 107.626 104.137 105.637 99.3102C104.281 95.7792 103.165 92.156 102.295 88.4667L116.841 88.5921Z" fill="#282328"/>
<path d="M110.242 89.1594C111.54 93.7521 112.758 98.3703 113.897 103.014C114.778 106.587 115.626 110.176 116.337 113.787C116.937 116.857 118.258 121.39 117.621 124.412C117.282 125.716 116.758 126.962 116.067 128.11L109.255 140.715C108.897 141.511 108.369 142.214 107.711 142.772C106.295 143.792 103.138 142.199 101.971 141.195C100.804 140.192 100.475 138.806 100.55 137.279C100.926 129.676 104.703 126.277 105.282 118.685C105.282 118.685 91.0484 105.665 92.799 89.2303C94.5497 72.7959 110.242 89.1594 110.242 89.1594Z" fill="#282328"/>
<path d="M129.822 63.3432C129.732 64.9305 129.234 66.316 127.891 66.7741C127.779 66.8165 127.664 66.8493 127.547 66.8723C125.08 67.3796 121.844 65.4487 119.589 63.7632C118.651 63.0648 117.751 62.3127 116.894 61.5105V44.5306L128.894 57.1633C128.894 57.1633 129.992 60.556 129.822 63.3432Z" fill="white"/>
<path d="M119.616 63.7087C119.046 66.7914 118.691 69.9121 118.555 73.0468C118.263 78.2559 117.557 83.4104 116.852 88.5867C112.077 89.6122 107.165 89.2194 102.306 88.4613C100.608 88.194 98.921 87.8885 97.2446 87.5776C96.677 87.474 96.1836 87.1849 95.6001 87.0322C92.8096 86.3176 91.685 72.2396 91.4304 67.8269C91.1863 63.6269 91.1032 59.4251 91.181 55.2215C91.2394 52.1724 91.4728 48.8779 93.4091 46.5761C95.9873 43.5107 100.969 41.4816 104.751 40.7671C105.972 40.5101 107.223 40.4384 108.465 40.5543C110.231 40.8443 111.937 41.44 113.51 42.3161C115.388 43.2707 117.059 44.0779 117.982 45.987C118.993 48.193 119.699 50.534 120.077 52.9415C120.677 56.536 120.284 60.1742 119.616 63.7087Z" fill="white"/>
<path opacity="0.1" d="M102.295 88.4667C100.597 88.1994 98.9103 87.894 97.234 87.5831C96.6663 87.4794 96.173 87.1904 95.5894 87.0376C92.799 86.3231 91.6744 72.245 91.4197 67.8323L98.1464 59.8851C98.1464 59.8851 96.2738 82.8104 102.295 88.4667Z" fill="#020202"/>
<path d="M110.958 37.1452C110.503 37.6516 109.885 37.9697 109.218 38.0398C108.661 38.1024 108.1 38.1134 107.542 38.0725H107.229C107.15 38.0585 107.069 38.074 107 38.1161C106.935 38.1847 106.899 38.2767 106.9 38.3725C106.778 39.5191 106.756 40.6747 106.836 41.8252C106.836 42.0325 106.868 42.2397 106.889 42.447C106.93 42.6642 106.912 42.889 106.836 43.0961C106.758 43.2146 106.657 43.316 106.541 43.3946C106.424 43.4732 106.294 43.5275 106.157 43.5543C105.668 43.7241 105.156 43.8143 104.64 43.8215C103.536 43.8215 102.518 43.2488 101.552 42.7034C101.627 40.7362 101.526 38.7661 101.25 36.8179C100.894 34.3198 100.253 31.7725 100.518 29.2471C100.577 28.254 100.929 27.3029 101.526 26.5198C102.412 25.4998 103.839 25.1671 105.17 25.1726C106.934 25.1398 108.671 25.6282 110.173 26.5798C110.703 26.9671 110.788 27.458 110.915 28.1016C111.106 29.0944 111.26 30.098 111.366 31.1016C111.49 32.2471 111.559 33.398 111.573 34.5543C111.584 35.4489 111.531 36.447 110.958 37.1452Z" fill="#FFBBAB"/>
<path d="M109.006 27.1525C107.748 27.3707 106.353 27.1525 105.197 27.6434C103.542 28.3362 102.836 30.5452 103.388 32.2907C102.91 32.4707 102.825 31.5816 102.454 31.1998C102.083 30.818 101.25 31.3198 101.192 31.9361C101.223 32.5562 101.405 33.1583 101.722 33.687C102.173 34.7752 102.252 35.9888 101.945 37.1288C101.871 37.3961 101.68 37.7125 101.414 37.6416C101.149 37.5706 100.969 37.0961 100.81 36.9161C100.557 36.6014 100.278 36.3094 99.9767 36.0434C99.3931 35.4979 98.7512 35.0561 98.1571 34.5434C97.0961 33.6325 96.1147 32.3998 96.1783 30.9816C96.2038 30.396 96.3875 29.8294 96.7088 29.3452C96.9803 28.9334 97.3304 28.5826 97.738 28.3143C97.9077 28.2052 98.0987 28.0853 98.1358 27.8889C98.1476 27.7765 98.1349 27.6629 98.0987 27.5562C97.7327 26.1162 98.5125 24.5725 99.6637 23.678C100.877 22.8644 102.26 22.3579 103.701 22.1998C104.624 22.0307 105.557 21.8944 106.486 21.7853C107.257 21.7465 108.014 21.5615 108.719 21.2398C108.537 20.7198 108.289 20.2266 107.982 19.7726C108.641 19.9849 109.268 20.2915 109.844 20.6835C109.812 20.3535 109.727 20.0311 109.595 19.7289C110.608 20.0835 111.674 20.4817 112.343 21.3653C112.73 21.918 112.947 22.5781 112.964 23.2592C112.981 23.9404 112.797 24.611 112.438 25.1835C111.722 26.3453 110.592 26.8198 109.345 27.1198L109.006 27.1525Z" fill="#FC682D"/>
<path d="M107.542 38.0725H107.229C107.15 38.0586 107.069 38.074 107 38.1161C106.935 38.1847 106.899 38.2768 106.9 38.3725C106.778 39.5191 106.756 40.6747 106.836 41.8252C106.836 41.8252 103.653 40.9852 103.738 36.9161C104.956 37.4374 106.223 37.825 107.52 38.0725H107.542Z" fill="#E0A194"/>
<path d="M146.172 49.4015C145.493 49.8433 144.581 49.9469 144.14 50.6778C143.637 51.5015 144.14 52.5542 144.252 53.5196C144.369 54.584 144.076 55.6533 143.435 56.4978C143.241 56.7626 143.02 57.0057 142.777 57.2232C141.725 58.1026 140.419 58.5994 139.064 58.636C139.064 58.636 138.316 55.5487 138.337 55.2323C138.427 54.1414 139.154 53.1487 139.271 52.0196C139.318 50.8221 139.424 49.6279 139.589 48.4415C139.829 47.2957 140.325 46.2234 141.039 45.3096C141.753 44.3958 142.664 43.6659 143.7 43.1779C143.96 43.0579 144.331 42.987 144.475 43.2433C144.524 43.3523 144.537 43.475 144.512 43.5924C144.353 44.8306 143.568 45.8779 142.809 46.8651C143.494 46.462 144.23 46.1556 144.995 45.9542C145.334 45.8615 145.838 45.916 145.843 46.276C145.831 46.3614 145.801 46.4433 145.756 46.5164C145.712 46.5896 145.653 46.6526 145.583 46.7015L143.536 48.5887C144.367 48.3115 145.244 48.2131 146.114 48.2997C146.26 48.3008 146.401 48.3506 146.517 48.4415C146.772 48.7197 146.496 49.1942 146.172 49.4015Z" fill="#FFBBAB"/>
<path d="M146.172 49.4015C145.493 49.8433 144.581 49.947 144.14 50.6779C143.637 51.5015 144.14 52.5542 144.252 53.5197C144.369 54.5841 144.076 55.6534 143.435 56.4979C143.194 56.648 142.938 56.7705 142.671 56.8633C142.486 56.9498 142.278 56.9672 142.082 56.9124C141.927 56.8248 141.807 56.6841 141.742 56.5147C141.677 56.3454 141.671 56.158 141.727 55.9851C141.85 55.6443 142.002 55.3157 142.183 55.0033C142.432 54.444 142.464 53.8081 142.273 53.2251C142.033 52.7767 141.884 52.2833 141.833 51.7742C141.883 51.4572 142.001 51.1555 142.178 50.8906L142.798 49.7997C142.907 49.6362 142.98 49.45 143.011 49.2543C143.025 49.1598 143.011 49.063 142.97 48.9771C142.93 48.8912 142.864 48.8203 142.782 48.7743C142.681 48.7494 142.575 48.7508 142.474 48.7784C142.373 48.806 142.28 48.859 142.204 48.9324C141.859 49.1888 141.037 50.2743 141.143 49.2652C141.271 48.5819 141.513 47.9267 141.859 47.3288C142.526 46.1069 143.306 44.9543 144.188 43.887C144.281 43.7687 144.384 43.6592 144.496 43.5598C144.337 44.7979 143.552 45.8452 142.793 46.8325C143.479 46.4293 144.214 46.1229 144.979 45.9216C145.318 45.8288 145.822 45.8834 145.827 46.2434C145.815 46.3288 145.785 46.4106 145.74 46.4838C145.696 46.5569 145.637 46.6199 145.568 46.6688L143.52 48.5561C144.351 48.2788 145.228 48.1804 146.098 48.267C146.244 48.2682 146.385 48.3179 146.501 48.4088C146.772 48.7197 146.496 49.1943 146.172 49.4015Z" fill="#E0A194"/>
<path d="M63.5793 48.7088C64.2583 49.1507 65.1708 49.2816 65.6111 49.9852C66.1416 50.8088 65.6111 51.8615 65.4997 52.827C65.3823 53.8914 65.6756 54.9607 66.3166 55.8052C66.5106 56.07 66.7311 56.3131 66.9745 56.5306C68.0267 57.41 69.3324 57.9067 70.6879 57.9433C70.6879 57.9433 71.4359 54.8561 71.4147 54.5397C71.3245 53.4488 70.5978 52.4561 70.481 51.327C70.4338 50.1295 70.3276 48.9353 70.1627 47.7488C69.9229 46.6082 69.4286 45.5405 68.7188 44.6299C68.009 43.7193 67.1031 42.9907 66.0726 42.5016C65.8127 42.3816 65.4413 42.3107 65.2981 42.5671C65.2486 42.676 65.2356 42.7988 65.261 42.9161C65.4201 44.1543 66.2052 45.2016 66.9639 46.1889C66.2784 45.7857 65.5432 45.4793 64.7782 45.2779C64.444 45.1852 63.9135 45.2289 63.9135 45.5998C63.9263 45.6852 63.9559 45.767 64.0006 45.8402C64.0453 45.9133 64.1042 45.9763 64.1734 46.0252L66.2212 47.9125C65.3902 47.6352 64.5125 47.5368 63.6429 47.6234C63.4972 47.6246 63.3557 47.6743 63.2398 47.7652C62.9798 48.027 63.2557 48.5016 63.5793 48.7088Z" fill="#FFBBAB"/>
<path d="M63.5793 48.7088C64.2583 49.1506 65.1708 49.2815 65.6111 49.9851C66.1416 50.8088 65.6111 51.8615 65.4997 52.8269C65.3823 53.8913 65.6756 54.9606 66.3166 55.8051C66.5575 55.9552 66.8137 56.0778 67.0806 56.1705C67.2653 56.257 67.4736 56.2744 67.6694 56.2196C67.8246 56.132 67.9451 55.9913 68.01 55.822C68.0749 55.6526 68.0801 55.4653 68.0248 55.2924C67.902 54.9516 67.7493 54.6229 67.5686 54.3106C67.3195 53.7512 67.2873 53.1153 67.4784 52.5324C67.7183 52.084 67.868 51.5906 67.9188 51.0815C67.8685 50.7644 67.7507 50.4627 67.5739 50.1979L66.9532 49.107C66.8442 48.9435 66.7717 48.7572 66.741 48.5615C66.7263 48.4671 66.7403 48.3703 66.7811 48.2843C66.8219 48.1984 66.8876 48.1276 66.9692 48.0815C67.0708 48.0566 67.1767 48.0581 67.2777 48.0857C67.3786 48.1133 67.4713 48.1662 67.5474 48.2397C67.8922 48.4961 68.7145 49.5815 68.6084 48.5724C68.4807 47.8892 68.2383 47.2339 67.8922 46.6361C67.2258 45.4142 66.4459 44.2615 65.5633 43.1943C65.4705 43.0759 65.3675 42.9664 65.2557 42.867C65.4148 44.1052 66.1999 45.1524 66.9586 46.1397C66.2731 45.7366 65.5379 45.4302 64.7729 45.2288C64.444 45.1852 63.9135 45.2288 63.9135 45.5997C63.9263 45.6851 63.9559 45.7669 64.0006 45.8401C64.0453 45.9133 64.1042 45.9763 64.1734 46.0252L66.2212 47.9124C65.3902 47.6352 64.5125 47.5368 63.6429 47.6233C63.4972 47.6245 63.3557 47.6743 63.2398 47.7652C62.9798 48.027 63.2557 48.5015 63.5793 48.7088Z" fill="#E0A194"/>
<path d="M139.828 58.9578C138.254 61.255 136.305 63.2538 134.066 64.865C132.45 65.9942 130.58 66.6812 128.634 66.8614C128.378 66.8846 128.12 66.8549 127.875 66.7741C127.453 66.6508 127.081 66.3906 126.815 66.0323C126.004 65.0382 125.518 63.8076 125.425 62.5141C125.292 59.1323 128.857 57.1632 128.857 57.1632C128.857 57.1632 136.974 54.5014 137.939 54.9378C138.469 55.1723 138.968 56.3451 139.318 57.3651C139.642 58.216 139.828 58.9578 139.828 58.9578Z" fill="white"/>
<path d="M101.705 55.8018C103.952 53.2239 103.741 49.2625 101.235 46.9537C98.7291 44.6449 94.8764 44.8631 92.6299 47.441L81.6168 60.0791C79.3703 62.657 79.5808 66.6185 82.087 68.9272C84.5931 71.236 88.4458 71.0178 90.6923 68.4399L101.705 55.8018Z" fill="white"/>
<path d="M84.3058 60.1251L72.5234 52.5978L67.9824 58.636C67.9824 58.636 79.4252 72.0595 83.7965 71.3668C88.1678 70.6741 89.7222 69.3432 89.7222 69.3432C89.7222 69.3432 91.372 63.4959 84.3058 60.1251Z" fill="white"/>
<path opacity="0.1" d="M139.828 58.9578C138.254 61.255 136.305 63.2538 134.066 64.8651C132.45 65.9942 130.58 66.6813 128.634 66.8614C128.378 66.8847 128.12 66.855 127.875 66.7741C127.763 66.8165 127.648 66.8493 127.531 66.8723C125.064 67.3796 121.828 65.4487 119.573 63.7632V63.7087L120.337 58.636C121.815 60.2059 123.534 61.5159 125.425 62.5142C126.759 63.2502 128.283 63.54 129.785 63.3433C130.19 63.2767 130.585 63.1538 130.958 62.9778C133.97 61.4895 136.781 59.6026 139.318 57.3651C139.642 58.216 139.828 58.9578 139.828 58.9578Z" fill="#020202"/>
<path d="M122.438 144.277C122.438 144.277 121.218 145.701 121.695 146.961C122.173 148.221 128.661 156.512 135.7 154.248C142.74 151.984 129.764 146.683 129.764 146.683L122.438 144.277Z" fill="#09254F"/>
<path d="M124.077 140.53C124.375 140.493 124.677 140.567 124.926 140.739C125.175 140.912 125.356 141.17 125.435 141.468C125.753 142.559 127.35 144.495 129.324 144.703C131.297 144.91 132.756 143.017 133.668 143.334C134.581 143.65 137.971 149.612 137.621 151.515C137.271 153.419 134.353 153.877 131.562 153.075C128.772 152.274 123.26 148.101 122.586 146.203C121.913 144.305 123.128 141.228 124.077 140.53Z" fill="white"/>
<path opacity="0.33" d="M110.9 21.5508C110.881 21.6025 110.851 21.6496 110.814 21.689C110.776 21.7285 110.731 21.7595 110.681 21.78C110.631 21.8005 110.578 21.8101 110.524 21.8082C110.47 21.8063 110.418 21.793 110.369 21.769C110.183 21.679 110.023 21.542 109.902 21.3708C109.72 21.8972 109.7 22.4684 109.844 23.0071C109.983 23.5422 109.913 24.1121 109.648 24.5944C109.51 24.7853 109.319 24.9217 109.17 25.1017C109.086 25.1816 109.022 25.2816 108.984 25.3929C108.946 25.5041 108.935 25.6233 108.953 25.7398C109.043 26.1108 109.51 26.2198 109.876 26.1598C110.181 26.1116 110.475 26.0009 110.738 25.8341C111.001 25.6673 111.229 25.4479 111.409 25.1889C111.773 24.5575 111.98 23.8439 112.014 23.1108C112.088 22.4726 112.205 21.8944 111.775 21.3926C111.658 21.2562 111.191 20.8144 111.006 20.9017C110.746 21.0053 110.958 21.3053 110.9 21.5508Z" fill="white"/>
<path opacity="0.33" d="M110.656 33.0434C110.624 33.0816 110.587 33.1197 110.555 33.1634C110.5 33.2652 110.471 33.3797 110.471 33.4961C110.471 33.6125 110.5 33.727 110.555 33.8288C110.662 34.0346 110.804 34.2192 110.974 34.3743C111.016 34.4125 111.059 34.4561 111.112 34.4506C111.165 34.4452 111.223 34.3743 111.25 34.3088C111.409 33.7552 111.447 33.1721 111.361 32.6016C111.287 31.7288 111.186 30.8779 111.059 30.027C111.028 29.2352 110.848 28.4572 110.528 27.7361C110.418 27.5605 110.252 27.43 110.058 27.3672C109.864 27.3044 109.655 27.3134 109.467 27.3925C108.873 27.6543 109.26 28.3307 109.425 28.7725C109.579 29.3184 109.675 29.8798 109.711 30.447C109.746 31.0202 109.963 31.566 110.327 32.0016C110.463 32.1171 110.591 32.2429 110.709 32.3779C110.767 32.447 110.807 32.5312 110.823 32.6215C110.838 32.7118 110.83 32.8048 110.799 32.8906C110.76 32.9496 110.711 33.0013 110.656 33.0434Z" fill="white"/>
<path opacity="0.33" d="M129.934 58.9033C129.687 58.9711 129.431 58.9987 129.175 58.9851C128.848 58.9254 128.534 58.8013 128.252 58.6196C127.573 58.2735 126.934 57.849 126.348 57.3542C125.76 56.8561 125.352 56.1708 125.186 55.4069C126.65 55.8269 127.838 57.2287 129.35 57.2178C129.837 57.1874 130.316 57.0826 130.772 56.9069L133.005 56.1706C134.528 55.6742 136.114 55.1669 137.69 55.4069C137.753 55.4106 137.814 55.4377 137.859 55.4833C137.877 55.509 137.89 55.5385 137.895 55.5696C137.901 55.6007 137.899 55.6327 137.891 55.6633C137.79 56.296 137.106 56.4051 136.629 56.5851C135.886 56.8687 135.175 57.2451 134.432 57.5342C132.967 58.1017 131.464 58.5592 129.934 58.9033Z" fill="white"/>
<path opacity="0.33" d="M113.016 49.8543C114.62 52.1716 115.73 54.811 116.274 57.5997C116.618 59.3833 116.756 61.2869 117.754 62.7814C118.449 62.3451 118.565 61.3742 118.571 60.5396C118.509 57.7554 118.216 54.9817 117.695 52.2488C117.53 50.9282 117.22 49.6309 116.772 48.3815C116.208 47.0122 115.323 45.8082 114.195 44.8772C113.068 43.9462 111.733 43.3173 110.311 43.047C110.19 42.9793 110.051 42.9517 109.914 42.968C109.778 42.9843 109.649 43.0437 109.546 43.138C109.443 43.2323 109.371 43.357 109.34 43.495C109.309 43.633 109.32 43.7775 109.372 43.9088C109.612 45.6441 110.473 47.2249 111.786 48.3434" fill="white"/>
<path d="M71.436 5.41089V33.818C52.9057 30.6762 40.8051 25.4889 40.8051 19.6363C40.8051 13.7836 52.9057 8.5636 71.436 5.41089Z" fill="url(#paint0_linear)"/>
<path d="M92.6505 36.2834V145.046C84.9689 144.501 77.8231 143.666 71.4306 142.581C52.9004 139.439 40.7998 134.252 40.7998 128.399V19.6199C40.7998 25.4889 52.9004 30.6762 71.4306 33.8016C77.8231 34.9034 84.9689 35.7434 92.6505 36.2834Z" fill="url(#paint1_linear)"/>
<path d="M151.01 5.41089V33.818C169.541 30.6762 181.641 25.4889 181.641 19.6363C181.641 13.7836 169.541 8.5636 151.01 5.41089Z" fill="url(#paint2_linear)"/>
<path d="M129.796 36.2834V145.046C137.477 144.501 144.623 143.666 151.016 142.581C169.546 139.439 181.647 134.252 181.647 128.399V19.6199C181.647 25.4889 169.546 30.6762 151.016 33.8016C144.623 34.9034 137.477 35.7434 129.796 36.2834Z" fill="url(#paint3_linear)"/>
<path d="M144.252 58.4506V136.128C149.737 135.741 154.862 135.141 159.403 134.366C172.639 132.125 181.281 128.421 181.281 124.227V46.5488C181.281 50.7433 172.639 54.447 159.403 56.6888C154.846 57.4633 149.737 58.0633 144.252 58.4506Z" fill="url(#paint4_linear)"/>
<path d="M151.01 51.2615V128.939C156.496 128.557 161.62 127.957 166.161 127.183C179.397 124.936 188.039 121.232 188.039 117.037V39.3597C188.039 43.5543 179.397 47.2579 166.161 49.5051C161.599 50.2797 156.496 50.8797 151.01 51.2615Z" fill="white"/>
<path d="M151.01 51.2615V128.939C156.496 128.557 161.62 127.957 166.161 127.183C179.397 124.936 188.039 121.232 188.039 117.037V39.3597C188.039 43.5543 179.397 47.2579 166.161 49.5051C161.599 50.2797 156.496 50.8797 151.01 51.2615Z" fill="url(#paint5_linear)"/>
<path d="M51.8643 104.783C57.9811 104.338 62.2068 93.332 61.3025 80.2005C60.3982 67.069 54.7065 56.7848 48.5896 57.2301C42.4727 57.6754 38.2471 68.6816 39.1514 81.8131C40.0556 94.9446 45.7474 105.229 51.8643 104.783Z" fill="#09254F"/>
<path d="M51.8643 104.783C57.9811 104.338 62.2068 93.332 61.3025 80.2005C60.3982 67.069 54.7065 56.7848 48.5896 57.2301C42.4727 57.6754 38.2471 68.6816 39.1514 81.8131C40.0556 94.9446 45.7474 105.229 51.8643 104.783Z" fill="#09254F"/>
<path opacity="0.29" d="M51.8643 104.783C57.9811 104.338 62.2068 93.332 61.3025 80.2005C60.3982 67.069 54.7065 56.7848 48.5896 57.2301C42.4727 57.6754 38.2471 68.6816 39.1514 81.8131C40.0556 94.9446 45.7474 105.229 51.8643 104.783Z" fill="#020202"/>
<path d="M57.1762 93.0322C55.7014 99.9976 52.5078 104.803 48.5079 105.098C42.3913 105.545 36.699 95.2794 35.776 82.1286C34.8529 68.9778 39.0969 57.9869 45.2135 57.5397C51.3301 57.0924 57.0277 67.3578 57.9454 80.5141C58.2622 84.7032 58.0032 88.9173 57.1762 93.0322Z" fill="#09254F"/>
<path d="M181.487 60.7851L181.302 60.2778C182.606 59.8048 183.852 59.1769 185.015 58.4069L185.318 58.8596C184.118 59.652 182.832 60.2981 181.487 60.7851Z" fill="#09254F"/>
<path d="M173.572 63.016L173.466 62.4705C174.565 62.2305 175.631 61.9796 176.649 61.7233L176.782 62.2687C175.753 62.5305 174.681 62.7814 173.572 63.016Z" fill="#09254F"/>
<path d="M159.626 65.1323L159.578 64.5868C159.604 64.5868 162.268 64.3468 165.886 63.8232L165.96 64.3686C162.326 64.865 159.652 65.1268 159.626 65.1323Z" fill="#09254F"/>
<path d="M164.527 72.7959L164.485 72.2504C164.485 72.2504 166.045 72.125 168.305 71.8086C172.671 71.1868 180.649 69.6923 185.026 66.6432L185.328 67.0905C180.861 70.205 172.793 71.7213 168.379 72.3486C166.098 72.6704 164.543 72.7959 164.527 72.7959Z" fill="#09254F"/>
<path d="M180.002 65.956L179.843 65.4105C181.669 64.8751 183.414 64.0801 185.026 63.0487L185.328 63.496C183.674 64.5698 181.881 65.3979 180.002 65.956Z" fill="#09254F"/>
<path d="M171.689 67.8923L171.631 67.3468C173.697 67.0584 175.742 66.6284 177.753 66.0596L177.885 66.605C175.849 67.1713 173.779 67.6013 171.689 67.8923Z" fill="#09254F"/>
<path d="M160.708 69.2287L160.676 68.6832C160.713 68.6832 164.14 68.465 168.48 67.8541L168.549 68.3996C164.177 69.0159 160.745 69.2287 160.708 69.2287Z" fill="#09254F"/>
<path d="M165.238 80.9286L165.196 80.3831C165.329 80.3831 178.644 79.3195 185.015 74.8741L185.318 75.3268C178.835 79.8486 165.801 80.8849 165.238 80.9286Z" fill="#09254F"/>
<path d="M165.238 77.1486L165.196 76.6032C165.329 76.6032 178.644 75.5122 185.015 71.0886L185.318 71.5413C178.835 76.0686 165.801 77.105 165.238 77.1486Z" fill="#09254F"/>
<path d="M159.615 89.8303V89.2849C159.753 89.2849 173.864 88.4449 180.893 85.1395L181.116 85.6304C173.965 88.9849 159.758 89.8194 159.615 89.8303Z" fill="#09254F"/>
<path d="M165.939 97.2975L165.901 96.7521C166.029 96.7521 178.633 95.7812 185.026 91.3412L185.328 91.7885C178.835 96.3157 166.066 97.2866 165.939 97.2975Z" fill="#09254F"/>
<path d="M165.939 93.2994L165.901 92.7539C166.029 92.7539 178.633 91.7885 185.026 87.3431L185.328 87.7958C178.835 92.323 166.066 93.2939 165.939 93.2994Z" fill="#09254F"/>
<path d="M159.615 104.727V104.181C159.753 104.181 173.864 103.347 180.893 100.036L181.116 100.532C173.965 103.887 159.758 104.721 159.615 104.727Z" fill="#09254F"/>
<path d="M165.939 112.194L165.901 111.648C166.029 111.648 178.633 110.683 185.026 106.237L185.328 106.69C178.835 111.228 166.066 112.183 165.939 112.194Z" fill="#09254F"/>
<path d="M165.939 108.201L165.901 107.656C166.029 107.656 178.633 106.685 185.026 102.245L185.328 102.692C178.835 107.219 166.066 108.19 165.939 108.201Z" fill="#09254F"/>
<path d="M57.1762 93.0322L45.2294 79.4723V57.5397C51.3461 57.0924 57.0436 67.3578 57.9614 80.5141C58.2729 84.704 58.0086 88.9181 57.1762 93.0322Z" fill="#09254F"/>
<path d="M57.1762 93.0322L45.2294 79.4723V57.5397C51.3461 57.0924 57.0436 67.3578 57.9614 80.5141C58.2729 84.704 58.0086 88.9181 57.1762 93.0322Z" fill="white"/>
<path d="M57.1762 93.0322L45.2294 79.4723V57.5397C51.3461 57.0924 57.0436 67.3578 57.9614 80.5141C58.2729 84.704 58.0086 88.9181 57.1762 93.0322Z" fill="#09254F"/>
<path opacity="0.29" d="M57.1762 93.0322L45.2294 79.4723V57.5397C51.3461 57.0924 57.0436 67.3578 57.9614 80.5141C58.2729 84.704 58.0086 88.9181 57.1762 93.0322Z" fill="#020202"/>
<path d="M95.5894 147.55C95.5894 147.55 94.1465 148.728 94.4011 150.059C94.6558 151.39 99.6159 160.723 106.937 159.774C114.258 158.824 102.39 151.27 102.39 151.27L95.5894 147.55Z" fill="#09254F"/>
<path d="M97.8653 144.163C98.1647 144.181 98.448 144.308 98.664 144.523C98.88 144.737 99.0144 145.023 99.043 145.33C99.1703 146.454 100.406 148.657 102.311 149.219C104.215 149.781 105.982 148.183 106.825 148.674C107.669 149.164 109.982 155.639 109.308 157.455C108.634 159.272 105.69 159.184 103.08 157.886C100.47 156.588 95.7592 151.488 95.425 149.497C95.0908 147.506 96.8043 144.681 97.8653 144.163Z" fill="white"/>
<path d="M45.2294 57.5396L49.5424 57.2505C49.5424 57.2505 56.6776 56.9778 60.2425 72.8177C61.8565 79.6401 61.871 86.7592 60.2849 93.5885L57.1762 93.0431C57.1762 93.0431 60.0886 60.7469 45.2294 57.5396Z" fill="#09254F"/>
<path opacity="0.62" d="M45.2294 57.5396L49.5424 57.2505C49.5424 57.2505 56.6776 56.9778 60.2425 72.8177C61.8565 79.6401 61.871 86.7592 60.2849 93.5885L57.1762 93.0431C57.1762 93.0431 60.0886 60.7469 45.2294 57.5396Z" fill="#020202"/>
</g>
<defs>
<linearGradient id="paint0_linear" x1="18.5773" y1="54.7197" x2="127.067" y2="-25.4141" gradientUnits="userSpaceOnUse">
<stop offset="0.01"/>
<stop offset="0.13" stop-opacity="0.69"/>
<stop offset="0.25" stop-opacity="0.32"/>
<stop offset="1" stop-opacity="0"/>
</linearGradient>
<linearGradient id="paint1_linear" x1="-4652.73" y1="35135.3" x2="28117.9" y2="27141.9" gradientUnits="userSpaceOnUse">
<stop offset="0.01"/>
<stop offset="0.13" stop-opacity="0.69"/>
<stop offset="0.25" stop-opacity="0.32"/>
<stop offset="1" stop-opacity="0"/>
</linearGradient>
<linearGradient id="paint2_linear" x1="11159.8" y1="3408.86" x2="4461.61" y2="-2903.43" gradientUnits="userSpaceOnUse">
<stop offset="0.01"/>
<stop offset="0.13" stop-opacity="0.69"/>
<stop offset="0.25" stop-opacity="0.32"/>
<stop offset="1" stop-opacity="0"/>
</linearGradient>
<linearGradient id="paint3_linear" x1="22123.8" y1="23380.3" x2="-1939.71" y2="21991.8" gradientUnits="userSpaceOnUse">
<stop offset="0.01"/>
<stop offset="0.13" stop-opacity="0.69"/>
<stop offset="0.25" stop-opacity="0.32"/>
<stop offset="1" stop-opacity="0"/>
</linearGradient>
<linearGradient id="paint4_linear" x1="14702.4" y1="12142.5" x2="2640.2" y2="14420.2" gradientUnits="userSpaceOnUse">
<stop offset="0.01"/>
<stop offset="0.13" stop-opacity="0.69"/>
<stop offset="0.25" stop-opacity="0.32"/>
<stop offset="1" stop-opacity="0"/>
</linearGradient>
<linearGradient id="paint5_linear" x1="15282" y1="15210.5" x2="7494.75" y2="15181.4" gradientUnits="userSpaceOnUse">
<stop offset="0.01"/>
<stop offset="0.13" stop-opacity="0.69"/>
<stop offset="0.25" stop-opacity="0.32"/>
<stop offset="1" stop-opacity="0"/>
</linearGradient>
<clipPath id="clip0">
<rect width="230.388" height="178.537" fill="white"/>
</clipPath>
</defs>
</svg>
