<svg width="230" height="179" viewBox="0 0 230 179" fill="none" xmlns="http://www.w3.org/2000/svg">
<g clip-path="url(#clip0)">
<path opacity="0.18" d="M198.72 169.194C194.366 171.643 189.757 173.574 184.982 174.952C162.47 181.519 139.242 179.42 116.96 173.43C104.867 170.178 91.6383 165.748 79.0473 166.431C69.9453 166.92 61.2075 170.51 51.8992 170.466C36.5836 170.403 25.7644 162.321 15.1758 151.124C4.34451 139.664 2.97922 117.477 5.11514 102C7.42097 85.2831 14.9938 69.4872 26.2499 57.9018C31.2924 52.7012 37.0084 48.3841 42.4089 43.6409C58.7135 29.3801 72.9611 10.9901 92.7124 3.60279C112.464 -3.78453 134.399 1.2782 154.12 8.95374C169.29 14.8498 184.994 23.3023 192.409 38.904C196.723 47.9768 197.719 58.5409 201.62 67.8393C211.408 91.1604 230.043 102.708 224.83 131.23C223.866 137.012 222.1 142.621 219.588 147.884C214.94 157.208 207.385 164.301 198.72 169.194Z" fill="#09254F"/>
<path d="M126.28 129.162L158.198 144.2C158.876 144.519 159.65 144.547 160.348 144.278C161.046 144.009 161.613 143.465 161.924 142.765L170.085 124.3C170.242 123.956 170.329 123.583 170.34 123.203C170.361 122.628 170.217 122.059 169.925 121.569C169.634 121.078 169.208 120.688 168.702 120.447L136.784 105.409C136.449 105.241 136.085 105.145 135.713 105.125C135.341 105.106 134.97 105.163 134.62 105.294C134.27 105.424 133.949 105.626 133.675 105.887C133.402 106.148 133.182 106.462 133.028 106.812L124.86 125.29C124.706 125.637 124.619 126.012 124.604 126.393C124.59 126.775 124.649 127.155 124.777 127.513C124.906 127.871 125.102 128.2 125.353 128.479C125.605 128.759 125.908 128.985 126.244 129.143L126.28 129.162Z" fill="#09254F"/>
<path d="M126.28 129.162L158.198 144.2C158.876 144.519 159.65 144.547 160.348 144.278C161.046 144.009 161.613 143.465 161.924 142.765L170.085 124.3C170.242 123.956 170.329 123.583 170.34 123.203C170.361 122.628 170.217 122.059 169.925 121.569C169.634 121.078 169.208 120.688 168.702 120.447L136.784 105.409C136.449 105.241 136.085 105.145 135.713 105.125C135.341 105.106 134.97 105.163 134.62 105.294C134.27 105.424 133.949 105.626 133.675 105.887C133.402 106.148 133.182 106.462 133.028 106.812L124.86 125.29C124.706 125.637 124.619 126.012 124.604 126.393C124.59 126.775 124.649 127.155 124.777 127.513C124.906 127.871 125.102 128.2 125.353 128.479C125.605 128.759 125.908 128.985 126.244 129.143L126.28 129.162Z" fill="url(#paint0_linear)"/>
<path d="M124.806 128.473L156.723 143.511C157.401 143.83 158.174 143.859 158.872 143.591C159.57 143.323 160.137 142.781 160.449 142.082L168.611 123.611C168.764 123.268 168.851 122.898 168.865 122.521C168.886 121.945 168.741 121.375 168.448 120.884C168.155 120.394 167.728 120.004 167.221 119.764L135.309 104.726C134.631 104.407 133.858 104.379 133.159 104.648C132.461 104.917 131.894 105.461 131.584 106.161L123.416 124.632C123.108 125.332 123.081 126.129 123.341 126.849C123.602 127.57 124.129 128.154 124.806 128.473Z" fill="#09254F"/>
<path d="M169.952 121.612L160.176 95.0953L134.387 105.44L167.458 126.23L169.952 121.612Z" fill="#09254F"/>
<path d="M132.913 104.776L142.894 127.333L169.964 121.625L160.188 95.1078C160.188 95.1078 133.641 104.387 132.913 104.776Z" fill="url(#paint1_linear)"/>
<path d="M152.197 125.597L154.806 142.609L124.812 128.473L139.314 119.25L142.882 127.32L152.197 125.597Z" fill="url(#paint2_linear)"/>
<path d="M148.677 30.2385H90.1699C85.0559 30.2385 80.9102 34.5194 80.9102 39.8001V45.4831C80.9102 50.7638 85.0559 55.0446 90.1699 55.0446H148.677C153.791 55.0446 157.937 50.7638 157.937 45.4831V39.8001C157.937 34.5194 153.791 30.2385 148.677 30.2385Z" fill="white"/>
<path d="M161.681 57.9457H103.174C98.0595 57.9457 93.9138 62.2265 93.9138 67.5072V73.1903C93.9138 78.4709 98.0595 82.7518 103.174 82.7518H161.681C166.795 82.7518 170.941 78.4709 170.941 73.1903V67.5072C170.941 62.2265 166.795 57.9457 161.681 57.9457Z" fill="white"/>
<path d="M144.678 86.3107H86.1711C81.0571 86.3107 76.9114 90.5916 76.9114 95.8723V101.555C76.9114 106.836 81.0571 111.117 86.1711 111.117H144.678C149.792 111.117 153.938 106.836 153.938 101.555V95.8723C153.938 90.5916 149.792 86.3107 144.678 86.3107Z" fill="white"/>
<path opacity="0.18" d="M99.3689 98.8861C99.3689 100.745 98.8351 102.562 97.835 104.108C96.8348 105.653 95.4133 106.858 93.7501 107.569C92.087 108.281 90.2569 108.467 88.4913 108.104C86.7257 107.741 85.1038 106.846 83.8309 105.532C82.558 104.217 81.6911 102.543 81.3399 100.72C80.9887 98.8965 81.1689 97.0067 81.8579 95.2894C82.5468 93.572 83.7134 92.1041 85.2102 91.0714C86.707 90.0387 88.4668 89.4874 90.267 89.4874C91.4559 89.4808 92.6344 89.7161 93.7353 90.1798C94.8361 90.6435 95.8377 91.3266 96.6829 92.1901C97.5281 93.0535 98.2004 94.0804 98.6612 95.2121C99.1221 96.3438 99.3626 97.5581 99.3689 98.7858V98.8861Z" fill="#09254F"/>
<path opacity="0.34" d="M90.0182 100.866C91.5061 100.866 92.7123 99.6206 92.7123 98.0841C92.7123 96.5477 91.5061 95.3021 90.0182 95.3021C88.5302 95.3021 87.324 96.5477 87.324 98.0841C87.324 99.6206 88.5302 100.866 90.0182 100.866Z" fill="#09254F"/>
<path opacity="0.34" d="M95.8859 106.28C94.2138 107.635 92.1352 108.343 90.0105 108.281C87.8859 108.219 85.8492 107.391 84.2536 105.941C84.6602 104.657 85.4582 103.542 86.5285 102.764C87.5987 101.987 88.8838 101.587 90.1921 101.625C91.5004 101.663 92.7617 102.137 93.7878 102.976C94.814 103.815 95.5499 104.974 95.8859 106.28Z" fill="#09254F"/>
<path opacity="0.18" d="M146.754 91.5489H108.374V93.9737H146.754V91.5489Z" fill="#09254F"/>
<path opacity="0.18" d="M146.754 95.8535H108.374V98.2784H146.754V95.8535Z" fill="#09254F"/>
<path opacity="0.18" d="M146.754 100.158H108.374V102.583H146.754V100.158Z" fill="#09254F"/>
<path opacity="0.18" d="M146.754 104.463H108.374V106.888H146.754V104.463Z" fill="#09254F"/>
<path opacity="0.18" d="M95.7828 162.333C130.904 162.333 159.375 158.751 159.375 154.332C159.375 149.913 130.904 146.33 95.7828 146.33C60.6617 146.33 32.1904 149.913 32.1904 154.332C32.1904 158.751 60.6617 162.333 95.7828 162.333Z" fill="#09254F"/>
<path d="M55.7159 151.769C55.1759 152.195 54.7026 152.928 54.9878 153.574C55.273 154.219 56.0436 154.307 56.6989 154.325C59.1775 154.392 61.6552 154.165 64.0837 153.649C64.1559 153.642 64.2241 153.611 64.2778 153.561C64.3266 153.497 64.3504 153.417 64.3446 153.335C64.5246 151.776 64.6016 150.206 64.5752 148.636C63.2402 148.248 61.6929 148.718 60.4975 149.35C58.9623 150.134 57.0812 150.679 55.7159 151.769Z" fill="#09254F"/>
<path d="M80.9466 150.823C81.4866 151.255 81.966 151.988 81.6808 152.627C81.3956 153.267 80.6189 153.367 79.9636 153.379C77.4842 153.443 75.0061 153.21 72.5788 152.684C72.5066 152.677 72.4384 152.646 72.3847 152.596C72.3409 152.53 72.3196 152.451 72.324 152.371C72.138 150.812 72.0609 149.241 72.0934 147.671C73.4284 147.277 74.9757 147.753 76.1711 148.386C77.7063 149.194 79.5813 149.739 80.9466 150.823Z" fill="#09254F"/>
<path d="M60.898 106.555V149.068C60.898 149.068 63.1917 149.914 64.5873 149.068L68.9198 113.253L71.9538 148.479C71.9538 148.479 74.381 149.068 76.2014 148.223L78.0218 106.242C78.0218 106.242 67.2694 103.742 60.898 106.555Z" fill="#473F47"/>
<path d="M92.148 83.4724C90.989 88.2782 91.0072 90.6279 89.2415 95.2332C88.7682 96.4863 88.0279 97.8648 86.7536 98.0214C85.7827 98.1405 84.8907 97.4701 84.1201 96.8435C82.0044 95.1016 79.8826 93.3597 77.7548 91.6178C77.5402 96.8174 77.7024 102.026 78.2402 107.201C75.3033 108.799 72.2087 110.434 68.8895 110.334C66.8037 110.181 64.767 109.609 62.8943 108.648C62.4392 108.448 61.9963 108.241 61.5533 108.022C61.3918 107.965 61.2502 107.861 61.1468 107.721C60.54 106.743 60.8252 104.287 60.7766 103.128C60.7038 101.361 60.6188 99.5879 60.5339 97.8147C60.4975 97.1881 60.4671 96.6054 60.4247 95.9976C60.273 93.1216 60.097 90.2582 59.8179 87.3822C59.8664 87.8772 59.3871 88.7669 59.2111 89.2619C58.9866 90.0389 58.7621 90.8284 58.5315 91.6116C58.2841 92.3242 58.0815 93.0526 57.9247 93.7921C57.7912 94.6881 58.2099 95.5465 58.1553 96.4675C58.1515 96.8524 58.062 97.2312 57.8936 97.5745C57.7253 97.9179 57.4826 98.2166 57.1844 98.4475C56.2438 99.0741 55.0121 98.6856 53.9866 98.2345C53.4132 98.0595 52.9146 97.6883 52.5727 97.1818C52.3492 96.6074 52.3172 95.9726 52.4817 95.3773C52.9566 92.044 53.7974 88.7773 54.9878 85.6403C56.0133 82.8959 57.0205 79.9009 59.8421 78.6728C61.3045 78.0462 63.046 78.0024 64.6116 77.971L70.1213 77.8582C71.8693 77.731 73.6259 77.8725 75.3337 78.2781C77.5728 78.9046 78.9745 80.634 80.2427 82.545C81.8203 84.9427 83.3009 87.4114 84.6844 89.9512C85.6674 86.5739 85.5643 85.703 86.7536 82.4009C88.5843 82.5531 90.3933 82.9124 92.148 83.4724Z" fill="#09254F"/>
<path d="M68.6529 96.9061C68.3483 97.3194 67.9542 97.6531 67.5021 97.8805C67.05 98.108 66.5525 98.2227 66.0497 98.2157C65.2376 98.2464 64.4275 98.3196 63.6225 98.435C63.4008 98.4595 63.1903 98.5486 63.0157 98.6919C62.8902 98.8518 62.8047 99.0411 62.7669 99.2432C62.0084 102.169 62.7002 105.258 62.9429 108.272C62.9672 108.396 62.9545 108.525 62.9065 108.642C62.4514 108.441 62.0084 108.235 61.5655 108.015C61.404 107.959 61.2624 107.854 61.1589 107.715C60.5521 106.737 60.8373 104.281 60.7888 103.122C60.716 101.355 60.631 99.5816 60.5461 97.8084C60.5096 97.1818 60.4793 96.5991 60.4368 95.9913C60.5764 95.9537 60.722 95.9287 60.8616 95.9036L64.7754 95.2144C65.7402 95.0389 67.2026 94.4499 68.1674 94.8259C69.1322 95.2018 69.1019 96.1605 68.6529 96.9061Z" fill="url(#paint3_linear)"/>
<path d="M64.4477 77.9522C65.3701 77.1126 66.2196 75.5649 66.0497 74.2491C65.8798 72.9333 64.9514 71.5486 64.4113 70.3017C64.1383 69.6751 63.8652 68.9044 64.1929 68.2904C64.3889 68.016 64.6104 67.762 64.8543 67.5322C65.4126 66.9056 65.5642 65.9908 65.9344 65.2202C66.2318 64.621 66.6696 64.1081 67.208 63.7284C67.7464 63.3486 68.3683 63.114 69.0169 63.0459C69.6673 62.997 70.3184 63.1294 70.9023 63.4292C71.4862 63.729 71.9814 64.1852 72.3361 64.7502C72.6633 65.3546 72.8832 66.0146 72.9854 66.6989C73.3291 68.5219 73.3517 70.394 73.0521 72.2253C72.9669 72.8602 72.7607 73.4714 72.4453 74.0235C72.2873 74.2973 72.0683 74.5281 71.8066 74.697C71.5449 74.8659 71.248 74.968 70.9405 74.9947C70.6189 74.9947 70.2487 74.9195 70.0242 75.1514C69.9219 75.2654 69.8581 75.4104 69.8422 75.5649C69.758 76.0112 69.8111 76.4734 69.9939 76.887C70.2079 77.4099 70.3627 77.9565 70.455 78.5161C70.5764 79.1113 70.6553 79.8256 70.2123 80.2204C69.9348 80.4224 69.5984 80.5197 69.2597 80.4961C68.3207 80.4908 67.3961 80.2578 66.5603 79.816C65.7245 79.3741 65.0009 78.7357 64.4477 77.9522Z" fill="#FCBDBA"/>
<path d="M70.5036 88.5038L74.6541 74.7129L55.4671 79.6315L65.9708 94.732L70.5036 88.5038Z" fill="url(#paint4_linear)"/>
<path d="M74.3264 61.655C74.2125 61.2269 73.9906 60.8377 73.6832 60.5272C73.2538 60.0813 72.7175 59.7611 72.129 59.5993C71.5405 59.4374 70.921 59.4398 70.3337 59.6061C69.7754 59.769 69.2596 60.0823 68.7075 60.2765C67.7378 60.5019 66.7512 60.6403 65.7584 60.6901C64.7754 60.8342 63.7257 61.2477 63.2645 62.1563C63.0297 62.789 62.8866 63.4541 62.8397 64.13C62.5121 65.8531 61.3167 67.5636 61.9295 69.2052C62.5424 70.8469 64.8664 72.1063 65.8191 73.4847C66.0618 72.8958 65.7706 71.7178 65.5218 71.1288C65.3132 71.1392 65.1071 71.0795 64.9342 70.9586C64.7613 70.8377 64.6311 70.6622 64.563 70.4584C64.3782 70.1465 64.2756 69.7901 64.2657 69.4245C64.2439 69.2425 64.2644 69.0577 64.3256 68.8856C64.3868 68.7134 64.487 68.5588 64.6177 68.4346C64.7849 68.3552 64.9743 68.3413 65.1507 68.3955C65.3271 68.4497 65.4784 68.5682 65.5764 68.729C65.7626 69.0606 65.8629 69.4361 65.8677 69.8193C67.0812 68.6225 65.7524 66.1977 66.8446 64.8756C67.681 65.1897 68.539 65.4389 69.4113 65.6212C70.3343 65.7049 71.2638 65.5809 72.1359 65.2578C73.3677 64.7691 74.6541 63.0711 74.3264 61.655Z" fill="#FC682D"/>
<path d="M54.9635 93.4975C54.3913 93.7425 53.8972 94.1484 53.5375 94.6692C53.3295 95.0333 53.2162 95.4469 53.2088 95.8696C53.2013 96.2923 53.3 96.7098 53.4951 97.0815C53.6975 97.4479 53.9696 97.7683 54.2949 98.0235C54.6203 98.2787 54.9921 98.4634 55.3883 98.5665C56.529 98.8798 57.7366 98.5665 58.8834 98.2658L62.9793 97.1755C63.0892 97.1579 63.191 97.1054 63.2705 97.0251C63.3063 96.9523 63.3249 96.8718 63.3249 96.7902C63.3249 96.7085 63.3063 96.628 63.2705 96.5552C63.0096 95.5276 62.8397 94.4123 62.4817 93.4223C62.1601 92.5451 61.7778 92.5514 60.8798 92.5263C58.9137 92.4887 56.7718 92.5827 54.9635 93.4975Z" fill="#09254F"/>
<path d="M88.9381 83.9924C89.1117 84.0041 89.2847 83.9626 89.4356 83.8734C89.5442 83.7896 89.6317 83.68 89.6905 83.5538C89.9633 83.0658 90.1096 82.5133 90.1153 81.9498C90.0957 81.6756 90.1224 81.4 90.1941 81.1353C90.2767 80.9622 90.3763 80.7984 90.4915 80.6465C90.9094 79.8233 91.0563 78.8819 90.9102 77.9648C90.9097 77.6146 90.8438 77.2678 90.716 76.9435C90.5935 76.6995 90.4218 76.4854 90.2125 76.3158C90.0031 76.1461 89.761 76.0247 89.5024 75.9597C88.9845 75.8293 88.4511 75.7765 87.9187 75.8031C87.575 75.7716 87.2292 75.8276 86.9114 75.966C86.4502 76.2041 86.2075 77.2755 86.1165 77.7705C85.9735 78.5858 86.1269 79.427 86.5473 80.1327C86.6855 80.3283 86.8034 80.5383 86.8992 80.7593C87.1541 81.4736 86.5534 82.4949 86.9963 83.1152C87.2475 83.3871 87.5485 83.6047 87.8818 83.7553C88.2152 83.9059 88.5743 83.9865 88.9381 83.9924Z" fill="#FCBDBA"/>
<path d="M96.9781 66.041V80.966C96.4943 80.4015 95.96 79.8855 95.3822 79.4247C92.942 77.4193 89.9484 76.2654 86.8325 76.1289C86.2819 76.1191 85.7451 75.9493 85.2836 75.639C84.8221 75.3288 84.4546 74.8905 84.2233 74.3745C83.9987 73.8515 83.9129 73.2763 83.9745 72.7078C84.0851 71.9904 84.446 71.3395 84.9892 70.8778C85.5325 70.4162 86.2204 70.1756 86.9235 70.2015C88.5619 70.1326 91.7779 69.506 96.9781 66.041Z" fill="#09254F"/>
<path d="M97.6395 80.9348C99.6972 80.9348 101.365 77.5993 101.365 73.4848C101.365 69.3703 99.6972 66.0348 97.6395 66.0348C95.5819 66.0348 93.9138 69.3703 93.9138 73.4848C93.9138 77.5993 95.5819 80.9348 97.6395 80.9348Z" fill="#09254F"/>
<path d="M97.6395 80.9348C99.6972 80.9348 101.365 77.5993 101.365 73.4848C101.365 69.3703 99.6972 66.0348 97.6395 66.0348C95.5819 66.0348 93.9138 69.3703 93.9138 73.4848C93.9138 77.5993 95.5819 80.9348 97.6395 80.9348Z" fill="url(#paint5_linear)"/>
<path d="M94.2597 70.3456L97.6395 71.4358V75.1953L94.2294 76.486C93.8303 74.4588 93.8407 72.3685 94.2597 70.3456Z" fill="url(#paint6_linear)"/>
<path d="M87.7427 79.7129H89.8483V81.6239C89.8483 81.9131 89.737 82.1904 89.539 82.3949C89.341 82.5993 89.0725 82.7142 88.7924 82.7142C88.5124 82.7142 88.2439 82.5993 88.0459 82.3949C87.8479 82.1904 87.7366 81.9131 87.7366 81.6239V79.7129H87.7427Z" fill="#09254F"/>
<path d="M97.6395 75.1953C98.1121 75.1953 98.4951 74.3537 98.4951 73.3156C98.4951 72.2774 98.1121 71.4359 97.6395 71.4359C97.167 71.4359 96.784 72.2774 96.784 73.3156C96.784 74.3537 97.167 75.1953 97.6395 75.1953Z" fill="#09254F"/>
<path d="M95.3822 79.3933C92.942 77.388 89.9484 76.234 86.8325 76.0975C86.2819 76.0878 85.7451 75.918 85.2836 75.6077C84.8221 75.2974 84.4546 74.8592 84.2233 74.3431C84.3021 74.4309 85.2063 75.3206 87.7487 74.8757C90.4186 74.4058 94.108 75.8031 94.108 75.8031L95.3822 79.3933Z" fill="url(#paint7_linear)"/>
<path d="M68.2584 95.6216H65.6978C65.6037 95.6258 65.5098 95.6108 65.4213 95.5774C65.3329 95.5441 65.2517 95.4931 65.1824 95.4274C65.1131 95.3616 65.057 95.2824 65.0173 95.1942C64.9777 95.106 64.9553 95.0106 64.9514 94.9135C64.9366 94.8307 64.9366 94.7457 64.9514 94.6629L66.165 89.1302C66.227 88.8645 66.3714 88.627 66.5763 88.454C66.7812 88.2809 67.0352 88.1817 67.2997 88.1716H69.8543C69.9491 88.1682 70.0437 88.1842 70.1325 88.2186C70.2214 88.253 70.3028 88.3052 70.3721 88.3721C70.4414 88.439 70.4973 88.5194 70.5365 88.6086C70.5757 88.6979 70.5975 88.7942 70.6007 88.8921C70.6129 88.971 70.6129 89.0514 70.6007 89.1302L69.3871 94.6629C69.3253 94.9276 69.1818 95.1643 68.9782 95.3373C68.7745 95.5103 68.5219 95.6101 68.2584 95.6216Z" fill="#473F47"/>
<path d="M64.824 91.6178C64.9026 91.487 64.9919 91.3633 65.091 91.2481C65.227 91.1044 65.4121 91.0212 65.6067 91.0163C65.6274 91.0144 65.6482 91.0168 65.668 91.0232C65.6878 91.0297 65.7061 91.0401 65.722 91.0539C65.7393 91.0828 65.7516 91.1146 65.7584 91.1479C65.7888 91.3296 65.8009 91.5113 65.8434 91.6867C65.8777 91.8674 65.967 92.032 66.0982 92.1567C66.3713 92.3885 66.8992 92.2381 67.2147 92.2005L68.5497 92.0439C68.6851 92.0068 68.8268 92.0016 68.9644 92.0288C69.102 92.0559 69.2319 92.1146 69.3446 92.2005C69.6055 92.4637 69.4902 92.9086 69.3446 93.2594C68.938 94.2996 68.4041 95.4337 67.3846 95.8284C66.171 96.3046 64.8118 95.5339 63.5315 95.7407C62.8155 95.8535 62.0206 96.1354 61.5958 95.3146C61.4716 95.0917 61.4124 94.8366 61.4254 94.5798C61.4383 94.323 61.5227 94.0756 61.6686 93.8672C62.0617 93.5091 62.5167 93.2306 63.0096 93.0464C63.4231 92.8216 63.8152 92.5573 64.1808 92.2569C64.3734 92.1027 64.554 91.933 64.7208 91.7494L64.824 91.6178Z" fill="#FCBDBA"/>
<path opacity="0.18" d="M114.982 70.3455C114.969 72.8205 114.006 75.1893 112.304 76.9323C110.603 78.6754 108.301 79.6505 105.904 79.6439C103.507 79.6372 101.211 78.6494 99.5182 76.8969C97.8256 75.1445 96.8751 72.7704 96.8751 70.2954C96.8751 67.8204 97.8256 65.4463 99.5182 63.6939C101.211 61.9414 103.507 60.9536 105.904 60.9469C108.301 60.9403 110.603 61.9154 112.304 63.6585C114.006 65.4015 114.969 67.7703 114.982 70.2453V70.3455Z" fill="#09254F"/>
<path opacity="0.34" d="M105.643 72.3256C107.131 72.3256 108.337 71.08 108.337 69.5436C108.337 68.0071 107.131 66.7616 105.643 66.7616C104.155 66.7616 102.949 68.0071 102.949 69.5436C102.949 71.08 104.155 72.3256 105.643 72.3256Z" fill="#09254F"/>
<path opacity="0.34" d="M111.511 77.7391C109.839 79.0941 107.76 79.802 105.636 79.7402C103.511 79.6784 101.474 78.8508 99.8786 77.4008C100.285 76.1162 101.083 75.0018 102.153 74.2239C103.224 73.446 104.509 73.0462 105.817 73.0843C107.125 73.1223 108.387 73.5962 109.413 74.4351C110.439 75.274 111.175 76.433 111.511 77.7391Z" fill="#09254F"/>
<path opacity="0.18" d="M162.379 63.0084H123.999V65.4333H162.379V63.0084Z" fill="#09254F"/>
<path opacity="0.18" d="M162.379 67.313H123.999V69.7378H162.379V67.313Z" fill="#09254F"/>
<path opacity="0.18" d="M162.379 71.6176H123.999V74.0424H162.379V71.6176Z" fill="#09254F"/>
<path opacity="0.18" d="M162.379 75.9221H123.999V78.347H162.379V75.9221Z" fill="#09254F"/>
<path opacity="0.18" d="M102.943 42.6384C102.943 44.4973 102.409 46.3144 101.409 47.86C100.409 49.4056 98.9874 50.6103 97.3242 51.3216C95.661 52.033 93.8309 52.2191 92.0653 51.8565C90.2997 51.4938 88.6779 50.5987 87.405 49.2843C86.132 47.9698 85.2652 46.2952 84.9139 44.472C84.5627 42.6489 84.743 40.7591 85.4319 39.0417C86.1208 37.3244 87.2874 35.8565 88.7842 34.8238C90.281 33.791 92.0408 33.2398 93.841 33.2398C96.255 33.2398 98.5701 34.23 100.277 35.9926C101.984 37.7552 102.943 40.1458 102.943 42.6384Z" fill="#09254F"/>
<path opacity="0.34" d="M93.5861 44.6247C95.0741 44.6247 96.2803 43.3791 96.2803 41.8427C96.2803 40.3062 95.0741 39.0607 93.5861 39.0607C92.0982 39.0607 90.892 40.3062 90.892 41.8427C90.892 43.3791 92.0982 44.6247 93.5861 44.6247Z" fill="#09254F"/>
<path opacity="0.34" d="M99.4599 50.0383C97.7867 51.394 95.7064 52.1018 93.5804 52.0389C91.4544 51.9759 89.4169 51.1462 87.8216 49.6937C88.2272 48.4067 89.0254 47.2899 90.0969 46.5104C91.1684 45.731 92.4555 45.3307 93.7656 45.3695C95.0758 45.4083 96.3385 45.884 97.365 46.7256C98.3915 47.5673 99.1264 48.7294 99.4599 50.0383Z" fill="#09254F"/>
<path opacity="0.18" d="M150.328 35.3075H111.948V37.7323H150.328V35.3075Z" fill="#09254F"/>
<path opacity="0.18" d="M150.328 39.6121H111.948V42.0369H150.328V39.6121Z" fill="#09254F"/>
<path opacity="0.18" d="M150.328 43.9104H111.948V46.3352H150.328V43.9104Z" fill="#09254F"/>
<path opacity="0.18" d="M150.328 48.215H111.948V50.6398H150.328V48.215Z" fill="#09254F"/>
<path d="M153.823 34.1796C155.753 34.1796 157.318 32.5638 157.318 30.5706C157.318 28.5773 155.753 26.9615 153.823 26.9615C151.893 26.9615 150.328 28.5773 150.328 30.5706C150.328 32.5638 151.893 34.1796 153.823 34.1796Z" fill="#09254F"/>
<path d="M37.2208 81.6615L28.313 67.8769C28.2135 67.7321 28.1428 67.5683 28.1051 67.395C28.0673 67.2217 28.0633 67.0425 28.0932 66.8676C28.1232 66.6927 28.1864 66.5257 28.2794 66.3763C28.3723 66.2269 28.493 66.098 28.6346 65.9972L36.1589 60.853C36.2988 60.7577 36.4555 60.6917 36.62 60.6587C36.8707 60.6073 37.1305 60.6333 37.3669 60.7336C37.6033 60.834 37.8058 61.0041 37.9489 61.2227L46.8567 75.0073C46.9607 75.171 47.0287 75.3563 47.056 75.55C47.0832 75.7438 47.0691 75.9414 47.0145 76.1289C46.93 76.4242 46.7473 76.6793 46.4987 76.8494L39.0048 82.0312C38.7227 82.2258 38.3776 82.2974 38.0446 82.2305C37.7116 82.1636 37.4177 81.9636 37.2268 81.6741L37.2208 81.6615Z" fill="#09254F"/>
<path d="M37.2208 81.6615L28.313 67.8769C28.2135 67.7321 28.1428 67.5683 28.1051 67.395C28.0673 67.2217 28.0633 67.0425 28.0932 66.8676C28.1232 66.6927 28.1864 66.5257 28.2794 66.3763C28.3723 66.2269 28.493 66.098 28.6346 65.9972L36.1589 60.853C36.2988 60.7577 36.4555 60.6917 36.62 60.6587C36.8707 60.6073 37.1305 60.6333 37.3669 60.7336C37.6033 60.834 37.8058 61.0041 37.9489 61.2227L46.8567 75.0073C46.9607 75.171 47.0287 75.3563 47.056 75.55C47.0832 75.7438 47.0691 75.9414 47.0145 76.1289C46.93 76.4242 46.7473 76.6793 46.4987 76.8494L39.0048 82.0312C38.7227 82.2258 38.3776 82.2974 38.0446 82.2305C37.7116 82.1636 37.4177 81.9636 37.2268 81.6741L37.2208 81.6615Z" fill="url(#paint8_linear)"/>
<path d="M37.6273 82.3007L28.7195 68.5161C28.5301 68.2218 28.4614 67.8619 28.5285 67.5154C28.5956 67.1689 28.7931 66.864 29.0776 66.6677L36.5715 61.5423C36.7114 61.447 36.8681 61.381 37.0327 61.348C37.2824 61.297 37.5412 61.3234 37.7766 61.4237C38.0119 61.524 38.2133 61.6939 38.3555 61.912L47.2633 75.6966C47.453 75.9891 47.5225 76.3475 47.4565 76.6929C47.3905 77.0383 47.1944 77.3425 46.9113 77.5387L39.4113 82.6955C39.2692 82.791 39.1102 82.8566 38.9435 82.8884C38.7768 82.9203 38.6056 82.9178 38.4398 82.8812C38.274 82.8445 38.1169 82.7743 37.9775 82.6747C37.838 82.5751 37.719 82.448 37.6273 82.3007Z" fill="#09254F"/>
<path d="M47.4271 76.7931L36.8203 73.7792L37.0327 61.2979C37.2824 61.2469 37.5412 61.2732 37.7766 61.3735C38.0119 61.4738 38.2133 61.6437 38.3555 61.8618L47.2633 75.6464C47.3744 75.8116 47.447 76.001 47.4754 76.1999C47.5038 76.3988 47.4873 76.6019 47.4271 76.7931Z" fill="url(#paint9_linear)"/>
<path d="M36.8931 69.3055L29.2596 69.3243L37.6273 82.3007L40.6188 74.8569L36.8264 73.7792L36.8931 69.3055Z" fill="url(#paint10_linear)"/>
</g>
<defs>
<linearGradient id="paint0_linear" x1="142.84" y1="121.606" x2="209.534" y2="164.669" gradientUnits="userSpaceOnUse">
<stop offset="0.01"/>
<stop offset="0.08" stop-opacity="0.69"/>
<stop offset="0.21" stop-opacity="0.32"/>
<stop offset="1" stop-opacity="0"/>
</linearGradient>
<linearGradient id="paint1_linear" x1="9180.4" y1="-3010.32" x2="11746.1" y2="-9230.73" gradientUnits="userSpaceOnUse">
<stop offset="0.01"/>
<stop offset="0.08" stop-opacity="0.69"/>
<stop offset="0.21" stop-opacity="0.32"/>
<stop offset="1" stop-opacity="0"/>
</linearGradient>
<linearGradient id="paint2_linear" x1="22069.8" y1="3116.48" x2="18495.4" y2="7477.62" gradientUnits="userSpaceOnUse">
<stop offset="0.01"/>
<stop offset="0.08" stop-opacity="0.69"/>
<stop offset="0.21" stop-opacity="0.32"/>
<stop offset="1" stop-opacity="0"/>
</linearGradient>
<linearGradient id="paint3_linear" x1="850.95" y1="-2264.79" x2="1410.87" y2="-2062.66" gradientUnits="userSpaceOnUse">
<stop offset="0.01"/>
<stop offset="0.08" stop-opacity="0.69"/>
<stop offset="0.21" stop-opacity="0.32"/>
<stop offset="1" stop-opacity="0"/>
</linearGradient>
<linearGradient id="paint4_linear" x1="68.9441" y1="97.2508" x2="65.0914" y2="78.6014" gradientUnits="userSpaceOnUse">
<stop offset="0.01" stop-color="white"/>
<stop offset="1" stop-color="white" stop-opacity="0"/>
</linearGradient>
<linearGradient id="paint5_linear" x1="1203.58" y1="-2967.6" x2="1822.12" y2="-2818.94" gradientUnits="userSpaceOnUse">
<stop offset="0.01"/>
<stop offset="0.08" stop-opacity="0.69"/>
<stop offset="0.21" stop-opacity="0.32"/>
<stop offset="1" stop-opacity="0"/>
</linearGradient>
<linearGradient id="paint6_linear" x1="634.167" y1="-1155.31" x2="894.362" y2="-1099.88" gradientUnits="userSpaceOnUse">
<stop offset="0.01"/>
<stop offset="0.08" stop-opacity="0.69"/>
<stop offset="0.21" stop-opacity="0.32"/>
<stop offset="1" stop-opacity="0"/>
</linearGradient>
<linearGradient id="paint7_linear" x1="1877.81" y1="-802.289" x2="1876.53" y2="-965.853" gradientUnits="userSpaceOnUse">
<stop offset="0.01"/>
<stop offset="0.08" stop-opacity="0.69"/>
<stop offset="0.21" stop-opacity="0.32"/>
<stop offset="1" stop-opacity="0"/>
</linearGradient>
<linearGradient id="paint8_linear" x1="29901.5" y1="10443.2" x2="29120.6" y2="9552.9" gradientUnits="userSpaceOnUse">
<stop offset="0.01"/>
<stop offset="0.08" stop-opacity="0.69"/>
<stop offset="0.21" stop-opacity="0.32"/>
<stop offset="1" stop-opacity="0"/>
</linearGradient>
<linearGradient id="paint9_linear" x1="16745.9" y1="3624.13" x2="16077.7" y2="3873.6" gradientUnits="userSpaceOnUse">
<stop offset="0.01" stop-color="white"/>
<stop offset="1" stop-color="white" stop-opacity="0"/>
</linearGradient>
<linearGradient id="paint10_linear" x1="14291.2" y1="4722.8" x2="13600.9" y2="5778.28" gradientUnits="userSpaceOnUse">
<stop offset="0.01"/>
<stop offset="0.08" stop-opacity="0.69"/>
<stop offset="0.21" stop-opacity="0.32"/>
<stop offset="1" stop-opacity="0"/>
</linearGradient>
<clipPath id="clip0">
<rect width="230" height="179" fill="white"/>
</clipPath>
</defs>
</svg>
