<svg width="20" height="23" viewBox="0 0 20 23" fill="none" xmlns="http://www.w3.org/2000/svg">
<path d="M8.57143 2.84314H5.71429V0H8.57143V2.84314ZM14.2857 0H11.4286V2.84314H14.2857V0ZM5.71429 14.2157H8.57143V11.3725H5.71429V14.2157ZM20 8.52941V5.68627H17.1429V8.52941H20ZM20 14.2157V11.3725H17.1429V14.2157H20ZM11.4286 14.2157H14.2857V11.3725H11.4286V14.2157ZM20 0H17.1429V2.84314H20V0ZM11.4286 5.68627V2.84314H8.57143V5.68627H11.4286ZM2.85714 8.52941V5.68627H5.71429V2.84314H2.85714V1.42157C2.85714 0.639706 2.21429 0 1.42857 0C0.642857 0 0 0.639706 0 1.42157V21.3235C0 22.1054 0.642857 22.7451 1.42857 22.7451C2.21429 22.7451 2.85714 22.1054 2.85714 21.3235V11.3725H5.71429V8.52941H2.85714ZM14.2857 11.3725H17.1429V8.52941H14.2857V11.3725ZM8.57143 8.52941V11.3725H11.4286V8.52941H8.57143ZM5.71429 5.68627V8.52941H8.57143V5.68627H5.71429ZM11.4286 8.52941H14.2857V5.68627H11.4286V8.52941ZM14.2857 2.84314V5.68627H17.1429V2.84314H14.2857Z" fill="#09254F"/>
</svg>
