<svg width="101" height="86" viewBox="0 0 101 86" fill="none" xmlns="http://www.w3.org/2000/svg">
<path d="M55.25 0.375H75.25V10.375H55.25V0.375ZM5.25 25.375H25.25V35.375H5.25V25.375ZM5.25 65.375H25.25V75.375H5.25V65.375ZM0.25 45.375H20.2V55.375H0.25V45.375ZM98.785 18.91L91.715 11.84L83.18 20.375C77.7705 17.1058 71.5706 15.3769 65.25 15.375C45.955 15.375 30.25 31.08 30.25 50.375C30.25 69.67 45.955 85.375 65.25 85.375C84.545 85.375 100.25 69.67 100.25 50.375C100.245 41.6053 96.933 33.1601 90.975 26.725L98.785 18.91ZM70.25 55.375H60.25V30.165H70.25V55.375Z" fill="#3D9BE9"/>
</svg>
