<svg width="100" height="100" viewBox="0 0 100 100" fill="none" xmlns="http://www.w3.org/2000/svg">
<g clip-path="url(#clip0)">
<path d="M80.3375 0.912486C79.7514 0.326639 78.9567 -0.00247192 78.1281 -0.00247192C77.2994 -0.00247192 76.5047 0.326639 75.9187 0.912486L65.6249 11.2062L88.7937 34.375L99.0875 24.0875C99.3785 23.7972 99.6094 23.4524 99.7669 23.0727C99.9244 22.693 100.006 22.286 100.006 21.875C100.006 21.4639 99.9244 21.0569 99.7669 20.6773C99.6094 20.2976 99.3785 19.9528 99.0875 19.6625L80.3375 0.912486V0.912486ZM84.3749 38.7937L61.2062 15.625L20.5812 56.25H21.8749C22.7037 56.25 23.4986 56.5792 24.0847 57.1653C24.6707 57.7513 24.9999 58.5462 24.9999 59.375V62.5H28.1249C28.9537 62.5 29.7486 62.8292 30.3347 63.4153C30.9207 64.0013 31.2499 64.7962 31.2499 65.625V68.75H34.3749C35.2037 68.75 35.9986 69.0792 36.5847 69.6653C37.1707 70.2513 37.4999 71.0462 37.4999 71.875V75H40.6249C41.4537 75 42.2486 75.3292 42.8347 75.9153C43.4207 76.5013 43.7499 77.2962 43.7499 78.125V79.4187L84.3749 38.7937V38.7937ZM37.6999 85.4687C37.5684 85.119 37.5007 84.7486 37.4999 84.375V81.25H34.3749C33.5461 81.25 32.7513 80.9207 32.1652 80.3347C31.5792 79.7486 31.2499 78.9538 31.2499 78.125V75H28.1249C27.2961 75 26.5013 74.6707 25.9152 74.0847C25.3292 73.4986 24.9999 72.7038 24.9999 71.875V68.75H21.8749C21.0461 68.75 20.2513 68.4207 19.6652 67.8347C19.0792 67.2486 18.7499 66.4538 18.7499 65.625V62.5H15.6249C15.2513 62.4994 14.8809 62.4316 14.5312 62.3L13.4124 63.4125C13.1146 63.7124 12.8808 64.0696 12.7249 64.4625L0.224948 95.7125C-0.00236904 96.2804 -0.0580159 96.9025 0.0649057 97.5017C0.187827 98.101 0.483912 98.6509 0.916452 99.0835C1.34899 99.516 1.89897 99.8121 2.49819 99.935C3.09742 100.058 3.71955 100.002 4.28745 99.775L35.5374 87.275C35.9303 87.1192 36.2875 86.8853 36.5874 86.5875L37.6999 85.475V85.4687Z" fill="#3D9BE9"/>
</g>
<defs>
<clipPath id="clip0">
<rect width="100" height="100" fill="white"/>
</clipPath>
</defs>
</svg>
