<svg width="41" height="41" viewBox="0 0 41 41" fill="none" xmlns="http://www.w3.org/2000/svg">
<path d="M11.9583 29.0639L19.4972 29.0382L35.9519 12.7407C36.5976 12.095 36.9529 11.2374 36.9529 10.3252C36.9529 9.41291 36.5976 8.55533 35.9519 7.90958L33.2424 5.20016C31.9509 3.90866 29.6976 3.9155 28.4164 5.19504L11.9583 21.496V29.0639ZM30.8269 7.61575L33.5414 10.32L30.8132 13.0226L28.1038 10.3149L30.8269 7.61575ZM15.375 22.9207L25.6762 12.7168L28.3856 15.4262L18.0861 25.6267L15.375 25.6352V22.9207Z" fill="#091B48"/>
<path d="M8.54167 35.875H32.4583C34.3426 35.875 35.875 34.3426 35.875 32.4583V17.6505L32.4583 21.0672V32.4583H13.9366C13.8922 32.4583 13.846 32.4754 13.8016 32.4754C13.7453 32.4754 13.6889 32.46 13.6308 32.4583H8.54167V8.54167H20.2386L23.6553 5.125H8.54167C6.65737 5.125 5.125 6.65737 5.125 8.54167V32.4583C5.125 34.3426 6.65737 35.875 8.54167 35.875Z" fill="#091B48"/>
</svg>
