<svg width="41" height="41" viewBox="0 0 41 41" fill="none" xmlns="http://www.w3.org/2000/svg">
<path d="M30.75 18.7917V22.2083H37.5834V18.7917H30.75ZM27.3334 30.0837C28.9734 31.2967 31.1088 32.9025 32.8 34.1667C33.4834 33.2612 34.1667 32.3387 34.85 31.4333C33.1588 30.1692 31.0234 28.5633 29.3834 27.3333C28.7 28.2558 28.0167 29.1783 27.3334 30.0837ZM34.85 9.56666C34.1667 8.66124 33.4834 7.73874 32.8 6.83333C31.1088 8.09749 28.9734 9.70333 27.3334 10.9333C28.0167 11.8387 28.7 12.7612 29.3834 13.6667C31.0234 12.4367 33.1588 10.8479 34.85 9.56666ZM6.83335 15.375C4.95419 15.375 3.41669 16.9125 3.41669 18.7917V22.2083C3.41669 24.0875 4.95419 25.625 6.83335 25.625H8.54169V32.4583H11.9584V25.625H13.6667L22.2084 30.75V10.25L13.6667 15.375H6.83335ZM26.4792 20.5C26.4792 18.2279 25.4884 16.1779 23.9167 14.7771V26.2058C25.4884 24.8221 26.4792 22.7721 26.4792 20.5Z" fill="#F90000"/>
</svg>
